<?xml version="1.0" encoding="UTF-8" standalone="no"?>
<svg
   version="1.0"
   width="1177.000000pt"
   height="1702.000000pt"
   viewBox="0 0 1177.000000 1702.000000"
   preserveAspectRatio="xMidYMid meet"
   id="svg178"
   sodipodi:docname="b4218386e2d1cdfce5bc8fa6d9740b88.svg"
   xmlns:inkscape="http://www.inkscape.org/namespaces/inkscape"
   xmlns:sodipodi="http://sodipodi.sourceforge.net/DTD/sodipodi-0.dtd"
   xmlns="http://www.w3.org/2000/svg"
   xmlns:svg="http://www.w3.org/2000/svg">
  <defs
     id="defs182" />
  <sodipodi:namedview
     id="namedview180"
     pagecolor="#ffffff"
     bordercolor="#666666"
     borderopacity="1.0"
     inkscape:pageshadow="2"
     inkscape:pageopacity="0.0"
     inkscape:pagecheckerboard="0"
     inkscape:document-units="pt" />
  <g
     transform="translate(0.000000,1702.000000) scale(0.100000,-0.100000)"
     fill="#000000"
     stroke="none"
     id="g176">
    <path
       d="M4041 16952 c-5 -10 -7 -28 -4 -40 5 -20 1 -22 -36 -22 -30 0 -44 -5 -53 -20 -7 -11 -17 -20 -21 -20 -5 0 -23 -11 -39 -26 -17 -14 -37 -23 -44 -20 -7 3 -29 0 -49 -5 -26 -8 -41 -7 -48 0 -6 6 -19 11 -29 11 -10 0 -26 5 -36 11 -27 17 -70 -15 -92 -66 -16 -38 -94 -115 -116 -115 -5 0 -20 -9 -34 -20 -26 -21 -86 -27 -92 -10 -1 5 -32 12 -68 15 -68 6 -84 -1 -106 -40 -6 -11 -20 -21 -30 -23 -10 -2 -35 -20 -54 -41 -19 -20 -49 -43 -67 -50 -18 -7 -35 -21 -38 -30 -3 -10 -17 -24 -30 -31 -14 -7 -36 -32 -50 -54 -38 -64 -68 -95 -95 -98 -15 -2 -35 -17 -48 -35 -12 -18 -27 -33 -32 -33 -5 0 -30 -31 -55 -69 -26 -38 -53 -72 -60 -75 -8 -3 -19 -24 -25 -48 -7 -24 -17 -49 -23 -57 -15 -18 -50 -82 -83 -151 -14 -30 -34 -60 -45 -68 -10 -7 -19 -19 -19 -25 0 -7 -11 -25 -25 -41 -14 -16 -25 -37 -25 -46 0 -9 -3 -20 -7 -24 -11 -11 -43 -118 -43 -145 0 -32 -32 -131 -41 -131 -5 0 -18 -32 -30 -72 l-21 -72 22 -120 c12 -67 28 -133 35 -148 9 -19 10 -39 4 -65 -5 -21 -6 -60 -2 -86 3 -30 1 -57 -7 -71 -9 -19 -9 -42 4 -117 8 -52 16 -123 17 -159 l3 -65 -38 -21 c-21 -12 -45 -29 -54 -38 -16 -16 -15 -16 13 -2 41 22 62 20 120 -9 28 -13 58 -25 67 -25 10 0 22 -9 28 -19 8 -17 6 -20 -21 -26 -23 -5 -34 -3 -44 12 -11 15 -28 18 -108 18 -53 0 -98 -3 -101 -6 -4 -3 -16 -33 -28 -65 -19 -49 -22 -80 -23 -184 l0 -125 58 -125 c129 -277 159 -322 231 -356 28 -13 58 -24 67 -24 9 0 22 -7 29 -15 7 -8 44 -24 82 -36 60 -18 71 -24 83 -52 19 -46 33 -126 45 -252 22 -237 49 -446 75 -580 58 -294 105 -522 120 -575 8 -30 18 -100 21 -155 6 -96 5 -102 -23 -155 -18 -36 -42 -64 -70 -83 -22 -15 -85 -72 -140 -128 -81 -83 -125 -118 -257 -201 -189 -121 -283 -190 -392 -289 -46 -42 -117 -94 -163 -119 -126 -69 -447 -260 -531 -316 -41 -28 -114 -76 -162 -108 -153 -101 -476 -412 -674 -651 -56 -67 -183 -255 -227 -335 -101 -184 -159 -436 -217 -948 -65 -574 -79 -861 -56 -1202 9 -135 18 -303 20 -375 4 -140 37 -488 61 -648 19 -124 19 -249 0 -402 -44 -363 -66 -773 -45 -877 6 -35 34 -133 62 -218 53 -166 82 -292 73 -322 -6 -16 31 -226 71 -413 8 -38 41 -155 72 -260 37 -123 56 -208 56 -240 0 -53 -23 -111 -157 -400 -133 -287 -131 -276 -70 -355 41 -54 40 -75 -11 -159 -38 -63 -51 -108 -38 -124 6 -7 13 -37 16 -67 13 -125 35 -249 47 -271 17 -33 15 -148 -4 -244 -38 -186 -51 -322 -55 -605 -8 -464 -7 -506 17 -536 19 -24 21 -40 21 -163 0 -121 13 -340 26 -428 l5 -33 708 0 709 0 34 38 c45 50 175 259 184 297 4 17 15 42 25 57 22 30 25 94 7 101 -10 4 -9 8 2 16 10 7 11 11 3 11 -7 0 -13 12 -13 26 0 14 -4 23 -10 19 -13 -8 -12 20 4 137 12 85 51 201 74 218 4 3 22 25 40 50 173 238 197 266 264 301 33 17 38 24 38 53 0 19 13 58 28 87 36 69 45 92 32 84 -6 -4 -10 5 -10 20 0 49 37 98 83 109 15 3 27 11 27 16 0 19 17 10 28 -15 10 -22 14 -24 37 -13 20 9 31 9 45 0 15 -9 25 -8 47 3 29 15 87 11 110 -7 7 -5 26 -7 44 -3 27 6 35 3 54 -21 l23 -29 22 23 c24 26 43 28 61 6 7 -9 21 -13 34 -10 15 4 32 -4 55 -24 40 -36 43 -36 73 -7 18 19 28 22 47 15 14 -5 29 -16 33 -24 6 -11 17 -13 37 -9 19 4 37 1 53 -10 17 -11 31 -13 48 -7 13 5 50 12 81 16 54 7 58 6 74 -19 15 -23 18 -24 34 -10 26 23 55 18 89 -15 25 -25 31 -28 38 -15 6 10 28 17 58 19 54 4 85 -6 85 -29 0 -10 10 -15 31 -15 22 0 40 -9 59 -31 l29 -30 16 30 c10 19 23 31 36 31 25 0 61 -18 72 -37 7 -11 17 -8 53 13 40 23 48 25 75 14 16 -7 34 -21 40 -32 9 -17 13 -18 27 -5 46 40 120 42 135 4 4 -12 15 -11 63 5 68 23 110 18 152 -17 29 -24 30 -24 63 -8 31 16 192 34 219 25 14 -5 12 -59 -5 -125 -25 -97 -15 -158 29 -189 21 -15 83 -8 109 12 14 11 29 20 34 20 14 0 54 130 62 200 8 69 14 78 36 56 11 -11 25 -14 43 -10 36 9 33 9 65 -4 37 -16 45 -15 63 3 9 8 24 15 34 15 10 0 25 8 32 19 7 10 27 25 44 34 29 15 33 15 65 -5 18 -11 39 -27 45 -36 9 -13 13 -10 22 16 16 47 43 56 82 27 30 -22 35 -23 54 -10 11 8 39 15 62 15 36 0 43 3 48 25 15 59 122 69 171 15 10 -11 30 -20 45 -20 14 0 31 -5 37 -11 8 -8 25 2 65 40 29 28 62 51 74 51 11 0 25 5 30 10 13 13 84 -15 84 -33 0 -6 8 -2 18 9 33 42 78 49 137 24 11 -5 40 -11 65 -13 25 -2 52 -7 62 -11 12 -6 20 0 30 21 9 18 22 29 39 31 28 3 111 -30 142 -56 15 -14 17 -13 17 8 0 29 71 100 99 100 12 0 32 -11 44 -24 l22 -24 28 24 c16 13 35 24 43 24 21 0 56 -20 70 -39 10 -13 14 -10 28 17 17 34 51 43 74 20 9 -9 17 -7 33 11 45 48 105 66 211 64 53 -1 106 -7 118 -13 17 -9 25 -8 39 4 17 15 21 15 59 -5 23 -12 43 -29 45 -38 3 -11 7 -8 15 12 6 15 18 27 26 27 7 0 16 7 20 15 6 17 38 20 64 6 9 -4 30 -11 46 -15 23 -6 27 -4 23 8 -4 9 -3 16 1 16 4 0 20 11 35 25 15 14 27 22 27 18 0 -4 11 5 25 21 14 16 25 26 25 21 0 -4 7 -2 15 5 8 6 19 9 24 6 5 -4 16 3 24 14 9 13 23 19 38 18 15 -2 23 2 22 10 -2 6 4 12 12 12 7 0 18 6 22 14 4 8 38 19 77 25 61 9 71 8 83 -7 12 -15 13 -12 8 25 -4 24 -2 58 5 78 16 48 49 56 105 25 37 -20 51 -22 108 -17 76 7 156 43 184 83 10 14 29 39 42 55 13 16 32 64 43 107 18 70 19 85 8 167 -17 120 -15 201 5 231 9 13 45 55 80 93 78 83 118 101 298 142 147 33 197 62 197 114 0 23 7 36 103 192 37 61 83 125 102 142 83 73 124 18 125 -165 0 -96 4 -122 30 -199 17 -49 41 -106 55 -127 28 -42 89 -78 134 -78 51 0 83 -38 92 -106 14 -109 9 -331 -10 -516 -42 -391 -50 -655 -26 -853 4 -27 6 -59 6 -70 -2 -45 24 -215 70 -462 51 -278 69 -440 69 -639 l0 -124 605 0 605 0 0 43 c0 23 7 67 15 97 8 30 37 186 65 345 28 160 61 335 72 390 12 55 22 116 22 137 1 20 4 34 9 31 4 -2 7 -2 7 1 0 3 7 45 15 93 45 264 62 462 73 823 3 136 -7 165 -25 70 -5 -27 -14 -45 -22 -45 -19 0 -23 -32 -5 -39 11 -4 12 -10 5 -24 -6 -10 -9 -28 -9 -39 2 -15 8 -18 25 -15 17 3 23 0 23 -13 0 -11 -5 -15 -14 -12 -10 4 -17 -4 -21 -24 -4 -16 -11 -27 -16 -23 -5 3 -9 -1 -9 -10 0 -8 6 -16 13 -19 9 -3 9 -9 -1 -26 -7 -11 -8 -21 -3 -21 19 0 23 -41 5 -54 -16 -12 -21 -39 -27 -163 -1 -17 -5 -29 -8 -27 -11 6 -41 -34 -34 -45 11 -19 -5 -33 -23 -19 -13 11 -14 11 -7 -1 6 -11 4 -13 -8 -8 -10 3 -17 2 -17 -4 0 -5 -6 -9 -12 -8 -7 0 -23 -2 -35 -6 -19 -6 -20 -10 -11 -36 9 -26 32 -54 26 -31 -2 6 1 11 6 11 6 1 11 -10 13 -25 3 -16 0 -23 -7 -19 -14 9 -52 -4 -45 -16 4 -5 4 -9 1 -9 -10 0 -38 69 -33 82 2 7 0 21 -4 30 -7 13 -4 20 10 27 24 13 35 89 17 111 -7 8 -16 28 -20 44 -4 17 -14 35 -22 41 -13 9 -13 14 1 43 10 20 14 40 9 54 -12 36 -12 58 0 66 11 7 14 21 19 87 2 17 -5 51 -14 78 -10 28 -13 47 -7 47 7 0 9 18 5 49 -5 43 -3 51 19 70 l24 21 -21 21 c-16 16 -18 23 -9 34 7 8 9 18 6 23 -3 5 1 21 9 35 19 36 19 38 3 48 -8 6 -9 9 -2 9 8 0 9 11 3 37 -4 22 -4 40 1 43 11 7 1 24 -25 38 l-20 11 20 2 c11 1 25 1 30 -1 18 -3 -9 18 -30 24 -11 3 3 3 31 0 51 -5 52 -5 56 25 2 17 1 36 -3 42 -4 7 -3 23 2 36 11 28 12 97 2 107 -10 10 -45 -72 -41 -97 1 -12 -1 -27 -5 -34 -4 -6 -8 -23 -9 -37 -1 -14 -5 -23 -7 -20 -12 12 -49 129 -44 137 3 6 1 7 -4 4 -6 -4 -14 4 -17 17 -7 29 3 86 15 86 5 0 9 5 9 10 0 6 -6 10 -13 10 -17 0 -36 60 -37 115 -2 73 -4 83 -17 78 -7 -3 -13 -9 -13 -14 0 -5 -5 -9 -10 -9 -6 0 -8 10 -6 23 3 19 0 23 -17 23 -18 -1 -23 5 -25 38 -2 21 -10 49 -18 62 -9 12 -14 28 -13 36 2 7 -2 29 -9 49 -14 40 -23 139 -14 154 3 5 7 20 8 33 4 32 5 33 40 23 16 -4 55 -7 87 -5 31 1 55 -1 52 -6 -3 -5 -1 -11 5 -15 5 -3 10 1 10 10 0 15 3 14 29 -1 17 -10 29 -20 28 -23 -1 -3 4 -16 11 -27 6 -12 9 -24 6 -27 -3 -3 -3 -11 1 -17 4 -7 15 -2 32 14 19 20 35 25 69 24 44 -1 44 -1 55 -44 11 -44 29 -51 29 -11 0 14 25 46 65 86 36 35 78 84 95 109 l30 45 0 181 c0 360 -17 514 -83 771 -15 55 -40 186 -57 290 -31 193 -67 365 -77 365 -3 0 -2 -11 1 -25 10 -41 -8 -28 -22 15 -15 49 -15 63 -1 54 14 -8 4 24 -28 91 -13 28 -21 41 -17 30 3 -11 12 -39 19 -62 17 -55 6 -55 -20 0 -16 34 -27 44 -57 51 -21 5 -38 13 -38 18 0 9 -83 48 -103 48 -20 0 -77 69 -77 92 0 16 7 14 52 -17 62 -41 68 -42 65 -12 -4 45 32 37 93 -23 28 -27 46 -41 41 -31 -19 35 -113 111 -175 140 -59 29 -101 64 -124 106 -10 17 -11 15 -7 -15 5 -33 4 -33 -4 -7 -6 16 -7 35 -4 42 6 18 -33 104 -82 181 -33 51 -37 63 -32 103 6 53 40 259 62 376 8 44 14 125 14 180 l0 100 -18 -57 c-10 -32 -19 -76 -19 -98 -1 -45 -17 -74 -36 -63 -6 4 -19 6 -28 5 -10 -2 -19 6 -24 20 -8 28 -44 68 -61 68 -7 0 -13 6 -13 14 0 12 -51 116 -108 221 -5 11 -16 35 -22 53 -7 17 -16 32 -21 32 -5 0 -9 5 -9 11 0 7 -16 53 -36 103 -20 50 -47 127 -60 171 -29 101 -53 171 -71 211 -8 17 -14 37 -13 45 4 26 0 40 -9 34 -5 -3 -16 3 -23 14 -16 22 -59 31 -65 14 -3 -8 4 -13 17 -13 13 0 20 -5 17 -12 -2 -7 -13 -12 -23 -11 -10 1 -13 0 -6 -3 6 -3 12 -19 12 -36 0 -16 9 -42 20 -57 24 -35 16 -113 -9 -85 -14 15 -21 73 -10 80 7 4 5 12 -5 22 -24 27 -45 99 -33 111 8 8 7 11 -2 11 -7 0 -9 5 -5 11 3 6 2 14 -4 18 -6 4 -18 33 -26 65 -9 32 -28 83 -42 114 -15 32 -28 60 -28 64 -1 3 -4 10 -8 14 -5 4 -8 17 -8 28 0 12 -6 32 -14 46 -74 134 -99 189 -102 223 -2 23 -8 45 -14 51 -5 5 -10 22 -10 36 0 14 -4 30 -10 36 -8 8 -47 164 -67 269 -3 17 -9 35 -14 41 -13 16 -15 77 -3 81 7 2 4 24 -7 61 -87 284 -106 336 -167 455 -145 288 -574 864 -867 1165 -135 139 -443 380 -588 461 -47 25 -115 67 -153 92 -216 146 -651 382 -851 463 -210 85 -282 127 -389 227 -133 123 -220 192 -377 298 -73 49 -157 111 -187 137 -30 26 -82 59 -116 74 -33 15 -82 44 -109 64 -56 43 -197 113 -310 154 -44 16 -97 37 -117 48 -51 27 -205 169 -229 213 -11 20 -18 28 -15 18 9 -29 36 -267 40 -352 3 -60 11 -93 30 -132 27 -55 33 -97 16 -123 -7 -11 -11 -9 -19 13 -6 14 -23 57 -39 94 -62 146 -83 240 -86 391 -3 132 9 242 25 242 4 0 10 -15 12 -32 4 -33 4 -33 5 4 3 69 24 143 82 288 92 231 134 411 165 717 15 140 15 178 4 275 -14 128 -14 127 -2 373 5 99 12 186 17 193 4 7 2 29 -5 49 -10 32 -13 34 -22 17 -6 -10 -21 -32 -34 -48 -21 -25 -23 -36 -17 -70 3 -23 8 -88 10 -146 2 -58 6 -125 10 -150 3 -25 8 -58 9 -75 2 -16 8 -73 15 -125 11 -88 10 -157 -5 -360 -8 -103 -20 -123 -45 -75 -12 22 -11 30 8 66 27 50 27 47 0 52 l-23 4 23 8 c12 4 22 14 22 22 0 8 -4 11 -10 8 -12 -8 -13 5 -1 24 6 9 6 24 0 38 -6 15 -5 22 1 18 10 -6 10 0 10 134 0 86 -14 120 -34 83 -13 -25 -14 -26 -30 -13 -8 7 -13 23 -10 37 4 20 1 24 -13 22 -11 -2 -18 4 -18 17 -2 30 -16 65 -26 65 -5 0 -8 5 -7 12 2 6 -4 13 -13 15 -26 6 -30 -52 -7 -77 10 -11 14 -20 8 -20 -16 0 -12 -27 6 -34 13 -5 14 -9 4 -21 -7 -8 -8 -15 -3 -15 5 0 10 -21 12 -46 2 -43 1 -45 -19 -34 -13 7 -19 18 -16 26 3 8 -2 24 -12 35 -9 11 -25 30 -34 41 -10 12 -18 27 -18 33 0 7 -6 15 -14 18 -14 6 -19 57 -6 57 10 0 7 26 -3 36 -4 4 -7 14 -7 23 0 14 2 14 10 1 7 -11 12 -12 21 -3 27 27 -10 37 -70 18 -14 -4 -24 2 -37 25 -10 16 -23 30 -28 30 -12 0 -75 70 -82 93 -3 9 -11 17 -19 17 -7 0 -23 11 -36 25 -13 13 -29 25 -36 25 -17 0 -33 33 -27 57 5 18 12 19 79 15 69 -4 74 -2 86 20 15 29 39 47 62 48 9 0 17 6 17 14 0 13 -41 26 -86 26 -13 0 -24 3 -24 6 0 22 28 46 76 64 53 19 58 20 75 4 11 -9 19 -22 19 -27 0 -13 50 -56 78 -68 54 -21 65 -7 75 100 4 35 9 66 12 69 3 3 -2 13 -10 22 -19 21 -26 175 -9 208 11 23 12 22 19 -15 4 -21 12 -41 18 -45 7 -4 8 -26 1 -72 -6 -36 -7 -69 -2 -74 4 -4 9 -31 10 -60 2 -28 7 -52 11 -52 5 0 8 -10 7 -22 -1 -13 -2 -40 -1 -61 1 -51 21 -38 21 14 0 22 5 50 12 62 15 28 22 218 19 517 0 52 -7 120 -15 150 -7 30 -17 82 -21 115 -9 78 -35 185 -45 185 -5 0 -11 8 -13 18 -3 12 -5 9 -6 -7 -1 -29 -18 -17 -21 14 -4 35 0 46 12 39 8 -5 9 -2 5 10 -4 10 -10 29 -13 42 -3 13 -9 24 -14 24 -4 0 -12 10 -17 23 l-11 22 -11 -25 c-10 -22 -11 -19 -7 21 3 25 1 59 -4 75 -7 26 -8 27 -9 5 -1 -20 -3 -21 -16 -11 -8 7 -15 19 -15 26 0 8 -4 14 -9 14 -6 0 -11 15 -13 33 -2 17 -7 31 -11 29 -8 -3 -37 22 -37 33 0 3 6 5 13 4 31 -4 35 1 28 34 -12 51 -4 178 14 220 9 23 26 42 41 47 15 6 31 24 37 41 8 21 17 29 29 26 21 -6 95 68 78 78 -8 5 -6 11 7 20 10 7 21 11 24 9 4 -2 19 9 35 23 31 29 52 31 70 7 10 -12 23 -10 90 12 43 14 83 29 89 34 6 5 31 12 55 16 44 7 178 75 192 97 4 7 8 18 8 25 0 16 -53 7 -86 -15 -25 -16 -94 -5 -122 20 -19 16 -69 20 -78 5 -3 -5 -15 3 -26 17 -20 26 -52 33 -63 15 -5 -8 -11 -7 -20 0 -11 9 -41 2 -130 -29 -64 -23 -125 -46 -135 -51 -42 -22 -150 -15 -150 10 0 6 -11 10 -25 10 -14 0 -25 -5 -25 -11 0 -12 -30 -7 -77 13 -28 12 -38 15 -60 17 -19 2 -15 35 7 64 11 14 20 29 20 34 0 5 14 22 31 39 17 16 40 45 52 64 11 19 31 47 43 62 24 30 50 129 40 155 -5 12 -9 13 -21 3 -20 -17 -65 -114 -65 -140 0 -15 -5 -20 -14 -17 -9 4 -26 -7 -43 -26 -17 -20 -37 -32 -53 -32 -20 0 -27 -8 -38 -40 -18 -55 -49 -87 -72 -75 -13 7 -21 5 -30 -5 -19 -23 -47 -18 -82 15 -17 17 -41 30 -52 30 -12 0 -28 6 -34 12 -10 10 -17 10 -32 0 -17 -11 -20 -10 -20 7 0 18 -3 19 -31 9 -22 -8 -34 -7 -42 1 -6 6 -18 11 -26 11 -8 0 -23 8 -33 17 -14 13 -21 14 -30 5 -16 -16 -28 -15 -28 3 0 8 -7 15 -15 15 -8 0 -15 4 -15 8 0 5 -16 9 -35 10 -22 1 -50 12 -72 29 -61 46 -72 60 -66 85 l5 23 -19 -21 c-24 -27 -68 -29 -108 -4 -25 16 -43 19 -72 14 -33 -5 -44 -2 -71 20 -17 15 -34 37 -38 49 -13 41 -58 87 -94 96 -87 23 -118 23 -129 3z m-24 -179 c-3 -10 -5 -4 -5 12 0 17 2 24 5 18 2 -7 2 -21 0 -30z m202 -37 c-9 -8 -10 -7 -5 7 3 10 7 26 7 35 1 9 4 6 6 -7 3 -13 -1 -28 -8 -35z m1281 -826 c0 -5 -4 -10 -10 -10 -5 0 -10 5 -10 10 0 6 5 10 10 10 6 0 10 -4 10 -10z m11 -53 c-13 -13 -15 1 -4 30 7 17 8 17 11 -1 2 -10 -1 -23 -7 -29z m-1565 -13 c9 -11 13 -12 9 -4 -4 8 1 6 9 -4 9 -11 16 -14 16 -8 0 7 12 17 27 23 21 8 34 6 60 -8 18 -10 33 -22 33 -26 0 -5 13 -7 29 -5 18 3 28 0 24 -5 -3 -6 2 -16 11 -23 10 -7 15 -18 11 -24 -5 -8 -12 -6 -25 5 -17 15 -19 15 -33 -6 -9 -11 -13 -27 -10 -35 3 -7 -5 -29 -17 -49 -17 -27 -18 -34 -6 -29 14 5 14 3 2 -27 -8 -19 -18 -34 -23 -34 -4 -1 -30 -6 -58 -13 -84 -19 -123 -21 -136 -6 -8 10 -15 11 -24 4 -7 -6 -32 -12 -56 -14 -47 -4 -93 -20 -122 -45 -13 -11 -20 -12 -29 -3 -9 9 -9 12 0 12 7 0 12 7 12 15 0 13 -4 14 -20 5 -11 -6 -25 -8 -30 -5 -6 3 -10 1 -10 -5 0 -6 6 -13 14 -16 8 -3 17 -12 20 -19 3 -9 0 -12 -10 -8 -7 3 -14 9 -14 14 0 17 -30 9 -30 -8 -1 -24 -26 -56 -39 -49 -5 4 -13 0 -18 -7 -11 -19 -42 -34 -91 -45 -37 -9 -41 -7 -53 15 -11 20 -11 26 1 33 23 14 3 24 -24 12 -17 -7 -27 -7 -35 1 -8 8 -11 7 -11 -5 0 -9 -8 -19 -17 -22 -10 -4 -14 -4 -11 0 4 4 1 16 -7 26 -14 20 -10 52 5 43 5 -3 11 -1 15 5 3 5 -1 10 -9 10 -21 0 -30 18 -16 35 13 15 5 20 -26 16 -16 -2 -23 33 -14 72 4 18 6 47 5 65 -1 27 2 32 21 32 13 0 26 -4 29 -10 12 -20 102 -1 190 40 41 19 98 33 153 39 7 0 11 4 8 9 -2 4 2 15 9 25 11 16 16 16 34 6 17 -11 23 -10 38 3 13 12 41 18 98 20 114 4 124 3 141 -18z m1267 -86 c12 -6 35 -13 52 -15 45 -5 67 -33 67 -87 1 -26 5 -49 10 -52 4 -3 8 1 8 9 0 8 9 17 20 20 12 3 20 0 20 -8 0 -16 33 -30 38 -16 2 6 8 11 14 11 11 0 6 -69 -8 -117 -10 -36 13 -27 25 10 l12 32 19 -25 c28 -37 34 -85 15 -114 -14 -21 -15 -31 -5 -61 9 -28 16 -35 33 -33 15 2 23 -3 25 -17 2 -11 6 -27 9 -35 9 -24 2 -82 -13 -112 -12 -24 -12 -33 6 -78 11 -28 20 -61 20 -73 0 -13 4 -27 8 -32 12 -15 29 -75 37 -129 l7 -48 -29 26 c-15 15 -39 29 -53 32 -14 3 -36 10 -50 14 -14 5 -47 12 -75 15 -79 11 -122 24 -129 40 -3 9 -17 20 -31 25 -14 5 -25 16 -25 25 0 36 -36 9 -47 -35 -9 -34 -11 -35 -61 -38 -59 -3 -94 11 -90 36 4 32 -29 132 -44 132 -5 0 -8 -9 -8 -20 0 -24 -27 -37 -43 -21 -8 8 -5 11 12 11 17 0 22 4 17 16 -4 9 -2 22 4 29 7 9 6 16 -5 25 -8 7 -15 23 -15 36 0 13 -4 24 -10 24 -5 0 -10 -7 -10 -16 0 -14 -3 -14 -15 -4 -12 10 -15 9 -16 -6 -1 -11 -4 -4 -8 15 -6 32 -7 33 -21 16 -13 -17 -13 -18 0 -10 12 6 13 5 3 -5 -10 -11 -15 -11 -29 1 -16 12 -17 12 -9 -1 5 -8 8 -31 6 -50 -1 -24 3 -41 13 -49 21 -17 20 -40 0 -48 -19 -7 -33 12 -35 47 -1 16 -3 19 -6 8 -2 -9 -11 -19 -19 -22 -12 -5 -12 -1 1 25 16 30 16 30 -4 19 -18 -9 -20 -8 -14 7 3 10 15 29 25 42 10 13 17 25 16 26 -2 1 -23 5 -48 8 -25 3 -39 4 -32 1 18 -8 14 -24 -6 -24 -11 0 -24 11 -30 25 -6 14 -16 25 -21 25 -16 0 -24 -40 -11 -55 10 -12 9 -15 -3 -15 -8 0 -18 -6 -20 -12 -3 -7 -6 -1 -6 15 -1 16 -7 27 -16 28 -8 1 -19 3 -25 4 -5 1 -15 3 -21 4 -6 0 -8 11 -5 24 3 12 3 16 0 9 -3 -6 -10 -9 -15 -6 -6 3 -18 -1 -28 -10 -16 -15 -19 -15 -37 6 -10 12 -14 18 -7 15 18 -11 22 16 4 37 -9 11 -10 16 -3 12 6 -4 13 -2 13 3 1 6 3 16 4 21 1 6 3 15 4 21 0 6 8 3 17 -5 21 -21 21 -21 41 21 18 35 31 43 83 44 14 1 33 9 42 19 13 13 30 18 61 16 48 -3 134 -46 129 -65 -2 -9 3 -9 19 -1 11 7 32 9 45 6 18 -5 24 -2 25 11 0 16 1 16 8 -1 7 -17 9 -16 30 12 12 18 29 32 37 32 8 0 14 6 14 14 0 8 10 16 23 18 12 2 22 10 23 18 2 28 4 31 17 23 6 -4 23 -8 37 -8 19 0 25 -5 24 -21 0 -19 2 -20 18 -11 22 14 24 37 3 37 -8 0 -15 6 -15 13 0 14 -35 39 -44 30 -3 -4 -6 -16 -7 -27 0 -17 -2 -16 -11 7 -5 15 -14 27 -19 27 -12 0 -11 -17 1 -23 6 -3 5 -4 -2 -3 -8 2 -13 19 -13 45 0 30 -6 47 -19 56 -10 8 -15 18 -12 24 4 6 8 36 9 67 3 46 8 59 28 75 13 10 35 20 49 22 14 2 26 5 28 6 2 0 13 -4 25 -11z m-1025 -18 c-15 -24 -38 -34 -38 -17 0 10 11 18 48 36 1 0 -3 -8 -10 -19z m-568 -286 c0 -8 -7 -14 -15 -14 -15 0 -21 21 -9 33 10 9 24 -2 24 -19z m-16 -39 c-4 -8 -11 -15 -16 -15 -6 0 -5 6 2 15 7 8 14 15 16 15 2 0 1 -7 -2 -15z m534 -93 c9 0 22 0 27 -2 20 -5 46 0 41 8 -3 5 1 9 9 9 8 0 13 -5 12 -10 -1 -5 15 -18 36 -29 31 -17 41 -18 50 -8 9 10 9 11 0 6 -6 -3 -15 -1 -18 5 -4 5 -13 8 -21 5 -8 -3 -14 -1 -14 4 0 11 23 13 34 3 13 -13 39 -12 53 3 8 8 18 12 23 9 12 -7 19 -45 8 -45 -5 0 -6 -5 -2 -11 5 -9 -4 -10 -30 -5 -28 5 -37 4 -35 -6 3 -24 -1 -37 -17 -52 -14 -15 -14 -16 0 -16 9 0 16 -7 16 -15 0 -8 -6 -15 -14 -15 -8 0 -22 -3 -30 -6 -12 -5 -15 -2 -9 12 12 32 -16 5 -43 -42 -20 -34 -32 -44 -48 -42 -11 2 -20 8 -19 14 1 5 -15 10 -35 9 -41 0 -88 -27 -77 -44 10 -17 112 -13 140 5 26 17 26 17 29 -24 1 -7 7 -17 15 -21 10 -7 11 -13 2 -29 -10 -18 -15 -20 -42 -10 -24 8 -44 6 -97 -10 -91 -27 -114 -32 -205 -35 -53 -2 -84 1 -97 10 -17 12 -20 11 -30 -7 -6 -11 -15 -18 -21 -15 -5 4 -23 -1 -41 -9 -17 -9 -36 -16 -43 -16 -6 0 -34 -19 -61 -42 -27 -24 -84 -65 -125 -91 -41 -27 -79 -58 -84 -70 -9 -20 -25 -27 -98 -42 -15 -3 -25 -10 -22 -15 3 -6 -5 -10 -18 -10 -14 0 -30 -7 -37 -15 -7 -8 -16 -13 -20 -10 -13 8 -40 -6 -40 -21 0 -9 -8 -13 -22 -10 -13 2 -30 0 -39 -5 -20 -10 -47 15 -29 26 15 9 2 25 -15 18 -38 -14 8 72 47 88 15 6 34 9 42 6 7 -3 23 1 35 10 13 8 37 13 59 11 31 -2 37 0 37 17 0 11 9 24 21 30 11 5 19 16 16 23 -2 7 6 30 17 53 12 22 21 48 21 59 0 11 6 20 14 20 13 0 31 27 28 43 -1 4 5 7 13 7 8 0 15 5 15 10 0 6 13 10 29 10 16 0 34 7 41 15 18 22 40 19 35 -5 -5 -26 11 -26 25 0 7 12 16 18 23 13 7 -4 6 0 -2 10 -20 26 1 59 47 75 40 14 63 20 75 21 4 1 12 12 19 25 6 14 28 32 49 40 22 9 39 20 39 24 0 19 -13 19 -31 1 -24 -24 -35 -24 -42 1 -5 21 8 29 15 9 2 -7 9 -5 17 5 12 14 11 16 -8 16 -23 0 -26 7 -11 30 9 13 12 12 25 -4 13 -17 15 -17 21 -3 3 9 9 15 13 12 4 -2 21 -6 37 -9 27 -5 27 -4 10 9 -24 18 -11 37 20 29 14 -4 31 -1 39 6 11 9 18 10 29 1 7 -6 21 -9 30 -5 10 4 16 1 16 -7 0 -8 6 -3 13 11 15 30 54 42 43 14 -6 -15 -5 -17 5 -6 7 6 23 12 35 12 13 0 26 5 29 11 5 6 12 3 21 -10 8 -11 22 -19 32 -19z m-505 -62 c-3 -11 -7 -20 -9 -20 -2 0 -4 9 -4 20 0 11 4 20 9 20 5 0 7 -9 4 -20z m737 -14 c0 -2 -6 -9 -13 -15 -10 -8 -14 -7 -14 4 0 8 6 15 14 15 7 0 13 -2 13 -4z m-2103 -78 c-3 -8 -6 -5 -6 6 -1 11 2 17 5 13 3 -3 4 -12 1 -19z m2343 -285 c0 -26 -1 -26 -15 -7 -19 25 -19 34 0 34 10 0 15 -10 15 -27z m134 -199 c3 -9 2 -23 -4 -32 -8 -15 -9 -14 -10 6 0 12 -5 22 -11 22 -5 0 -7 5 -4 10 9 15 22 12 29 -6z m-1554 -144 c0 -5 -12 -10 -27 -9 l-28 1 25 8 c14 4 26 8 28 9 1 1 2 -3 2 -9z m1616 -79 c12 -34 24 -65 28 -68 3 -4 6 -15 6 -25 0 -10 7 -18 16 -18 9 0 28 -12 44 -27 39 -39 57 -53 70 -53 6 0 8 5 4 12 -4 7 -3 8 5 4 6 -4 9 -12 6 -17 -4 -5 0 -9 9 -9 8 0 17 6 20 13 5 10 7 10 12 0 3 -7 10 -13 16 -13 15 0 38 -27 38 -44 0 -9 9 -16 21 -16 11 0 17 -4 14 -10 -3 -5 1 -10 9 -10 9 0 16 -7 16 -15 0 -8 5 -15 10 -15 6 0 10 -9 10 -20 0 -11 7 -20 15 -20 8 0 15 -4 15 -10 0 -5 6 -10 14 -10 20 0 28 -28 13 -50 -15 -25 -20 -25 -42 0 -10 11 -30 20 -44 20 -14 0 -37 7 -51 15 -54 31 -70 38 -76 33 -12 -13 37 -85 84 -125 46 -39 50 -47 54 -91 l3 -49 -65 33 c-43 23 -78 34 -107 34 -23 0 -54 5 -68 12 -29 13 -78 95 -70 116 3 9 0 12 -9 9 -9 -4 -12 0 -9 13 3 12 -1 19 -14 22 -10 2 -18 10 -19 18 -1 8 -2 27 -2 43 -1 17 -8 27 -17 27 -17 0 -20 21 -5 36 6 6 6 21 1 39 l-9 30 -1 -27 c-1 -31 -16 -45 -25 -23 -3 8 -1 15 4 15 6 0 10 9 10 20 0 11 5 20 10 20 6 0 10 4 10 10 0 19 -30 -3 -36 -27 -5 -19 -9 -21 -15 -11 -6 9 -9 9 -9 1 0 -6 4 -14 10 -18 5 -3 7 -12 3 -20 -3 -9 1 -15 10 -15 18 0 30 -43 21 -72 -5 -18 -3 -20 15 -15 26 6 27 -1 4 -19 -15 -11 -15 -15 -4 -23 18 -12 6 -47 -30 -85 -31 -33 -22 -32 -202 -25 -47 1 -64 -2 -85 -20 -61 -49 -134 -64 -117 -23 4 9 8 26 9 36 1 23 46 72 62 68 7 -1 14 4 18 13 3 8 10 15 16 15 6 0 8 -5 4 -12 -4 -7 -3 -8 5 -4 6 4 9 12 6 17 -4 5 4 13 16 17 16 6 19 11 10 16 -7 5 -17 2 -24 -7 -31 -38 -77 -14 -77 41 0 20 4 31 10 27 6 -3 10 -1 10 4 0 6 -5 11 -10 11 -6 0 -10 8 -8 18 2 11 -3 17 -13 16 -15 -1 -15 2 -4 29 7 17 22 34 34 39 11 4 21 12 21 18 0 5 9 10 19 10 11 0 32 11 48 24 36 30 52 34 82 17 22 -12 24 -12 18 8 -3 12 -1 18 4 15 5 -3 8 7 7 23 -3 41 9 58 30 41 13 -11 15 -10 10 10 -9 32 1 27 13 -8 6 -16 17 -30 25 -30 16 0 37 -47 30 -66 -3 -7 6 -14 20 -17 13 -2 25 1 25 7 3 16 7 73 13 146 2 36 5 67 5 68 1 2 7 2 13 0 7 -3 22 -32 34 -67z m-1673 32 c-7 -2 -13 -11 -13 -19 0 -8 -7 -14 -17 -14 -14 0 -14 2 2 20 10 11 23 20 29 19 6 0 6 -3 -1 -6z m-73 -23 c0 -5 -5 -10 -11 -10 -5 0 -7 5 -4 10 3 6 8 10 11 10 2 0 4 -4 4 -10z m110 -93 c0 -25 -6 -35 -26 -44 -20 -9 -23 -9 -17 0 5 7 9 21 8 32 -1 28 14 57 26 50 5 -4 9 -21 9 -38z m-135 -67 c3 -5 2 -10 -4 -10 -5 0 -13 5 -16 10 -3 6 -2 10 4 10 5 0 13 -4 16 -10z m512 -26 c6 -16 -31 -97 -54 -116 -11 -9 -16 -9 -23 2 -7 12 -14 10 -34 -9 l-25 -24 -10 26 c-7 18 -15 25 -26 21 -8 -3 -15 -1 -15 5 0 7 7 14 15 17 8 4 15 11 15 18 1 6 10 22 21 35 18 22 23 23 41 12 11 -7 17 -8 14 -2 -4 6 8 14 26 20 46 13 48 13 55 -5z m43 -33 c0 -6 -4 -13 -10 -16 -5 -3 -10 1 -10 9 0 9 5 16 10 16 6 0 10 -4 10 -9z m-20 -55 c0 -13 -9 -31 -20 -41 -11 -10 -18 -20 -16 -24 2 -3 -2 -11 -8 -17 -10 -9 -15 -7 -24 6 -9 14 -8 19 5 24 8 4 13 13 9 21 -3 9 0 15 9 15 8 0 17 11 21 25 7 30 24 23 24 -9z m103 -27 c7 -1 15 -1 20 0 4 0 7 -3 7 -9 0 -5 15 0 34 11 39 22 70 16 61 -12 -6 -19 14 -27 29 -12 3 4 14 8 24 9 9 1 31 5 49 7 24 4 30 2 27 -8 -7 -18 16 -14 49 8 15 9 29 17 32 17 3 0 19 10 35 22 32 23 47 20 35 -9 -5 -10 -7 -22 -6 -27 1 -5 -1 -16 -5 -25 -4 -9 -8 -24 -9 -33 -2 -22 -34 -58 -51 -58 -7 0 -20 -7 -29 -16 -10 -10 -24 -14 -40 -10 -13 3 -27 1 -31 -5 -3 -6 -15 -9 -25 -6 -11 3 -19 0 -19 -5 0 -7 -4 -7 -12 0 -14 10 -76 11 -93 0 -5 -3 -23 -8 -40 -9 -16 -2 -33 -8 -37 -14 -4 -6 -25 -5 -57 1 -29 6 -57 7 -66 2 -10 -6 -15 -5 -15 5 0 8 7 18 16 21 8 3 12 10 9 16 -3 5 1 10 9 10 13 0 13 4 -1 28 -16 27 -15 31 6 76 13 26 30 54 39 62 14 15 17 14 29 -10 8 -14 19 -27 26 -27z m484 17 c-4 -10 -1 -13 9 -9 9 3 14 -2 14 -16 0 -12 5 -20 11 -18 6 1 14 -4 16 -10 3 -8 -3 -13 -15 -13 -10 0 -23 -10 -28 -21 -10 -21 -11 -21 -27 -4 -17 17 -18 16 -12 -8 5 -19 2 -28 -14 -37 -26 -14 -38 8 -22 39 6 11 10 24 9 28 -2 5 9 22 25 38 15 16 27 33 27 37 0 5 3 8 6 8 3 0 4 -7 1 -14z m-927 -21 c7 -8 10 -22 6 -30 -4 -10 1 -15 15 -15 15 0 19 -5 15 -15 -7 -19 3 -47 14 -40 5 3 11 1 15 -5 4 -6 11 -8 16 -5 5 4 9 1 9 -4 0 -6 -9 -11 -21 -11 -14 0 -19 -5 -16 -13 3 -8 -1 -14 -9 -14 -7 0 -11 4 -8 8 2 4 0 10 -5 14 -6 3 -15 -4 -21 -15 -9 -16 -15 -18 -30 -10 -15 8 -19 20 -17 58 1 46 1 47 -28 45 -17 -1 -22 1 -12 4 9 2 15 9 11 14 -20 33 40 65 66 34z m270 -92 c-1 -24 -2 -26 -11 -10 -5 9 -7 22 -4 27 10 17 15 11 15 -17z m-1185 -48 c20 -45 45 -59 79 -41 30 15 76 10 76 -9 0 -25 -84 -47 -92 -24 -3 9 -9 9 -26 0 -12 -6 -31 -15 -42 -21 -31 -16 -63 -13 -56 6 3 8 2 12 -4 9 -18 -11 -11 49 10 83 25 41 37 40 55 -3z m376 -112 c6 -16 9 -48 7 -73 -3 -34 1 -54 19 -82 29 -47 29 -74 1 -89 -36 -18 -68 -51 -68 -69 0 -9 -11 -27 -24 -39 -19 -18 -31 -21 -55 -16 -26 5 -38 1 -75 -30 -24 -20 -47 -47 -50 -60 -7 -28 -36 -34 -55 -11 -9 11 -4 18 24 35 62 36 39 90 -39 89 -25 -1 -52 5 -61 12 -13 11 -18 10 -33 -4 -17 -15 -20 -14 -39 22 -11 20 -23 49 -27 65 -5 23 -3 27 14 27 17 0 20 7 20 40 0 29 -4 40 -15 40 -22 0 -20 56 3 64 9 3 23 9 31 12 10 5 12 -1 6 -25 -4 -21 -2 -37 7 -48 7 -8 27 -43 44 -77 29 -56 34 -61 62 -60 21 1 44 14 69 37 36 35 38 35 64 20 23 -14 30 -14 43 -3 14 11 18 8 27 -19 6 -17 15 -31 20 -31 16 0 10 48 -11 85 -34 61 -21 153 27 192 37 30 51 29 64 -4z m194 -133 c-20 -22 -31 -20 -22 5 4 8 14 15 23 15 16 0 16 -2 -1 -20z m18 -20 c-3 -12 -8 -19 -11 -16 -5 6 5 36 12 36 2 0 2 -9 -1 -20z m2194 -78 c2 -10 14 -22 26 -27 30 -13 65 -121 72 -218 6 -82 3 -87 -49 -94 -49 -6 -103 16 -111 44 -3 14 -1 31 4 37 8 10 0 24 -29 56 -22 24 -40 52 -40 63 0 11 16 35 35 54 20 19 33 38 30 42 -6 11 33 61 47 61 5 0 12 -8 15 -18z m-2450 -274 c-3 -7 -5 -2 -5 12 0 14 2 19 5 13 2 -7 2 -19 0 -25z m3151 -183 c-3 -3 -9 2 -12 12 -6 14 -5 15 5 6 7 -7 10 -15 7 -18z m-17 -97 c-6 -17 -11 -43 -11 -57 0 -14 -5 -33 -10 -41 -7 -11 -9 -2 -5 30 9 66 29 138 33 117 2 -10 -1 -32 -7 -49z m-1482 -753 c17 -47 -3 -69 -53 -60 -27 5 -33 11 -33 30 0 16 7 25 24 30 13 3 26 12 29 20 9 24 19 18 33 -20z m145 -20 c6 -17 11 -31 12 -33 1 -2 11 2 21 9 13 8 33 9 59 4 21 -4 55 -7 74 -7 136 4 221 12 253 26 l38 15 -3 -35 c-3 -32 -8 -38 -40 -49 -21 -7 -38 -9 -38 -4 0 5 -12 4 -26 -1 -14 -6 -49 -8 -76 -5 -27 4 -55 2 -61 -3 -7 -5 -36 -9 -66 -10 -33 0 -57 -5 -62 -13 -6 -11 -14 -11 -42 -1 -18 7 -39 12 -46 12 -17 0 -44 -28 -37 -39 3 -5 -2 -15 -11 -22 -14 -12 -16 -12 -8 0 7 12 1 13 -29 8 -27 -4 -39 -2 -42 8 -3 8 -13 11 -22 8 -11 -5 -14 -2 -9 10 4 10 2 17 -5 17 -6 0 -8 3 -5 6 4 4 13 1 21 -5 13 -11 16 -8 21 13 17 84 17 83 60 108 40 23 58 19 69 -17z m614 -10 c1 -14 -2 -25 -7 -25 -6 0 -13 -10 -17 -22 -8 -27 -73 -90 -87 -85 -24 8 -17 30 21 67 22 22 47 51 56 65 21 32 31 32 34 0z m29 -81 c-3 -3 -12 -4 -19 -1 -8 3 -5 6 6 6 11 1 17 -2 13 -5z m1240 -606 c-2 -13 -4 -3 -4 22 0 25 2 35 4 23 2 -13 2 -33 0 -45z m354 -68 c27 0 179 -124 179 -146 0 -7 6 -14 13 -17 9 -3 9 -7 -2 -20 -12 -15 -10 -20 13 -38 14 -11 26 -26 26 -32 -1 -7 -36 25 -78 70 -82 87 -171 168 -194 175 -11 4 -11 8 1 22 13 15 15 16 23 2 5 -9 14 -16 19 -16z m497 -403 c12 -2 33 -14 47 -27 28 -26 34 -56 10 -46 -8 3 -15 1 -15 -5 0 -10 -5 -7 -51 33 -26 23 -50 80 -25 59 7 -6 22 -12 34 -14z m150 -77 c15 0 38 -9 52 -20 23 -18 24 -20 5 -20 -12 0 -25 4 -30 9 -6 5 -27 14 -48 21 -33 10 -36 14 -25 27 12 15 13 15 16 0 2 -11 13 -17 30 -17z m-54 -73 l33 -33 -23 -11 c-20 -9 -24 -7 -32 16 -6 14 -13 34 -17 44 -11 26 2 21 39 -16z m346 -63 c0 -2 -7 -4 -15 -4 -8 0 -15 4 -15 10 0 5 7 7 15 4 8 -4 15 -8 15 -10z m-205 -187 c17 -13 49 -110 62 -187 3 -19 11 -44 18 -55 15 -26 20 -95 6 -95 -15 0 -42 44 -43 72 -1 12 -9 34 -18 48 -19 28 -55 137 -65 193 -7 41 6 48 40 24z m377 -39 c40 -21 112 -79 196 -157 18 -17 37 -31 42 -31 5 0 11 -9 15 -19 3 -11 14 -23 24 -26 9 -3 28 -19 41 -37 12 -17 16 -27 9 -22 -8 5 -22 7 -31 6 -10 -2 -18 2 -18 8 0 6 -12 15 -26 20 -14 6 -22 14 -19 20 3 5 0 10 -7 10 -7 0 -43 28 -79 63 -81 77 -141 127 -151 127 -5 0 -8 7 -8 15 0 7 -8 19 -17 24 -26 15 0 13 29 -1z m403 -88 c3 -5 1 -10 -4 -10 -6 0 -11 5 -11 10 0 6 2 10 4 10 3 0 8 -4 11 -10z m-675 -261 c0 -6 -4 -7 -10 -4 -5 3 -10 11 -10 16 0 6 5 7 10 4 6 -3 10 -11 10 -16z m1050 -80 c0 -14 -17 -10 -23 5 -4 10 -1 13 9 9 7 -3 14 -9 14 -14z m215 -279 c3 -6 -1 -7 -9 -4 -18 7 -21 14 -7 14 6 0 13 -4 16 -10z m96 -101 c16 -18 57 -68 90 -113 33 -44 69 -92 80 -106 11 -14 25 -37 32 -52 6 -16 18 -28 24 -28 7 0 13 -7 13 -16 0 -9 8 -28 18 -42 36 -56 43 -68 48 -84 4 -10 10 -18 15 -18 5 0 9 -7 9 -15 0 -8 5 -15 11 -15 6 0 8 -8 4 -19 -4 -13 0 -23 12 -31 13 -8 14 -13 6 -16 -7 -3 -13 -13 -13 -22 0 -27 -38 42 -45 82 -5 24 -11 33 -21 29 -9 -3 -14 2 -14 13 0 19 -36 62 -84 99 -14 11 -25 27 -26 36 0 9 -13 31 -30 49 -16 18 -30 36 -30 40 0 4 -34 58 -75 119 -41 62 -75 118 -75 126 0 24 20 17 51 -16z m429 -205 c0 -14 -3 -14 -15 -4 -8 7 -15 14 -15 16 0 2 7 4 15 4 8 0 15 -7 15 -16z m30 -45 c0 -6 -4 -7 -10 -4 -5 3 -10 11 -10 16 0 6 5 7 10 4 6 -3 10 -11 10 -16z m30 -33 c0 -3 -4 -8 -10 -11 -5 -3 -10 -1 -10 4 0 6 5 11 10 11 6 0 10 -2 10 -4z m117 -233 c7 -18 15 -29 41 -58 6 -7 12 -20 12 -27 0 -15 22 -78 33 -95 5 -7 4 -13 0 -13 -8 0 -113 191 -113 204 0 14 21 5 27 -11z m-217 -88 c0 -8 -4 -15 -10 -15 -5 0 -10 7 -10 15 0 8 5 15 10 15 6 0 10 -7 10 -15z m20 -40 c0 -8 9 -29 20 -47 11 -18 20 -42 20 -53 -1 -20 -1 -20 -15 -1 -8 11 -15 28 -15 37 0 10 -4 19 -8 21 -13 5 -24 58 -12 58 5 0 10 -7 10 -15z m305 -111 c8 -20 15 -48 15 -63 -1 -23 -3 -21 -15 13 -29 83 -30 121 0 50z m-3573 -216 c-2 -10 -13 -18 -23 -18 -27 0 -32 -17 -9 -30 17 -9 22 -7 30 15 5 14 17 25 25 25 9 0 23 7 31 15 9 8 21 15 28 15 8 0 19 -7 26 -15 9 -10 9 -15 1 -15 -6 0 -11 -4 -11 -10 0 -15 21 -12 34 5 10 14 14 13 33 -5 12 -11 20 -26 17 -33 -2 -7 10 -21 27 -31 27 -16 29 -20 15 -28 -9 -5 -16 -16 -16 -23 0 -8 -4 -15 -8 -15 -5 0 -16 -18 -26 -40 l-17 -39 -47 6 c-26 3 -63 12 -82 21 -19 8 -45 14 -57 13 -11 -1 -24 3 -28 8 -8 14 -45 14 -45 1 0 -5 -15 -10 -32 -10 -26 0 -30 3 -18 11 11 7 6 8 -20 3 -31 -6 -33 -5 -21 9 7 9 9 21 5 28 -5 8 -10 7 -16 -6 -7 -11 -17 -15 -34 -11 -17 5 -27 1 -36 -14 -7 -11 -18 -20 -25 -20 -19 0 -26 -19 -13 -35 10 -12 6 -20 -18 -42 -16 -16 -44 -41 -61 -57 -17 -16 -34 -26 -37 -23 -4 4 1 9 10 13 9 3 16 10 16 14 0 5 18 26 40 48 44 42 48 52 25 52 -9 0 -29 -16 -46 -35 -17 -19 -37 -35 -45 -35 -8 0 -14 -6 -14 -14 0 -8 -9 -18 -20 -21 -11 -3 -20 -11 -20 -16 0 -6 -16 2 -36 17 -27 21 -34 33 -30 49 8 33 -3 36 -35 13 -22 -16 -29 -30 -29 -54 0 -18 4 -36 10 -39 6 -4 5 -11 -2 -19 -19 -20 -37 10 -38 61 0 36 5 46 33 67 19 15 39 26 44 26 6 0 30 19 54 43 40 38 82 67 98 67 3 0 -11 -15 -32 -34 -36 -32 -37 -35 -18 -41 11 -3 29 -17 40 -31 12 -16 22 -21 26 -14 4 6 0 19 -9 28 -18 20 -12 58 11 67 9 3 26 -1 39 -10 29 -19 34 -19 34 0 0 8 -5 15 -11 15 -6 0 -9 9 -6 20 3 11 1 20 -4 20 -17 0 -9 29 10 40 29 15 40 12 34 -9 -6 -25 32 -49 41 -25 10 26 7 34 -11 34 -12 0 -7 6 13 16 17 8 38 29 46 47 l16 32 7 -28 c7 -27 10 -29 56 -25 50 3 65 -6 29 -17 -11 -3 -20 -13 -20 -21 0 -8 -4 -13 -9 -10 -12 8 -34 -21 -26 -34 3 -5 18 -10 32 -10 18 0 24 -4 19 -15 -3 -8 -1 -15 4 -15 5 0 12 12 16 28 3 15 9 37 14 49 5 13 7 30 4 38 -4 8 -2 15 4 15 6 0 12 -6 15 -12 3 -8 7 -6 12 7 4 11 12 31 18 44 l12 23 6 -23 c3 -13 3 -32 1 -41z m-109 21 c7 0 -1 -5 -17 -9 -16 -5 -34 -7 -39 -3 -13 8 15 24 31 18 8 -3 19 -5 25 -6z m-413 -139 c0 -5 -5 -10 -11 -10 -5 0 -7 5 -4 10 3 6 8 10 11 10 2 0 4 -4 4 -10z m785 -10 c3 -5 1 -10 -4 -10 -6 0 -11 5 -11 10 0 6 2 10 4 10 3 0 8 -4 11 -10z m-815 -14 c0 -8 -15 -27 -32 -42 -29 -23 -33 -25 -36 -10 -4 20 34 66 55 66 7 0 13 -6 13 -14z m834 -29 c-3 -15 -14 -29 -23 -32 -10 -3 -28 -17 -41 -30 -22 -24 -23 -27 -8 -42 16 -15 17 -14 23 9 7 29 79 79 108 74 24 -3 32 -35 11 -43 -17 -6 -19 -36 -1 -31 6 3 23 24 36 48 14 24 26 39 28 33 3 -7 0 -20 -6 -30 -6 -12 -6 -25 0 -36 6 -10 6 -17 1 -17 -5 0 -12 -17 -15 -37 -5 -26 -18 -48 -47 -74 -36 -33 -56 -70 -28 -53 6 4 8 3 5 -4 -8 -12 -44 -5 -54 11 -3 6 -1 7 5 3 13 -8 32 24 32 53 0 18 -3 19 -19 10 -12 -8 -16 -19 -13 -33 11 -40 -38 6 -71 67 -38 71 -38 72 -66 -128 -31 -214 -42 -272 -55 -288 -6 -8 -40 -30 -76 -48 -36 -18 -69 -39 -73 -46 -4 -7 -15 -13 -22 -13 -8 0 -15 -4 -15 -10 0 -14 32 -12 55 3 11 7 31 14 44 15 13 0 27 5 30 10 3 5 29 20 56 32 28 12 75 46 105 75 30 28 72 58 93 64 35 12 37 14 23 30 -33 36 -8 121 34 121 24 0 37 20 13 20 -17 1 -16 2 2 16 11 8 19 20 18 25 -2 5 8 11 22 15 14 3 32 16 40 27 19 28 19 73 0 81 -16 6 -21 56 -7 56 5 0 14 -11 20 -25 6 -14 16 -25 22 -25 26 0 0 -85 -39 -129 -28 -32 -28 -53 2 -46 17 4 26 -1 40 -26 23 -41 22 -69 -6 -110 -15 -23 -31 -34 -47 -35 -14 0 -24 -5 -23 -11 1 -6 -6 -9 -16 -6 -21 5 -42 -18 -23 -25 21 -7 13 -68 -14 -108 -44 -67 -166 -164 -180 -143 -4 8 -9 8 -17 0 -6 -6 -16 -11 -23 -11 -13 0 -58 67 -60 90 -1 8 -2 20 -3 25 -1 6 -5 4 -10 -4 -5 -8 -7 -43 -5 -78 4 -47 1 -67 -10 -78 -17 -17 -30 -20 -21 -5 3 6 -1 10 -9 10 -9 0 -16 -7 -16 -15 0 -23 -30 -65 -46 -65 -8 0 -14 7 -14 15 0 8 -4 15 -10 15 -5 0 -10 5 -10 11 0 6 6 9 12 7 7 -3 25 7 39 21 27 25 27 27 15 84 -9 45 -14 55 -24 45 -7 -7 -12 -18 -12 -25 0 -7 -4 -13 -9 -13 -5 0 -11 -18 -15 -40 -8 -49 -26 -53 -26 -5 0 21 -6 37 -16 43 -12 6 -15 18 -12 36 3 14 2 26 -1 26 -17 -1 -29 -19 -34 -55 -3 -22 -9 -50 -13 -62 -6 -20 -3 -23 25 -23 17 0 31 -5 31 -11 0 -5 -4 -7 -10 -4 -9 5 -14 -7 -11 -27 0 -4 -8 -10 -19 -13 -11 -4 -18 -11 -15 -16 4 -5 -2 -9 -13 -9 -15 0 -19 8 -20 43 -1 23 5 69 12 102 8 33 13 62 11 64 -9 8 -35 -10 -35 -25 0 -9 -10 -30 -22 -47 l-22 -30 22 -15 c17 -11 20 -18 11 -34 -7 -13 -16 -17 -30 -13 -12 4 -21 1 -25 -9 -10 -27 -31 -18 -38 16 -5 26 -2 36 19 56 17 16 23 28 17 35 -5 7 -11 18 -14 26 -3 9 -12 2 -26 -20 -29 -45 -30 -12 -1 50 11 25 17 51 14 60 -3 8 0 18 7 23 19 11 28 10 28 -4 0 -16 48 -17 54 -1 3 6 -24 31 -59 55 -43 29 -64 50 -65 63 0 19 15 126 45 320 21 138 26 149 63 153 18 2 32 0 32 -5 0 -4 33 -8 73 -9 39 0 128 -2 196 -4 112 -3 126 -1 135 15 25 41 58 74 79 77 29 5 29 5 21 -25z m-457 -23 c-3 -3 -12 -4 -19 -1 -8 3 -5 6 6 6 11 1 17 -2 13 -5z m653 -49 c0 -31 -16 -40 -36 -20 -11 10 -14 24 -10 41 6 21 9 23 26 14 12 -6 20 -21 20 -35z m3505 -75 c5 -17 4 -22 -3 -15 -5 6 -13 21 -17 35 -5 17 -4 22 3 15 5 -5 13 -21 17 -35z m-4415 -44 c0 -3 -4 -8 -10 -11 -5 -3 -10 -1 -10 4 0 6 5 11 10 11 6 0 10 -2 10 -4z m-43 -21 c0 -8 -4 -12 -9 -9 -5 3 -6 10 -3 15 9 13 12 11 12 -6z m4483 -22 c0 -32 -5 -28 -14 10 -4 19 -3 26 4 22 5 -3 10 -18 10 -32z m-4585 -20 c-12 -18 -13 -23 -2 -23 7 0 25 -6 40 -12 33 -16 37 -63 7 -101 -11 -14 -20 -30 -20 -36 0 -6 -4 -11 -10 -11 -5 0 -10 -5 -10 -11 0 -7 9 -5 24 4 26 17 44 8 43 -24 0 -11 -8 -14 -29 -11 -15 2 -40 1 -54 -2 -26 -7 -26 -8 -19 -71 3 -36 4 -65 2 -65 -11 0 -37 64 -37 91 0 31 19 80 35 91 11 9 9 10 -21 13 -30 3 -73 37 -74 57 0 9 -4 20 -10 23 -17 10 -11 32 16 65 22 26 31 30 55 25 24 -5 28 -4 23 9 -5 13 0 16 25 14 29 -2 30 -3 16 -25z m935 -23 c0 -5 -8 -10 -17 -10 -15 0 -16 2 -3 10 19 12 20 12 20 0z m3667 -52 c-3 -8 -6 -5 -6 6 -1 11 2 17 5 13 3 -3 4 -12 1 -19z m-5312 -203 c-7 -49 -25 -87 -25 -52 0 21 -16 22 -24 2 -8 -22 -25 -18 -19 5 3 11 9 20 13 20 4 0 8 6 7 13 -2 54 3 65 29 63 24 -1 25 -3 19 -51z m-124 12 c-6 -6 -11 -22 -11 -36 0 -15 -5 -33 -10 -41 -7 -11 -10 -7 -10 18 0 37 31 105 38 84 2 -8 -1 -19 -7 -25z m-161 -9 c0 -24 -16 -56 -23 -48 -5 6 12 70 18 70 3 0 5 -10 5 -22z m50 -12 c-5 -15 -10 -38 -10 -52 0 -13 -4 -24 -10 -24 -15 0 -12 35 5 77 17 41 31 40 15 -1z m160 -4 c0 -35 -14 -62 -31 -62 -4 0 -1 20 6 44 8 24 11 47 8 50 -4 3 -1 6 5 6 7 0 12 -16 12 -38z m-370 -65 c-27 -73 -40 -80 -40 -23 0 25 -4 46 -9 46 -4 0 -16 -20 -25 -45 -10 -25 -22 -45 -27 -45 -12 0 -11 121 1 140 7 11 10 3 10 -30 l1 -45 25 42 c28 46 44 48 44 7 0 -34 16 -22 25 18 6 26 9 29 12 12 2 -11 -6 -46 -17 -77z m255 6 l-15 -28 6 40 c3 22 9 49 12 60 5 16 7 14 10 -12 2 -18 -4 -45 -13 -60z m-472 10 c-7 -46 -19 -63 -17 -25 2 53 4 62 13 62 6 0 7 -17 4 -37z m67 -40 c-9 -15 -10 -12 -6 16 3 18 7 41 8 50 0 9 3 1 5 -16 2 -18 -1 -41 -7 -50z m-179 26 l-10 -34 4 35 c4 45 4 44 11 38 3 -3 1 -21 -5 -39z m1655 -15 c-4 -15 -19 -42 -33 -61 -14 -18 -23 -36 -20 -39 6 -7 87 74 87 87 0 5 7 9 15 9 33 0 4 -69 -44 -108 -38 -31 -39 -31 -60 -13 -25 22 -26 41 -5 84 32 64 72 91 60 41z m-1206 2 c0 -14 -29 -31 -38 -21 -6 6 18 35 29 35 5 0 9 -6 9 -14z m-485 -46 c3 -5 1 -10 -4 -10 -6 0 -11 5 -11 10 0 6 2 10 4 10 3 0 8 -4 11 -10z m785 -65 c0 -19 -8 -26 -37 -34 -21 -6 -48 -11 -60 -11 -24 0 -31 14 -13 25 6 3 10 15 10 26 0 10 5 19 11 19 6 0 8 -9 4 -20 -8 -24 13 -28 22 -4 6 17 43 35 56 27 4 -2 7 -15 7 -28z m-136 -11 c-4 -22 -11 -29 -30 -30 -21 -2 -24 1 -18 20 4 11 7 21 8 21 0 0 10 5 21 11 25 15 26 13 19 -22z m-221 -27 c-6 -36 -33 -73 -33 -47 0 8 5 32 11 53 12 45 31 40 22 -6z m121 16 c-4 -16 -11 -34 -17 -40 -14 -18 -47 -16 -47 3 0 14 -1 14 -16 0 -19 -19 -24 -20 -24 -3 0 7 14 21 30 30 29 17 30 17 31 0 0 -15 4 -13 22 10 11 15 22 27 24 27 2 0 0 -12 -3 -27z m-214 -13 c-18 -11 -22 -7 -14 14 5 13 10 14 18 6 8 -8 7 -13 -4 -20z m239 -14 c-9 -8 -10 -7 -5 7 3 10 7 24 7 30 1 7 3 4 6 -7 3 -10 -1 -23 -8 -30z m-320 -60 c-9 -8 -10 -3 -5 23 3 18 7 43 8 55 1 11 3 1 5 -23 3 -26 -1 -48 -8 -55z m-183 32 l-6 -53 14 48 c16 57 25 68 33 39 5 -21 23 -32 23 -14 0 4 8 8 18 9 9 1 32 4 51 7 31 5 33 4 27 -17 -3 -12 -6 -28 -6 -35 0 -22 -65 -43 -97 -31 -21 8 -30 7 -38 -3 -5 -7 -18 -14 -27 -14 -14 -1 -18 6 -18 32 0 30 17 84 28 84 2 0 1 -24 -2 -52z m294 25 c-1 -18 -18 -35 -24 -24 -4 6 -4 16 -1 21 7 12 25 13 25 3z m-338 -15 c7 -19 -11 -78 -23 -78 -6 0 -8 7 -5 16 3 9 6 29 6 45 0 29 14 40 22 17z m-52 -23 c-7 -9 -15 -13 -18 -10 -3 2 1 11 8 20 7 9 15 13 18 10 3 -2 -1 -11 -8 -20z m-69 -32 c-9 -16 -10 -16 -11 -1 0 9 3 25 7 35 7 16 8 17 11 1 2 -10 -1 -25 -7 -35z m-54 -5 c-3 -7 -5 -2 -5 12 0 14 2 19 5 13 2 -7 2 -19 0 -25z m103 -3 c-7 -9 -15 -13 -17 -11 -7 7 7 26 19 26 6 0 6 -6 -2 -15z m-1375 -165 c-16 -32 -68 -72 -205 -160 -47 -30 -89 -58 -95 -63 -5 -4 -56 -40 -112 -81 -57 -41 -124 -92 -150 -114 -77 -64 -113 -82 -164 -82 -69 0 -99 31 -99 104 0 62 25 126 49 126 13 0 13 2 2 9 -11 7 -8 12 12 25 16 11 27 30 32 54 16 91 32 99 27 13 -3 -50 0 -63 18 -81 32 -32 68 -23 244 64 83 41 194 94 246 119 52 25 113 57 135 70 22 14 48 26 58 26 16 1 16 -1 2 -29z m-2060 -562 c28 -14 66 -33 85 -42 39 -19 41 -20 100 -60 48 -32 133 -114 200 -195 25 -30 51 -60 58 -67 6 -7 11 -23 11 -36 -1 -17 -3 -18 -6 -5 -2 9 -10 17 -18 17 -7 0 -32 25 -55 55 -45 58 -59 63 -75 27 -10 -23 -35 -30 -35 -10 0 6 -3 8 -6 5 -4 -3 -26 5 -49 18 -23 14 -49 25 -57 25 -28 0 -78 52 -78 82 0 15 5 30 10 33 6 3 10 17 10 31 0 22 -16 30 -51 26 -125 -16 -136 -15 -173 13 l-36 27 0 -39 c0 -29 -9 -50 -32 -82 l-33 -42 -5 53 c-8 73 -18 44 -30 -87 -12 -135 -12 -158 -1 -151 15 9 21 -38 14 -104 -8 -81 -18 -61 -34 68 -11 88 -11 124 2 242 13 121 19 143 41 173 48 61 150 72 243 25z m2388 -57 c15 -46 41 -101 58 -122 41 -52 81 -144 118 -274 54 -189 61 -208 86 -241 14 -18 38 -61 54 -96 30 -65 161 -450 161 -473 0 -7 -6 -12 -12 -12 -24 2 -113 -15 -123 -24 -22 -17 -56 -5 -61 21 -4 14 -16 52 -29 85 -13 33 -33 93 -46 134 -34 104 -34 104 -241 102 -93 -1 -178 -6 -188 -11 -20 -10 -29 -44 -60 -217 -19 -104 -25 -123 -40 -123 -10 0 -25 6 -32 13 -7 8 -19 12 -26 9 -17 -5 -10 50 23 198 13 58 27 134 30 170 9 86 43 220 111 437 69 221 67 213 104 357 17 66 36 128 41 139 21 37 43 15 72 -72z m1037 -13 l75 -12 0 -340 c-1 -223 -5 -370 -13 -426 -7 -47 -14 -137 -15 -200 l-2 -114 -35 -2 c-19 -2 -55 -7 -80 -13 -25 -5 -48 -7 -52 -3 -15 15 -20 158 -9 262 29 283 33 378 22 578 -7 144 -15 210 -26 231 -8 17 -15 35 -15 41 0 13 57 13 150 -2z m1545 -38 c9 -28 -16 -75 -40 -75 -22 0 -60 58 -51 80 3 10 19 15 45 15 31 0 41 -4 46 -20z m-705 -51 c0 -7 -15 -35 -34 -63 -55 -84 -84 -149 -116 -263 -55 -195 -51 -301 18 -443 20 -41 60 -101 89 -133 58 -64 63 -76 33 -84 -11 -3 -20 -9 -20 -13 0 -4 -23 -11 -52 -14 -65 -9 -102 8 -174 80 -88 87 -123 178 -131 339 -7 153 18 273 87 409 27 56 65 119 84 141 33 39 35 40 117 46 46 3 87 6 92 7 4 1 7 -3 7 -9z m5827 -45 c-3 -3 -13 1 -22 9 -8 9 -15 21 -15 29 0 7 9 4 22 -9 12 -13 19 -25 15 -29z m-4737 18 c20 3 31 0 36 -11 12 -31 26 -321 28 -576 l1 -260 -23 -2 c-13 0 -32 -9 -42 -18 -17 -16 -19 -14 -29 37 -25 121 -30 207 -31 483 -2 400 -3 370 15 355 8 -7 28 -10 45 -8z m-3680 -52 l0 -40 -45 0 c-91 0 -65 74 28 79 13 1 17 -7 17 -39z m-1815 3 c10 -3 30 -33 46 -67 27 -56 29 -70 29 -174 l0 -113 -44 -19 c-41 -17 -81 -52 -44 -37 10 3 30 -12 61 -47 42 -49 45 -57 61 -154 22 -142 21 -164 -10 -196 -15 -14 -30 -26 -34 -26 -7 0 -55 101 -72 150 -20 57 -36 179 -32 241 4 59 2 67 -15 72 -24 6 -31 50 -34 211 l-2 120 34 23 c39 26 34 25 56 16z m253 -39 c61 -30 132 -131 132 -187 0 -51 -24 -97 -47 -91 -10 3 -47 -2 -82 -10 -36 -8 -69 -13 -73 -9 -21 12 -78 157 -78 196 0 44 19 107 35 120 13 9 78 -1 113 -19z m-150 -36 c-6 -18 -13 -27 -16 -20 -6 19 7 64 18 57 5 -3 4 -19 -2 -37z m1738 -42 c-3 -12 -6 -29 -6 -39 0 -10 -20 -39 -44 -65 -30 -32 -48 -63 -56 -95 -11 -40 -17 -48 -44 -56 -39 -10 -46 -6 -46 25 0 35 15 62 62 110 30 31 41 52 45 85 4 28 15 54 32 72 l26 28 18 -22 c11 -14 16 -31 13 -43z m8424 33 c0 -5 -4 -9 -10 -9 -5 0 -10 7 -10 16 0 8 5 12 10 9 6 -3 10 -10 10 -16z m36 -72 c15 -9 19 -53 6 -61 -16 -9 -35 12 -29 33 3 12 1 19 -4 15 -11 -6 -12 29 -2 40 4 4 9 1 12 -6 2 -7 10 -17 17 -21z m-9676 -37 c0 -5 -2 -10 -4 -10 -3 0 -8 5 -11 10 -3 6 -1 10 4 10 6 0 11 -4 11 -10z m9700 -86 c0 -8 -5 -12 -10 -9 -6 4 -8 11 -5 16 9 14 15 11 15 -7z m-5041 -56 c11 -31 2 -57 -26 -75 -52 -34 -58 -63 -58 -259 l1 -181 -25 -11 c-15 -7 -29 -8 -34 -3 -6 6 -17 5 -28 -2 -22 -14 -40 0 -19 14 12 8 11 9 -5 7 -12 -2 -19 -10 -17 -20 2 -12 -4 -16 -18 -15 -11 1 -19 6 -16 12 2 6 0 33 -5 60 -5 28 -13 95 -18 150 -13 127 -24 159 -67 186 -30 18 -47 21 -117 18 l-82 -4 -3 37 c-4 49 20 64 118 72 41 4 107 9 145 13 39 3 97 9 130 13 113 14 135 12 144 -12z m-4799 -13 c16 -8 31 -24 35 -35 3 -11 10 -20 15 -20 4 0 22 -23 39 -50 35 -56 34 -62 -20 -131 -32 -41 -36 -54 -14 -45 8 3 15 1 15 -4 0 -6 -6 -10 -14 -10 -21 0 -31 -21 -15 -31 11 -6 11 -11 1 -21 -9 -9 -12 -9 -12 1 0 10 -3 11 -14 2 -16 -14 -99 -6 -105 10 -2 6 -15 25 -30 42 -52 63 -74 101 -74 126 1 32 25 101 35 101 5 0 8 6 8 13 0 6 10 24 23 39 26 32 79 38 127 13z m267 -37 c-3 -7 -5 -2 -5 12 0 14 2 19 5 13 2 -7 2 -19 0 -25z m36 -35 c3 -10 15 -43 26 -73 12 -30 20 -71 20 -90 -1 -33 -2 -32 -14 15 -7 32 -17 49 -25 47 -7 -2 -17 3 -21 10 -7 10 -9 9 -9 -4 0 -32 -18 -28 -42 10 -18 27 -22 40 -14 47 17 16 46 6 39 -13 -5 -14 -3 -13 9 2 8 10 13 29 10 42 -5 28 13 33 21 7z m-168 -209 c-19 -68 -33 -65 -15 3 23 88 23 90 28 71 2 -10 -4 -43 -13 -74z m1249 -76 c13 -8 14 -133 3 -190 -7 -31 -12 -38 -32 -38 -39 0 -47 27 -35 131 7 59 16 96 25 103 13 9 13 15 1 37 -10 20 -11 31 -3 45 10 16 13 12 21 -31 5 -27 14 -53 20 -57z m-1610 73 c10 -11 32 -27 49 -36 63 -33 75 -41 101 -72 14 -17 26 -41 26 -53 0 -14 8 -24 21 -27 15 -4 19 -11 15 -27 -3 -11 -6 -29 -6 -38 0 -9 -6 -23 -12 -30 -7 -7 -19 -25 -27 -40 -8 -15 -22 -37 -33 -47 -10 -11 -18 -25 -18 -31 0 -11 -50 -16 -127 -11 -7 1 -33 21 -58 45 -43 43 -45 46 -45 103 1 69 13 128 42 203 34 86 43 93 72 61z m570 -221 c-9 -36 -21 -69 -27 -75 -7 -7 -8 -3 -3 10 4 11 9 43 12 70 4 49 4 49 -8 18 -7 -18 -19 -38 -27 -45 -12 -11 -13 -9 -7 12 4 14 12 49 18 79 8 39 16 55 30 59 14 3 19 13 18 36 -1 17 -1 40 1 51 2 11 5 -18 7 -65 2 -58 -2 -106 -14 -150z m-320 -47 c-24 -53 -96 -163 -107 -163 -9 0 -6 7 33 65 15 22 40 67 55 99 31 63 48 62 19 -1z m4691 27 c-3 -5 -10 -10 -16 -10 -5 0 -9 5 -9 10 0 6 7 10 16 10 8 0 12 -4 9 -10z m-5125 -122 c0 -15 49 -110 68 -132 16 -18 17 -17 22 20 6 48 26 54 64 19 15 -14 31 -25 37 -25 13 0 11 -9 -7 -27 -11 -12 -14 -27 -11 -51 5 -26 3 -33 -8 -28 -7 2 -29 8 -48 11 -49 9 -81 48 -111 133 -28 77 -32 107 -16 97 6 -3 10 -11 10 -17z m2275 -198 c0 -29 -4 -36 -23 -38 -20 -3 -23 0 -17 17 5 17 2 21 -14 21 -28 0 -27 27 2 33 43 9 52 3 52 -33z m-310 -11 c4 -17 4 -47 0 -67 l-7 -37 -19 24 c-22 27 -25 75 -6 96 18 21 25 18 32 -16z m-1720 -19 c7 -12 -2 -12 -30 0 -19 8 -19 9 2 9 12 1 25 -3 28 -9z m8521 -1241 c19 -22 19 -22 -3 -10 -24 12 -39 31 -25 31 5 0 17 -10 28 -21z m2402 -184 c-3 -3 -9 2 -12 12 -6 14 -5 15 5 6 7 -7 10 -15 7 -18z m46 -11 c9 -3 16 -14 16 -23 0 -14 2 -14 10 -1 5 8 10 10 10 4 0 -7 9 -14 20 -17 15 -4 20 0 21 16 0 15 2 17 6 7 2 -8 11 -28 18 -45 7 -16 15 -55 18 -85 4 -30 3 -48 0 -40 -3 8 -15 24 -27 36 -53 51 -131 154 -117 154 5 0 16 -3 25 -6z m-414 -1404 c0 -5 -4 -10 -10 -10 -5 0 -10 5 -10 10 0 6 5 10 10 10 6 0 10 -4 10 -10z m397 -1017 c-3 -10 -5 -4 -5 12 0 17 2 24 5 18 2 -7 2 -21 0 -30z m-6657 -570 c0 -16 -5 -35 -10 -43 -7 -11 -10 -4 -10 28 0 23 5 42 10 42 6 0 10 -12 10 -27z m-17 -95 c-6 -31 -23 -38 -23 -10 0 16 20 46 26 39 1 -1 0 -14 -3 -29z m6452 -8 c-4 -6 -15 -10 -25 -10 -10 0 -21 -6 -23 -12 -3 -7 -6 -4 -6 7 -1 15 6 20 29 22 18 1 28 -2 25 -7z m-932 -770 c4 -14 1 -17 -12 -13 -30 11 -43 25 -30 34 17 10 36 1 42 -21z m-117 -175 c4 -8 11 -12 16 -9 6 4 8 -2 6 -12 -5 -27 -47 -32 -45 -5 0 11 5 17 9 15 4 -3 8 -1 8 5 0 5 -6 12 -12 14 -10 4 -10 6 0 6 7 1 15 -6 18 -14z"
       id="path2" />
    <path
       d="M5270 15390 c0 -5 5 -10 11 -10 5 0 7 5 4 10 -3 6 -8 10 -11 10 -2 0 -4 -4 -4 -10z"
       id="path4" />
    <path
       d="M4570 15225 c0 -8 2 -15 4 -15 2 0 6 7 10 15 3 8 1 15 -4 15 -6 0 -10 -7 -10 -15z"
       id="path6" />
    <path
       d="M5090 14982 c0 -11 7 -22 15 -26 9 -3 15 0 15 8 0 7 -7 19 -15 26 -12 10 -15 9 -15 -8z"
       id="path8" />
    <path
       d="M3750 15089 c0 -24 26 -25 32 -1 4 12 -1 18 -13 19 -13 1 -19 -5 -19 -18z"
       id="path10" />
    <path
       d="M3927 15104 c-7 -8 2 -65 13 -77 4 -5 21 -1 36 10 15 10 29 17 31 16 10 -9 13 -1 4 11 -9 11 -9 15 1 19 13 6 -26 11 -51 7 -8 -1 -17 3 -21 9 -3 6 -9 8 -13 5z"
       id="path12" />
    <path
       d="M3880 15068 c0 -11 5 -18 13 -16 18 7 20 35 2 35 -8 0 -15 -9 -15 -19z"
       id="path14" />
    <path
       d="M3860 15030 c0 -5 4 -10 9 -10 6 0 13 5 16 10 3 6 -1 10 -9 10 -9 0 -16 -4 -16 -10z"
       id="path16" />
    <path
       d="M3270 14750 c0 -5 7 -10 15 -10 8 0 15 5 15 10 0 6 -7 10 -15 10 -8 0 -15 -4 -15 -10z"
       id="path18" />
    <path
       d="M5801 8931 c-10 -7 -11 -13 -1 -31 13 -24 24 -18 35 18 7 23 -8 29 -34 13z"
       id="path20" />
    <path
       d="M6045 8926 c-10 -35 -14 -106 -5 -101 12 7 55 85 55 99 0 13 -46 15 -50 2z"
       id="path22" />
    <path
       d="M6150 8886 c0 -7 -11 -25 -25 -40 -13 -14 -22 -33 -19 -41 8 -20 21 -19 46 5 12 11 19 20 15 20 -4 0 -1 13 7 29 9 16 12 31 9 35 -11 11 -33 6 -33 -8z"
       id="path24" />
    <path
       d="M5967 8853 c-13 -12 -7 -23 13 -23 11 0 20 7 20 15 0 15 -21 21 -33 8z"
       id="path26" />
    <path
       d="M5503 8761 c-30 -25 -29 -35 2 -49 36 -16 35 -17 35 28 0 45 -5 48 -37 21z"
       id="path28" />
    <path
       d="M5758 8723 c7 -3 16 -2 19 1 4 3 -2 6 -13 5 -11 0 -14 -3 -6 -6z"
       id="path30" />
    <path
       d="M6325 8690 c-3 -5 -2 -10 4 -10 5 0 13 5 16 10 3 6 2 10 -4 10 -5 0 -13 -4 -16 -10z"
       id="path32" />
    <path
       d="M5740 8666 c0 -29 24 -41 41 -20 6 8 17 13 23 11 6 -3 19 2 29 11 15 14 17 13 17 -6 0 -12 5 -22 10 -22 16 0 11 37 -6 44 -9 3 -38 6 -65 6 -45 0 -49 -2 -49 -24z"
       id="path34" />
    <path
       d="M6286 8679 c-18 -59 -7 -84 16 -34 9 19 9 28 0 37 -8 8 -12 8 -16 -3z"
       id="path36" />
    <path
       d="M5926 8664 c-9 -22 -8 -24 9 -24 8 0 15 9 15 20 0 24 -15 27 -24 4z"
       id="path38" />
    <path
       d="M6007 8674 c-10 -10 -9 -44 2 -44 13 0 23 32 13 42 -5 5 -11 5 -15 2z"
       id="path40" />
    <path
       d="M6098 8672 c-12 -2 -18 -13 -18 -33 0 -26 3 -29 34 -29 32 0 45 15 46 51 0 9 -40 16 -62 11z"
       id="path42" />
    <path
       d="M6132 8570 c0 -14 2 -19 5 -12 2 6 2 18 0 25 -3 6 -5 1 -5 -13z"
       id="path44" />
    <path
       d="M5868 8534 c-2 -19 -1 -37 4 -40 4 -3 3 -16 -2 -30 -6 -14 -10 -43 -10 -64 0 -26 -5 -40 -16 -44 -26 -10 -28 0 -16 53 6 29 8 60 3 77 -11 37 -17 22 -31 -79 -11 -73 -10 -81 8 -100 14 -16 19 -36 19 -71 0 -37 4 -52 19 -63 17 -13 20 -11 25 16 4 17 14 43 24 58 l18 27 15 -22 c8 -12 19 -22 24 -22 13 0 0 73 -15 82 -7 4 -4 15 8 34 16 25 19 26 30 10 9 -11 11 -39 8 -84 -3 -37 -3 -64 1 -61 12 11 52 276 43 285 -3 3 -13 -18 -23 -46 -10 -27 -21 -50 -26 -50 -14 0 -32 45 -29 78 1 18 -3 32 -10 32 -6 0 -9 6 -6 13 19 45 19 47 3 47 -9 0 -16 -6 -16 -13 0 -7 -7 -22 -16 -33 -15 -18 -15 -18 -5 3 16 31 14 43 -8 43 -14 0 -20 -9 -23 -36z"
       id="path46" />
    <path
       d="M5978 8494 c-5 -4 -8 -16 -8 -28 0 -14 3 -17 11 -9 6 6 9 19 7 28 -1 9 -6 13 -10 9z"
       id="path48" />
    <path
       d="M6057 8494 c-4 -4 -7 -19 -6 -33 l0 -26 10 24 c10 26 8 47 -4 35z"
       id="path50" />
    <path
       d="M6465 8371 c-5 -16 -10 -20 -15 -11 -5 8 -9 7 -14 -5 -3 -9 -3 -21 0 -26 8 -13 47 38 41 54 -2 6 -7 1 -12 -12z"
       id="path52" />
    <path
       d="M6391 8365 c-1 -11 -4 -31 -6 -45 l-6 -25 11 25 c6 13 9 33 7 45 -4 19 -4 19 -6 0z"
       id="path54" />
    <path
       d="M6261 8240 c-18 -12 -47 -34 -64 -50 l-32 -29 23 -22 c19 -17 22 -27 16 -52 -3 -18 -11 -38 -18 -46 -9 -12 -6 -13 19 -7 43 9 152 127 161 172 8 42 6 43 -37 50 -24 3 -44 -1 -68 -16z"
       id="path56" />
    <path
       d="M5738 8073 c5 -36 5 -36 18 -12 18 33 17 49 -4 49 -15 0 -17 -6 -14 -37z"
       id="path58" />
    <path
       d="M6140 8088 c0 -7 5 -20 10 -28 8 -12 10 -9 10 13 0 15 -4 27 -10 27 -5 0 -10 -6 -10 -12z"
       id="path60" />
    <path
       d="M5402 8445 c0 -16 2 -22 5 -12 2 9 2 23 0 30 -3 6 -5 -1 -5 -18z"
       id="path62" />
    <path
       d="M5470 8463 c0 -6 -3 -18 -6 -27 -3 -9 -2 -16 4 -16 15 0 21 25 11 41 -5 9 -9 9 -9 2z"
       id="path64" />
    <path
       d="M2767 6813 c-25 -40 -147 -409 -147 -444 0 -23 54 -34 93 -20 16 6 64 11 107 11 87 0 130 12 130 35 0 16 -27 72 -78 165 -17 30 -36 75 -42 100 -32 121 -52 171 -63 153z"
       id="path66" />
    <path
       d="M5200 16630 c0 -16 18 -30 40 -30 16 0 -2 38 -21 43 -13 4 -19 0 -19 -13z"
       id="path68" />
    <path
       d="M5203 16555 c0 -8 4 -12 9 -9 5 3 6 10 3 15 -9 13 -12 11 -12 -6z"
       id="path70" />
    <path
       d="M5592 12360 c0 -14 2 -19 5 -12 2 6 2 18 0 25 -3 6 -5 1 -5 -13z"
       id="path72" />
    <path
       d="M10120 8338 c0 -11 50 -118 55 -118 2 0 -7 26 -20 57 -24 54 -35 73 -35 61z"
       id="path74" />
    <path
       d="M10180 8206 c0 -15 110 -235 120 -241 6 -4 -17 49 -51 117 -62 125 -69 137 -69 124z"
       id="path76" />
    <path
       d="M10317 7933 c3 -10 30 -57 59 -104 31 -49 54 -98 54 -113 0 -15 -4 -25 -9 -21 -5 3 -13 0 -17 -6 -3 -6 -1 -15 6 -19 7 -4 10 -15 7 -23 -3 -9 1 -21 9 -27 8 -7 14 -21 14 -31 0 -11 6 -19 13 -19 8 0 7 -3 -3 -10 -12 -8 -12 -10 2 -15 9 -3 19 -20 22 -38 8 -41 38 -107 48 -107 4 0 8 -13 8 -29 0 -17 4 -32 10 -36 5 -3 7 -11 4 -18 -2 -7 5 -23 16 -35 11 -12 18 -22 14 -22 -3 0 -1 -6 5 -13 6 -8 8 -16 5 -20 -3 -3 -3 -20 1 -37 5 -21 11 -30 21 -26 7 3 13 2 12 -2 -1 -4 6 -26 17 -49 12 -28 22 -39 29 -34 7 6 12 2 13 -12 4 -40 9 -57 20 -68 6 -6 9 -17 7 -24 -7 -18 17 -30 27 -14 5 9 8 -8 6 -44 -1 -46 2 -61 16 -71 9 -7 17 -17 17 -21 0 -5 11 -23 25 -41 14 -18 25 -39 25 -47 0 -8 8 -21 17 -28 14 -12 16 -12 8 0 -6 10 -4 12 4 7 8 -5 14 0 18 13 3 11 10 18 16 14 6 -3 7 -1 3 5 -7 12 -15 41 -20 77 -2 11 -4 20 -5 20 -8 0 -7 36 0 41 5 3 5 13 -1 25 -6 11 -8 24 -5 29 3 5 0 8 -7 5 -14 -5 -48 58 -48 89 0 9 -4 14 -10 11 -5 -3 -10 4 -10 15 0 16 -5 20 -15 16 -9 -3 -15 0 -15 8 0 7 -9 21 -20 31 -12 10 -19 24 -16 31 3 7 -5 32 -17 56 -13 24 -21 52 -19 63 2 16 1 17 -7 5 -9 -13 -11 -12 -11 6 0 11 -13 41 -30 67 -16 26 -30 52 -30 57 0 6 -4 10 -10 10 -5 0 -10 9 -10 20 0 31 14 24 33 -17 9 -21 28 -56 42 -78 14 -22 30 -51 37 -65 7 -14 15 -27 19 -30 3 -3 14 -21 25 -40 10 -19 21 -37 24 -40 8 -8 27 -39 67 -112 21 -37 42 -68 46 -68 5 0 6 3 4 8 -2 4 -63 107 -136 230 -72 123 -172 296 -222 385 -105 188 -199 347 -205 347 -2 0 -1 -8 3 -17z m155 -273 c7 -16 16 -30 20 -30 5 0 8 -7 8 -16 0 -19 -21 -14 -30 7 -4 8 -12 24 -18 36 -14 27 -15 33 -3 33 5 0 15 -13 23 -30z m67 -117 c31 -46 40 -83 21 -83 -5 0 -10 9 -10 20 0 10 -6 23 -13 27 -19 12 -47 83 -33 83 2 0 18 -21 35 -47z"
       id="path78" />
    <path
       d="M10380 7751 c0 -5 5 -13 10 -16 6 -3 10 -2 10 4 0 5 -4 13 -10 16 -5 3 -10 2 -10 -4z"
       id="path80" />
    <path
       d="M10341 7704 c0 -11 3 -14 6 -6 3 7 2 16 -1 19 -3 4 -6 -2 -5 -13z"
       id="path82" />
    <path
       d="M10371 7638 c-9 -23 -6 -38 7 -38 4 0 7 14 7 30 0 36 -3 37 -14 8z"
       id="path84" />
    <path
       d="M10436 7423 c-11 -11 -6 -23 9 -23 8 0 15 4 15 9 0 13 -16 22 -24 14z"
       id="path86" />
    <path
       d="M10460 7316 c0 -9 30 -14 35 -6 4 6 -3 10 -14 10 -12 0 -21 -2 -21 -4z"
       id="path88" />
    <path
       d="M10911 6913 c45 -80 64 -118 96 -195 15 -37 29 -66 31 -64 12 13 -136 316 -155 316 -3 0 10 -26 28 -57z"
       id="path90" />
    <path
       d="M10857 6703 c-12 -11 -8 -40 8 -53 10 -9 15 -9 15 -1 0 18 18 13 24 -6 2 -10 3 -4 1 14 -2 17 -6 37 -10 42 -7 12 -28 14 -38 4z"
       id="path92" />
    <path
       d="M10900 6579 c0 -18 2 -19 15 -9 15 12 12 30 -6 30 -5 0 -9 -10 -9 -21z"
       id="path94" />
    <path
       d="M11061 6575 c1 -19 18 -51 18 -35 0 8 -4 22 -9 30 -5 8 -9 11 -9 5z"
       id="path96" />
    <path
       d="M11400 3135 c-6 -55 -8 -63 -13 -72 -3 -5 -2 -15 3 -22 6 -10 9 -8 15 8 3 12 10 19 15 16 5 -3 11 -1 15 5 3 5 1 10 -4 10 -6 0 -10 3 -9 8 0 4 -1 14 -5 22 -3 8 -8 22 -10 30 -4 11 -6 9 -7 -5z"
       id="path98" />
    <path
       d="M11393 2974 c-3 -8 -1 -43 4 -77 l10 -62 2 78 c1 75 -3 93 -16 61z"
       id="path100" />
    <path
       d="M11200 2966 c0 -8 7 -16 15 -20 17 -6 18 -4 9 18 -8 20 -24 21 -24 2z"
       id="path102" />
    <path
       d="M11606 2903 c17 -120 17 -133 0 -133 -10 0 -16 -8 -16 -25 0 -31 20 -33 21 -2 1 21 1 21 10 -3 6 -16 7 9 5 74 -3 54 -9 103 -14 108 -6 6 -8 -1 -6 -19z"
       id="path104" />
    <path
       d="M11390 2805 c0 -8 5 -15 10 -15 6 0 10 7 10 15 0 8 -4 15 -10 15 -5 0 -10 -7 -10 -15z"
       id="path106" />
    <path
       d="M11390 2759 c0 -11 5 -17 10 -14 6 3 10 13 10 21 0 8 -4 14 -10 14 -5 0 -10 -9 -10 -21z"
       id="path108" />
    <path
       d="M11390 2716 c0 -9 5 -16 10 -16 6 0 10 4 10 9 0 6 -4 13 -10 16 -5 3 -10 -1 -10 -9z"
       id="path110" />
    <path
       d="M11602 2679 c-16 -25 -15 -32 3 -25 8 3 15 3 15 0 0 -3 -7 -12 -15 -20 -19 -20 -19 -35 0 -28 13 5 14 2 6 -19 -5 -14 -8 -27 -6 -29 3 -2 -2 -47 -11 -99 -8 -52 -12 -105 -9 -119 3 -14 8 -34 11 -45 4 -15 3 -16 -4 -6 -9 12 -10 -60 -2 -159 5 -63 30 185 36 361 7 194 2 231 -24 188z m8 -295 c0 -30 -3 -53 -7 -51 -8 5 -5 107 3 107 2 0 4 -25 4 -56z"
       id="path112" />
    <path
       d="M11391 2674 c0 -11 3 -14 6 -6 3 7 2 16 -1 19 -3 4 -6 -2 -5 -13z"
       id="path114" />
    <path
       d="M11375 2310 c3 -5 13 -10 21 -10 8 0 14 5 14 10 0 6 -9 10 -21 10 -11 0 -17 -4 -14 -10z"
       id="path116" />
    <path
       d="M11385 2270 c4 -6 11 -8 16 -5 14 9 11 15 -7 15 -8 0 -12 -5 -9 -10z"
       id="path118" />
    <path
       d="M11347 1893 c-10 -9 -9 -23 1 -23 5 0 9 7 9 15 0 17 -1 18 -10 8z"
       id="path120" />
    <path
       d="M11486 1802 c2 -3 -1 -11 -8 -19 -7 -9 -8 -17 -1 -24 7 -7 14 -5 23 6 11 13 11 18 -2 29 -8 8 -13 11 -12 8z"
       id="path122" />
    <path
       d="M11477 1725 c3 -8 9 -12 14 -9 12 7 11 11 -5 17 -10 4 -13 1 -9 -8z"
       id="path124" />
    <path
       d="M8340 1716 c0 -2 8 -10 18 -17 15 -13 16 -12 3 4 -13 16 -21 21 -21 13z"
       id="path126" />
    <path
       d="M7855 1670 c-3 -5 -1 -10 4 -10 6 0 11 5 11 10 0 6 -2 10 -4 10 -3 0 -8 -4 -11 -10z"
       id="path128" />
    <path
       d="M6922 1460 c0 -14 2 -19 5 -12 2 6 2 18 0 25 -3 6 -5 1 -5 -13z"
       id="path130" />
    <path
       d="M3065 1430 c-4 -12 -5 -24 -2 -27 3 -2 8 5 12 17 4 12 5 24 2 27 -3 2 -8 -5 -12 -17z"
       id="path132" />
    <path
       d="M6410 1416 c0 -14 5 -28 10 -31 6 -4 10 7 10 24 0 17 -4 31 -10 31 -5 0 -10 -11 -10 -24z"
       id="path134" />
    <path
       d="M6200 1410 c0 -25 20 -36 31 -19 13 21 11 26 -11 32 -15 4 -20 0 -20 -13z"
       id="path136" />
    <path
       d="M3171 1394 c0 -11 3 -14 6 -6 3 7 2 16 -1 19 -3 4 -6 -2 -5 -13z"
       id="path138" />
    <path
       d="M3641 1354 c0 -11 3 -14 6 -6 3 7 2 16 -1 19 -3 4 -6 -2 -5 -13z"
       id="path140" />
    <path
       d="M5720 1349 c0 -5 5 -7 10 -4 6 3 10 8 10 11 0 2 -4 4 -10 4 -5 0 -10 -5 -10 -11z"
       id="path142" />
    <path
       d="M5977 1333 c-4 -3 -7 -20 -7 -37 0 -35 15 -25 25 17 7 25 -3 36 -18 20z"
       id="path144" />
    <path
       d="M5530 1289 c0 -22 4 -38 8 -35 12 7 13 76 2 76 -6 0 -10 -18 -10 -41z"
       id="path146" />
    <path
       d="M3871 1301 c-10 -6 -10 -10 -1 -16 13 -8 24 -1 19 14 -3 6 -10 7 -18 2z"
       id="path148" />
    <path
       d="M5460 1300 c0 -5 7 -7 15 -4 8 4 15 8 15 10 0 2 -7 4 -15 4 -8 0 -15 -4 -15 -10z"
       id="path150" />
    <path
       d="M5645 1300 c-4 -6 -2 -17 4 -23 15 -15 25 -2 13 19 -7 12 -11 13 -17 4z"
       id="path152" />
    <path
       d="M5377 1293 c-4 -3 -7 -13 -7 -22 1 -13 3 -13 11 2 11 19 8 33 -4 20z"
       id="path154" />
    <path
       d="M5288 1274 c-5 -4 -8 -21 -8 -38 0 -21 3 -27 11 -19 6 6 9 23 7 38 -2 15 -6 23 -10 19z"
       id="path156" />
    <path
       d="M4311 1254 c0 -11 3 -14 6 -6 3 7 2 16 -1 19 -3 4 -6 -2 -5 -13z"
       id="path158" />
    <path
       d="M4567 1264 c-9 -10 16 -32 30 -27 7 3 13 0 13 -6 0 -6 4 -11 9 -11 6 0 9 9 8 19 0 10 -6 17 -13 14 -7 -2 -15 0 -19 6 -7 12 -19 14 -28 5z"
       id="path160" />
    <path
       d="M5045 1260 c3 -5 11 -10 16 -10 6 0 7 5 4 10 -3 6 -11 10 -16 10 -6 0 -7 -4 -4 -10z"
       id="path162" />
    <path
       d="M5090 1230 c0 -22 35 -46 45 -30 9 14 -13 50 -30 50 -8 0 -15 -9 -15 -20z"
       id="path164" />
    <path
       d="M1835 610 c-3 -5 -1 -10 4 -10 6 0 11 5 11 10 0 6 -2 10 -4 10 -3 0 -8 -4 -11 -10z"
       id="path166" />
    <path
       d="M1888 515 c-3 -11 -9 -29 -13 -40 -3 -11 1 -7 10 8 9 16 15 33 12 40 -2 6 -6 3 -9 -8z"
       id="path168" />
    <path
       d="M6756 431 c-4 -5 -3 -16 0 -25 4 -11 1 -16 -11 -16 -9 0 -13 4 -10 10 7 12 -33 -2 -85 -30 -99 -53 -247 -99 -320 -100 -19 0 -62 -11 -95 -25 -33 -13 -75 -25 -93 -25 -20 0 -35 -6 -38 -15 -4 -8 -13 -15 -21 -15 -12 0 -13 -3 -4 -14 10 -11 7 -17 -11 -30 -12 -9 -28 -16 -35 -16 -7 0 -13 -4 -13 -10 0 -5 7 -7 16 -3 12 4 15 1 13 -12 -2 -10 -12 -19 -22 -21 -31 -4 -33 -14 -7 -34 24 -19 24 -19 3 -13 -14 3 -23 1 -23 -6 0 -5 -6 -8 -14 -5 -8 3 -12 12 -9 20 3 8 0 14 -6 14 -6 0 -11 -7 -11 -15 0 -8 -9 -15 -20 -15 -11 0 -20 -4 -20 -9 0 -5 -8 -11 -17 -13 -10 -2 55 -5 144 -6 159 -1 163 -1 173 21 11 21 11 21 -4 3 -17 -21 -22 -11 -7 13 9 13 24 12 79 -4 14 -5 22 -3 22 4 0 7 -4 9 -10 6 -5 -3 -7 0 -4 9 7 18 34 10 52 -16 7 -10 21 -17 30 -17 16 1 16 2 0 6 -9 2 -19 11 -22 19 -3 8 -2 13 2 10 5 -3 16 4 25 15 10 11 21 18 26 15 4 -3 8 1 8 8 0 7 -6 13 -13 13 -7 0 -10 -5 -7 -10 3 -6 1 -7 -6 -3 -14 9 -5 26 15 26 8 0 14 5 14 10 0 6 7 10 16 10 8 0 12 5 9 10 -4 6 8 10 27 11 27 0 30 2 13 9 -16 7 -16 9 -4 9 18 1 80 31 64 31 -14 0 36 26 78 39 19 7 38 18 41 26 3 9 12 12 21 9 9 -4 21 1 29 11 7 10 18 15 24 11 7 -4 12 -2 12 4 0 6 14 16 30 21 17 6 30 15 30 20 0 4 7 6 15 3 8 -4 15 -1 15 6 0 7 7 10 15 6 8 -3 15 -1 15 5 0 6 9 8 19 4 11 -3 22 -1 25 4 4 5 15 8 25 6 10 -2 18 3 18 10 0 8 -4 12 -9 9 -10 -6 -11 10 -1 19 3 4 15 0 25 -10 14 -13 23 -14 40 -5 22 10 22 11 -7 11 -23 1 -26 4 -15 11 11 7 1 9 -32 8 -37 0 -48 -4 -48 -17 -1 -15 -2 -15 -13 0 -8 11 -22 15 -45 11 -34 -5 -39 -11 -20 -30 9 -9 9 -12 0 -12 -7 0 -12 5 -12 10 0 6 -7 10 -15 10 -9 0 -18 7 -21 15 -7 17 -20 20 -28 6z m124 -31 c0 -5 -2 -10 -4 -10 -3 0 -8 5 -11 10 -3 6 -1 10 4 10 6 0 11 -4 11 -10z m-740 -222 c0 -5 -6 -8 -14 -8 -9 0 -12 7 -9 21 4 16 8 17 14 7 5 -7 9 -16 9 -20z m-25 -48 c3 -5 -1 -10 -10 -10 -9 0 -13 5 -10 10 3 6 8 10 10 10 2 0 7 -4 10 -10z m135 -26 c0 -2 -9 -4 -20 -4 -11 0 -20 4 -20 9 0 5 9 7 20 4 11 -3 20 -7 20 -9z m-154 -41 c-3 -4 -6 -1 -6 6 0 7 -4 10 -8 7 -4 -2 -9 5 -9 16 -2 21 -2 21 14 -1 8 -12 12 -25 9 -28z m244 27 c0 -5 -8 -10 -17 -10 -15 0 -16 2 -3 10 19 12 20 12 20 0z m-56 -18 c3 -5 -1 -9 -9 -9 -8 0 -12 4 -9 9 3 4 7 8 9 8 2 0 6 -4 9 -8z m-214 -22 c0 -5 -5 -10 -11 -10 -5 0 -7 5 -4 10 3 6 8 10 11 10 2 0 4 -4 4 -10z"
       id="path170" />
    <path
       d="M5286 187 c3 -10 -3 -13 -23 -11 -15 1 -28 3 -28 4 0 1 -10 3 -22 4 -12 1 -20 -1 -17 -6 4 -5 12 -7 19 -4 8 3 19 -2 26 -10 13 -15 40 -15 51 1 11 14 10 35 -2 35 -5 0 -7 -6 -4 -13z"
       id="path172" />
    <path
       d="M5319 186 c9 -11 8 -17 -3 -29 -13 -13 -13 -16 -1 -21 8 -3 17 -1 21 5 9 14 -4 59 -17 59 -8 0 -8 -4 0 -14z"
       id="path174" />
  </g>
</svg>
