<?xml version="1.0" standalone="no"?>
<!DOCTYPE svg PUBLIC "-//W3C//DTD SVG 20010904//EN"
 "http://www.w3.org/TR/2001/REC-SVG-20010904/DTD/svg10.dtd">
<svg version="1.0" xmlns="http://www.w3.org/2000/svg"
 width="665.000000pt" height="1262.000000pt" viewBox="0 0 665.000000 1262.000000"
 preserveAspectRatio="xMidYMid meet">

<g transform="translate(0.000000,1262.000000) scale(0.100000,-0.100000)"
fill="#000000" stroke="none">
<path d="M3233 12506 c-33 -23 -58 -27 -81 -12 -7 4 -16 -2 -24 -19 -6 -14
-17 -24 -24 -21 -8 3 -16 0 -20 -6 -4 -7 -10 -5 -16 6 -5 9 -13 14 -18 11 -8
-5 -28 -68 -44 -139 -4 -16 -32 -54 -62 -86 -29 -31 -54 -63 -54 -71 0 -8 -6
-32 -14 -54 -10 -31 -11 -79 -5 -210 4 -93 11 -201 15 -239 l7 -68 -43 31
c-24 17 -47 31 -51 31 -9 0 5 -54 22 -87 11 -20 13 -21 24 -6 11 14 12 14 18
-1 4 -10 1 -19 -8 -22 -11 -5 -15 -23 -15 -70 0 -54 3 -65 21 -75 26 -13 39 1
39 44 0 39 20 34 21 -5 1 -41 4 -62 17 -115 7 -30 7 -43 -2 -47 -6 -3 -1 -8
11 -11 18 -6 24 -17 30 -59 4 -28 6 -57 5 -63 -2 -7 2 -30 7 -50 26 -98 31
-220 15 -365 -20 -183 -15 -300 17 -365 24 -49 39 -61 198 -163 45 -29 67 -48
61 -54 -13 -13 -151 27 -208 60 -95 56 -157 211 -156 394 0 77 5 116 17 144
13 28 14 43 7 50 -16 16 -150 16 -227 0 -75 -16 -329 -108 -353 -128 -25 -21
-141 -73 -202 -91 -32 -9 -60 -20 -63 -25 -3 -5 -28 -16 -57 -26 -42 -14 -71
-36 -158 -123 -118 -118 -154 -165 -196 -261 -37 -85 -67 -131 -104 -159 -19
-13 -30 -31 -30 -45 0 -14 -20 -48 -44 -78 -24 -30 -56 -83 -71 -117 -23 -56
-25 -69 -16 -111 17 -80 -16 -153 -77 -165 -15 -3 -43 -10 -62 -15 -19 -5 -46
-11 -59 -12 -29 -4 -44 -47 -61 -179 -12 -91 -9 -109 16 -109 44 0 295 -161
497 -318 31 -25 59 -43 61 -41 2 2 11 21 20 43 18 44 113 176 127 176 5 0 22
19 39 41 19 26 31 36 34 28 51 -167 76 -255 76 -271 0 -33 57 -265 100 -407
22 -74 40 -145 40 -158 0 -12 -10 -51 -21 -85 -24 -69 -22 -162 6 -253 22 -74
19 -118 -16 -203 -69 -169 -87 -235 -94 -337 -5 -70 -17 -135 -42 -215 -26
-85 -35 -136 -37 -195 -1 -66 -6 -89 -27 -125 -53 -92 -77 -171 -93 -308 -13
-110 -22 -147 -50 -210 -35 -78 -76 -220 -76 -264 0 -14 -7 -46 -16 -72 -15
-44 -15 -48 0 -59 9 -7 23 -30 30 -52 10 -30 26 -48 62 -72 27 -18 58 -39 69
-48 11 -9 29 -13 42 -10 12 3 24 1 28 -5 3 -5 12 -7 20 -3 11 4 15 -2 15 -20
0 -43 20 -49 141 -45 l111 3 34 40 c39 46 41 52 17 57 -14 3 -10 9 18 26 20
12 41 33 47 47 9 20 19 25 48 25 21 0 45 -7 55 -16 16 -14 31 -12 183 26 91
22 198 45 238 49 40 5 86 14 101 20 41 16 57 13 24 -5 -43 -23 -28 -26 52 -9
105 22 252 19 321 -6 30 -11 75 -24 99 -29 70 -16 228 -108 346 -203 61 -48
123 -95 139 -104 29 -15 31 -15 53 13 13 16 36 53 52 83 36 71 55 79 48 20 -4
-41 -25 -123 -41 -161 -6 -13 2 -22 33 -38 30 -15 41 -26 41 -44 0 -21 5 -24
62 -29 35 -3 65 -2 68 2 3 5 22 11 42 15 40 7 40 5 68 176 18 106 40 209 60
281 10 37 26 127 36 200 20 150 14 243 -27 408 l-22 92 22 52 c57 129 91 285
91 415 0 94 41 366 81 532 47 198 58 261 73 428 9 96 23 181 36 220 29 88 126
297 235 507 51 99 107 209 125 243 l32 64 103 -101 c91 -90 106 -101 138 -101
49 0 55 16 10 25 -46 8 -26 25 32 25 79 1 174 64 205 135 10 23 39 65 64 93
25 29 50 61 56 72 15 28 30 25 30 -6 0 -37 -65 -157 -117 -214 -56 -62 -96
-86 -156 -95 -26 -4 -50 -11 -53 -16 -2 -5 88 -55 201 -111 152 -75 212 -110
228 -132 19 -26 22 -50 29 -182 8 -174 23 -249 103 -499 80 -250 87 -304 89
-670 1 -252 -14 -361 -60 -426 -25 -37 -26 -40 -13 -84 9 -29 18 -44 26 -41 8
3 13 -3 13 -15 0 -16 4 -19 17 -15 15 6 15 5 1 -11 -18 -22 -29 -49 -21 -57 3
-3 14 4 24 16 19 21 19 21 19 1 0 -11 -6 -26 -14 -32 -8 -7 -17 -23 -20 -36
-4 -14 -10 -25 -15 -25 -15 0 -33 29 -27 45 3 8 2 15 -3 15 -4 0 -6 11 -3 25
2 15 0 25 -7 25 -6 0 -11 -10 -11 -22 -1 -21 -2 -21 -11 -5 -5 9 -14 17 -19
17 -9 0 -5 -69 6 -109 7 -23 7 -23 -19 -6 -14 9 -27 26 -29 37 -5 35 -25 32
-25 -4 0 -17 -5 -34 -12 -36 -27 -9 -43 -36 -37 -63 6 -30 -8 -49 -18 -24 -3
8 -12 15 -20 15 -8 0 -16 6 -19 13 -2 6 -8 -1 -11 -18 -4 -16 -16 -64 -26
-106 -26 -102 -26 -173 0 -199 27 -27 32 -26 74 20 20 22 37 40 39 40 1 0 4
-30 5 -68 3 -64 1 -69 -29 -100 -17 -17 -37 -32 -44 -32 -7 0 -15 -7 -19 -15
-3 -8 -1 -15 3 -15 5 0 12 6 14 13 4 7 6 6 6 -4 1 -23 -21 -39 -47 -34 -30 5
-28 -19 2 -33 28 -12 27 -19 -19 -151 -48 -141 -25 -180 56 -90 47 52 60 79
39 79 -5 0 -10 9 -10 20 0 11 7 20 15 20 8 0 15 -4 15 -10 0 -20 15 -9 43 31
37 53 37 71 -1 48 -12 -7 -25 -7 -45 0 -22 9 -26 15 -22 34 4 13 8 32 10 43 2
10 4 19 6 19 1 0 3 10 4 23 3 28 46 124 53 117 2 -2 12 3 20 12 10 10 17 12
20 5 2 -6 10 -8 18 -5 7 3 17 -2 20 -11 5 -12 10 -14 20 -6 10 9 13 3 12 -30
0 -42 -20 -63 -56 -59 -37 3 -47 0 -34 -13 7 -7 12 -22 12 -35 0 -13 5 -23 10
-23 6 0 10 -11 10 -23 0 -23 2 -23 46 -17 37 6 54 16 92 56 26 27 67 60 90 74
27 15 55 44 74 75 17 27 50 73 73 100 23 28 40 56 37 64 -3 8 2 19 10 25 8 6
19 20 25 31 20 38 43 164 43 235 0 59 5 81 29 128 68 133 85 192 61 207 -16
10 -11 63 10 105 19 38 20 65 27 687 6 678 2 780 -36 970 -20 97 -70 223 -137
342 -23 42 -57 103 -75 136 -40 71 -268 303 -403 410 -49 39 -107 89 -129 113
-40 42 -57 51 -57 32 0 -5 6 -9 13 -7 7 1 13 -10 15 -27 3 -24 1 -28 -10 -19
-10 9 -22 1 -51 -33 -41 -47 -42 -62 -2 -18 20 21 23 22 18 6 -3 -13 1 -21 11
-24 13 -2 12 -8 -9 -33 -38 -46 -39 -48 -52 -78 -13 -27 -13 -27 -38 -11 -30
19 -28 39 3 38 18 0 20 4 15 24 -5 22 -3 23 18 17 21 -7 22 -6 10 8 -7 9 -17
15 -21 12 -14 -9 -90 -112 -90 -123 0 -9 80 -32 113 -32 7 0 21 13 30 30 17
29 19 29 43 14 29 -19 34 -2 8 27 -16 17 -15 19 10 28 24 10 37 41 17 41 -5 0
-11 9 -14 19 -3 15 -1 18 12 14 13 -5 14 -3 4 8 -15 15 -17 59 -4 59 30 0 27
-139 -4 -238 -20 -64 -40 -98 -104 -183 -98 -128 -117 -150 -161 -182 -40 -29
-134 -72 -125 -57 3 6 1 10 -4 10 -6 0 -10 5 -8 11 1 6 -17 18 -40 28 l-42 16
29 13 c46 21 130 91 200 167 35 39 80 81 98 94 39 27 33 36 -33 47 -56 9 -105
31 -105 46 1 7 14 29 30 48 17 19 30 39 30 46 0 6 -27 35 -60 65 -33 30 -60
59 -60 66 0 7 16 41 35 77 26 46 34 71 30 89 -7 26 8 65 32 82 10 8 12 24 7
66 -5 48 -10 57 -35 68 -16 7 -39 26 -51 43 -49 67 -107 115 -178 149 -121 59
-174 84 -182 85 -5 1 -9 3 -10 4 -2 1 -34 4 -72 6 -85 4 -160 35 -253 106 -76
57 -101 68 -164 73 -54 4 -99 23 -154 65 -23 17 -60 34 -85 38 -39 6 -49 14
-77 56 l-33 48 0 -33 c-1 -138 -138 -337 -293 -423 -102 -57 -237 -97 -352
-103 -55 -3 -98 -3 -95 0 3 3 43 21 90 40 155 64 302 137 352 173 60 45 152
160 189 239 48 99 39 163 -26 201 -23 13 -34 97 -34 258 -1 94 2 113 20 143
14 23 31 36 52 40 30 6 30 6 7 15 -13 5 -29 7 -35 4 -14 -5 -8 29 25 164 22
85 40 124 40 83 0 -25 37 -93 51 -93 4 0 6 -7 3 -15 -6 -16 4 -20 21 -7 19 13
32 57 24 77 -4 11 -8 25 -8 32 -1 18 32 8 39 -12 9 -27 20 100 13 153 -6 44
-19 55 -30 25 -4 -10 -12 -22 -20 -26 -7 -4 -13 -15 -13 -22 0 -8 -4 -15 -10
-15 -5 0 -10 -6 -10 -14 0 -13 -60 -49 -68 -41 -2 2 6 30 18 62 13 36 24 93
27 148 3 50 10 95 15 102 5 6 6 27 3 46 -4 19 -2 44 4 54 8 16 0 48 -35 149
-25 71 -50 145 -57 164 -7 19 -19 35 -27 35 -8 0 -28 20 -45 45 -24 36 -43 51
-95 74 -36 15 -90 39 -120 52 -30 14 -68 27 -85 30 -16 3 -35 10 -42 16 -7 6
-23 8 -35 5 -11 -3 -29 -2 -39 3 -12 7 -21 5 -29 -5 -16 -19 -54 -19 -106 1
-39 15 -44 15 -65 0 -26 -18 -104 -22 -114 -6 -4 6 -15 8 -26 5 -11 -4 -19 -2
-19 4 0 16 -11 13 -47 -13z m-41 -302 c21 -11 45 -14 72 -11 37 5 39 4 22 -9
-11 -8 -25 -14 -31 -14 -6 0 -24 -14 -40 -30 -21 -22 -35 -28 -49 -24 -20 6
-20 5 -4 -11 16 -17 19 -17 53 13 38 34 49 36 108 23 31 -8 37 -7 33 5 -7 18
-1 18 59 -4 44 -16 58 -17 120 -6 39 6 84 16 102 22 24 8 36 7 52 -4 15 -11
34 -13 71 -8 27 4 50 10 50 14 0 9 31 6 48 -4 6 -4 16 -5 21 -2 5 4 12 0 15
-6 5 -10 7 -10 12 0 3 6 17 12 30 12 58 0 154 -158 154 -254 0 -30 -5 -58 -10
-61 -8 -5 -7 -11 0 -20 6 -8 10 -24 9 -37 -2 -13 -1 -28 3 -33 7 -11 -6 -153
-15 -162 -3 -3 -1 -17 4 -31 7 -18 6 -28 -3 -34 -11 -6 -11 -8 0 -8 19 0 8
-111 -12 -126 -9 -6 -16 -16 -16 -21 0 -6 -6 -16 -14 -23 -8 -6 -12 -18 -9
-27 3 -8 2 -18 -4 -22 -5 -3 -14 -22 -19 -41 -6 -21 -19 -39 -32 -45 -14 -6
-21 -16 -19 -27 3 -12 0 -15 -11 -11 -10 4 -13 2 -8 -5 4 -7 1 -12 -9 -12 -8
0 -20 -11 -25 -24 -5 -13 -14 -26 -20 -28 -19 -6 -1 -75 21 -81 30 -8 33 -34
9 -69 -18 -27 -21 -29 -17 -10 8 35 -19 39 -48 8 -14 -15 -24 -30 -23 -34 4
-18 -24 -92 -35 -92 -23 0 -87 51 -87 69 0 11 -7 21 -15 25 -8 3 -15 12 -15
20 0 15 -34 31 -48 22 -5 -3 -26 1 -48 9 -21 8 -76 14 -121 15 -76 0 -102 9
-70 24 11 6 -7 4 -120 -10 -75 -9 -81 44 -13 104 l38 33 44 -31 c34 -24 56
-31 98 -33 31 -1 55 2 55 8 1 28 18 36 64 30 52 -7 79 10 67 41 -5 14 -17 16
-77 11 -48 -4 -86 -1 -121 10 -28 8 -66 13 -85 11 -40 -5 -41 2 -8 59 24 40
25 43 7 43 -11 0 -30 -8 -43 -19 -54 -41 -84 -51 -125 -39 -22 6 -50 12 -64
13 -14 1 -31 3 -38 4 -8 1 -11 8 -7 20 3 11 0 21 -9 24 -9 4 -17 -1 -19 -11
-3 -12 -5 -11 -6 5 0 12 -6 25 -11 28 -6 4 -8 10 -5 15 3 5 1 11 -5 15 -5 3
-10 15 -10 26 0 10 -4 19 -10 19 -5 0 -10 13 -10 30 0 23 -4 28 -16 23 -13 -5
-15 -2 -9 15 3 12 2 22 -3 22 -11 0 -10 250 1 267 4 7 1 26 -7 42 -14 25 -14
30 -1 41 8 7 15 20 15 29 0 14 -2 14 -10 1 -5 -8 -10 -10 -10 -4 0 5 5 15 12
22 9 9 8 12 -6 12 -12 0 -16 6 -12 18 2 9 8 36 11 60 4 23 11 42 16 42 5 0 9
5 9 11 0 19 33 83 54 106 53 57 70 72 74 68 3 -2 14 2 26 10 26 19 40 19 78
-1z m343 -44 c3 -5 1 -10 -4 -10 -6 0 -11 5 -11 10 0 6 2 10 4 10 3 0 8 -4 11
-10z m35 0 c0 -5 -4 -10 -10 -10 -5 0 -10 5 -10 10 0 6 5 10 10 10 6 0 10 -4
10 -10z m698 -624 c-4 -30 -38 -34 -39 -4 0 22 -1 22 -9 3 -7 -16 -9 -17 -9
-3 -1 20 27 38 46 31 8 -3 13 -15 11 -27z m-297 -450 c5 3 9 1 9 -4 0 -6 -7
-12 -15 -16 -11 -4 -15 1 -14 17 0 12 3 16 6 9 2 -6 9 -10 14 -6z m-874 -38
c-3 -8 -6 -5 -6 6 -1 11 2 17 5 13 3 -3 4 -12 1 -19z m61 -47 c23 -20 30 -33
26 -46 -5 -13 -4 -16 5 -11 9 6 9 3 -1 -13 -14 -23 -13 -23 -45 -26 -18 -2
-22 4 -27 39 -5 33 -4 61 3 84 2 5 9 1 39 -27z m792 19 c0 -5 -4 -10 -10 -10
-5 0 -10 5 -10 10 0 6 5 10 10 10 6 0 10 -4 10 -10z m-628 -136 c66 -34 185
-37 243 -5 41 22 85 28 85 12 0 -5 9 -13 21 -16 15 -5 17 -10 9 -20 -8 -9 -7
-14 5 -19 15 -5 21 -37 8 -50 -4 -3 -8 -15 -10 -26 -1 -11 -4 -24 -5 -29 -2
-5 2 -9 7 -9 6 0 9 4 7 10 -1 5 6 7 17 3 11 -3 23 0 28 7 4 7 20 13 35 14 15
1 25 -3 21 -9 -3 -5 1 -13 8 -18 11 -7 11 -9 -3 -9 -9 0 -19 -6 -21 -12 -4
-10 -7 -10 -14 -1 -15 21 -89 -7 -98 -38 -3 -9 -17 -20 -31 -23 -14 -4 -27
-12 -30 -19 -3 -8 -17 -11 -41 -9 -22 3 -33 1 -29 -6 3 -5 -6 -12 -20 -15 -18
-3 -24 -1 -20 9 8 21 -92 23 -105 2 -4 -6 -18 -4 -37 6 -17 9 -36 16 -42 16
-14 0 -49 40 -50 57 0 6 -5 13 -11 15 -7 2 -7 12 0 31 l11 27 37 -17 c21 -9
68 -19 105 -21 56 -3 71 0 96 18 20 15 28 28 25 41 -3 10 -9 19 -14 19 -5 0
-6 8 -3 18 4 10 3 13 -3 6 -5 -7 -28 -9 -68 -4 -33 4 -63 5 -67 3 -5 -2 -8 1
-8 6 0 6 -18 11 -40 11 -22 0 -40 -4 -40 -10 0 -5 -7 -10 -15 -10 -8 0 -15 -4
-15 -10 0 -5 -4 -10 -10 -10 -5 0 -10 7 -10 15 0 7 -7 18 -16 23 -15 8 -15 11
3 29 36 36 60 40 105 17z m458 -75 c0 -11 -3 -11 -24 -3 -23 9 -20 23 4 17 11
-3 20 -9 20 -14z m-580 -139 c0 -5 -4 -10 -10 -10 -5 0 -10 5 -10 10 0 6 5 10
10 10 6 0 10 -4 10 -10z m753 -95 c-15 -18 -31 -34 -35 -34 -17 -2 -6 26 22
53 17 16 31 34 31 40 1 6 3 3 6 -7 3 -10 -8 -32 -24 -52z m-926 33 c-3 -8 -6
-5 -6 6 -1 11 2 17 5 13 3 -3 4 -12 1 -19z m633 -3 c0 -8 -4 -15 -10 -15 -5 0
-7 7 -4 15 4 8 8 15 10 15 2 0 4 -7 4 -15z m180 -8 c0 -2 -10 -12 -21 -23 -22
-19 -22 -19 -10 4 10 18 31 31 31 19z m-813 -49 c-3 -7 -5 -2 -5 12 0 14 2 19
5 13 2 -7 2 -19 0 -25z m723 -39 c-24 -21 -46 -36 -49 -34 -5 6 47 55 58 55 5
0 12 7 15 16 4 9 10 14 14 9 4 -4 -13 -24 -38 -46z m91 -60 c-17 -17 -31 -28
-31 -24 0 11 52 66 58 61 2 -3 -10 -19 -27 -37z m19 -13 c0 -2 -7 -9 -15 -16
-13 -11 -14 -10 -9 4 5 14 24 23 24 12z m-60 -22 c0 -8 -4 -12 -10 -9 -5 3
-10 1 -10 -5 0 -6 -4 -8 -10 -5 -6 4 -5 11 3 20 16 19 27 19 27 -1z m-1479
-702 c-16 -30 -13 -67 5 -83 19 -15 60 -16 279 -5 164 8 216 0 97 -15 -31 -4
-121 -21 -198 -38 -236 -50 -259 -46 -252 46 4 44 11 60 38 88 36 37 49 40 31
7z m1704 -52 c-4 -6 5 -10 19 -10 14 0 26 5 26 10 0 6 5 10 11 10 6 0 8 -7 5
-15 -5 -13 0 -15 29 -9 31 5 34 4 28 -12 -4 -11 -3 -15 5 -10 12 7 87 -62 116
-107 15 -21 21 -25 32 -16 11 9 14 8 14 -4 0 -8 -5 -17 -11 -19 -6 -2 1 -20
15 -41 14 -21 26 -43 26 -48 0 -6 -14 -24 -31 -40 -28 -26 -29 -29 -10 -29 47
0 51 -85 4 -96 -15 -4 -28 -2 -33 6 -4 7 -10 8 -13 3 -3 -5 -2 -15 4 -23 15
-25 10 -47 -18 -81 -29 -34 -114 -79 -151 -79 -12 0 -25 -7 -28 -15 -4 -8 -15
-15 -26 -15 -10 0 -17 4 -14 9 3 5 -8 11 -25 13 -23 4 -29 1 -24 -10 3 -8 0
-12 -7 -9 -7 2 -12 9 -11 15 1 5 -9 12 -22 15 -14 2 -25 0 -25 -4 0 -5 -5 -9
-11 -9 -6 0 -9 6 -6 14 4 9 -5 18 -22 26 -16 6 -48 30 -71 53 -64 63 -87 130
-54 157 13 12 12 15 -14 26 -49 20 -48 87 2 100 21 5 24 9 16 24 -19 35 -11
65 21 89 33 25 33 39 0 21 -31 -16 -27 6 5 26 20 14 27 15 34 5 5 -10 18 -5
49 17 24 17 67 36 96 43 30 7 52 16 49 21 -3 4 2 8 11 8 9 0 13 -4 10 -10z
m1721 -67 c-8 -9 -36 30 -29 40 3 5 12 -1 20 -13 8 -12 12 -24 9 -27z m-4 -62
c-8 -5 -13 -11 -12 -15 2 -15 -18 -38 -29 -32 -8 5 -8 13 0 28 19 36 33 47 44
37 6 -7 5 -13 -3 -18z m-1403 -64 c6 -8 8 -17 4 -20 -7 -8 -33 11 -33 24 0 13
16 11 29 -4z m1361 -2 c0 -7 -6 -18 -14 -22 -7 -4 -15 -15 -18 -23 -5 -12 -7
-11 -13 4 -6 13 -3 23 8 31 9 7 14 15 10 18 -3 4 1 7 10 7 10 0 17 -7 17 -15z
m-2650 -685 c295 -44 263 -31 255 -100 l-7 -58 39 -6 c95 -15 299 -35 416 -42
70 -3 127 -9 127 -11 0 -8 -171 -287 -183 -300 -9 -9 -51 -9 -182 2 -93 8
-189 17 -211 21 l-41 6 -7 -56 c-7 -55 -8 -56 -39 -56 -33 0 -437 66 -471 76
-16 5 -18 13 -12 63 l6 56 -107 29 c-101 26 -266 88 -287 107 -17 15 96 10
149 -6 27 -9 79 -17 115 -19 59 -4 62 -3 30 7 -19 6 -37 13 -40 16 -3 3 -9 6
-15 6 -5 1 -29 9 -52 19 -33 14 -43 24 -43 41 0 18 -11 26 -60 44 -33 12 -60
27 -60 32 0 25 32 119 39 114 12 -7 299 -55 332 -55 28 0 29 2 29 48 0 27 3
51 6 55 7 6 5 7 274 -33z m-592 -210 c-15 -24 -19 -21 -11 8 3 12 9 19 14 16
5 -3 3 -14 -3 -24z m-54 -350 c16 -16 -4 -25 -24 -12 -30 18 -31 16 -28 -35 3
-41 7 -49 36 -64 l32 -19 0 60 c0 49 3 58 15 54 8 -4 15 -17 15 -30 0 -13 9
-28 19 -34 28 -14 31 -13 31 16 0 33 33 30 38 -4 6 -38 -18 -132 -33 -132 -21
0 -26 16 -15 46 8 21 8 29 -2 36 -24 14 -38 8 -38 -17 0 -31 -1 -31 -72 2 -70
32 -75 45 -59 166 1 8 71 -19 85 -33z m266 -94 c54 -15 56 -17 86 -78 l31 -63
23 53 c16 36 28 52 41 52 11 0 19 -4 19 -10 0 -21 -55 -120 -66 -120 -38 0
-65 23 -93 78 -27 54 -33 59 -75 69 -60 13 -65 -10 -6 -28 55 -17 51 -33 -5
-26 -39 6 -45 4 -45 -12 0 -15 10 -20 50 -25 75 -10 73 -27 -2 -20 -86 9 -92
15 -84 88 7 65 17 79 50 66 12 -5 46 -16 76 -24z m295 -56 c62 -16 75 -26 75
-57 0 -17 -7 -27 -21 -30 -20 -6 -20 -7 8 -29 15 -13 30 -23 33 -24 3 0 3 22
2 48 -5 67 6 74 90 58 90 -17 101 -28 95 -89 -2 -26 -9 -53 -14 -58 -11 -11
-127 6 -148 21 -5 4 -27 11 -48 14 -22 4 -58 21 -80 37 l-42 31 -3 -31 c-2
-23 -8 -31 -22 -31 -29 0 -33 16 -19 91 10 55 16 68 28 65 9 -2 39 -10 66 -16z
m357 -60 c5 0 8 -24 7 -57 l-3 -58 57 -3 57 -3 0 45 c0 68 14 76 128 76 53 0
127 3 165 7 57 5 67 4 67 -10 0 -10 -10 -17 -27 -19 -27 -3 -28 -6 -31 -66 -3
-62 -3 -63 -30 -60 -25 3 -27 6 -30 61 l-3 58 -87 -3 c-95 -3 -119 -21 -34
-26 37 -2 52 -7 52 -18 0 -10 -14 -14 -55 -14 -42 0 -55 -3 -55 -15 0 -12 13
-15 60 -15 47 0 60 -3 60 -15 0 -13 -19 -15 -122 -15 -68 1 -147 3 -175 7
l-53 5 0 67 c0 71 5 85 28 76 7 -3 18 -5 24 -5z m2948 -1370 c8 -5 11 -12 7
-16 -4 -4 -15 0 -24 9 -18 18 -8 23 17 7z m-234 -131 c7 -6 10 -18 7 -28 -3
-10 0 -22 6 -25 16 -10 14 -66 -3 -66 -7 0 -16 9 -19 20 -9 37 -27 21 -27 -24
0 -57 -21 -77 -41 -38 -8 15 -18 30 -22 33 -10 7 -31 42 -47 78 -12 28 0 48
33 53 49 7 103 5 113 -3z m239 -119 c-7 -22 -26 -23 -33 -2 -2 7 3 12 12 12 9
0 16 5 16 12 0 6 3 9 6 5 3 -3 3 -15 -1 -27z m-111 -38 c-9 -12 -24 -18 -35
-15 -11 3 -19 0 -19 -6 0 -6 7 -11 15 -11 25 0 17 -34 -14 -61 -17 -15 -33
-38 -37 -53 -3 -14 -19 -36 -35 -47 -16 -11 -26 -25 -23 -31 5 -7 2 -8 -7 -2
-8 4 -20 9 -28 11 -24 3 -33 28 -11 31 25 4 27 40 3 58 -13 9 -14 13 -4 14 8
0 11 6 7 18 -6 16 -5 16 8 0 7 -10 16 -18 19 -18 11 0 16 33 7 50 -5 10 -7 26
-4 34 7 19 31 21 36 4 3 -9 8 -9 19 0 56 47 79 62 93 62 9 0 17 6 17 13 1 6 4
2 6 -10 2 -12 -3 -30 -13 -41z m56 -42 c0 -10 -31 -22 -38 -16 -2 3 -2 12 1
20 6 15 37 12 37 -4z m-284 -88 c-10 -2 -22 0 -28 6 -6 6 0 7 19 4 21 -5 23
-7 9 -10z m284 -27 c0 -8 -4 -15 -9 -15 -13 0 -22 16 -14 24 11 11 23 6 23 -9z
m-283 -10 c2 -6 -5 -15 -15 -21 -15 -10 -18 -8 -20 13 -1 18 2 24 15 21 9 -2
18 -8 20 -13z m-2159 -128 c6 0 12 -6 12 -14 0 -11 -6 -11 -30 2 -32 17 -42
32 -12 20 9 -4 23 -8 30 -8z m82 -12 c22 -14 40 -28 40 -32 0 -17 -25 -73 -32
-73 -5 0 -26 11 -48 25 l-39 24 17 41 c9 22 18 40 20 40 1 0 20 -11 42 -25z
m-415 -125 c3 -5 2 -10 -4 -10 -5 0 -13 5 -16 10 -3 6 -2 10 4 10 5 0 13 -4
16 -10z m2362 -72 c-3 -7 -5 -2 -5 12 0 14 2 19 5 13 2 -7 2 -19 0 -25z"/>
<path d="M3148 12183 c6 -2 18 -2 25 0 6 3 1 5 -13 5 -14 0 -19 -2 -12 -5z"/>
<path d="M3027 11864 c-9 -9 4 -35 14 -28 5 3 9 12 9 20 0 14 -12 19 -23 8z"/>
<path d="M3035 11731 c-10 -17 12 -21 25 -6 10 12 10 15 -3 15 -9 0 -18 -4
-22 -9z"/>
<path d="M2952 11648 c6 -18 28 -21 28 -4 0 9 -7 16 -16 16 -9 0 -14 -5 -12
-12z"/>
<path d="M3120 11654 c-8 -3 -22 -8 -30 -12 -8 -3 -24 -6 -35 -6 -23 -1 -59
-64 -46 -80 5 -6 14 -27 20 -47 11 -34 15 -37 61 -42 28 -3 60 -13 71 -21 12
-8 28 -12 37 -9 9 4 13 2 9 -4 -4 -6 18 -9 63 -7 56 2 68 0 63 -12 -6 -17 6
-18 44 -3 41 15 72 47 66 69 -9 33 84 45 117 15 9 -8 24 -15 33 -15 9 0 16 -5
15 -12 -3 -10 85 -42 152 -54 22 -4 23 -3 5 5 l-20 10 20 2 c11 1 25 3 31 3 6
1 18 6 25 12 15 11 54 29 81 37 54 18 -44 88 -114 82 -43 -3 -48 7 -16 29 25
18 68 21 68 6 0 -5 10 -10 23 -9 12 0 40 -3 63 -6 34 -6 41 -4 41 9 0 9 -6 15
-12 12 -7 -2 -28 6 -48 19 -19 13 -37 22 -40 19 -3 -3 -14 -1 -26 5 -11 6 -22
7 -25 2 -3 -4 -26 -7 -50 -5 -30 2 -50 -2 -60 -11 -8 -8 -21 -15 -28 -15 -7 0
-38 -9 -68 -20 -30 -11 -60 -20 -67 -20 -6 0 -24 -5 -40 -11 -38 -16 -89 -11
-127 12 -17 10 -38 19 -48 19 -9 0 -38 11 -65 24 -49 25 -116 39 -143 30z
m710 -142 c23 -18 22 -18 -44 -9 -75 12 -88 27 -22 27 28 0 52 -7 66 -18z"/>
<path d="M2960 11605 c0 -8 5 -15 10 -15 6 0 10 7 10 15 0 8 -4 15 -10 15 -5
0 -10 -7 -10 -15z"/>
<path d="M3947 11563 c-9 -2 -15 -9 -12 -14 9 -14 32 -11 39 6 6 15 4 16 -27
8z"/>
<path d="M3126 11425 c35 -31 96 -51 121 -40 14 7 11 9 -18 15 -20 3 -55 16
-78 28 -54 29 -61 28 -25 -3z"/>
<path d="M3706 11402 c-12 -21 57 -30 84 -11 11 7 4 8 -24 3 -26 -4 -41 -3
-46 6 -5 8 -10 8 -14 2z"/>
<path d="M3758 11193 c7 -3 16 -2 19 1 4 3 -2 6 -13 5 -11 0 -14 -3 -6 -6z"/>
<path d="M3840 11162 c0 -18 4 -32 10 -32 5 0 7 7 4 15 -4 8 -2 15 4 15 6 0
12 -5 14 -12 2 -6 10 -8 16 -4 18 11 14 26 -6 26 -10 0 -23 5 -30 12 -9 9 -12
5 -12 -20z"/>
<path d="M3700 11160 c0 -5 5 -10 10 -10 6 0 10 5 10 10 0 6 -4 10 -10 10 -5
0 -10 -4 -10 -10z"/>
<path d="M3470 11030 c0 -5 5 -10 10 -10 6 0 10 5 10 10 0 6 -4 10 -10 10 -5
0 -10 -4 -10 -10z"/>
<path d="M3851 11024 c0 -11 3 -14 6 -6 3 7 2 16 -1 19 -3 4 -6 -2 -5 -13z"/>
<path d="M3960 9621 c0 -17 15 -19 28 -5 11 12 9 14 -8 14 -11 0 -20 -4 -20
-9z"/>
<path d="M4024 9621 c3 -5 -1 -11 -9 -15 -22 -8 -18 -26 5 -26 13 0 20 7 20
20 0 11 7 20 16 20 8 0 12 -4 9 -10 -3 -5 -2 -10 3 -10 6 0 12 7 16 15 4 12
-3 15 -30 15 -19 0 -33 -4 -30 -9z"/>
<path d="M3902 9603 c-48 -27 -152 -113 -152 -127 0 -15 32 -46 46 -46 5 0 16
4 24 10 12 7 9 13 -13 30 -32 25 -35 45 -7 37 15 -4 20 0 20 14 0 21 20 25 37
8 7 -7 9 -3 6 15 -4 19 -1 26 10 26 9 0 19 -4 22 -10 12 -19 26 -11 15 9 -11
22 0 34 22 26 9 -4 15 0 15 10 0 19 -5 19 -45 -2z"/>
<path d="M4100 9595 c0 -24 1 -24 18 -7 12 11 14 20 8 24 -19 13 -26 9 -26
-17z"/>
<path d="M4146 9574 c-20 -20 -20 -34 -1 -34 8 0 15 7 15 15 0 8 7 15 16 15 8
0 12 5 9 10 -9 14 -21 12 -39 -6z"/>
<path d="M4060 9569 c0 -7 -15 -10 -40 -7 -22 2 -40 0 -40 -4 0 -5 20 -8 45
-8 33 0 45 4 45 15 0 8 -2 15 -5 15 -3 0 -5 -5 -5 -11z"/>
<path d="M3940 9550 c0 -5 7 -10 16 -10 8 0 12 5 9 10 -3 6 -10 10 -16 10 -5
0 -9 -4 -9 -10z"/>
<path d="M4197 9541 c-10 -4 -18 -11 -17 -16 1 -5 -6 -12 -16 -15 -14 -5 -15
-8 -4 -15 9 -5 21 0 36 18 12 14 25 23 30 19 4 -4 4 -1 0 6 -4 6 -8 12 -9 11
-1 0 -10 -4 -20 -8z"/>
<path d="M3975 9533 c-46 -11 -32 -21 47 -32 119 -17 127 -20 134 -46 6 -26
-24 -234 -37 -250 -4 -6 -37 -22 -73 -35 -62 -24 -66 -27 -66 -57 0 -17 -5
-35 -11 -38 -17 -11 -22 2 -11 34 10 27 8 30 -18 40 -23 8 -28 7 -24 -4 3 -8
12 -11 20 -8 19 7 18 -17 -1 -44 -15 -21 -14 -22 26 -33 74 -20 174 2 241 53
33 26 43 40 43 62 0 39 -25 44 -67 12 -18 -14 -53 -32 -78 -41 -25 -8 -38 -15
-29 -16 11 0 16 -8 15 -22 -1 -13 3 -26 9 -30 5 -4 0 -8 -12 -8 -17 0 -25 8
-31 33 l-9 32 -9 -33 c-12 -42 -25 -45 -35 -8 -11 40 2 52 59 60 29 4 70 20
103 41 30 19 60 35 66 35 9 0 10 7 4 23 -10 27 1 62 25 75 16 9 15 10 -5 17
-12 3 -31 25 -43 48 -59 118 -136 163 -233 140z m189 -406 c9 -15 7 -21 -8
-33 -27 -20 -35 -18 -48 12 -10 21 -9 27 3 35 20 13 40 7 53 -14z"/>
<path d="M4131 9114 c0 -11 3 -14 6 -6 3 7 2 16 -1 19 -3 4 -6 -2 -5 -13z"/>
<path d="M4117 9529 c7 -7 15 -10 18 -7 3 3 -2 9 -12 12 -14 6 -15 5 -6 -5z"/>
<path d="M3887 9516 c-4 -10 -1 -13 9 -9 7 3 14 9 14 14 0 14 -17 10 -23 -5z"/>
<path d="M4240 9513 c0 -7 -6 -13 -12 -13 -18 -1 -51 -27 -41 -33 4 -3 22 3
40 12 23 13 29 21 22 32 -6 10 -9 10 -9 2z"/>
<path d="M3871 9465 c-29 -25 -62 -45 -74 -45 -20 -1 -21 -2 -4 -14 20 -16 23
-60 3 -78 -12 -11 -11 -16 5 -33 11 -11 36 -39 56 -63 42 -50 86 -76 113 -67
19 6 35 49 25 65 -4 6 -1 10 5 10 6 0 13 -7 16 -15 12 -29 25 -15 18 20 -6 35
3 44 23 24 8 -8 13 -5 18 10 8 26 -1 42 -20 34 -11 -4 -15 2 -15 21 0 19 -5
26 -20 26 -14 0 -21 -9 -26 -35 -7 -38 -19 -46 -28 -17 -2 9 -2 -18 1 -60 3
-45 1 -78 -4 -78 -5 0 -26 17 -46 38 l-37 38 23 132 c13 73 23 132 22 132 -1
0 -25 -20 -54 -45z m159 -125 c0 -5 -4 -10 -10 -10 -5 0 -10 5 -10 10 0 6 5
10 10 10 6 0 10 -4 10 -10z m35 -50 c3 -5 2 -10 -4 -10 -5 0 -13 5 -16 10 -3
6 -2 10 4 10 5 0 13 -4 16 -10z"/>
<path d="M3933 9483 c-7 -19 6 -51 15 -36 4 7 20 18 35 26 l28 15 -36 4 c-25
3 -39 0 -42 -9z"/>
<path d="M4065 9470 c3 -5 8 -10 11 -10 2 0 4 5 4 10 0 6 -5 10 -11 10 -5 0
-7 -4 -4 -10z"/>
<path d="M4112 9443 c4 -36 33 -39 33 -3 0 16 -6 26 -18 28 -15 3 -18 -2 -15
-25z"/>
<path d="M4247 9456 c-15 -7 -24 -15 -21 -19 4 -4 1 -7 -6 -7 -7 0 -11 -3 -7
-6 7 -7 67 27 67 38 0 4 -1 8 -2 7 -2 0 -15 -6 -31 -13z"/>
<path d="M3940 9422 c8 -6 49 -15 90 -22 41 -6 83 -14 93 -16 9 -3 17 -1 17 3
0 5 -35 15 -77 21 -43 7 -91 15 -108 18 -21 3 -26 2 -15 -4z"/>
<path d="M4275 9396 c-29 -24 -28 -46 4 -46 32 0 57 49 33 64 -5 3 -21 -5 -37
-18z"/>
<path d="M3954 9372 c-6 -4 -3 -14 8 -24 17 -17 18 -17 18 1 0 23 -11 33 -26
23z"/>
<path d="M4008 9373 c6 -2 18 -2 25 0 6 3 1 5 -13 5 -14 0 -19 -2 -12 -5z"/>
<path d="M4060 9330 c20 -13 33 -13 25 0 -3 6 -14 10 -23 10 -15 0 -15 -2 -2
-10z"/>
<path d="M3752 9274 c-13 -22 -4 -52 25 -91 l24 -33 23 27 24 28 -30 42 c-31
45 -51 54 -66 27z"/>
<path d="M3852 9178 c-18 -18 -14 -32 3 -18 9 7 19 10 23 6 4 -4 -3 -16 -15
-26 -13 -10 -23 -21 -23 -24 0 -8 61 -38 67 -32 10 9 -8 25 -22 19 -19 -7 -19
1 0 37 14 27 14 30 -3 39 -13 7 -23 6 -30 -1z"/>
<path d="M2840 8740 c0 -13 18 -22 24 -11 3 5 -1 11 -9 15 -8 3 -15 1 -15 -4z"/>
<path d="M2888 8723 c7 -3 16 -2 19 1 4 3 -2 6 -13 5 -11 0 -14 -3 -6 -6z"/>
<path d="M2978 8713 c7 -3 16 -2 19 1 4 3 -2 6 -13 5 -11 0 -14 -3 -6 -6z"/>
<path d="M2688 8473 c7 -3 16 -2 19 1 4 3 -2 6 -13 5 -11 0 -14 -3 -6 -6z"/>
<path d="M2760 8375 c-7 -9 -11 -18 -8 -20 3 -3 11 1 18 10 7 9 11 18 8 20 -3
3 -11 -1 -18 -10z"/>
<path d="M2800 8321 c17 -10 125 -28 215 -35 55 -4 52 -3 -29 14 -112 23 -206
34 -186 21z"/>
<path d="M3170 8275 c-10 -12 -10 -15 4 -15 9 0 16 7 16 15 0 8 -2 15 -4 15
-2 0 -9 -7 -16 -15z"/>
<path d="M2920 8026 c0 -12 10 -16 36 -16 45 0 42 24 -4 28 -24 2 -32 -1 -32
-12z"/>
<path d="M3114 7996 c-3 -8 -4 -27 -2 -42 2 -23 9 -30 35 -35 40 -8 43 -5 43
42 0 24 -5 39 -16 43 -27 10 -54 7 -60 -8z"/>
<path d="M6070 6270 c-8 -5 -12 -12 -9 -15 8 -8 39 5 39 16 0 11 -11 11 -30
-1z"/>
<path d="M3820 6040 c0 -5 5 -10 11 -10 5 0 7 5 4 10 -3 6 -8 10 -11 10 -2 0
-4 -4 -4 -10z"/>
<path d="M4266 11373 c-6 -14 -5 -15 5 -6 7 7 10 15 7 18 -3 3 -9 -2 -12 -12z"/>
<path d="M5495 9840 c-4 -6 -4 -24 0 -40 4 -19 1 -38 -11 -57 l-16 -28 19 24
20 23 13 -31 c7 -17 35 -48 62 -68 27 -20 53 -44 57 -54 6 -18 7 -18 19 1 10
17 10 20 -3 20 -9 0 -15 9 -15 24 0 14 -5 28 -10 31 -6 4 -7 11 -4 17 7 11
-15 58 -27 58 -5 0 -6 -13 -3 -28 5 -23 2 -28 -15 -28 -16 0 -20 5 -15 16 4 8
7 25 7 38 -1 12 3 22 8 22 5 0 9 5 9 11 0 5 -4 8 -9 5 -4 -3 -23 8 -41 24 -38
34 -37 33 -45 20z m53 -83 c-3 -22 -4 -21 -22 5 -10 16 -15 35 -12 45 6 15 8
14 22 -5 8 -12 14 -32 12 -45z"/>
<path d="M5648 9788 c-7 -45 1 -68 23 -68 20 0 26 15 9 25 -15 9 -12 25 5 25
20 0 19 13 -3 33 -25 23 -29 22 -34 -15z"/>
<path d="M1343 9646 c3 -8 -2 -21 -11 -29 -16 -15 -21 -17 -39 -17 -5 0 -1 -5
7 -10 13 -9 13 -10 0 -10 -13 0 -13 -1 0 -11 12 -9 11 -10 -7 -6 -28 6 -30 -4
-4 -20 22 -14 31 -8 31 21 0 12 9 32 20 46 22 28 26 50 9 50 -6 0 -9 -6 -6
-14z"/>
<path d="M1391 9644 c0 -11 3 -14 6 -6 3 7 2 16 -1 19 -3 4 -6 -2 -5 -13z"/>
<path d="M5431 9650 c-1 -9 20 -36 45 -60 26 -25 54 -58 64 -73 12 -19 20 -25
25 -17 4 7 -19 36 -57 73 -36 34 -68 69 -71 77 -5 13 -6 13 -6 0z"/>
<path d="M1402 9590 c0 -19 2 -27 5 -17 2 9 2 25 0 35 -3 9 -5 1 -5 -18z"/>
<path d="M1341 9582 c-15 -28 -14 -42 3 -36 19 7 29 35 17 47 -6 6 -13 1 -20
-11z"/>
<path d="M1377 9525 c-10 -14 -32 -29 -50 -34 l-32 -9 28 -1 c26 -1 77 39 77
60 0 13 -3 11 -23 -16z"/>
<path d="M5516 9448 c-14 -19 -21 -37 -17 -41 5 -5 33 -15 63 -22 29 -6 64
-15 77 -20 14 -4 21 -3 17 3 -3 5 -31 14 -63 21 -85 17 -92 23 -65 60 30 41
20 40 -12 -1z"/>
<path d="M1228 9463 c12 -2 30 -2 40 0 9 3 -1 5 -23 4 -22 0 -30 -2 -17 -4z"/>
<path d="M1017 8962 c-10 -10 -17 -30 -17 -45 0 -25 -63 -96 -171 -193 -19
-17 -81 -82 -139 -144 -58 -63 -126 -137 -152 -166 -27 -28 -48 -56 -48 -63 0
-6 -16 -27 -35 -47 -57 -57 -45 -66 55 -39 30 8 70 15 88 15 43 0 116 -35 147
-72 33 -39 41 -83 41 -210 -1 -86 -4 -110 -17 -120 -21 -17 -49 -59 -49 -75 0
-33 246 74 348 152 35 26 82 73 104 104 22 31 84 99 138 151 109 107 153 170
195 283 30 77 30 77 66 77 53 0 56 22 11 72 -40 44 -384 276 -466 314 -61 29
-78 30 -99 6z m-450 -668 c-3 -3 -12 -4 -19 -1 -8 3 -5 6 6 6 11 1 17 -2 13
-5z"/>
<path d="M137 8003 c-4 -3 -7 -11 -7 -17 0 -6 5 -5 12 2 6 6 9 14 7 17 -3 3
-9 2 -12 -2z"/>
<path d="M580 7974 c0 -8 5 -12 10 -9 6 4 8 11 5 16 -9 14 -15 11 -15 -7z"/>
<path d="M485 7884 c-22 -7 -54 -11 -72 -8 -78 15 -53 -43 32 -71 42 -15 55
-24 55 -39 0 -17 8 -13 44 23 24 24 47 52 49 63 5 19 5 19 -14 2 -18 -16 -19
-16 -19 2 0 14 -2 16 -9 5 -6 -9 -11 -10 -15 -2 -4 6 -5 15 -1 20 10 17 -10
19 -50 5z"/>
<path d="M60 7860 c0 -5 5 -10 11 -10 5 0 7 5 4 10 -3 6 -8 10 -11 10 -2 0 -4
-4 -4 -10z"/>
<path d="M200 7845 c0 -2 11 -24 24 -47 13 -24 29 -61 35 -83 9 -33 17 -43 46
-54 65 -23 34 -41 -72 -41 -40 0 -63 4 -67 13 -3 6 -3 -5 0 -26 4 -22 2 -43
-5 -51 -14 -17 -3 -22 80 -31 102 -12 172 24 185 95 4 19 13 47 21 63 12 24
12 27 -3 27 -12 0 -15 6 -10 26 l7 27 -80 -7 -80 -7 -15 29 c-8 16 -22 32 -31
35 -8 4 -15 13 -15 22 0 8 -4 15 -10 15 -5 0 -10 -2 -10 -5z m108 -280 c-3 -3
-21 -10 -39 -15 -31 -9 -32 -8 -15 5 18 14 66 22 54 10z"/>
<path d="M70 7809 c0 -20 7 -42 15 -49 12 -10 15 -9 15 8 0 11 -7 33 -15 48
l-15 29 0 -36z"/>
<path d="M471 7715 c0 -11 6 -29 14 -39 19 -25 19 -17 0 25 -10 24 -14 28 -14
14z"/>
<path d="M5908 6711 c-10 -10 -18 -21 -18 -25 0 -4 -7 -14 -15 -22 -19 -19
-20 -44 -2 -44 7 0 20 16 27 35 8 20 20 41 27 47 14 11 17 28 6 27 -5 0 -16
-8 -25 -18z"/>
<path d="M5830 6655 c-6 -8 -10 -19 -8 -24 1 -6 8 1 15 14 13 28 11 31 -7 10z"/>
<path d="M5865 6051 c-3 -5 -1 -12 5 -16 5 -3 10 1 10 9 0 18 -6 21 -15 7z"/>
<path d="M5870 5964 c0 -13 3 -14 13 -5 8 6 17 8 20 4 4 -3 7 -1 7 5 0 7 -9
12 -20 12 -12 0 -20 -7 -20 -16z"/>
<path d="M2220 5506 c-6 -19 -19 -45 -29 -58 -18 -23 -44 -88 -35 -88 10 0 73
108 82 143 13 47 -2 49 -18 3z"/>
<path d="M2252 5422 c-1 -7 -6 -11 -11 -8 -5 3 -9 0 -8 -7 1 -45 -3 -59 -17
-48 -11 9 -12 6 -8 -14 11 -59 57 -4 49 59 -2 17 -5 25 -5 18z"/>
<path d="M4140 5380 c-20 -12 -12 -18 35 -25 47 -7 80 8 55 25 -19 12 -70 13
-90 0z"/>
<path d="M2339 5327 c-12 -24 -23 -32 -43 -32 -31 1 -34 -11 -5 -20 14 -5 25
-1 35 12 23 29 45 73 37 73 -5 0 -15 -15 -24 -33z"/>
<path d="M2606 5060 c-62 -19 -87 -78 -49 -115 9 -10 71 -44 137 -76 67 -32
150 -74 186 -94 l65 -37 -35 31 c-19 17 -73 56 -120 88 -140 95 -170 121 -170
150 0 15 7 35 17 45 18 20 13 21 -31 8z"/>
<path d="M3640 4833 c-8 -3 -31 -12 -50 -20 -31 -14 -33 -16 -15 -23 11 -5 48
-9 82 -9 56 -1 66 2 95 29 l33 29 -65 0 c-36 0 -72 -3 -80 -6z"/>
<path d="M2320 4645 c19 -19 36 -35 39 -35 3 0 -10 16 -29 35 -19 19 -36 35
-39 35 -3 0 10 -16 29 -35z"/>
<path d="M2415 4552 c49 -52 69 -67 44 -34 -17 22 -49 53 -74 71 -11 8 2 -8
30 -37z"/>
<path d="M2480 4482 c0 -5 9 -17 20 -27 22 -20 102 -153 120 -200 31 -77 30
-229 0 -210 -5 3 -11 1 -15 -5 -4 -6 -11 -8 -16 -5 -5 4 -9 -1 -9 -10 0 -12
-6 -15 -22 -10 -16 6 -20 4 -15 -8 6 -15 -25 -52 -35 -41 -3 3 -15 -6 -26 -20
-11 -15 -26 -26 -34 -26 -8 0 -24 -14 -37 -30 -12 -17 -26 -28 -30 -25 -5 2
-20 -4 -34 -15 -14 -11 -32 -20 -41 -20 -21 0 -117 -99 -125 -129 -4 -14 -17
-30 -28 -36 -12 -5 -26 -19 -32 -31 -8 -19 -17 -21 -66 -19 -36 1 -60 7 -65
15 -5 8 -19 15 -32 16 -38 2 -82 16 -96 31 -7 7 -20 13 -27 13 -8 0 -31 10
-52 21 -41 23 -96 41 -127 40 -11 0 -26 9 -34 20 -8 11 -19 18 -25 16 -7 -2
-17 3 -23 12 -10 13 -14 13 -28 2 -13 -11 -19 -11 -31 -1 -12 10 -15 9 -15 -4
0 -10 5 -27 11 -38 6 -12 13 -65 14 -119 3 -90 6 -102 33 -141 39 -57 62 -103
62 -123 0 -39 36 -87 99 -134 69 -51 131 -132 131 -170 0 -12 7 -35 15 -51 8
-16 17 -50 20 -75 10 -100 123 -322 270 -530 39 -55 40 -64 23 -146 -9 -46 -9
-66 2 -98 13 -40 12 -42 -20 -87 -23 -32 -38 -70 -51 -129 -10 -46 -25 -98
-34 -114 l-16 -31 31 0 c22 0 30 -5 30 -17 0 -10 3 -28 6 -41 5 -18 2 -24 -15
-29 -23 -6 -29 -38 -8 -46 9 -3 6 -16 -10 -47 -21 -39 -21 -43 -7 -66 16 -23
29 -28 67 -24 15 1 17 -6 14 -47 -3 -42 -6 -48 -27 -51 -14 -2 -34 -12 -45
-22 -11 -10 -35 -21 -52 -25 -18 -3 -33 -11 -33 -16 0 -14 33 -11 56 6 12 8
23 12 25 10 3 -2 21 0 42 5 33 7 37 6 33 -8 -2 -10 -7 -35 -11 -57 -8 -44 -23
-59 -42 -43 -9 7 -17 7 -28 -2 -13 -11 -11 -16 17 -35 18 -13 41 -33 50 -44
20 -23 48 -27 80 -10 11 6 35 13 53 15 19 2 46 9 62 16 l28 11 -43 9 c-27 6
-41 14 -38 21 2 7 10 29 17 50 9 28 16 36 28 31 32 -13 46 -14 60 -5 19 12 6
41 -18 41 -20 0 -37 17 -27 27 3 3 16 5 30 5 14 0 23 5 20 12 -2 6 6 16 18 21
32 15 31 28 -5 50 -27 18 -32 27 -31 58 1 21 4 40 6 43 10 9 58 -16 58 -30 0
-10 6 -13 15 -10 9 4 15 19 15 35 0 18 5 29 13 29 8 0 22 9 32 20 10 11 25 20
34 20 9 0 27 8 41 17 21 15 23 15 17 1 -6 -16 3 -17 36 -3 9 4 17 13 17 20 0
7 7 15 15 19 10 3 7 -7 -10 -34 -29 -46 -23 -51 17 -13 l28 27 0 -24 c0 -36
-40 -88 -85 -109 -36 -18 -126 -97 -165 -145 -14 -18 -14 -19 10 -6 14 7 29
19 33 26 4 8 16 14 25 14 10 0 23 5 30 12 6 6 15 8 19 4 5 -5 -16 -30 -46 -57
-30 -27 -48 -49 -40 -49 8 0 24 7 35 15 18 13 54 21 54 10 0 -2 -18 -23 -40
-47 -31 -33 -36 -44 -23 -47 9 -1 20 4 25 13 12 22 28 20 28 -4 0 -11 -11 -27
-25 -36 -29 -19 -32 -39 -8 -52 15 -9 14 -13 -8 -39 -13 -17 -33 -34 -43 -39
-11 -5 -22 -16 -24 -24 -5 -13 -3 -13 12 -1 9 8 19 11 22 8 10 -9 -6 -28 -32
-37 -15 -6 -22 -15 -18 -24 3 -9 -7 -23 -25 -37 -24 -17 -29 -28 -25 -46 4
-15 2 -23 -6 -23 -7 0 -10 7 -6 15 7 19 5 19 -30 0 -20 -10 -23 -15 -11 -15
26 0 20 -26 -12 -49 -16 -12 -33 -21 -38 -21 -4 0 -28 -18 -51 -40 -54 -50
-74 -53 -62 -9 12 42 -9 33 -34 -15 -16 -29 -22 -33 -28 -21 -7 12 -12 12 -22
2 -8 -6 -12 -15 -9 -19 2 -5 -7 -8 -20 -8 -13 0 -32 -9 -41 -19 -10 -10 -27
-21 -39 -24 -21 -6 -21 -5 2 11 45 32 146 130 176 172 17 22 42 57 58 77 42
56 30 88 -17 44 -33 -31 -120 -71 -168 -77 -38 -5 -47 -3 -74 22 -44 41 -43
38 -60 258 -3 54 -10 84 -15 79 -6 -6 -6 -36 1 -79 5 -38 10 -90 10 -115 0
-65 27 -137 59 -157 14 -9 29 -20 32 -25 7 -10 110 7 142 24 12 7 33 20 46 30
76 60 30 -19 -74 -125 -127 -130 -234 -166 -331 -112 -26 14 -49 25 -51 23 -7
-8 9 -37 21 -37 6 0 23 -15 37 -33 39 -49 145 -81 242 -73 39 3 92 7 117 8 37
3 45 6 45 23 1 33 16 49 113 128 103 84 110 91 173 197 63 104 113 216 104
231 -5 7 -4 10 2 6 17 -11 124 236 162 378 21 74 39 113 116 250 54 96 53 96
96 6 54 -115 88 -160 178 -235 54 -45 113 -110 186 -206 59 -77 129 -158 156
-181 27 -23 54 -49 59 -58 12 -24 43 -198 41 -236 0 -16 -4 -138 -8 -270 -8
-234 -9 -241 -33 -275 -32 -45 -41 -160 -16 -209 12 -22 14 -35 6 -44 -42 -51
-60 -76 -60 -81 0 -16 39 -3 60 19 26 28 83 47 115 39 19 -5 23 0 29 27 3 17
6 46 6 64 0 30 33 75 56 75 5 0 18 7 28 15 19 14 19 16 2 28 -16 12 -16 14 -2
26 9 8 16 18 16 24 0 12 67 145 83 165 8 10 14 9 28 -4 26 -23 37 -9 14 16
-15 17 -16 24 -7 45 12 25 4 33 -14 15 -7 -7 -17 0 -32 19 -20 28 -21 31 -4
40 12 7 17 22 16 55 0 25 3 46 8 46 5 0 26 -8 48 -19 28 -14 37 -15 33 -5 -3
8 0 14 5 14 24 0 21 -21 -9 -65 -47 -70 -29 -64 23 8 55 76 74 110 91 162 8
23 23 44 35 50 12 5 22 13 22 17 0 5 5 8 10 8 6 0 10 -7 10 -15 0 -8 -8 -15
-19 -15 -14 0 -21 -10 -26 -36 -6 -36 -17 -65 -62 -163 -29 -65 -24 -78 8 -20
34 60 50 62 43 5 -3 -26 0 -55 6 -67 10 -17 8 -24 -9 -40 -27 -25 -27 -32 0
-24 30 10 42 -14 23 -43 -11 -16 -12 -31 -6 -55 10 -37 1 -81 -16 -83 -7 -1
-17 -2 -23 -3 -6 -1 -5 -11 4 -28 8 -16 20 -39 26 -53 6 -14 20 -39 30 -57 11
-17 21 -44 24 -60 2 -15 4 -4 4 25 0 29 -4 55 -9 58 -4 3 -3 14 2 25 6 10 8
19 4 19 -3 0 -1 7 6 15 8 9 10 28 6 49 -10 52 20 223 50 284 29 60 119 175
185 239 38 36 51 42 94 45 49 3 50 4 59 40 8 33 7 40 -16 61 -22 21 -25 33
-31 121 -3 54 -10 103 -16 109 -8 8 -11 7 -11 -3 0 -7 -18 -29 -40 -47 -22
-19 -37 -39 -34 -45 4 -6 10 -6 17 1 13 13 27 14 27 2 0 -4 -27 -36 -60 -70
-49 -51 -59 -67 -54 -86 5 -19 -2 -32 -30 -59 -38 -38 -51 -33 -41 14 6 27 4
30 -19 30 -14 0 -26 -5 -26 -12 0 -6 -3 -9 -6 -6 -3 3 4 24 15 46 18 35 18 41
5 46 -16 6 -11 45 9 57 6 4 7 15 2 25 -5 11 -7 25 -6 32 1 6 -4 12 -10 12 -7
0 -9 -3 -6 -6 7 -7 -28 -37 -55 -47 -10 -3 -18 -12 -18 -19 0 -9 3 -8 10 2 8
13 10 13 10 -2 0 -34 -11 -48 -30 -38 -12 7 -23 4 -39 -11 -25 -24 -26 -26 -6
-26 8 0 15 6 15 14 0 14 12 17 23 7 7 -8 -44 -82 -79 -115 -31 -29 -30 -39 1
-37 14 1 24 7 21 14 -2 6 2 11 10 11 18 0 18 -11 -1 -27 -8 -7 -15 -17 -15
-22 0 -5 -7 -25 -16 -46 -10 -20 -18 -43 -20 -51 -1 -8 -9 -21 -18 -29 -13
-13 -19 -11 -53 22 -21 20 -41 36 -45 36 -4 0 -23 15 -44 34 -35 32 -35 33
-14 39 20 5 24 34 4 31 -5 -1 -25 -5 -44 -9 l-35 -7 45 46 c25 26 68 61 95 79
28 17 52 34 55 37 3 4 16 14 30 23 47 32 119 108 147 155 25 43 28 56 28 147
0 119 -17 160 -97 240 -57 56 -278 409 -359 570 -36 74 -54 124 -65 185 -19
113 -29 141 -79 235 -50 93 -152 234 -281 391 -118 144 -135 168 -154 228 -13
40 -27 59 -66 88 -27 21 -52 38 -56 38 -10 0 -9 -49 1 -74 6 -17 2 -71 -10
-116 -2 -8 -12 -18 -22 -22 -14 -6 -17 -14 -11 -30 3 -13 11 -24 15 -26 20 -8
8 -32 -15 -32 -13 0 -26 -7 -30 -15 -3 -8 -13 -15 -23 -15 -10 0 -24 -9 -31
-21 -7 -11 -19 -18 -27 -15 -8 3 -16 0 -18 -7 -3 -8 -10 -5 -20 8 -14 18 -14
21 6 29 19 8 20 10 5 13 -10 3 -18 11 -18 18 0 8 -7 18 -17 23 -9 5 -17 20
-18 33 -2 13 -6 58 -9 99 -4 41 -10 84 -13 95 -5 16 -3 18 8 9 8 -6 35 -14 60
-18 36 -5 48 -3 61 11 20 23 21 74 2 66 -8 -3 -20 -1 -27 5 -13 10 -109 33
-115 27 -2 -2 -22 31 -43 74 -22 43 -51 91 -65 107 -56 66 -144 179 -144 185
0 4 24 31 53 61 l52 54 80 1 c88 0 129 9 119 24 -4 7 -10 6 -18 0 -6 -6 -21
-9 -31 -9 -15 2 -20 10 -22 34 -2 50 -60 210 -111 308 -41 78 -142 212 -142
188z m-120 -829 c0 -15 -2 -16 -10 -3 -8 12 -10 11 -10 -6 0 -30 -23 -56 -53
-59 -15 -2 -27 0 -27 4 0 7 25 46 45 68 16 19 55 16 55 -4z m620 -595 c0 -4
-9 -8 -21 -8 -11 0 -18 4 -15 8 3 5 12 9 21 9 8 0 15 -4 15 -9z m-745 -238
c-27 -12 -43 -12 -25 0 8 5 22 9 30 9 10 0 8 -3 -5 -9z m635 -390 c0 -5 -4
-10 -10 -10 -5 0 -10 5 -10 10 0 6 5 10 10 10 6 0 10 -4 10 -10z m47 -55 c8
-8 16 -30 18 -48 3 -17 7 -44 11 -59 6 -25 -30 -122 -66 -178 -12 -18 -31 -61
-34 -75 -2 -10 -18 -39 -43 -80 -7 -11 -16 -29 -22 -41 -5 -11 -32 -45 -61
-75 -58 -61 -56 -51 6 34 24 32 55 83 70 115 15 31 32 63 38 71 9 12 13 22 20
61 2 8 6 22 9 30 11 28 28 102 33 143 3 23 7 44 10 48 2 4 0 10 -6 14 -10 6
-14 55 -4 55 3 0 12 -7 21 -15z m-167 -385 c-30 -27 -62 -49 -72 -50 -9 0 -18
-3 -20 -7 -1 -5 -28 -21 -58 -37 -30 -16 -50 -23 -43 -15 6 8 36 27 65 42 30
15 81 48 113 73 33 24 62 44 65 44 3 0 -20 -22 -50 -50z m-165 -178 c-3 -3
-11 0 -18 7 -9 10 -8 11 6 5 10 -3 15 -9 12 -12z m165 -1 c-5 -11 -15 -23 -22
-27 -7 -5 -8 -2 -3 7 21 37 44 55 25 20z m-116 -40 c3 -5 -1 -14 -8 -20 -12
-10 -14 -9 -11 6 2 10 4 19 4 21 2 5 10 2 15 -7z m-156 -106 c7 -7 -17 -6 -45
1 -13 4 -23 10 -23 14 0 8 58 -4 68 -15z m-315 -32 c-6 -56 -13 -66 -33 -53
-9 6 -11 13 -5 18 6 4 10 13 11 20 1 6 2 23 3 37 0 14 7 25 15 25 10 0 12 -11
9 -47z m231 -162 c3 -4 -3 -16 -14 -26 -19 -18 -20 -17 -20 8 0 26 22 38 34
18z m2126 -425 c0 -7 -7 -19 -15 -26 -16 -13 -20 -3 -9 24 8 20 24 21 24 2z
m-220 -118 c0 -6 -3 -8 -7 -5 -3 4 -12 2 -20 -4 -8 -8 -13 -8 -13 -1 0 10 15
19 33 21 4 1 7 -4 7 -11z m-70 -48 c0 -5 -4 -10 -10 -10 -5 0 -10 5 -10 10 0
6 5 10 10 10 6 0 10 -4 10 -10z m-110 -24 c0 -8 -4 -18 -10 -21 -5 -3 -10 3
-10 14 0 12 5 21 10 21 6 0 10 -6 10 -14z m120 -71 c-12 -15 -40 -21 -40 -8 0
3 8 15 17 25 21 23 43 7 23 -17z m-305 15 c3 -5 2 -10 -4 -10 -5 0 -13 5 -16
10 -3 6 -2 10 4 10 5 0 13 -4 16 -10z m151 -17 c-10 -10 -19 5 -10 18 6 11 8
11 12 0 2 -7 1 -15 -2 -18z m-292 -145 c14 -6 33 -22 42 -35 14 -22 14 -27 -1
-49 -8 -13 -19 -24 -24 -24 -9 0 -31 45 -31 65 0 8 -6 15 -12 16 -10 0 -10 2
0 6 10 4 9 8 -5 19 -22 16 -3 18 31 2z"/>
<path d="M3351 4365 c41 -63 39 -61 39 -43 0 8 -16 32 -36 54 l-35 39 32 -50z"/>
<path d="M3086 4224 c-3 -8 -2 -24 4 -33 12 -23 118 -121 131 -121 12 0 -34
70 -93 139 -31 36 -34 37 -42 15z"/>
<path d="M1490 4103 c0 -14 -2 -15 -9 -4 -13 20 -25 -97 -16 -158 7 -50 25
-70 43 -48 17 21 20 111 4 126 -7 7 -11 22 -9 32 3 11 1 19 -4 19 -5 0 -7 11
-3 25 3 14 3 25 0 25 -3 0 -6 -8 -6 -17z"/>
<path d="M2962 4091 c-23 -14 -25 -82 -4 -144 16 -48 17 -60 6 -75 -15 -20
-18 -36 -5 -28 14 9 20 -44 8 -77 -8 -25 -7 -32 7 -43 10 -7 15 -17 12 -22 -3
-6 1 -23 9 -38 l15 -29 0 53 c0 50 1 52 28 52 23 0 29 6 42 48 19 58 50 67 98
28 35 -30 38 -31 46 -11 9 25 -25 83 -66 110 -66 44 -109 66 -118 60 -12 -8
-40 35 -40 62 0 13 -4 23 -9 23 -5 0 -11 9 -13 20 -2 13 -7 17 -16 11z"/>
<path d="M3031 4004 c0 -11 3 -14 6 -6 3 7 2 16 -1 19 -3 4 -6 -2 -5 -13z"/>
<path d="M3347 3934 c-13 -13 -7 -36 7 -31 8 3 17 1 19 -6 2 -7 8 -8 13 -4 4
4 -1 17 -12 28 -11 11 -23 16 -27 13z"/>
<path d="M3337 3849 c-4 -14 0 -19 14 -19 22 0 26 25 5 33 -8 3 -16 -2 -19
-14z"/>
<path d="M2760 3755 c-17 -18 -19 -25 -9 -25 18 0 59 28 59 41 0 17 -26 9 -50
-16z"/>
<path d="M2585 1600 c-10 -22 -26 -42 -36 -45 -11 -4 -19 -11 -19 -16 0 -14
30 -10 36 5 3 8 16 17 30 20 15 4 24 14 24 25 0 11 3 26 6 35 4 10 1 16 -8 16
-8 0 -23 -18 -33 -40z"/>
<path d="M4385 1361 c-3 -5 -1 -12 5 -16 5 -3 10 1 10 9 0 18 -6 21 -15 7z"/>
<path d="M4447 1341 c-3 -12 -1 -24 4 -27 13 -8 24 25 12 37 -7 7 -12 3 -16
-10z"/>
<path d="M4238 1272 c-10 -2 -18 -8 -18 -13 0 -13 27 -11 35 2 9 13 4 16 -17
11z"/>
<path d="M4381 1264 c0 -11 3 -14 6 -6 3 7 2 16 -1 19 -3 4 -6 -2 -5 -13z"/>
<path d="M1740 1144 c0 -14 3 -14 15 -4 8 7 15 14 15 16 0 2 -7 4 -15 4 -8 0
-15 -7 -15 -16z"/>
<path d="M2430 1125 c-7 -8 -8 -15 -2 -15 5 0 15 7 22 15 7 8 8 15 2 15 -5 0
-15 -7 -22 -15z"/>
<path d="M1731 1084 c0 -11 3 -14 6 -6 3 7 2 16 -1 19 -3 4 -6 -2 -5 -13z"/>
<path d="M1700 1018 c0 -7 -3 -23 -6 -35 -5 -17 -2 -23 10 -23 9 0 16 8 16 19
0 11 3 26 6 35 4 11 1 16 -10 16 -9 0 -16 -6 -16 -12z"/>
<path d="M2313 943 c-18 -6 -16 -23 1 -23 17 0 30 16 19 23 -5 2 -14 2 -20 0z"/>
<path d="M2180 889 c0 -5 5 -7 10 -4 6 3 10 8 10 11 0 2 -4 4 -10 4 -5 0 -10
-5 -10 -11z"/>
<path d="M1706 832 c-3 -6 -1 -14 5 -17 15 -10 25 3 12 16 -7 7 -13 7 -17 1z"/>
<path d="M3982 613 c-11 -21 -27 -58 -35 -83 -37 -104 -66 -178 -86 -217 -11
-23 -21 -47 -21 -53 0 -5 -9 -19 -20 -30 -11 -11 -20 -29 -20 -40 0 -10 -6
-23 -14 -27 -18 -11 -40 -53 -27 -53 5 0 13 5 16 10 8 13 85 2 105 -15 8 -7
23 -10 32 -6 15 6 15 7 -1 27 -13 17 -26 20 -64 18 -55 -3 -58 5 -22 59 25 37
42 49 32 24 -3 -8 4 -14 16 -15 18 -1 19 1 7 9 -16 11 60 7 115 -6 l30 -7 -34
26 c-19 14 -42 26 -50 26 -9 0 -26 8 -39 18 -22 17 -22 18 -6 65 18 54 31 63
70 50 36 -12 104 -121 84 -133 -23 -14 -7 -20 26 -11 16 5 23 10 16 10 -7 1
-18 13 -24 29 -24 54 -78 129 -103 140 -21 10 -24 16 -19 44 6 34 23 79 52
135 9 18 13 35 10 39 -4 3 -15 -11 -26 -33z"/>
<path d="M3900 210 c0 -5 7 -7 15 -4 8 4 15 8 15 10 0 2 -7 4 -15 4 -8 0 -15
-4 -15 -10z"/>
<path d="M4008 143 c7 -3 16 -2 19 1 4 3 -2 6 -13 5 -11 0 -14 -3 -6 -6z"/>
<path d="M3697 72 l-14 -29 28 14 c18 9 26 19 22 28 -8 23 -20 18 -36 -13z"/>
<path d="M3768 63 c6 -2 10 -9 6 -14 -3 -5 0 -9 5 -9 6 0 11 7 11 15 0 8 -8
15 -17 14 -11 0 -13 -3 -5 -6z"/>
<path d="M3785 10 c3 -5 8 -10 11 -10 2 0 4 5 4 10 0 6 -5 10 -11 10 -5 0 -7
-4 -4 -10z"/>
</g>
</svg>
