<?xml version="1.0" encoding="UTF-8" standalone="no"?>
<svg
   version="1.0"
   width="426.000000pt"
   height="818.000000pt"
   viewBox="0 0 426.000000 818.000000"
   preserveAspectRatio="xMidYMid meet"
   id="svg84"
   sodipodi:docname="2a307c17662a5bf76d313ebb3cad4e08.svg"
   xmlns:inkscape="http://www.inkscape.org/namespaces/inkscape"
   xmlns:sodipodi="http://sodipodi.sourceforge.net/DTD/sodipodi-0.dtd"
   xmlns="http://www.w3.org/2000/svg"
   xmlns:svg="http://www.w3.org/2000/svg">
  <defs
     id="defs88" />
  <sodipodi:namedview
     id="namedview86"
     pagecolor="#ffffff"
     bordercolor="#666666"
     borderopacity="1.0"
     inkscape:pageshadow="2"
     inkscape:pageopacity="0.0"
     inkscape:pagecheckerboard="0"
     inkscape:document-units="pt" />
  <g
     transform="translate(0.000000,818.000000) scale(0.100000,-0.100000)"
     fill="#000000"
     stroke="none"
     id="g82">
    <path
       d="M1474 8132 c4 -7 -10 -13 -39 -18 -48 -7 -75 -25 -75 -50 0 -8 -9 -14 -21 -14 -13 0 -18 -4 -13 -12 5 -8 -2 -9 -23 -5 -24 5 -32 1 -47 -21 -16 -24 -17 -25 -13 -4 3 12 1 22 -5 22 -14 0 -38 -26 -38 -42 0 -7 -8 -24 -17 -37 -16 -23 -17 -23 -24 -5 -5 16 -8 13 -16 -16 -6 -25 -16 -36 -31 -38 -12 -2 -22 1 -22 7 0 6 -7 11 -15 11 -8 0 -15 -4 -15 -10 0 -5 5 -10 11 -10 16 0 1 -17 -20 -23 -14 -3 -18 -1 -14 9 10 27 -18 14 -35 -16 -19 -34 -32 -38 -33 -12 -1 9 -5 2 -9 -17 -5 -19 -6 -40 -3 -48 3 -8 -3 -13 -19 -13 -26 0 -28 -8 -29 -92 0 -27 -4 -48 -9 -48 -6 0 -10 6 -10 13 -1 24 -18 -18 -29 -72 -8 -36 -8 -58 -2 -64 6 -6 7 -17 1 -28 -7 -12 -6 -19 4 -22 8 -3 19 -22 26 -41 6 -20 18 -36 26 -36 8 0 14 -5 14 -11 0 -5 -5 -7 -11 -3 -13 7 -2 -57 11 -66 17 -12 21 -70 7 -112 -9 -24 -16 -66 -18 -93 -2 -42 0 -50 14 -47 20 3 23 -14 5 -21 -10 -4 -10 -6 0 -6 6 -1 12 -12 12 -26 0 -14 4 -25 9 -25 9 0 44 -61 39 -65 -2 -1 -12 -8 -23 -14 -15 -9 -16 -11 -2 -7 9 3 17 1 17 -4 0 -6 -5 -10 -11 -10 -8 0 -8 -4 1 -15 6 -8 9 -18 6 -23 -3 -5 8 -12 25 -16 17 -3 28 -10 24 -16 -3 -5 -3 -10 2 -10 4 0 14 -13 21 -30 10 -21 21 -30 37 -30 29 0 43 -19 24 -31 -12 -7 -12 -9 0 -9 8 0 24 -8 35 -19 30 -27 116 -54 116 -36 0 15 19 24 38 18 17 -6 15 -23 -3 -23 -16 0 -20 -12 -8 -24 6 -6 11 -36 14 -96 0 -8 5 -28 9 -45 5 -16 11 -43 13 -60 7 -47 19 -86 33 -114 8 -14 14 -36 14 -47 0 -32 21 -85 92 -234 72 -150 104 -228 95 -236 -2 -3 -11 7 -19 23 -46 89 -66 131 -76 153 -9 23 -10 21 -10 -18 0 -24 -2 -46 -6 -49 -3 -4 1 -14 10 -24 15 -17 14 -17 -32 0 -35 13 -54 27 -65 50 -9 17 -21 37 -27 44 -15 18 -18 185 -4 227 13 40 3 166 -13 163 -12 -3 -33 -192 -34 -307 l-1 -78 63 -60 c34 -33 85 -71 112 -85 28 -14 74 -41 103 -59 29 -19 55 -34 58 -34 10 0 69 46 83 64 8 11 74 79 146 150 71 72 147 157 168 188 55 84 106 210 106 261 -1 67 28 207 55 268 35 79 64 182 74 261 8 62 7 67 -12 77 -12 6 -49 13 -83 14 -57 2 -62 1 -60 -18 1 -13 -3 -19 -13 -16 -23 6 -180 3 -212 -4 -26 -6 -28 -4 -28 24 0 36 -14 34 -70 -10 -28 -22 -47 -28 -96 -31 -45 -2 -65 2 -77 13 -12 13 -26 14 -74 8 -94 -13 -163 12 -163 60 0 8 -6 22 -14 30 -18 21 -31 91 -16 91 5 0 10 9 10 19 0 33 38 111 55 111 8 0 15 5 15 10 0 6 10 10 23 10 13 0 34 11 47 25 13 14 32 25 43 25 34 0 11 25 -26 28 -29 3 -37 8 -37 22 0 11 6 18 13 17 6 -2 -1 3 -18 10 -41 19 -85 108 -78 160 6 49 61 130 93 138 14 4 60 8 103 10 69 4 77 2 77 -14 0 -24 11 -33 25 -21 14 12 107 -10 112 -26 2 -7 -2 -18 -10 -26 -8 -7 -11 -21 -8 -31 6 -16 13 -13 59 23 40 32 57 40 74 34 32 -10 87 -7 120 7 22 9 30 8 44 -5 11 -12 20 -14 28 -7 19 16 63 -35 87 -100 20 -52 37 -189 23 -189 -4 0 -17 11 -30 25 -13 14 -28 25 -35 25 -6 0 -9 10 -7 23 6 31 -24 82 -48 82 -28 0 -31 -42 -4 -67 11 -11 20 -23 18 -27 -2 -4 -12 -27 -23 -52 -16 -38 -26 -49 -61 -62 -23 -8 -46 -11 -50 -7 -5 5 -28 5 -53 -1 -29 -6 -47 -6 -56 1 -7 6 -20 7 -29 4 -12 -5 -19 0 -23 14 -7 28 -48 24 -48 -4 0 -24 -31 -43 -69 -44 -93 -1 -200 -59 -194 -104 4 -25 64 -57 93 -50 13 3 31 -4 48 -20 44 -41 98 -52 151 -32 24 9 48 16 52 15 5 -1 21 3 36 9 21 9 31 23 40 58 21 77 37 72 99 -33 24 -42 36 -53 56 -53 25 0 84 30 111 57 7 7 17 13 22 13 4 0 14 23 21 51 7 28 23 60 35 72 28 28 44 87 44 163 0 54 -3 63 -30 89 -21 20 -30 38 -30 60 1 67 -20 117 -65 155 -8 7 -15 22 -15 33 0 11 -18 37 -40 59 -32 30 -39 42 -32 55 11 21 -14 71 -43 87 -11 6 -24 17 -28 24 -5 7 -12 10 -18 7 -14 -9 -11 9 6 31 21 27 19 43 -5 37 -14 -4 -20 0 -20 11 0 10 5 14 10 11 6 -3 10 -1 10 4 0 14 -4 14 -48 -5 -56 -24 -82 -27 -88 -9 -7 18 -88 55 -118 54 -21 0 -21 0 2 -9 12 -5 22 -12 22 -15 0 -2 -10 -4 -22 -2 -15 1 -22 -3 -20 -12 2 -11 -3 -10 -24 3 -18 13 -52 19 -113 21 -47 2 -97 7 -110 11 -16 5 -22 4 -17 -4z m-59 -49 c-11 -3 -26 -10 -32 -15 -9 -7 -13 -7 -13 0 0 13 18 21 45 20 l20 0 -20 -5z m-2 -40 c-7 -2 -21 -2 -30 0 -10 3 -4 5 12 5 17 0 24 -2 18 -5z m-498 -473 c-10 -17 -25 -1 -25 28 l0 26 16 -22 c8 -12 12 -27 9 -32z m1355 -100 c0 -5 -2 -10 -4 -10 -3 0 -8 5 -11 10 -3 6 -1 10 4 10 6 0 11 -4 11 -10z m-78 -110 c21 0 26 -6 35 -45 6 -25 7 -45 4 -45 -4 0 -31 16 -61 36 -31 20 -56 31 -58 25 -2 -6 -8 -11 -13 -11 -16 0 -9 24 14 46 19 19 24 20 38 8 8 -8 27 -14 41 -14z m-722 2 c-1 -20 -19 -30 -53 -29 -38 1 -44 6 -27 23 11 11 80 16 80 6z m-347 -167 c36 -15 57 -35 37 -35 -6 0 -25 7 -42 16 -17 9 -40 13 -54 10 -23 -6 -32 3 -17 17 10 11 38 8 76 -8z m87 -55 c0 -6 11 -15 24 -19 19 -8 25 -19 30 -59 3 -27 4 -56 0 -65 -3 -8 -1 -18 5 -22 17 -10 13 -27 -12 -58 l-23 -27 -68 14 c-38 8 -76 21 -85 30 -19 19 -19 86 -1 141 13 38 21 43 40 20 7 -8 21 -15 32 -15 10 0 16 -4 13 -10 -3 -5 -17 -10 -30 -10 -42 0 -63 -81 -29 -114 20 -20 44 -21 44 -1 0 8 5 15 10 15 6 0 10 -4 10 -8 0 -5 12 -14 27 -21 35 -16 54 1 30 27 -19 21 -23 82 -6 99 9 9 6 21 -10 48 -24 41 -25 45 -11 45 6 0 10 -5 10 -10z m195 -220 c3 -5 1 -10 -4 -10 -6 0 -11 5 -11 10 0 6 2 10 4 10 3 0 8 -4 11 -10z m-385 -35 c0 -8 -4 -15 -10 -15 -5 0 -10 7 -10 15 0 8 5 15 10 15 6 0 10 -7 10 -15z m847 -33 c13 -18 23 -37 23 -41 0 -5 10 -12 23 -16 20 -6 18 -8 -21 -26 -23 -11 -50 -18 -60 -15 -9 3 -20 5 -24 3 -4 -1 -14 8 -23 19 -12 18 -13 28 -3 55 23 69 48 75 85 21z m-669 19 c2 -1 -4 -8 -12 -16 -14 -14 -18 -14 -46 0 -16 8 -30 17 -30 18 0 3 80 1 88 -2z m908 -56 c7 -22 12 -40 11 -41 -1 -2 -21 3 -45 9 -44 12 -56 27 -22 27 12 0 20 6 19 13 -6 51 18 46 37 -8z m-986 -65 c0 -5 -7 -7 -15 -4 -8 4 -15 8 -15 10 0 2 7 4 15 4 8 0 15 -4 15 -10z"
       id="path2" />
    <path
       d="M1745 7490 c3 -5 15 -10 26 -10 11 0 17 5 14 10 -3 6 -15 10 -26 10 -11 0 -17 -4 -14 -10z"
       id="path4" />
    <path
       d="M2220 6510 c15 -27 -3 -117 -36 -183 -27 -56 -29 -67 -11 -67 8 0 24 -11 37 -25 26 -27 17 -33 -14 -10 -35 26 -54 18 -80 -33 -26 -52 -84 -129 -237 -319 -52 -65 -124 -160 -159 -210 -35 -51 -69 -93 -75 -93 -7 0 -19 8 -26 17 -8 9 -57 44 -109 78 -100 66 -268 222 -296 277 -21 41 -29 142 -15 192 6 22 9 41 8 42 -6 6 -413 -332 -497 -413 -157 -151 -205 -258 -220 -491 -6 -93 -15 -158 -30 -202 -17 -52 -23 -105 -30 -260 -5 -107 -14 -244 -20 -304 l-12 -109 49 -49 c56 -58 137 -121 187 -145 19 -9 32 -21 29 -26 -4 -6 0 -8 10 -4 10 4 14 2 11 -6 -3 -8 9 -17 28 -22 45 -14 46 -31 1 -40 -89 -16 -188 6 -252 56 -15 12 -27 16 -29 10 -2 -6 -9 -8 -14 -5 -7 4 -8 2 -4 -4 4 -7 3 -12 -2 -12 -6 0 -8 -8 -5 -19 3 -12 -5 -26 -22 -39 -25 -20 -26 -23 -11 -37 20 -20 20 -26 2 -19 -13 5 -22 -24 -32 -104 -1 -13 -5 -26 -8 -29 -2 -3 -1 -16 5 -30 5 -15 5 -39 -1 -66 -16 -64 -18 -87 -8 -87 5 0 8 -10 6 -22 -2 -16 3 -23 22 -28 24 -6 24 -7 4 -14 -12 -3 -27 -20 -34 -36 -7 -16 -21 -32 -31 -35 -20 -7 -27 -35 -9 -35 6 0 10 -7 10 -15 0 -8 -5 -14 -10 -12 -12 2 -22 -177 -24 -398 -1 -108 2 -130 14 -132 20 -4 41 42 26 57 -8 8 -5 9 14 2 14 -6 24 -16 22 -22 -2 -7 4 -20 13 -30 8 -9 12 -20 8 -24 -4 -4 -1 -12 7 -17 11 -7 7 -9 -15 -7 -28 3 -30 1 -32 -35 0 -25 4 -40 13 -44 9 -3 12 -13 8 -30 -8 -32 8 -43 62 -43 26 0 51 -7 66 -20 l25 -19 121 302 c204 514 241 647 250 910 2 86 9 157 14 157 14 0 55 48 123 146 65 93 134 164 160 164 22 0 67 -22 93 -44 l23 -21 -10 28 c-15 40 -3 33 15 -8 7 -19 14 -60 14 -92 0 -77 15 -128 43 -146 25 -16 24 -3 19 -221 l-2 -98 -98 -102 c-182 -188 -282 -370 -282 -514 0 -50 3 -58 36 -88 19 -19 40 -34 47 -34 6 0 3 -6 -6 -13 -15 -10 -10 -12 30 -12 37 0 56 -6 84 -27 25 -20 48 -28 75 -28 22 0 45 -5 52 -12 7 -7 12 -9 12 -5 0 4 10 -1 22 -13 12 -11 31 -20 43 -20 11 0 25 -4 31 -10 5 -5 25 -12 44 -14 21 -2 34 -9 32 -16 -5 -20 19 -40 47 -40 19 0 29 -8 39 -30 16 -35 30 -37 66 -9 14 11 26 16 26 11 0 -6 9 -8 20 -5 14 4 20 0 20 -11 0 -25 45 -42 67 -25 9 8 14 9 10 2 -12 -19 3 -45 18 -33 9 8 15 8 20 0 10 -16 28 -12 21 5 -6 16 10 20 39 9 13 -6 14 -9 3 -16 -9 -6 -5 -7 12 -3 33 7 228 -56 223 -72 -2 -6 5 -20 17 -31 12 -11 22 -29 23 -40 1 -19 3 -19 27 -7 38 20 100 27 117 14 7 -7 27 -12 43 -11 17 0 30 -3 30 -8 0 -4 14 -13 32 -19 28 -10 36 -9 59 8 15 11 29 17 33 14 3 -4 6 -31 7 -62 l0 -56 16 48 c9 26 20 47 25 47 5 0 6 9 3 20 -10 32 9 23 44 -20 37 -47 60 -53 35 -10 -20 32 -19 34 13 44 16 5 25 2 33 -14 12 -23 30 -27 30 -6 0 15 45 30 61 21 5 -4 6 -11 3 -17 -4 -7 -2 -8 5 -4 6 4 9 16 6 27 -7 21 2 23 38 10 21 -8 24 -7 20 8 -4 14 2 18 32 19 21 1 42 6 49 10 6 5 22 8 36 7 14 -1 28 2 31 8 4 5 15 5 28 -2 12 -7 21 -8 21 -2 0 14 62 10 85 -5 11 -8 28 -14 38 -14 10 0 22 -10 27 -22 6 -16 9 -18 9 -7 2 34 38 45 156 49 12 0 75 55 75 65 0 11 71 97 116 140 23 22 51 60 64 85 12 24 31 56 41 70 30 40 79 185 90 266 8 62 7 85 -6 132 -18 63 -67 157 -126 242 -36 52 -38 58 -32 113 5 47 10 60 27 67 12 5 100 14 196 20 188 12 302 30 347 53 71 37 103 101 103 206 0 58 -25 101 -44 77 -14 -17 -93 -30 -101 -16 -4 6 -11 7 -17 4 -6 -4 -8 -2 -5 4 12 18 -4 41 -34 47 -16 4 -27 10 -24 15 3 5 -1 11 -7 13 -10 4 -9 8 2 16 10 7 17 6 23 -2 6 -8 7 -6 3 5 -3 10 -1 20 4 23 6 4 10 17 10 31 0 21 3 23 19 14 18 -9 61 -14 61 -7 0 2 -7 18 -15 34 -17 33 -48 43 -100 32 -16 -4 -24 -7 -17 -8 6 0 12 -6 12 -11 0 -6 -3 -9 -7 -9 -5 1 -18 1 -30 0 -19 -1 -22 -5 -17 -28 5 -24 1 -30 -28 -42 -18 -7 -46 -19 -63 -26 -16 -7 -52 -21 -78 -31 -26 -9 -50 -21 -53 -25 -3 -5 -19 -9 -36 -9 -23 0 -29 -4 -24 -16 5 -12 1 -14 -15 -9 -12 4 -31 3 -43 -3 -71 -32 -99 -42 -117 -42 -11 0 -43 -10 -70 -21 -31 -14 -60 -19 -78 -16 -20 4 -33 1 -45 -12 -11 -12 -25 -16 -41 -13 -25 4 -34 -11 -14 -23 5 -4 9 -14 7 -23 -3 -14 -16 -17 -68 -17 -60 0 -64 -2 -70 -25 -4 -17 -8 -21 -14 -12 -5 9 -13 9 -26 2 -11 -6 -36 -10 -57 -10 -21 1 -81 1 -134 0 -75 -1 -98 2 -109 14 -17 21 -22 20 -72 -12 -40 -27 -123 -52 -170 -52 -12 0 -29 -6 -37 -14 -30 -26 -91 -56 -116 -56 -13 0 -27 -4 -30 -10 -3 -5 -17 -10 -29 -10 -13 0 -29 -7 -36 -15 -17 -21 -43 -19 -57 4 -11 17 -8 22 20 40 18 11 55 25 82 32 52 12 211 85 279 127 21 13 61 30 88 39 l50 14 -28 30 c-34 36 -61 36 -122 4 -26 -14 -56 -25 -67 -25 -11 -1 -31 -7 -44 -14 -16 -9 -34 -11 -53 -5 -16 4 -28 4 -28 -2 0 -5 -10 -9 -22 -9 -37 0 -68 -11 -68 -24 0 -14 -54 -72 -87 -93 -24 -16 -43 -10 -43 13 0 8 -4 14 -9 14 -13 0 -234 -51 -241 -55 -19 -12 -270 -45 -337 -45 -82 0 -149 12 -165 28 -6 6 -14 40 -17 77 -6 57 -5 64 6 49 7 -10 13 -37 13 -60 0 -24 5 -46 10 -49 16 -10 222 -7 271 4 24 5 85 15 134 21 50 6 139 20 199 31 61 11 119 21 131 22 24 2 135 75 135 89 0 12 39 26 145 53 50 12 110 31 135 43 25 11 58 24 73 27 35 9 34 19 -4 46 -43 30 -77 27 -156 -15 -37 -20 -74 -36 -83 -36 -8 0 -34 -9 -57 -20 -23 -10 -59 -21 -80 -25 -42 -6 -83 -39 -83 -67 0 -10 -4 -18 -9 -18 -4 0 -3 26 3 58 11 54 14 58 56 79 25 12 76 33 113 45 40 13 86 37 109 57 26 22 56 37 82 41 l41 6 -28 14 c-24 12 -32 11 -68 -8 -23 -12 -57 -22 -77 -22 -21 0 -50 -7 -66 -15 -15 -8 -47 -15 -70 -15 -22 0 -55 -4 -72 -9 -29 -8 -31 -8 -26 18 10 57 50 75 255 118 15 3 27 10 27 16 0 7 4 7 12 -1 7 -7 24 -12 39 -12 27 0 36 -6 164 -103 43 -32 98 -70 124 -84 44 -24 50 -25 171 -18 68 3 130 11 138 17 7 6 59 13 115 16 79 4 107 9 126 23 14 11 18 19 10 19 -22 0 41 30 65 31 12 0 15 3 7 6 -8 3 1 13 25 28 22 12 38 26 37 31 -1 5 -5 23 -9 39 l-7 30 29 -27 30 -28 59 42 c33 22 82 61 109 85 26 23 58 43 70 43 17 0 18 2 6 10 -8 5 -27 10 -42 10 -14 0 -33 3 -42 6 -13 5 -13 8 2 23 37 36 68 45 114 31 24 -7 59 -13 78 -14 28 -1 37 4 48 27 7 15 16 27 20 27 11 0 46 69 39 77 -11 10 -83 -15 -202 -69 -60 -28 -154 -70 -208 -94 -54 -24 -125 -59 -157 -79 -33 -20 -64 -34 -69 -31 -15 10 -41 73 -41 100 0 29 21 45 165 119 187 97 387 187 416 187 11 0 19 4 19 8 0 15 -71 72 -89 72 -10 0 -18 6 -18 13 0 7 -8 25 -18 41 -17 26 -22 28 -64 22 -25 -3 -68 -18 -96 -32 -51 -27 -188 -117 -238 -156 l-27 -22 -24 24 c-13 14 -33 41 -45 62 l-21 36 50 44 c68 60 193 134 268 160 34 11 62 24 62 28 0 4 -8 17 -17 29 -17 20 -23 20 -93 12 -41 -5 -82 -10 -90 -12 -10 -3 -16 5 -18 24 -2 19 1 27 12 27 9 0 16 -7 16 -16 0 -8 5 -12 10 -9 6 4 8 11 5 16 -4 5 -2 9 4 9 5 0 15 -8 21 -17 10 -16 11 -16 7 4 -4 19 -1 21 27 21 17 -1 25 -3 19 -5 -15 -5 -18 -33 -4 -33 6 0 17 10 26 23 15 21 14 22 -7 27 -21 5 -107 -3 -165 -15 l-23 -5 25 -55 c18 -41 20 -55 11 -55 -12 0 -66 115 -66 140 0 6 11 10 25 10 14 0 25 2 25 4 0 2 -15 51 -34 108 -19 57 -37 117 -41 134 l-6 31 53 6 c29 4 68 7 87 7 22 0 32 4 28 13 -34 85 -61 136 -70 130 -6 -3 -7 -1 -3 6 14 22 -65 144 -145 223 -78 76 -166 144 -175 135 -3 -2 17 -21 44 -41 70 -51 213 -215 250 -286 8 -15 0 -9 -20 15 -52 62 -109 116 -118 110 -4 -2 -42 25 -83 60 -42 36 -79 65 -82 65 -6 0 -12 4 -66 50 -20 16 -42 30 -48 30 -6 0 -14 6 -17 14 -3 8 -29 27 -57 41 -29 15 -60 36 -69 47 -10 11 -23 21 -30 22 -7 1 -31 10 -52 19 -22 10 -105 40 -185 69 -80 28 -187 65 -238 83 -51 18 -104 36 -118 39 -24 6 -25 5 -15 -14z m81 -360 c30 -16 48 -30 41 -30 -17 0 -89 37 -97 50 -9 15 -3 13 56 -20z m165 -58 c32 -21 77 -43 99 -50 60 -17 175 -109 204 -161 26 -47 108 -273 93 -256 -4 6 -21 42 -37 80 -84 207 -148 282 -281 329 -48 16 -173 96 -152 96 8 0 41 -17 74 -38z m-1309 -164 c-8 -13 -77 -91 -153 -173 -148 -161 -241 -272 -275 -330 -12 -20 -24 -34 -26 -31 -9 8 63 119 135 209 73 90 324 358 331 351 2 -2 -3 -14 -12 -26z m1204 -262 c33 -20 78 -39 101 -42 35 -6 39 -9 33 -28 -16 -48 -17 -97 -5 -202 7 -61 10 -124 6 -140 -8 -29 -52 -76 -145 -153 -46 -38 -55 -42 -76 -33 -14 6 -53 19 -87 27 -76 20 -132 54 -153 96 -9 16 -22 82 -30 146 -10 87 -18 122 -34 144 -27 37 -26 45 5 53 14 4 54 36 89 72 112 113 182 128 296 60z m-1200 -705 c-62 -61 -118 -111 -126 -111 -7 0 -21 10 -29 22 -18 25 -22 98 -6 98 6 0 10 -6 10 -14 0 -7 7 -19 15 -26 11 -9 30 1 101 56 86 66 135 97 142 90 2 -2 -46 -54 -107 -115z m2120 -43 c32 -37 49 -63 41 -66 -7 -2 -12 -8 -12 -14 0 -6 -11 -23 -25 -39 l-24 -30 -35 48 c-40 54 -44 80 -17 114 10 13 16 30 14 37 -8 23 4 12 58 -50z m-844 -193 c13 -39 30 -97 37 -130 33 -143 -24 -39 -64 118 -7 26 -16 49 -20 52 -3 2 -30 -2 -60 -10 -52 -14 -280 -53 -439 -75 -46 -6 -120 -22 -165 -36 -134 -39 -397 -110 -458 -123 -32 -7 -58 -15 -58 -19 0 -3 12 -20 27 -36 17 -18 10 -15 -14 8 -24 22 -41 41 -40 43 32 31 590 172 862 218 116 19 242 41 280 49 39 8 74 13 79 12 5 -1 20 -33 33 -71z m-149 -57 c17 -22 41 -103 32 -112 -5 -4 -24 4 -43 18 -50 38 -92 42 -146 14 -65 -34 -83 -74 -78 -169 2 -52 11 -90 26 -123 22 -43 25 -46 40 -32 10 9 27 16 39 16 18 0 22 -6 22 -31 0 -18 -7 -38 -17 -46 -20 -15 -96 -54 -98 -50 -1 1 -15 25 -33 52 -45 73 -62 128 -62 205 0 135 77 223 207 236 35 4 68 13 74 20 14 17 24 18 37 2z m-422 -80 c4 -6 3 -13 -3 -15 -6 -2 -18 -10 -28 -17 -17 -12 -17 -19 -7 -71 7 -32 23 -87 37 -121 15 -37 29 -99 34 -151 7 -65 13 -90 26 -98 64 -39 59 -48 -40 -65 -91 -16 -114 -5 -71 32 l27 23 -10 90 c-5 52 -21 119 -36 160 -15 39 -33 92 -41 119 -17 59 -16 59 -55 60 -58 2 -40 21 38 43 92 25 119 27 129 11z m-390 -160 c44 -44 90 -90 102 -102 42 -38 65 -78 73 -129 9 -57 44 -100 97 -123 19 -7 32 -19 30 -26 -6 -16 -150 -40 -162 -28 -6 6 -3 15 8 23 18 13 18 15 -8 53 -14 21 -26 49 -26 61 0 29 -7 32 -62 26 -45 -5 -46 -7 -58 -50 -12 -41 -11 -45 10 -68 13 -14 29 -25 37 -25 7 0 13 -5 13 -11 0 -6 -7 -8 -16 -5 -9 3 -24 6 -35 6 -10 0 -19 5 -19 12 0 6 -9 30 -19 52 -17 36 -18 48 -8 94 8 40 8 63 -2 100 -11 42 -40 195 -41 215 0 14 8 7 86 -75z m2521 -60 c-3 -8 -6 -5 -6 6 -1 11 2 17 5 13 3 -3 4 -12 1 -19z m-3527 -238 c0 -6 -10 -5 -25 2 -13 6 -22 15 -19 19 6 11 44 -8 44 -21z m743 -567 c-13 -2 -33 -2 -45 0 -13 2 -3 4 22 4 25 0 35 -2 23 -4z"
       id="path6" />
    <path
       d="M2192 5543 c8 -10 6 -13 -10 -13 -12 0 -23 -4 -26 -8 -3 -5 8 -6 25 -4 18 3 29 0 29 -7 0 -7 4 -9 10 -6 17 11 89 -18 105 -42 9 -12 24 -23 36 -23 22 0 35 23 23 42 -5 7 -9 18 -9 23 0 6 -4 10 -10 10 -5 1 -26 11 -45 23 -39 24 -50 27 -50 12 0 -5 7 -10 15 -10 8 0 15 -5 15 -11 0 -5 4 -8 9 -5 9 6 61 -41 61 -55 0 -16 -27 -9 -45 11 -10 11 -26 22 -36 25 -11 4 -17 10 -15 14 3 4 -8 6 -23 3 -16 -2 -32 1 -35 7 -4 7 1 11 13 11 12 0 21 5 21 10 0 6 -16 10 -35 8 -27 -2 -32 -5 -23 -15z"
       id="path8" />
    <path
       d="M2180 5500 c-8 -5 -23 -7 -34 -4 -11 4 -16 2 -12 -4 10 -17 45 -20 57 -6 15 18 8 26 -11 14z"
       id="path10" />
    <path
       d="M2115 5470 c3 -5 11 -10 16 -10 6 0 7 5 4 10 -3 6 -11 10 -16 10 -6 0 -7 -4 -4 -10z"
       id="path12" />
    <path
       d="M2150 5460 c0 -11 48 -25 57 -16 9 8 3 12 -29 20 -17 4 -28 2 -28 -4z"
       id="path14" />
    <path
       d="M2255 5460 c28 -12 45 -12 45 0 0 6 -15 10 -32 9 -28 0 -30 -2 -13 -9z"
       id="path16" />
    <path
       d="M2090 5446 c0 -2 7 -6 15 -10 8 -3 15 -1 15 4 0 6 -7 10 -15 10 -8 0 -15 -2 -15 -4z"
       id="path18" />
    <path
       d="M2087 5423 c-6 -10 10 -53 19 -53 4 0 4 3 1 7 -4 3 1 12 10 18 15 11 15 13 -5 24 -11 6 -23 8 -25 4z"
       id="path20" />
    <path
       d="M2210 5420 c-13 -8 -12 -10 3 -10 9 0 17 -4 17 -10 0 -5 -7 -10 -16 -10 -14 0 -14 -2 -3 -16 8 -9 14 -22 15 -28 2 -23 17 -56 24 -56 5 0 6 10 2 23 -5 20 -4 21 11 8 19 -15 23 -1 5 17 -9 9 -9 12 0 12 7 0 12 13 12 30 0 22 -5 30 -17 30 -15 0 -16 2 -3 10 12 8 10 10 -10 10 -14 0 -32 -5 -40 -10z"
       id="path22" />
    <path
       d="M2352 5338 c-16 -16 -15 -33 1 -47 11 -8 16 -5 25 15 7 14 12 29 12 34 0 14 -24 12 -38 -2z"
       id="path24" />
    <path
       d="M2120 5285 c0 -38 66 -68 137 -62 30 3 57 7 60 10 3 3 -4 16 -15 28 l-21 21 5 -23 c5 -22 4 -23 -9 -6 -17 21 -28 22 -21 3 8 -20 -8 -26 -49 -19 -37 6 -53 33 -21 33 12 0 10 5 -9 20 -35 28 -57 26 -57 -5z"
       id="path26" />
    <path
       d="M2310 5282 c0 -5 7 -15 15 -22 8 -7 15 -8 15 -2 0 5 -7 15 -15 22 -8 7 -15 8 -15 2z"
       id="path28" />
    <path
       d="M1457 4318 c11 -79 17 -88 68 -88 30 0 45 4 45 13 0 13 -100 117 -112 117 -3 0 -4 -19 -1 -42z"
       id="path30" />
    <path
       d="M3494 5584 c3 -8 2 -12 -4 -9 -6 3 -10 0 -10 -9 0 -8 4 -16 9 -18 4 -1 11 -13 15 -24 5 -18 1 -24 -24 -32 -16 -6 -30 -16 -30 -21 0 -13 6 -14 48 -2 27 8 34 6 46 -10 9 -13 16 -17 21 -10 3 6 11 8 17 5 19 -12 0 59 -20 76 -10 8 -26 27 -35 43 -18 29 -43 38 -33 11z"
       id="path32" />
    <path
       d="M3620 5212 c0 -14 31 -52 50 -62 13 -7 26 -6 44 4 23 11 24 15 11 26 -8 7 -21 10 -29 7 -7 -3 -27 3 -45 14 -17 10 -31 15 -31 11z"
       id="path34" />
    <path
       d="M2845 4141 c-6 -11 33 -26 43 -16 4 3 0 10 -8 15 -19 12 -27 12 -35 1z"
       id="path36" />
    <path
       d="M2900 2630 c0 -5 5 -10 11 -10 5 0 7 5 4 10 -3 6 -8 10 -11 10 -2 0 -4 -4 -4 -10z"
       id="path38" />
    <path
       d="M280 2581 c0 -12 22 -28 44 -32 10 -2 22 -14 27 -26 8 -21 6 -21 -19 -12 -15 6 -34 16 -42 23 -30 26 -44 30 -37 13 3 -10 2 -17 -3 -17 -6 0 -10 -12 -10 -26 0 -19 -4 -25 -15 -20 -21 8 -18 -4 10 -39 20 -24 25 -26 30 -13 14 35 58 41 134 20 65 -19 71 -19 71 -4 -1 22 -56 86 -68 78 -5 -3 -27 10 -50 29 -38 33 -72 45 -72 26z"
       id="path40" />
    <path
       d="M570 2485 c0 -15 18 -40 24 -34 3 3 -1 14 -9 25 -8 10 -14 15 -15 9z"
       id="path42" />
    <path
       d="M61 2469 c-2 -27 31 -113 50 -135 11 -11 19 -27 19 -36 0 -8 10 -27 21 -42 16 -20 19 -30 10 -39 -8 -8 -11 -7 -11 6 0 10 -11 22 -25 27 -13 5 -35 27 -49 49 -14 22 -31 43 -38 47 -7 4 -5 -2 6 -14 12 -13 16 -29 13 -43 -7 -26 8 -59 27 -59 14 0 86 -100 86 -119 0 -17 -21 -13 -37 7 -8 9 -4 -2 8 -26 13 -23 37 -51 53 -62 17 -11 41 -27 53 -36 12 -9 49 -18 81 -21 50 -5 68 -1 121 23 49 23 61 33 59 49 -2 12 -12 21 -25 23 -28 4 -30 19 -3 27 11 4 18 10 15 15 -3 4 3 6 13 3 20 -5 47 20 38 36 -3 5 -24 12 -47 16 -36 6 -40 10 -35 29 3 11 6 25 6 30 0 8 15 6 55 -9 l20 -8 -20 16 c-27 21 -10 51 31 55 26 3 31 9 47 62 17 60 15 89 -7 86 -22 -3 -76 -47 -76 -62 0 -8 -9 -14 -20 -14 -11 0 -20 -5 -20 -11 0 -7 -9 -9 -21 -6 -11 3 -39 -1 -61 -9 -22 -8 -55 -14 -72 -14 -31 0 -100 20 -112 33 -4 3 -18 -3 -33 -14 l-26 -21 -27 33 c-16 18 -28 40 -29 49 -1 22 -37 98 -38 79z"
       id="path44" />
    <path
       d="M1050 2089 c-30 -16 -68 -43 -85 -60 l-30 -31 46 31 c52 34 93 39 120 15 16 -15 16 -17 1 -37 -31 -38 -75 -76 -103 -88 -16 -6 -27 -16 -26 -22 2 -11 -26 -17 -95 -20 -28 -1 -40 -7 -53 -29 -15 -26 -15 -28 1 -28 16 0 112 34 180 64 17 8 53 41 80 74 27 33 61 67 75 76 l27 16 -32 35 c-18 19 -37 35 -42 35 -5 0 -34 -14 -64 -31z"
       id="path46" />
    <path
       d="M1010 1959 c0 -5 5 -7 10 -4 6 3 10 8 10 11 0 2 -4 4 -10 4 -5 0 -10 -5 -10 -11z"
       id="path48" />
    <path
       d="M860 1899 c0 -5 5 -7 10 -4 6 3 10 8 10 11 0 2 -4 4 -10 4 -5 0 -10 -5 -10 -11z"
       id="path50" />
    <path
       d="M666 1634 c-22 -22 -24 -29 -14 -42 36 -45 51 -54 78 -48 18 3 30 1 34 -7 3 -9 7 -9 14 1 10 15 55 7 70 -11 16 -21 22 -61 10 -74 -7 -9 -6 -15 7 -20 12 -4 24 1 36 16 17 21 18 21 24 1 3 -11 4 -24 1 -28 -6 -10 28 -44 62 -61 16 -9 21 -18 17 -31 -3 -10 0 -22 7 -26 6 -4 14 -2 16 5 7 21 32 -39 32 -76 0 -27 -4 -34 -14 -30 -10 4 -13 1 -10 -8 4 -10 0 -12 -15 -8 -16 4 -20 2 -15 -10 3 -9 11 -14 17 -11 15 5 38 -42 30 -62 -6 -16 -23 -19 -23 -4 0 6 -5 10 -11 10 -11 0 -9 -28 5 -61 4 -9 1 -23 -7 -30 -7 -8 -12 -20 -9 -27 2 -6 -9 -17 -24 -23 -20 -7 -30 -7 -32 0 -2 6 -8 11 -14 11 -5 0 -6 -9 -3 -20 4 -12 1 -27 -5 -35 -6 -8 -9 -19 -5 -25 12 -20 -4 -48 -25 -43 -15 4 -20 0 -20 -13 -1 -15 -4 -13 -16 9 -10 18 -23 27 -39 27 -14 0 -25 -4 -25 -10 0 -14 -27 -13 -36 2 -4 6 -2 14 4 16 22 7 13 22 -13 22 -14 0 -25 5 -25 12 0 6 -7 4 -18 -5 -10 -10 -28 -17 -40 -17 -11 0 -27 -7 -36 -15 -8 -8 -19 -15 -25 -15 -6 0 -11 -7 -11 -15 0 -8 -4 -15 -10 -15 -5 0 -10 -8 -10 -18 0 -10 -10 -29 -22 -42 -13 -14 -22 -28 -21 -32 2 -5 -3 -8 -11 -8 -15 0 -43 -111 -32 -128 3 -6 2 -12 -2 -14 -5 -1 -12 -29 -16 -60 -5 -48 -4 -58 9 -58 8 0 15 7 15 15 0 9 6 18 14 21 8 3 12 12 9 20 -3 8 1 14 11 14 10 0 16 -9 17 -22 1 -17 2 -19 6 -6 6 24 49 34 65 17 18 -19 21 -48 7 -65 -6 -7 -9 -21 -5 -29 3 -9 0 -15 -9 -15 -14 0 -37 -32 -41 -59 -4 -22 -36 -37 -67 -32 -5 1 -6 -3 -2 -9 9 -15 -14 -40 -36 -40 -11 0 -19 -4 -19 -10 0 -5 -9 -10 -20 -10 -13 0 -20 -7 -20 -20 0 -11 5 -20 10 -20 6 0 10 -4 10 -9 0 -11 -31 -78 -70 -150 -16 -30 -27 -58 -24 -62 3 -5 171 -9 374 -9 l368 0 7 40 c13 79 115 254 233 399 24 30 50 67 58 83 9 17 23 28 35 28 26 0 99 42 99 57 0 6 -4 15 -10 18 -5 3 -10 21 -10 39 0 19 -7 39 -15 46 -8 7 -15 19 -15 28 0 43 -69 184 -155 317 -18 28 -40 65 -49 83 -24 47 -124 200 -161 247 -18 22 -49 72 -68 112 -21 41 -51 82 -70 97 -43 33 -149 66 -213 66 -42 0 -56 -5 -78 -26z m131 -830 c-10 -10 -37 16 -37 34 0 13 4 12 22 -5 12 -13 19 -25 15 -29z m-65 -1 c23 -20 23 -29 -1 -54 -26 -28 -41 -16 -41 32 0 42 12 49 42 22z"
       id="path52" />
    <path
       d="M1835 1521 c-7 -12 43 -126 52 -118 6 6 -25 107 -37 120 -4 5 -11 4 -15 -2z"
       id="path54" />
    <path
       d="M1881 1364 c-1 -17 -6 -20 -26 -16 -15 2 -25 0 -25 -7 0 -7 4 -10 9 -7 12 8 27 -13 35 -46 6 -28 25 -39 27 -15 0 6 2 21 4 31 2 11 -2 33 -10 50 -11 25 -14 27 -14 10z"
       id="path56" />
    <path
       d="M1793 1233 c-7 -2 -13 -11 -13 -19 0 -9 11 -13 38 -11 28 1 36 -1 33 -13 -2 -8 -3 -25 -3 -37 0 -12 -13 -35 -28 -51 -15 -17 -29 -46 -32 -65 -3 -30 -1 -33 16 -29 17 5 18 1 12 -39 -4 -24 -11 -48 -17 -54 -5 -5 -9 -18 -9 -29 0 -18 1 -18 18 -3 29 26 33 21 26 -33 -4 -31 -3 -50 4 -50 12 0 32 77 38 145 2 28 10 93 17 145 7 52 11 102 9 112 -3 12 -76 42 -94 37 -2 0 -9 -3 -15 -6z"
       id="path58" />
    <path
       d="M1410 1124 c0 -5 4 -15 9 -22 7 -11 10 -10 15 3 6 16 29 18 26 2 -1 -13 28 -37 45 -37 9 0 13 -5 9 -11 -4 -7 2 -9 17 -7 34 5 33 21 -2 47 -32 24 -119 42 -119 25z"
       id="path60" />
    <path
       d="M1566 1054 c-4 -9 -2 -13 5 -8 6 4 15 1 19 -6 9 -15 40 -6 40 10 0 7 -8 9 -20 5 -11 -4 -20 -2 -20 4 0 17 -17 13 -24 -5z"
       id="path62" />
    <path
       d="M957 1053 c-3 -5 -2 -15 2 -22 7 -10 10 -10 16 -1 4 6 3 16 -3 22 -5 5 -12 6 -15 1z"
       id="path64" />
    <path
       d="M1640 1030 c0 -5 5 -10 11 -10 5 0 7 5 4 10 -3 6 -8 10 -11 10 -2 0 -4 -4 -4 -10z"
       id="path66" />
    <path
       d="M3035 995 c-5 -11 -19 -29 -30 -40 -17 -15 -20 -26 -14 -47 6 -25 3 -29 -39 -50 -25 -12 -53 -28 -62 -35 -8 -7 -31 -23 -50 -35 -42 -28 -56 -84 -21 -90 18 -3 17 -11 -28 -143 -53 -157 -68 -188 -82 -179 -6 3 -7 -4 -4 -19 5 -18 2 -28 -12 -35 -17 -10 -17 -11 0 -17 14 -6 15 -10 6 -21 -9 -12 -5 -14 27 -13 31 0 35 2 19 9 -17 7 -15 9 13 9 17 1 32 6 32 12 0 5 5 7 10 4 6 -3 13 1 16 9 3 9 10 13 15 10 5 -3 5 -13 -1 -24 -14 -27 -12 -34 5 -20 8 7 15 9 15 4 0 -5 8 4 19 19 13 21 17 40 13 75 -3 37 2 59 22 102 17 34 27 73 27 100 1 49 13 72 43 83 15 6 17 14 12 39 -3 18 -1 38 6 47 6 9 -3 1 -20 -17 -17 -18 -31 -36 -30 -40 1 -4 -6 -28 -16 -54 -10 -26 -16 -53 -13 -61 3 -7 -4 -19 -14 -26 -11 -6 -17 -16 -14 -21 3 -5 -3 -18 -15 -30 -11 -11 -20 -29 -20 -39 0 -11 -4 -23 -10 -26 -19 -11 -5 36 31 107 5 9 11 30 14 45 13 70 67 198 100 234 19 22 35 47 35 58 0 10 7 35 16 56 17 40 16 99 -1 60z"
       id="path68" />
    <path
       d="M857 973 c-7 -6 40 -43 56 -43 4 0 7 9 7 21 0 15 -5 19 -15 15 -8 -3 -15 -1 -15 4 0 11 -23 13 -33 3z"
       id="path70" />
    <path
       d="M2655 884 c-44 -18 -87 -35 -97 -37 -18 -5 -23 -33 -12 -74 5 -19 9 -20 30 -11 13 6 26 9 29 6 8 -8 -49 -220 -84 -317 -17 -47 -31 -90 -31 -97 0 -13 85 -46 94 -36 13 12 5 30 -11 26 -25 -7 -61 21 -47 36 8 8 14 7 24 -5 17 -20 47 -19 53 3 2 9 37 131 77 270 41 142 69 257 64 261 -5 5 -45 -7 -89 -25z"
       id="path72" />
    <path
       d="M2940 885 c-17 -10 -20 -14 -9 -15 9 0 22 7 29 15 15 18 12 18 -20 0z"
       id="path74" />
    <path
       d="M461 454 c0 -11 3 -14 6 -6 3 7 2 16 -1 19 -3 4 -6 -2 -5 -13z"
       id="path76" />
    <path
       d="M2483 325 c7 -9 75 -35 90 -35 19 0 -5 18 -30 23 -16 3 -37 9 -48 13 -11 4 -17 3 -12 -1z"
       id="path78" />
    <path
       d="M2606 244 c-38 -41 -69 -65 -90 -70 -48 -10 -84 -35 -97 -67 -11 -27 -10 -32 12 -50 19 -16 33 -18 74 -14 28 4 61 9 75 13 l25 7 -28 -25 -29 -25 48 -7 c81 -11 92 -8 109 24 20 39 19 43 -9 25 -28 -19 -63 -10 -45 11 6 8 15 12 19 9 4 -3 19 4 33 15 14 11 27 16 29 10 1 -5 25 27 51 71 46 76 55 106 24 80 -9 -7 -35 -9 -76 -5 -59 7 -62 8 -57 30 10 40 -8 32 -68 -32z m31 -111 c0 -17 -51 -33 -103 -33 -43 0 -49 5 -39 32 7 18 142 19 142 1z"
       id="path80" />
  </g>
</svg>
