<?xml version="1.0" encoding="UTF-8" standalone="no"?>
<svg
   version="1.0"
   width="562.000000pt"
   height="849.000000pt"
   viewBox="0 0 562.000000 849.000000"
   preserveAspectRatio="xMidYMid meet"
   id="svg134"
   sodipodi:docname="7b5a8d8ebaee6592dd65711408af13a8.svg"
   xmlns:inkscape="http://www.inkscape.org/namespaces/inkscape"
   xmlns:sodipodi="http://sodipodi.sourceforge.net/DTD/sodipodi-0.dtd"
   xmlns="http://www.w3.org/2000/svg"
   xmlns:svg="http://www.w3.org/2000/svg">
  <defs
     id="defs138" />
  <sodipodi:namedview
     id="namedview136"
     pagecolor="#ffffff"
     bordercolor="#666666"
     borderopacity="1.0"
     inkscape:pageshadow="2"
     inkscape:pageopacity="0.0"
     inkscape:pagecheckerboard="0"
     inkscape:document-units="pt" />
  <g
     transform="translate(0.000000,849.000000) scale(0.100000,-0.100000)"
     fill="#000000"
     stroke="none"
     id="g132">
    <path
       d="M2786 8343 c-11 -11 -6 -23 9 -23 8 0 15 4 15 9 0 13 -16 22 -24 14z"
       id="path2" />
    <path
       d="M3064 8277 c-3 -8 -4 -18 -3 -23 3 -19 -3 -49 -8 -36 -4 10 -8 10 -20 0 -9 -7 -29 -13 -44 -14 -16 -1 -36 -5 -46 -8 -15 -6 -15 -8 -3 -16 8 -5 25 -7 37 -3 14 3 23 1 23 -6 0 -6 -9 -11 -20 -11 -11 0 -20 -6 -20 -14 0 -17 -18 -25 -43 -18 -10 3 -16 11 -13 18 3 8 1 14 -4 14 -9 0 -14 -14 -11 -32 0 -5 -9 -8 -21 -8 -19 0 -20 -2 -8 -10 18 -12 16 -12 -86 -14 -57 -1 -89 -7 -105 -18 l-24 -17 30 0 c17 -1 45 3 62 8 20 6 35 6 39 0 3 -5 9 -7 13 -5 4 3 18 7 32 10 13 2 39 8 58 12 23 5 32 4 28 -4 -9 -13 35 -3 45 11 3 6 14 12 24 13 9 2 20 8 24 13 3 6 22 11 41 10 19 -1 44 2 57 6 27 9 30 -10 5 -38 -17 -19 -17 -20 -1 -14 20 7 48 -16 48 -40 0 -14 20 -65 40 -105 6 -10 5 -18 -2 -20 -6 -2 -13 -27 -16 -56 -3 -40 1 -64 19 -107 13 -30 30 -55 37 -55 17 0 15 -30 -2 -44 -8 -6 -18 -28 -21 -48 -6 -34 -5 -36 14 -31 12 3 26 14 32 25 10 18 12 18 27 5 9 -9 29 -19 45 -22 22 -6 27 -4 27 12 0 14 -13 26 -40 38 -22 10 -40 24 -40 32 0 7 4 13 8 13 4 0 27 17 50 38 41 37 42 40 57 141 9 57 13 119 10 139 -3 21 -7 58 -9 84 -3 38 -10 52 -35 74 -17 14 -31 32 -31 40 0 11 -7 13 -26 8 -19 -5 -25 -4 -20 4 4 7 3 19 -2 28 -8 14 -10 14 -22 -1 -11 -14 -11 -18 0 -25 9 -6 5 -12 -18 -24 -42 -22 -49 -20 -26 7 27 31 25 60 -6 67 -14 4 -33 3 -43 -2 -12 -6 -19 -4 -23 7 -4 9 -14 15 -23 13 -9 -1 -22 1 -29 5 -7 5 -14 3 -18 -6z m141 -47 c-3 -5 -13 -10 -21 -10 -8 0 -14 5 -14 10 0 6 9 10 21 10 11 0 17 -4 14 -10z m95 -520 c0 -5 -4 -10 -10 -10 -5 0 -10 5 -10 10 0 6 5 10 10 10 6 0 10 -4 10 -10z"
       id="path4" />
    <path
       d="M2920 8269 c0 -5 5 -7 10 -4 6 3 10 8 10 11 0 2 -4 4 -10 4 -5 0 -10 -5 -10 -11z"
       id="path6" />
    <path
       d="M2637 8233 c-11 -13 -16 -27 -13 -30 3 -4 6 -1 6 5 0 7 6 12 14 12 8 0 16 7 19 15 10 25 -7 24 -26 -2z"
       id="path8" />
    <path
       d="M2971 8246 c-7 -8 -8 -17 -3 -20 6 -3 15 1 21 8 7 8 8 17 3 20 -6 3 -15 -1 -21 -8z"
       id="path10" />
    <path
       d="M2590 8191 c-12 -24 -13 -34 -1 -27 9 6 22 46 15 46 -2 0 -8 -9 -14 -19z"
       id="path12" />
    <path
       d="M2775 8170 c4 -6 11 -8 16 -5 14 9 11 15 -7 15 -8 0 -12 -5 -9 -10z"
       id="path14" />
    <path
       d="M2494 8068 c-13 -29 -14 -47 -6 -114 l9 -79 2 96 c0 58 6 100 13 107 6 6 9 15 5 18 -3 4 -14 -9 -23 -28z"
       id="path16" />
    <path
       d="M2615 8050 c-3 -5 1 -10 10 -10 9 0 13 5 10 10 -3 6 -8 10 -10 10 -2 0 -7 -4 -10 -10z"
       id="path18" />
    <path
       d="M2523 7769 c-15 -15 -17 -39 -3 -39 5 0 13 7 18 15 6 12 14 14 33 6 22 -9 13 -15 -16 -12 -5 0 -15 -10 -21 -24 -11 -23 -10 -24 17 -18 37 7 136 -16 118 -28 -8 -5 -33 -9 -57 -9 -29 0 -41 -4 -36 -11 13 -21 109 -5 144 24 38 32 56 34 70 7 6 -11 15 -18 20 -15 5 3 26 -6 47 -19 41 -28 146 -46 157 -28 4 6 -14 13 -46 17 -86 12 -91 24 -12 25 52 0 75 -4 84 -15 7 -8 24 -15 39 -15 l26 1 -25 14 c-25 14 -25 14 -2 15 12 0 22 5 22 11 0 30 -76 69 -137 69 -18 0 -50 7 -70 15 -57 23 -128 11 -116 -20 7 -20 -16 -19 -38 1 -36 33 -193 56 -216 33z"
       id="path20" />
    <path
       d="M2715 7770 c-3 -5 1 -10 9 -10 9 0 16 5 16 10 0 6 -4 10 -9 10 -6 0 -13 -4 -16 -10z"
       id="path22" />
    <path
       d="M3337 7694 c-21 -14 -36 -28 -33 -31 3 -3 16 1 30 10 27 18 36 13 36 -20 0 -35 18 -27 26 11 6 34 0 56 -14 56 -4 0 -25 -12 -45 -26z"
       id="path24" />
    <path
       d="M2628 7523 c-50 -54 -61 -89 -55 -178 4 -44 10 -91 13 -104 5 -17 4 -22 -4 -17 -6 4 -17 25 -23 46 -7 22 -16 40 -21 40 -11 0 -4 -24 29 -103 13 -32 21 -62 18 -67 -3 -5 1 -25 9 -45 11 -24 12 -35 3 -35 -6 0 6 -18 27 -39 32 -33 36 -42 27 -59 -8 -15 -7 -23 7 -34 20 -18 105 -63 145 -77 23 -9 27 -8 27 8 0 14 6 17 24 14 25 -5 41 -27 31 -44 -3 -4 13 -18 35 -29 31 -16 45 -18 60 -10 11 6 20 16 20 21 0 6 7 9 15 5 15 -6 90 52 80 62 -3 3 2 17 11 31 10 15 19 53 21 95 2 39 8 87 13 106 39 145 66 234 87 286 21 52 30 63 54 68 35 7 39 26 5 26 -14 0 -28 5 -31 10 -12 20 -34 9 -40 -19 -3 -16 -13 -32 -21 -35 -8 -3 -14 -12 -14 -21 0 -31 -93 -48 -104 -19 -3 8 -10 12 -16 9 -5 -3 -10 -2 -10 3 0 5 -19 12 -41 16 -33 5 -52 18 -95 64 l-53 57 5 -36 c7 -40 -13 -57 -46 -39 -20 11 -150 1 -150 -11 0 -5 9 -17 21 -28 28 -26 18 -57 -21 -63 -36 -5 -42 7 -25 55 7 21 11 46 8 56 -3 11 0 28 6 40 16 30 0 26 -31 -6z m272 -125 c0 -11 -42 -10 -60 2 -15 10 -15 10 30 23 14 4 30 -9 30 -25z m-157 -55 c3 -5 33 -8 66 -7 64 1 79 -10 35 -26 -52 -20 -164 0 -164 29 0 12 56 15 63 4z m-40 -143 l-6 25 30 -27 c17 -17 39 -27 54 -27 23 2 23 2 2 6 -13 2 -23 8 -23 13 0 11 48 22 61 14 5 -3 16 0 24 6 11 9 15 9 15 1 0 -6 -7 -14 -16 -18 -14 -5 -14 -7 2 -16 14 -8 23 -4 46 22 35 40 37 23 2 -19 -54 -64 -117 -76 -178 -35 -21 14 -41 23 -46 20 -5 -3 -14 3 -19 14 -16 28 -13 35 5 20 15 -12 16 -11 10 11 -7 24 -7 24 18 -5 24 -29 25 -29 19 -5z m-29 -85 c49 -74 186 -86 254 -23 29 28 28 17 -2 -31 -32 -51 -70 -65 -149 -57 -74 9 -98 23 -121 69 -28 61 -15 93 18 42z"
       id="path26" />
    <path
       d="M1720 7365 c-14 -16 -5 -35 16 -35 7 0 26 -13 41 -30 31 -35 73 -41 73 -11 0 11 4 22 9 25 5 3 7 15 4 26 -4 15 -11 19 -24 15 -11 -4 -19 -2 -19 3 0 6 -15 10 -34 10 -19 0 -39 3 -44 6 -5 3 -15 -1 -22 -9z"
       id="path28" />
    <path
       d="M1935 7330 c-7 -11 8 -42 42 -87 35 -48 68 -44 123 12 26 27 40 48 35 53 -30 27 -187 44 -200 22z"
       id="path30" />
    <path
       d="M2250 7279 c0 -4 -10 -11 -22 -14 -30 -9 -118 -95 -118 -115 0 -9 -5 -21 -12 -28 -9 -9 -4 -19 21 -43 18 -17 29 -35 24 -39 -13 -13 -113 -24 -113 -13 0 6 9 22 21 37 22 28 15 34 -15 11 -11 -8 -30 -15 -43 -15 -13 0 -34 -6 -46 -14 -32 -20 -67 -5 -68 31 -2 27 -4 49 -8 66 0 4 -14 1 -30 -7 -22 -12 -27 -21 -24 -38 6 -32 -33 -53 -86 -45 l-40 5 27 -25 c35 -33 147 -86 182 -86 15 0 46 9 69 21 51 27 51 27 51 0 0 -38 -16 -52 -54 -51 -28 1 -36 -3 -36 -17 0 -15 -5 -17 -27 -10 -16 5 -50 13 -78 19 -28 7 -59 21 -70 34 -15 17 -31 22 -67 22 -33 0 -56 7 -78 24 -29 21 -31 21 -21 3 14 -27 14 -35 -1 -25 -7 4 -5 -5 4 -19 10 -15 15 -34 12 -43 -4 -9 0 -23 9 -33 8 -9 17 -26 18 -37 3 -20 -21 -85 -32 -85 -14 0 -82 -66 -90 -87 -8 -21 -11 -22 -29 -11 -18 11 -23 10 -36 -7 -8 -11 -12 -26 -9 -34 7 -18 -33 -61 -56 -61 -21 0 -59 -59 -59 -92 0 -64 94 -138 175 -138 22 0 65 7 95 16 101 29 107 29 125 0 13 -20 16 -39 12 -74 -16 -132 -26 -169 -71 -247 -65 -115 -95 -203 -106 -309 -10 -104 -17 -128 -93 -288 -106 -223 -134 -320 -168 -575 -25 -194 -48 -320 -96 -536 -28 -128 -35 -173 -27 -194 10 -29 70 -76 85 -67 5 3 25 34 45 69 19 36 40 65 45 65 9 0 13 -41 9 -88 -3 -35 16 -51 56 -47 27 2 34 0 30 -11 -7 -19 9 -61 18 -46 3 6 2 13 -4 17 -5 3 -10 11 -10 18 0 8 3 8 11 0 9 -9 21 -4 49 20 34 28 52 33 170 52 104 17 151 20 214 14 127 -12 220 -10 265 5 52 19 146 23 164 7 12 -9 16 -9 19 1 5 15 291 29 321 15 11 -5 35 -3 61 6 32 11 73 14 157 10 123 -5 158 -14 204 -51 36 -30 41 -19 24 51 -18 77 -53 146 -90 176 l-32 27 13 53 c10 44 10 60 -3 104 -9 29 -19 72 -23 96 -3 24 -12 58 -20 76 -11 28 -10 36 11 81 70 148 97 237 105 349 9 125 27 201 76 329 19 48 34 90 34 93 0 2 -9 1 -20 -2 -28 -9 -33 13 -15 64 8 24 15 53 15 65 0 19 -2 18 -21 -9 -11 -16 -31 -51 -44 -76 -22 -43 -25 -45 -60 -41 -35 4 -37 6 -31 33 l6 29 -40 -20 c-58 -30 -94 -26 -138 14 -33 31 -38 41 -43 98 l-6 63 -2 -60 c-2 -85 -8 -92 -65 -70 l-45 18 4 61 c2 33 2 53 -1 44 -7 -22 -3 -22 -91 -1 l-72 16 -35 -27 -36 -27 -52 22 c-29 13 -55 24 -58 27 -3 2 11 17 30 33 19 17 30 33 24 35 -6 3 -19 10 -28 17 -16 12 -14 16 22 41 39 27 41 27 72 11 l31 -16 64 56 c35 31 93 89 129 129 l66 74 47 -10 c27 -6 52 -13 56 -18 4 -4 -1 -61 -13 -126 -31 -176 -32 -186 -19 -144 31 101 158 152 240 97 40 -27 59 -60 59 -104 0 -18 4 -33 8 -33 4 0 22 24 40 54 l33 54 39 -10 c45 -12 44 -10 26 -95 -7 -34 -12 -64 -9 -66 2 -2 -8 -27 -22 -55 -26 -53 -46 -130 -26 -102 14 20 62 145 60 156 -4 23 4 37 36 70 19 19 35 41 35 49 0 8 4 15 9 15 5 0 30 33 55 74 50 80 63 90 101 76 40 -15 136 -79 182 -121 24 -22 46 -39 51 -39 21 0 120 -116 175 -205 141 -231 396 -419 717 -530 157 -55 325 -122 359 -144 23 -15 23 -14 16 9 -4 14 -19 40 -34 59 -38 48 -51 74 -46 89 2 6 -1 12 -8 12 -7 0 -37 23 -65 50 -33 32 -61 50 -76 50 -14 0 -28 5 -32 11 -9 15 -75 43 -94 40 -8 -1 -25 -13 -38 -27 -23 -24 -52 -32 -52 -15 0 5 -17 7 -38 4 -40 -5 -105 20 -131 51 -8 9 -18 16 -23 16 -5 0 -37 13 -72 29 -66 32 -166 113 -166 137 0 8 -6 14 -14 14 -22 0 -5 56 23 76 12 9 7 13 -28 19 -23 4 -45 13 -47 20 -7 18 33 62 63 70 24 6 24 7 9 24 -9 10 -16 25 -16 35 0 9 -11 21 -24 26 -14 5 -30 18 -36 30 -7 12 -21 20 -38 20 -22 0 -15 6 34 29 67 32 144 95 144 118 0 8 -23 56 -51 106 -28 51 -58 103 -65 117 -8 14 -14 39 -14 56 0 43 -63 165 -80 154 -8 -5 -24 3 -46 22 -31 28 -32 32 -19 52 26 35 18 66 -24 102 -36 31 -38 36 -34 77 3 27 1 47 -6 51 -6 4 -11 14 -11 23 0 9 -19 37 -42 63 -24 26 -62 70 -86 98 -46 56 -195 184 -226 195 -10 4 -36 2 -58 -4 -33 -8 -43 -8 -57 5 -29 27 -34 18 -11 -20 11 -21 17 -40 13 -44 -4 -4 -35 -13 -68 -20 -68 -14 -95 -26 -95 -41 0 -6 -18 -41 -41 -79 -38 -64 -172 -200 -197 -200 -5 0 -15 7 -23 16 -7 8 -44 31 -83 49 -39 19 -98 51 -131 73 -70 45 -203 161 -219 190 -11 20 -105 120 -164 174 -17 15 -32 42 -36 61 -5 28 -11 35 -31 35 -14 0 -25 -4 -25 -9z m-379 -584 c23 -40 29 -62 29 -110 0 -62 -10 -92 -28 -81 -6 3 -12 0 -15 -6 -3 -9 -12 -6 -29 10 -28 25 -38 28 -38 8 0 -7 -7 -20 -17 -27 -15 -13 -16 -11 -9 16 10 37 10 63 3 94 -6 22 10 88 34 150 8 20 12 21 25 10 9 -7 29 -36 45 -64z m605 -99 c-11 -46 13 -56 136 -56 61 0 108 -3 104 -7 -3 -4 -57 -17 -119 -30 -124 -26 -152 -22 -163 23 -4 16 -1 39 9 60 19 40 42 46 33 10z m944 -96 c0 -5 -15 -12 -33 -15 -18 -4 -42 -17 -52 -31 -20 -28 -37 -32 -28 -7 4 11 3 14 -5 9 -7 -4 -12 -3 -12 3 0 16 18 22 23 9 3 -9 10 -6 21 9 19 26 86 44 86 23z m64 -62 c-9 -15 -21 -9 -35 20 -23 47 -23 48 9 18 17 -16 29 -33 26 -38z m16 32 c0 -5 -4 -10 -10 -10 -5 0 -10 5 -10 10 0 6 5 10 10 10 6 0 10 -4 10 -10z m-74 -37 c17 -22 18 -105 2 -121 -17 -17 -31 -15 -56 8 -39 36 -23 130 22 130 10 0 25 -8 32 -17z m78 -40 c8 -21 -10 -41 -24 -27 -11 11 -3 44 10 44 4 0 11 -8 14 -17z m-186 -21 c2 -14 -2 -22 -12 -22 -19 0 -29 17 -22 36 8 22 30 12 34 -14z m83 -95 c-9 -9 -61 1 -61 12 0 16 12 18 40 8 17 -6 26 -15 21 -20z m64 23 c3 -5 1 -10 -4 -10 -6 0 -11 5 -11 10 0 6 2 10 4 10 3 0 8 -4 11 -10z m-37 -47 c-10 -2 -26 -2 -35 0 -10 3 -2 5 17 5 19 0 27 -2 18 -5z"
       id="path32" />
    <path
       d="M3375 6390 c-3 -5 -1 -10 4 -10 6 0 11 -11 11 -25 0 -14 4 -25 9 -25 9 0 21 33 21 58 0 14 -36 16 -45 2z"
       id="path34" />
    <path
       d="M1880 7246 c0 -8 5 -18 10 -21 6 -3 10 3 10 14 0 12 -4 21 -10 21 -5 0 -10 -6 -10 -14z"
       id="path36" />
    <path
       d="M3279 7213 c24 -48 60 -77 85 -67 22 9 20 21 -5 29 -12 4 -39 23 -62 44 l-40 36 22 -42z"
       id="path38" />
    <path
       d="M2511 7174 c0 -11 3 -14 6 -6 3 7 2 16 -1 19 -3 4 -6 -2 -5 -13z"
       id="path40" />
    <path
       d="M1635 7110 c3 -5 11 -10 16 -10 6 0 7 5 4 10 -3 6 -11 10 -16 10 -6 0 -7 -4 -4 -10z"
       id="path42" />
    <path
       d="M3160 7005 c0 -20 -5 -46 -11 -58 -9 -19 -7 -18 10 3 22 26 28 75 11 85 -6 4 -10 -8 -10 -30z"
       id="path44" />
    <path
       d="M2530 7021 c0 -5 7 -12 16 -15 14 -5 15 -4 4 9 -14 17 -20 19 -20 6z"
       id="path46" />
    <path
       d="M2580 6991 c0 -5 7 -14 15 -21 16 -14 18 -10 9 14 -6 17 -24 22 -24 7z"
       id="path48" />
    <path
       d="M3880 6670 c0 -5 5 -10 11 -10 5 0 7 5 4 10 -3 6 -8 10 -11 10 -2 0 -4 -4 -4 -10z"
       id="path50" />
    <path
       d="M3931 6499 c-22 -29 -22 -31 -4 -44 24 -19 30 -18 43 4 13 25 13 51 0 51 -5 0 -10 -9 -10 -20 0 -11 -4 -20 -10 -20 -13 0 -13 16 0 41 16 28 7 23 -19 -12z"
       id="path52" />
    <path
       d="M2657 5907 c-31 -29 -57 -55 -57 -58 0 -4 16 -10 35 -13 31 -6 35 -10 36 -39 0 -20 9 4 24 63 13 52 23 96 22 97 -1 0 -28 -22 -60 -50z"
       id="path54" />
    <path
       d="M2899 5827 c-20 -17 -40 -40 -43 -51 -9 -25 12 -96 30 -103 28 -11 73 18 94 61 25 52 26 88 2 109 -26 24 -42 21 -83 -16z"
       id="path56" />
    <path
       d="M2782 5780 c0 -14 2 -19 5 -12 2 6 2 18 0 25 -3 6 -5 1 -5 -13z"
       id="path58" />
    <path
       d="M5248 4873 c11 -16 43 -50 71 -76 54 -52 66 -88 33 -106 -21 -11 -34 -5 -122 51 -30 19 -64 38 -75 42 -11 3 -44 28 -73 55 -29 26 -55 45 -57 41 -7 -11 69 -106 94 -120 11 -5 31 -10 44 -10 20 0 23 -4 20 -23 -5 -25 42 -92 57 -82 4 3 10 -4 13 -14 7 -26 87 -38 142 -22 83 25 81 25 104 -12 12 -20 28 -58 36 -85 14 -46 39 -81 50 -70 3 2 -4 22 -15 43 -11 22 -20 49 -20 61 0 11 -9 29 -20 39 -11 10 -20 24 -20 30 0 18 -21 56 -45 82 -38 41 -45 52 -45 70 0 17 -37 49 -52 45 -4 -1 -5 5 -2 12 5 14 -32 36 -112 66 l-25 10 19 -27z m122 -243 c0 -12 -17 -12 -45 0 -17 7 -15 9 13 9 17 1 32 -3 32 -9z"
       id="path60" />
    <path
       d="M1433 3890 c5 -31 17 -36 17 -7 0 15 -4 27 -10 27 -5 0 -9 -9 -7 -20z"
       id="path62" />
    <path
       d="M1410 3882 c0 -11 4 -23 8 -26 10 -6 9 30 -1 40 -4 4 -7 -2 -7 -14z"
       id="path64" />
    <path
       d="M1421 3813 c7 -12 15 -20 18 -17 3 2 -3 12 -13 22 -17 16 -18 16 -5 -5z"
       id="path66" />
    <path
       d="M3223 3802 c-7 -13 -7 -33 0 -70 9 -42 8 -69 -6 -135 -18 -87 -12 -142 18 -167 13 -11 15 -4 15 51 1 35 4 82 9 105 4 22 4 74 -1 115 -15 125 -17 130 -35 101z"
       id="path68" />
    <path
       d="M1411 3713 c7 -12 15 -20 18 -17 3 2 -3 12 -13 22 -17 16 -18 16 -5 -5z"
       id="path70" />
    <path
       d="M744 3701 c3 -5 -5 -16 -19 -25 -22 -15 -25 -15 -34 1 -9 17 -12 16 -48 -5 -21 -13 -46 -26 -55 -29 -10 -3 -18 -10 -18 -17 -1 -6 -14 -26 -30 -45 -31 -37 -33 -55 -2 -28 24 22 32 21 32 -2 0 -26 -26 -44 -53 -37 -20 5 -26 0 -41 -31 -14 -29 -14 -38 -4 -44 9 -6 5 -11 -13 -17 -14 -6 -31 -18 -39 -27 -11 -14 -3 -12 35 7 69 34 232 95 275 102 24 4 -1 -12 -77 -49 -62 -30 -113 -60 -113 -65 0 -6 -5 -10 -11 -10 -16 0 -107 -63 -163 -113 -40 -36 -47 -47 -41 -66 4 -12 17 -27 31 -33 39 -18 18 -25 -48 -16 -35 5 -71 7 -81 4 -19 -5 -23 14 -5 32 6 6 9 15 5 18 -7 7 -54 -41 -97 -99 -16 -20 -36 -68 -45 -108 -12 -47 -26 -78 -42 -94 -20 -17 -23 -27 -15 -41 5 -11 12 -52 16 -92 3 -41 13 -86 20 -100 34 -65 110 -109 165 -95 40 9 77 38 187 144 99 95 180 149 226 149 13 0 31 9 41 20 37 44 62 23 141 -117 30 -55 64 -111 74 -123 l19 -24 7 85 c10 120 25 197 46 240 32 62 109 114 133 90 15 -15 -21 -53 -43 -46 -21 7 -64 -38 -84 -87 -9 -20 -23 -93 -32 -161 -18 -139 -16 -147 45 -217 l31 -35 -7 30 c-5 17 -8 78 -7 136 1 88 5 115 23 153 23 46 101 135 135 153 17 9 17 16 7 84 -7 41 -17 76 -24 78 -22 8 -127 114 -157 160 -26 38 -30 52 -25 86 6 37 4 42 -29 64 -20 13 -36 27 -36 32 0 15 21 21 36 8 20 -17 26 -7 15 25 -12 31 -27 34 -34 6 -8 -31 -37 -25 -43 10 -4 17 -13 30 -21 30 -8 0 -12 4 -8 10 3 5 21 8 40 6 20 -1 35 2 34 8 -2 28 -18 50 -39 53 -13 2 -32 12 -42 23 -24 25 -34 25 -41 0 -5 -20 -47 -36 -72 -26 -23 9 -18 35 10 48 25 11 35 38 14 38 -5 0 -8 -4 -5 -9z m-74 -96 c0 -13 -42 -45 -58 -45 -6 0 -12 9 -15 20 -7 26 41 64 60 48 7 -6 13 -16 13 -23z m210 -15 c0 -5 -4 -10 -10 -10 -5 0 -10 5 -10 10 0 6 5 10 10 10 6 0 10 -4 10 -10z m-50 -70 c0 -5 -4 -10 -10 -10 -5 0 -10 5 -10 10 0 6 5 10 10 10 6 0 10 -4 10 -10z m10 -44 c0 -8 8 -17 17 -21 16 -6 15 -8 -7 -25 -30 -23 -76 -26 -84 -5 -6 17 3 47 18 57 19 13 56 9 56 -6z m-100 -20 c-14 -7 -36 -16 -50 -20 -14 -3 -7 3 15 14 45 22 74 27 35 6z m-100 -40 c0 -2 -12 -11 -27 -20 l-28 -17 24 20 c23 21 31 25 31 17z m-75 -66 c-10 -11 -20 -18 -23 -15 -7 6 18 35 31 35 5 0 2 -9 -8 -20z m-60 -455 c-27 -8 -51 -12 -54 -10 -2 3 2 7 10 9 8 2 21 7 29 9 8 3 26 5 40 5 15 0 5 -5 -25 -13z"
       id="path72" />
    <path
       d="M577 3693 c-4 -3 -7 -12 -7 -20 0 -11 4 -11 20 -1 11 7 20 16 20 20 0 10 -24 10 -33 1z"
       id="path74" />
    <path
       d="M1415 3660 c3 -5 8 -10 11 -10 2 0 4 5 4 10 0 6 -5 10 -11 10 -5 0 -7 -4 -4 -10z"
       id="path76" />
    <path
       d="M2295 3459 c-11 -17 0 -20 21 -4 17 13 17 14 2 15 -9 0 -20 -5 -23 -11z"
       id="path78" />
    <path
       d="M3260 3310 c-13 -24 7 -117 22 -102 7 7 5 23 -3 46 -11 29 -11 41 -1 56 7 11 8 20 2 20 -5 0 -14 -9 -20 -20z"
       id="path80" />
    <path
       d="M1704 3278 c-33 -8 -94 -69 -94 -93 0 -27 20 -26 46 2 19 21 27 24 33 14 6 -9 11 -10 15 -2 4 6 2 11 -4 11 -7 0 -9 7 -5 18 3 9 -9 3 -28 -16 -19 -19 -37 -29 -41 -24 -7 11 19 41 57 65 23 15 27 15 27 2 0 -9 9 -15 23 -14 12 0 16 3 10 6 -21 8 -15 23 8 23 14 0 19 -5 16 -14 -3 -8 2 -17 11 -21 14 -5 14 -7 2 -15 -12 -7 -12 -12 -2 -22 9 -9 12 -9 12 5 0 22 5 21 39 -4 30 -22 51 -19 51 7 0 17 -17 19 -22 2 -3 -7 -16 -3 -39 13 -19 13 -36 25 -38 26 -2 2 -2 6 1 9 7 6 50 -14 59 -29 4 -6 9 -6 12 0 7 12 -65 54 -96 57 -12 1 -36 -1 -53 -6z"
       id="path82" />
    <path
       d="M2543 3216 c-15 -13 -43 -31 -62 -40 -50 -26 -121 -96 -121 -119 0 -17 10 -10 53 34 28 30 70 63 91 73 50 23 151 36 207 26 24 -5 45 -7 46 -6 6 6 -137 56 -160 56 -14 0 -38 -11 -54 -24z"
       id="path84" />
    <path
       d="M130 3180 c-8 -5 -11 -12 -7 -16 4 -4 13 -2 19 4 15 15 7 24 -12 12z"
       id="path86" />
    <path
       d="M1386 3173 c-18 -64 -4 -183 25 -209 18 -16 19 -16 19 8 0 13 -5 50 -11 82 -9 43 -9 63 0 82 9 20 9 30 0 40 -15 19 -27 18 -33 -3z"
       id="path88" />
    <path
       d="M2192 3107 c-25 -82 -26 -87 -12 -87 6 0 10 9 10 20 0 24 17 27 22 3 2 -9 3 18 3 60 1 43 1 77 0 77 0 0 -10 -33 -23 -73z"
       id="path90" />
    <path
       d="M1733 3140 c1 -17 7 -30 12 -29 6 0 9 5 8 10 -2 5 2 9 7 9 6 0 10 7 10 16 0 8 -4 12 -10 9 -5 -3 -10 -1 -10 4 0 6 -4 11 -10 11 -5 0 -9 -14 -7 -30z"
       id="path92" />
    <path
       d="M1842 3114 c-18 -13 -21 -19 -11 -30 15 -19 26 -18 38 4 16 29 -1 45 -27 26z"
       id="path94" />
    <path
       d="M1630 3096 c0 -7 7 -19 16 -27 13 -10 17 -10 24 1 6 9 3 18 -8 27 -22 16 -32 16 -32 -1z"
       id="path96" />
    <path
       d="M1728 3063 c6 -2 18 -2 25 0 6 3 1 5 -13 5 -14 0 -19 -2 -12 -5z"
       id="path98" />
    <path
       d="M3202 3038 c18 -18 35 -32 37 -30 7 4 -51 62 -62 62 -5 0 6 -15 25 -32z"
       id="path100" />
    <path
       d="M1750 3040 c0 -5 5 -10 11 -10 5 0 7 5 4 10 -3 6 -8 10 -11 10 -2 0 -4 -4 -4 -10z"
       id="path102" />
    <path
       d="M1718 3033 c7 -3 16 -2 19 1 4 3 -2 6 -13 5 -11 0 -14 -3 -6 -6z"
       id="path104" />
    <path
       d="M2297 2958 c-47 -63 -49 -73 -21 -99 44 -40 112 -142 147 -220 65 -140 58 -128 53 -94 -7 52 -34 162 -44 181 -5 11 -15 31 -23 47 -7 15 -18 27 -25 27 -6 0 -15 8 -18 18 -9 23 -41 79 -56 97 -9 11 -9 20 3 45 20 39 14 38 -16 -2z"
       id="path106" />
    <path
       d="M1127 2897 c-68 -68 -91 -124 -95 -241 -3 -58 1 -122 8 -155 12 -53 19 -62 184 -228 158 -159 214 -206 186 -154 -13 26 -7 118 10 134 10 10 12 9 7 -5 -4 -11 -1 -18 6 -18 22 0 37 70 25 122 -10 43 -14 47 -40 46 -26 -1 -29 -4 -25 -25 3 -14 0 -22 -6 -20 -7 2 -12 62 -15 160 l-3 157 50 0 c69 0 65 16 -4 17 -75 2 -78 5 -71 72 l7 56 -21 -24 c-11 -13 -20 -30 -20 -39 0 -23 -40 -62 -56 -55 -8 3 -14 20 -14 41 0 41 -50 202 -62 202 -5 0 -28 -19 -51 -43z"
       id="path108" />
    <path
       d="M3190 2380 c-12 -8 -12 -10 3 -16 9 -3 17 -10 17 -16 0 -5 -4 -6 -10 -3 -5 3 -10 1 -10 -4 0 -6 -5 -11 -10 -11 -11 0 -46 -31 -70 -63 -12 -17 -11 -21 10 -38 l25 -19 -21 -18 c-24 -20 -21 -42 6 -42 10 0 24 14 33 33 30 62 57 128 55 135 -1 4 2 15 6 25 9 18 2 47 -11 47 -4 0 -15 -4 -23 -10z m-10 -89 c0 -6 -4 -13 -10 -16 -5 -3 -10 1 -10 9 0 9 5 16 10 16 6 0 10 -4 10 -9z"
       id="path110" />
    <path
       d="M2526 2320 c4 -25 9 -79 13 -120 5 -60 9 -75 24 -78 13 -3 17 3 17 26 0 17 6 32 12 34 10 4 10 10 1 31 -7 14 -8 29 -3 32 4 3 11 -1 13 -7 4 -10 6 -10 6 0 1 7 -15 27 -34 45 -19 18 -39 43 -45 57 -8 20 -9 17 -4 -20z"
       id="path112" />
    <path
       d="M1635 2339 c-4 -5 4 -13 15 -17 20 -8 21 -10 6 -24 -8 -9 -21 -18 -28 -21 -10 -3 -10 -8 -2 -17 17 -18 49 -8 52 16 2 15 13 24 33 28 18 3 28 10 24 16 -5 8 -11 7 -21 -1 -12 -9 -17 -9 -27 3 -16 20 -45 30 -52 17z"
       id="path114" />
    <path
       d="M1841 2248 c3 -21 -12 -48 -27 -48 -8 0 -14 -8 -14 -17 -1 -24 -25 -55 -42 -52 -34 4 -50 -1 -40 -14 7 -8 7 -18 1 -27 -8 -13 -10 -13 -19 0 -9 13 -11 13 -20 0 -10 -13 -11 -13 -9 0 2 22 -12 60 -22 60 -5 0 -9 -9 -9 -20 0 -11 5 -20 10 -20 6 0 10 -7 10 -16 0 -10 -4 -12 -12 -7 -7 4 -26 9 -43 10 -16 1 -43 4 -58 8 -24 6 -29 4 -34 -14 -3 -12 -11 -20 -18 -17 -6 2 -18 1 -25 -4 -9 -6 -6 -12 13 -25 43 -28 205 -85 241 -85 80 0 272 134 316 221 25 47 25 48 0 42 -10 -3 -18 -10 -17 -16 2 -10 -8 -11 -75 -4 -10 1 -18 7 -18 14 0 8 -13 16 -30 20 -16 3 -30 9 -30 14 0 5 -7 9 -15 9 -9 0 -15 -6 -14 -12z"
       id="path116" />
    <path
       d="M2478 2039 c-9 -5 -19 -24 -23 -42 -4 -17 -19 -50 -34 -72 -60 -87 -181 -453 -168 -507 8 -29 24 -37 297 -144 107 -42 217 -88 244 -101 30 -15 52 -21 58 -15 5 5 13 47 18 93 12 123 29 180 62 215 20 21 31 47 38 85 5 30 18 81 29 113 12 33 21 65 21 71 0 8 -23 16 -57 20 -83 10 -126 30 -233 105 -52 37 -119 82 -149 100 -29 18 -61 45 -70 61 -13 21 -21 25 -33 18z"
       id="path118" />
    <path
       d="M3049 1943 c-34 -42 -59 -83 -59 -97 0 -8 -9 -21 -20 -29 -19 -13 -19 -47 0 -47 30 0 68 45 61 73 0 4 4 18 10 30 11 20 30 87 24 87 -1 0 -8 -8 -16 -17z"
       id="path120" />
    <path
       d="M2259 1302 c-9 -10 -20 -59 -27 -121 -14 -119 -52 -298 -89 -416 -33 -106 -133 -377 -145 -392 -6 -7 -20 -11 -31 -10 -20 2 -22 -3 -22 -48 0 -35 5 -55 18 -68 14 -14 18 -29 15 -55 -4 -30 0 -40 19 -55 12 -10 22 -21 21 -25 -1 -4 3 -17 10 -30 l13 -23 392 5 c440 4 437 4 437 11 0 12 -80 38 -129 41 -66 4 -192 34 -186 44 3 4 19 13 36 20 25 11 28 15 15 22 -9 5 -16 18 -16 29 0 20 -76 99 -122 127 -15 9 -30 22 -33 30 -3 8 22 58 56 110 70 107 329 571 329 588 0 15 -56 41 -295 137 -262 105 -247 101 -266 79z m161 -200 c0 -4 -6 -14 -12 -21 -11 -10 -9 -15 5 -26 17 -13 257 -75 288 -75 9 0 23 -7 30 -16 12 -15 11 -16 -8 -10 -11 4 -46 11 -77 16 -31 6 -80 14 -110 19 -168 29 -223 64 -164 105 24 17 48 21 48 8z m-117 -807 c16 -19 36 -35 44 -35 11 0 10 -5 -3 -25 -13 -20 -25 -25 -55 -25 l-39 0 0 44 c0 44 7 76 17 76 3 0 19 -16 36 -35z m-93 -11 c0 -19 -5 -24 -24 -24 -32 0 -40 26 -14 44 26 19 38 12 38 -20z m323 -34 c35 -24 47 -40 28 -40 -5 0 -28 18 -52 41 -45 42 -41 42 24 -1z m-497 -117 c-7 -7 -26 7 -26 19 0 6 6 6 15 -2 9 -7 13 -15 11 -17z m19 -23 c3 -5 2 -10 -4 -10 -5 0 -13 5 -16 10 -3 6 -2 10 4 10 5 0 13 -4 16 -10z"
       id="path122" />
    <path
       d="M1931 194 c0 -11 3 -14 6 -6 3 7 2 16 -1 19 -3 4 -6 -2 -5 -13z"
       id="path124" />
    <path
       d="M1867 94 c-4 -4 -7 -14 -7 -23 0 -11 3 -12 11 -4 6 6 10 16 7 23 -2 6 -7 8 -11 4z"
       id="path126" />
    <path
       d="M1925 70 c-3 -5 -1 -10 4 -10 6 0 11 5 11 10 0 6 -2 10 -4 10 -3 0 -8 -4 -11 -10z"
       id="path128" />
    <path
       d="M1955 70 c-3 -5 1 -10 9 -10 9 0 16 5 16 10 0 6 -4 10 -9 10 -6 0 -13 -4 -16 -10z"
       id="path130" />
  </g>
</svg>
