<?xml version="1.0" encoding="UTF-8" standalone="no"?>
<svg
   version="1.0"
   width="955.000000pt"
   height="1508.000000pt"
   viewBox="0 0 955.000000 1508.000000"
   preserveAspectRatio="xMidYMid meet"
   id="svg194"
   sodipodi:docname="443c9a326b8491eba291954586c7872f.svg"
   xmlns:inkscape="http://www.inkscape.org/namespaces/inkscape"
   xmlns:sodipodi="http://sodipodi.sourceforge.net/DTD/sodipodi-0.dtd"
   xmlns="http://www.w3.org/2000/svg"
   xmlns:svg="http://www.w3.org/2000/svg">
  <defs
     id="defs198" />
  <sodipodi:namedview
     id="namedview196"
     pagecolor="#ffffff"
     bordercolor="#666666"
     borderopacity="1.0"
     inkscape:pageshadow="2"
     inkscape:pageopacity="0.0"
     inkscape:pagecheckerboard="0"
     inkscape:document-units="pt" />
  <g
     transform="translate(0.000000,1508.000000) scale(0.100000,-0.100000)"
     fill="#000000"
     stroke="none"
     id="g192">
    <path
       d="M4870 15025 c-160 -28 -520 -137 -630 -193 -147 -73 -307 -205 -372 -304 -16 -27 -34 -48 -39 -48 -5 0 -9 -4 -9 -10 0 -5 -16 -35 -37 -67 -48 -75 -134 -256 -135 -285 -1 -13 -6 -29 -11 -35 -5 -7 -7 -19 -4 -28 4 -8 -1 -19 -11 -24 -10 -6 -12 -11 -4 -11 14 0 12 -51 -5 -90 -22 -51 -32 -97 -34 -155 -2 -33 -7 -65 -11 -70 -4 -6 -7 -20 -7 -30 0 -19 -9 -151 -16 -220 -1 -16 -3 -36 -4 -43 0 -7 -6 -10 -12 -7 -6 4 -7 20 -4 38 l7 32 -18 -24 c-15 -21 -16 -43 -11 -197 3 -103 2 -174 -4 -174 -20 0 -7 -18 22 -30 17 -7 42 -30 56 -51 13 -21 31 -40 39 -43 16 -6 19 -36 4 -36 -5 0 -25 14 -44 30 -18 17 -54 39 -79 50 l-45 20 -39 -22 c-21 -12 -39 -26 -41 -30 -2 -4 -10 -8 -18 -8 -8 0 -20 -11 -26 -25 -6 -14 -15 -25 -20 -25 -4 0 -8 -9 -8 -21 0 -11 5 -17 10 -14 6 4 10 -11 10 -37 0 -31 3 -39 10 -28 12 19 20 10 60 -67 22 -43 29 -69 25 -84 -5 -14 -3 -19 3 -15 6 3 13 24 17 45 4 22 13 42 21 45 8 3 14 14 14 24 0 49 75 71 112 32 9 -10 22 -20 29 -22 20 -7 3 -24 -47 -47 -41 -20 -45 -24 -40 -49 8 -35 15 -82 23 -160 5 -56 8 -63 31 -69 19 -4 30 0 43 16 20 24 41 20 78 -15 28 -29 23 -61 -8 -44 -11 5 -24 10 -30 10 -17 0 -1 -26 25 -40 29 -16 30 -29 4 -79 -10 -21 -17 -41 -15 -43 3 -3 -6 -15 -20 -28 -34 -32 -33 -52 3 -48 19 2 28 9 30 25 3 23 34 39 52 28 18 -11 11 -61 -12 -82 -56 -50 -97 -52 -122 -5 -8 15 -47 61 -86 102 -40 41 -82 98 -95 125 -20 44 -22 47 -20 19 1 -17 5 -36 8 -41 4 -6 4 -18 1 -27 -4 -9 5 -25 23 -42 15 -14 28 -30 28 -34 0 -5 12 -18 28 -30 15 -12 25 -25 23 -29 -3 -4 16 -27 41 -51 25 -24 43 -37 39 -29 -4 8 2 3 13 -10 12 -13 38 -29 58 -36 30 -11 39 -20 46 -47 4 -18 11 -145 15 -283 7 -215 7 -320 1 -530 -1 -22 -10 -120 -20 -217 -17 -166 -20 -180 -45 -208 -15 -16 -35 -30 -44 -30 -36 0 -142 -64 -198 -119 -66 -65 -81 -110 -61 -184 12 -45 61 -137 94 -176 311 -367 650 -661 990 -861 50 -29 120 -71 158 -93 37 -21 67 -45 67 -52 0 -17 -26 -26 -47 -17 -16 6 -188 104 -238 135 -109 67 -222 145 -280 191 -38 30 -92 73 -120 94 -154 119 -531 505 -615 629 -52 77 -67 131 -57 204 5 39 5 40 -16 26 -33 -21 -54 -32 -137 -68 -41 -18 -86 -41 -100 -51 -14 -10 -36 -20 -50 -23 -14 -3 -26 -9 -28 -15 -2 -6 -7 -8 -12 -5 -5 3 -14 0 -22 -7 -7 -7 -22 -14 -33 -16 -28 -5 -372 -183 -396 -205 -10 -10 -19 -15 -19 -12 0 2 -9 -3 -20 -13 -12 -9 -24 -17 -28 -17 -20 -2 -52 -18 -52 -26 0 -6 -4 -8 -9 -5 -5 3 -14 -1 -21 -9 -7 -8 -18 -15 -25 -15 -8 0 -15 -4 -17 -8 -1 -5 -48 -35 -103 -66 -55 -32 -115 -67 -133 -77 -39 -22 -283 -171 -351 -214 -116 -73 -516 -341 -519 -347 -2 -5 -10 -8 -18 -8 -8 0 -17 -7 -20 -15 -4 -8 -11 -15 -18 -15 -16 0 -206 -179 -206 -195 0 -6 -11 -24 -25 -39 -14 -15 -25 -34 -25 -42 0 -7 -5 -14 -11 -14 -5 0 -7 -4 -4 -10 3 -5 2 -10 -3 -10 -12 0 -113 -195 -105 -203 3 -4 2 -7 -4 -7 -11 0 -95 -185 -187 -410 -101 -252 -184 -495 -210 -615 -52 -251 -117 -608 -112 -621 3 -9 21 -14 48 -14 52 0 169 -41 221 -77 64 -44 194 -190 234 -261 111 -198 139 -426 78 -629 -20 -66 -102 -190 -159 -240 -65 -57 -171 -110 -256 -127 -143 -30 -177 -18 -223 76 -51 106 -66 184 -68 354 0 74 -4 132 -7 129 -7 -6 -32 -183 -52 -355 -5 -47 -18 -204 -29 -350 -17 -230 -20 -378 -22 -1115 l-2 -850 27 -90 c69 -228 205 -592 377 -1008 55 -133 128 -312 161 -397 232 -597 490 -1032 770 -1302 50 -47 95 -84 102 -82 6 3 28 36 48 74 41 78 115 187 265 389 94 126 161 198 224 242 21 14 23 23 21 76 -2 48 1 63 17 77 18 16 21 16 53 1 18 -10 47 -27 63 -40 32 -24 187 -104 214 -111 25 -6 144 -45 169 -55 12 -5 32 -13 45 -18 12 -6 37 -13 55 -16 27 -6 32 -10 27 -26 -8 -23 2 -24 25 -4 24 22 70 2 63 -26 -7 -25 9 -24 25 1 15 25 35 16 27 -11 -6 -17 -1 -19 34 -19 22 0 43 -5 46 -10 4 -7 13 -7 26 0 15 9 19 7 19 -5 0 -9 7 -18 15 -21 8 -4 15 -12 15 -19 0 -18 -25 -26 -38 -13 -14 14 -27 -14 -19 -37 4 -8 2 -17 -3 -20 -6 -4 -10 -22 -10 -41 0 -19 -4 -34 -8 -34 -5 0 -16 -16 -25 -36 -27 -55 -5 -96 32 -61 11 10 13 9 8 -5 -11 -32 19 -19 61 26 22 24 45 53 51 65 10 18 15 19 33 10 15 -8 22 -8 28 1 5 8 18 10 36 6 16 -4 36 -7 44 -8 8 0 20 -5 27 -10 7 -6 15 -3 22 9 9 16 11 14 17 -15 5 -25 11 -32 23 -27 32 13 36 9 34 -25 -2 -35 -2 -35 8 -7 11 27 32 36 44 16 5 -6 13 -3 22 10 23 34 33 24 33 -35 0 -50 2 -55 15 -44 13 11 18 10 29 -5 12 -17 14 -16 20 9 4 15 4 31 1 35 -3 5 2 11 10 15 10 3 15 -1 16 -14 3 -39 4 -43 17 -48 7 -2 16 5 19 17 8 33 20 25 27 -19 6 -40 26 -47 26 -10 0 10 4 22 10 25 6 4 10 -7 10 -24 0 -37 22 -41 44 -9 l15 21 10 -25 c13 -33 68 -46 87 -21 12 17 14 17 27 -1 13 -18 15 -18 24 -1 8 14 14 15 29 7 15 -8 23 -7 37 6 17 15 18 14 23 -5 5 -18 11 -21 42 -16 21 4 43 13 49 22 11 14 13 13 19 -8 7 -23 8 -23 21 -5 12 16 16 17 35 5 17 -11 22 -11 29 1 5 7 9 17 9 22 0 5 7 3 15 -4 12 -10 18 -10 30 0 19 16 45 6 45 -17 1 -17 1 -17 11 0 8 14 14 16 25 6 11 -9 17 -9 28 1 8 6 23 11 33 10 10 -1 20 -1 23 0 21 7 157 6 167 -2 7 -5 21 -7 31 -4 10 4 34 0 53 -8 30 -12 35 -12 46 3 12 15 14 15 24 -2 9 -15 13 -16 26 -5 13 10 19 8 37 -15 23 -29 36 -27 36 5 0 26 15 22 39 -9 14 -19 23 -24 28 -16 9 13 90 -4 116 -25 13 -11 37 -15 125 -21 7 -1 21 -16 32 -34 l20 -32 12 32 c10 27 18 33 43 33 16 -1 48 2 71 6 40 6 42 5 72 -41 24 -37 33 -44 38 -31 3 9 3 31 0 50 -5 23 -2 37 9 46 20 16 66 5 87 -23 l17 -22 10 26 c8 21 18 27 56 32 38 6 52 3 72 -13 33 -25 48 -25 67 1 21 30 47 17 81 -41 37 -61 55 -65 53 -10 -1 23 4 46 10 52 18 18 65 -3 80 -35 7 -15 17 -27 21 -27 13 0 32 45 33 79 1 45 24 50 56 12 37 -44 106 -51 154 -16 18 14 47 32 65 41 32 17 32 17 101 -25 91 -55 107 -73 92 -101 -9 -17 -7 -26 16 -53 15 -18 30 -32 33 -32 3 0 9 50 12 110 6 113 29 199 55 209 8 3 29 -10 49 -31 25 -26 39 -33 52 -28 10 5 32 9 48 10 17 1 44 2 61 3 22 2 34 9 42 26 6 14 21 36 33 50 21 24 23 25 49 10 23 -14 30 -14 63 0 20 8 37 20 37 26 0 6 17 -5 38 -24 84 -77 87 -79 141 -65 36 9 59 9 87 1 64 -17 144 -48 157 -61 6 -6 16 -11 22 -11 6 0 20 -8 31 -17 21 -19 60 -43 69 -43 3 0 -4 9 -15 20 -11 11 -23 20 -27 20 -3 0 -20 10 -37 23 -17 13 -68 41 -113 63 -45 21 -84 46 -86 54 -2 8 4 26 12 39 11 18 12 27 3 40 -22 30 -42 83 -36 93 4 6 19 7 35 4 22 -4 35 0 50 15 18 18 24 19 44 9 17 -9 31 -10 54 -2 24 8 40 7 81 -9 53 -20 90 -18 90 5 0 14 42 56 56 56 5 -1 22 -11 38 -24 16 -14 35 -22 43 -19 9 3 13 -3 13 -19 0 -34 10 -41 31 -22 10 9 29 18 41 19 35 4 35 4 41 25 4 17 11 20 39 15 18 -3 41 -8 51 -11 12 -4 17 0 17 15 0 12 4 21 8 21 5 0 7 13 4 29 -3 22 1 29 16 33 50 13 235 -231 351 -461 33 -67 61 -129 61 -137 0 -21 6 -18 48 29 267 291 478 650 682 1162 157 392 342 1033 404 1396 23 135 24 160 19 404 -3 175 0 358 11 560 9 165 16 360 16 433 0 185 -45 745 -80 1002 -56 404 -99 855 -130 1360 -27 434 -35 521 -56 615 -14 61 -34 148 -45 195 -35 157 -59 238 -125 412 -36 95 -74 200 -85 233 -25 76 -99 225 -111 225 -5 0 -6 4 -3 10 3 5 -3 17 -15 27 -11 10 -20 25 -20 35 0 10 -4 18 -10 18 -5 0 -10 9 -10 19 0 11 -5 21 -11 23 -5 2 -11 11 -12 19 -2 9 -10 24 -20 33 -9 10 -17 26 -17 36 0 10 -4 20 -9 22 -5 2 -11 9 -13 17 -2 8 -11 23 -21 33 -10 10 -15 23 -12 28 4 6 -1 13 -9 16 -9 3 -16 10 -16 14 0 4 -14 22 -30 40 -17 18 -29 35 -26 37 2 2 -7 16 -20 30 -13 14 -24 32 -24 38 0 7 -7 16 -16 19 -8 3 -13 10 -10 14 6 10 -33 45 -54 50 -17 4 -72 42 -82 57 -4 5 -8 7 -8 3 0 -6 -64 29 -150 82 -8 5 -50 30 -92 56 -43 25 -78 49 -78 53 0 4 -6 8 -12 8 -15 0 -121 64 -126 75 -2 4 -10 8 -18 8 -13 0 -97 39 -194 91 -19 10 -48 24 -65 31 -24 9 -194 92 -444 216 -30 15 -104 55 -164 90 -60 34 -111 62 -112 62 -12 0 -145 84 -145 91 0 6 -4 8 -9 5 -5 -3 -12 1 -15 10 -4 9 -13 14 -22 10 -9 -3 -12 -2 -9 4 4 6 -8 13 -25 17 -18 3 -34 12 -37 19 -3 8 -9 11 -14 9 -4 -3 -16 2 -26 12 -10 10 -30 23 -43 30 -41 19 -209 83 -220 83 -12 0 -12 -13 0 -68 8 -31 6 -61 -5 -113 -67 -323 -508 -731 -1120 -1037 -55 -28 -118 -58 -140 -67 -22 -10 -98 -46 -170 -80 -211 -101 -246 -116 -265 -110 -16 5 -35 33 -28 40 2 2 55 30 118 62 63 33 131 69 150 81 19 11 71 36 115 55 221 95 549 271 680 365 202 146 380 315 489 465 89 124 126 219 126 327 0 78 -14 118 -57 162 -51 53 -219 162 -237 155 -20 -8 -29 9 -33 58 -2 22 -10 116 -19 208 -8 93 -12 182 -9 198 4 19 3 29 -5 29 -7 0 -11 16 -9 43 2 24 0 47 -3 52 -3 6 -9 33 -12 60 -7 53 -1 79 68 330 20 72 40 144 44 160 6 25 13 31 42 33 47 5 99 46 118 94 8 21 19 38 24 38 5 0 6 5 3 10 -3 6 -1 10 5 10 6 0 8 5 5 10 -6 9 4 70 22 134 3 12 1 16 -6 12 -7 -5 -11 9 -11 44 0 47 13 86 34 101 4 4 3 10 -3 13 -6 4 -11 16 -11 27 0 11 5 17 10 14 6 -3 10 2 11 12 3 75 18 141 45 188 25 45 28 73 18 136 -5 30 -12 38 -38 46 -28 8 -31 13 -32 50 0 22 -4 48 -7 56 -3 9 -2 19 4 23 6 3 8 11 6 18 -3 6 4 72 15 146 21 145 25 308 9 350 -9 22 -33 106 -35 120 -1 7 -60 62 -92 85 -15 11 -32 25 -38 31 -19 19 -56 35 -66 29 -5 -3 -12 0 -17 7 -11 19 -13 39 -2 32 5 -3 4 7 -1 23 -18 50 -33 74 -44 70 -6 -2 -15 2 -21 10 -8 10 -10 8 -10 -11 0 -13 4 -22 9 -18 5 3 6 -1 1 -8 -4 -6 -9 -34 -11 -62 -4 -42 -2 -49 13 -46 10 2 18 -2 18 -9 0 -7 6 -18 13 -25 11 -11 16 -10 28 6 8 11 14 14 14 7 0 -7 4 -10 9 -6 5 3 12 1 15 -4 9 -14 -4 -41 -20 -41 -13 0 -19 -13 -15 -34 1 -5 -5 -3 -15 4 -14 13 -16 12 -12 -5 2 -11 9 -19 14 -18 6 1 11 -15 12 -35 2 -20 7 -41 12 -46 6 -6 10 -20 10 -32 0 -13 5 -26 10 -29 6 -3 10 -18 10 -32 0 -28 1 -28 -90 6 -60 23 -90 27 -90 11 0 -15 -26 -12 -40 5 -7 8 -15 13 -19 11 -3 -2 -29 -5 -56 -7 -28 -1 -54 -5 -60 -8 -19 -11 -54 -11 -60 -1 -3 5 -16 10 -28 10 -12 1 -38 6 -57 13 -26 10 -41 10 -57 2 -25 -13 -132 -10 -145 3 -14 14 -109 -3 -120 -21 -5 -10 -17 -17 -27 -17 -10 0 -25 -10 -34 -23 -18 -28 -4 -68 37 -106 24 -23 26 -30 26 -111 0 -91 17 -200 31 -200 12 0 23 46 14 59 -11 18 32 12 67 -9 18 -11 39 -20 46 -20 7 0 39 -12 70 -26 122 -56 223 -86 289 -85 35 0 74 -4 87 -9 17 -6 29 -4 42 6 11 9 13 13 7 9 -9 -4 -11 -1 -7 9 5 14 9 13 31 -4 14 -11 36 -20 49 -20 13 0 24 -4 24 -10 0 -5 6 -10 13 -10 8 0 24 -11 37 -25 12 -13 26 -22 30 -20 13 8 46 -29 42 -47 -2 -10 1 -18 7 -18 5 0 -12 -22 -39 -50 -27 -27 -53 -50 -59 -50 -6 0 -12 -4 -12 -10 -1 -5 -3 -14 -4 -20 -1 -5 -3 -14 -4 -20 0 -5 -11 -9 -24 -8 -27 2 -97 -28 -97 -42 0 -18 5 -25 15 -22 6 2 -1 -8 -15 -23 -14 -15 -24 -28 -22 -31 7 -12 0 -24 -14 -24 -23 0 -44 -26 -56 -68 -9 -32 -12 -34 -19 -17 -5 13 -8 15 -8 5 -1 -12 -3 -13 -10 -1 -13 21 -32 3 -25 -24 6 -26 -24 -65 -51 -65 -20 0 -19 -7 6 -38 l20 -27 -20 -16 c-12 -10 -21 -22 -21 -27 0 -20 49 -118 70 -140 11 -12 18 -26 15 -32 -7 -11 -65 20 -65 35 0 6 -9 18 -20 28 -11 9 -20 26 -20 37 0 12 -9 24 -22 29 -13 5 -30 12 -38 15 -8 4 -26 14 -40 24 -14 9 -40 26 -58 37 -22 14 -40 39 -58 83 -26 59 -26 64 -11 95 9 17 18 40 21 50 3 9 9 17 13 17 7 0 33 -36 58 -82 12 -22 21 -23 29 -3 3 9 -3 23 -14 32 -11 10 -20 25 -20 34 0 9 -12 28 -27 43 -15 15 -28 37 -30 49 -5 30 -43 107 -53 107 -5 0 -12 -5 -16 -11 -3 -6 -15 -8 -26 -5 -12 3 -42 -6 -69 -21 -40 -20 -57 -24 -96 -19 -174 22 -170 22 -234 -23 -42 -29 -68 -41 -94 -41 -24 0 -35 4 -35 15 0 8 -3 15 -7 16 -5 0 -15 2 -24 4 -29 5 1 -152 42 -221 16 -26 16 -34 5 -55 -7 -14 -16 -37 -19 -51 -8 -31 -28 -37 -79 -24 -25 7 -44 6 -60 -1 -13 -6 -41 -16 -63 -22 -22 -6 -57 -26 -78 -45 -20 -19 -44 -37 -52 -40 -19 -7 -19 -50 0 -70 22 -22 19 -33 -14 -47 -16 -7 -28 -16 -25 -20 2 -4 -2 -9 -10 -12 -8 -3 -17 -21 -21 -39 -8 -43 -26 -88 -34 -88 -3 0 -13 4 -21 10 -9 5 -19 5 -27 -1 -25 -22 -39 8 -18 41 8 13 6 13 -8 2 -26 -22 -40 -4 -34 44 2 24 1 44 -4 44 -5 0 -8 15 -8 33 0 17 -5 59 -11 92 -18 105 -19 117 -5 111 18 -7 13 24 -10 58 -26 39 -27 72 -3 72 18 0 18 -1 2 -13 -15 -11 -14 -12 5 -10 26 2 27 14 4 40 -13 15 -14 18 -3 12 13 -8 13 -7 0 11 -8 10 -19 22 -25 26 -6 5 -4 8 4 8 11 0 10 4 -5 16 -10 8 -12 12 -4 8 13 -7 13 -5 2 8 -7 9 -12 20 -11 24 6 31 -17 78 -47 97 -19 12 -36 29 -39 37 -3 8 -19 21 -35 29 -42 18 -90 60 -90 77 0 8 -7 14 -15 14 -30 0 -73 29 -79 54 -4 18 -15 25 -42 30 -32 7 -35 10 -33 39 2 28 -4 54 -18 79 -2 4 3 5 11 2 8 -3 23 -1 32 4 16 9 15 11 -5 21 -16 9 -21 9 -19 0 2 -7 -14 -13 -44 -15 -52 -3 -56 2 -34 45 8 15 12 38 9 49 -5 20 -1 22 31 22 21 0 35 4 31 9 -3 5 2 17 11 26 15 15 15 17 -6 22 -16 4 -21 11 -17 29 2 13 0 21 -4 18 -5 -3 -9 1 -9 9 0 10 7 14 23 10 16 -3 18 -2 9 5 -20 14 -10 47 13 47 14 0 23 -10 31 -35 8 -24 20 -37 40 -44 16 -5 46 -22 68 -38 21 -15 52 -28 67 -28 16 0 49 -7 74 -15 40 -14 50 -14 96 -1 l52 16 34 -36 c20 -22 52 -42 80 -50 65 -20 176 -17 258 5 39 10 97 22 130 26 60 7 155 41 155 55 0 5 17 12 38 17 l37 9 3 74 c3 105 8 118 57 164 40 38 44 46 47 96 3 53 2 55 -24 58 -15 2 -35 -1 -45 -7 -13 -6 -33 -6 -61 2 -34 9 -45 9 -51 -1 -4 -7 -27 -13 -52 -13 -150 -1 -173 1 -196 16 -15 10 -35 14 -51 10 -15 -3 -49 -1 -77 5 -27 6 -64 12 -82 15 -18 2 -41 9 -53 15 -24 13 -123 -2 -180 -27 -54 -24 -130 -42 -146 -36 -10 3 -13 12 -8 22 4 9 6 26 5 39 0 12 4 22 10 22 6 0 9 6 6 14 -3 7 1 23 8 34 8 10 12 22 9 25 -3 3 -7 36 -10 74 -5 90 -6 93 -16 93 -4 0 -8 5 -8 11 0 5 5 7 10 4 6 -3 10 1 10 10 0 9 4 14 8 11 4 -2 13 4 20 14 12 20 0 36 -18 25 -6 -4 -10 -3 -9 2 4 24 -2 53 -10 48 -5 -3 -12 -1 -15 4 -6 10 -88 7 -105 -3 -5 -4 -8 -13 -5 -20 3 -7 -2 -19 -11 -26 -10 -9 -15 -9 -15 -1 0 7 -9 9 -25 5 -22 -6 -25 -3 -25 23 0 40 -8 45 -38 25 -15 -9 -23 -12 -19 -6 4 7 -2 10 -18 8 -14 -1 -25 3 -26 9 -2 34 -10 53 -25 64 -22 16 -44 0 -44 -33 0 -26 -16 -41 -23 -22 -8 23 -35 -14 -40 -55 -6 -48 -14 -57 -23 -24 -8 35 49 154 82 169 16 8 22 17 19 28 -3 10 0 22 8 28 7 6 24 36 37 66 14 31 32 58 41 61 8 3 23 22 33 42 10 20 21 32 24 27 12 -17 30 -10 74 27 60 49 61 50 92 34 24 -13 31 -13 56 0 15 8 41 27 56 42 56 54 81 61 196 52 38 -3 50 0 62 16 14 19 15 19 34 2 20 -18 21 -18 41 2 18 18 21 19 29 4 18 -31 109 -25 186 13 23 12 31 12 37 3 4 -7 15 -14 24 -15 15 -2 15 -1 1 15 -17 19 -21 41 -8 41 5 0 18 -11 30 -25 30 -34 69 -43 87 -19 13 17 16 17 25 4 8 -13 10 -13 10 1 0 9 -6 19 -13 22 -9 3 -12 17 -9 42 3 26 7 33 13 24 8 -14 11 -10 13 20 1 15 54 23 62 9 3 -4 11 -5 19 -1 8 3 15 0 15 -6 0 -6 7 -8 16 -4 13 5 11 9 -8 27 -12 11 -27 21 -33 21 -14 0 -19 35 -6 48 7 7 12 2 17 -17 3 -14 10 -26 14 -26 12 0 39 -45 44 -76 6 -30 21 -44 45 -39 11 2 16 -5 18 -23 0 -15 9 -33 20 -42 14 -12 16 -20 8 -37 -5 -13 -16 -23 -24 -23 -11 0 -11 -3 -1 -15 7 -8 10 -28 8 -45 -5 -32 13 -47 31 -26 7 9 6 19 -6 35 -13 19 -13 25 -2 32 8 5 10 9 4 9 -5 0 -3 5 5 10 10 6 11 10 3 10 -7 0 -13 5 -13 12 0 6 3 9 6 5 9 -9 34 18 34 36 0 21 33 14 36 -7 2 -13 -1 -14 -10 -7 -9 8 -13 7 -13 -4 0 -8 4 -15 9 -15 4 0 8 -7 8 -15 0 -9 -9 -15 -21 -15 -12 0 -19 -5 -17 -12 3 -8 28 -13 72 -13 46 0 69 -4 75 -14 7 -10 21 -12 59 -7 38 5 52 3 62 -9 8 -9 21 -13 35 -9 13 3 33 0 45 -6 13 -7 45 -13 72 -14 31 -1 54 -7 61 -17 22 -28 75 -59 101 -59 14 0 26 -4 26 -9 0 -15 118 -42 155 -35 31 5 40 1 85 -36 27 -23 50 -46 50 -52 0 -5 11 -24 25 -42 14 -18 25 -40 25 -50 0 -9 4 -24 9 -34 5 -9 15 -30 22 -47 11 -26 13 -27 16 -9 2 11 -1 34 -8 50 -7 16 -11 39 -10 52 2 13 -4 31 -12 40 -8 9 -14 31 -14 47 0 19 -30 82 -81 174 -45 79 -78 149 -75 154 3 6 1 7 -5 3 -7 -4 -12 -4 -12 1 0 17 -120 137 -260 259 -106 93 -163 136 -215 160 -38 18 -77 34 -85 36 -8 2 -17 6 -20 9 -3 4 -45 26 -95 49 -65 30 -125 48 -215 66 -68 13 -127 24 -130 23 -3 -1 -66 -12 -140 -24z m-240 -375 c0 -5 -5 -10 -11 -10 -5 0 -7 5 -4 10 3 6 8 10 11 10 2 0 4 -4 4 -10z m290 -130 c14 0 17 -5 13 -21 -6 -21 -6 -21 -24 2 -10 13 -18 29 -18 34 0 6 3 4 6 -2 2 -7 13 -13 23 -13z m-1046 -625 c3 -9 0 -15 -8 -15 -7 0 -13 7 -13 15 0 8 4 15 8 15 4 0 9 -7 13 -15z m-191 -72 c-7 -2 -19 -2 -25 0 -7 3 -2 5 12 5 14 0 19 -2 13 -5z m957 -737 c0 -11 -19 -15 -25 -6 -3 5 1 10 9 10 9 0 16 -2 16 -4z m1594 -43 c3 -10 8 -40 10 -68 10 -100 17 -151 22 -177 3 -16 2 -28 -3 -28 -4 0 -8 -23 -9 -50 0 -28 -6 -56 -13 -63 -10 -10 -12 -8 -10 8 1 11 -1 27 -5 36 -4 8 -5 37 -3 63 2 28 -1 51 -9 57 -7 5 -10 26 -9 47 2 21 -1 40 -8 44 -9 5 -9 10 0 19 6 6 9 26 6 45 -10 58 16 114 31 67z m-2525 -461 c1 -26 -3 -41 -9 -37 -5 3 -10 2 -10 -4 0 -5 5 -13 10 -16 12 -7 13 -65 2 -65 -13 0 -45 38 -50 58 -14 56 -13 114 2 137 9 13 16 30 16 38 0 7 6 19 13 26 10 10 13 2 19 -41 3 -29 6 -72 7 -96z m2481 144 c0 -3 -4 -8 -10 -11 -5 -3 -10 -1 -10 4 0 6 5 11 10 11 6 0 10 -2 10 -4z m-192 -183 c-12 -15 -22 -18 -14 -4 4 5 0 11 -6 14 -7 3 -3 4 9 4 17 -1 19 -4 11 -14z m253 -209 c9 -11 9 -20 0 -40 -17 -38 -14 -65 9 -71 24 -6 26 -36 5 -86 -24 -58 -65 -55 -65 6 0 21 -4 28 -14 24 -23 -9 -42 21 -28 44 7 10 12 25 12 33 0 7 7 19 15 26 10 9 13 24 8 55 -3 24 0 59 8 81 l12 39 13 -48 c7 -26 18 -54 25 -63z m-472 -71 c0 -11 -3 -13 -6 -5 -2 6 -9 10 -13 7 -5 -3 -11 -1 -15 5 -3 5 3 10 14 10 14 0 21 -6 20 -17z m-852 -70 c2 -6 -3 -18 -12 -26 -20 -21 -19 -27 6 -27 12 0 34 14 49 30 31 34 45 37 54 15 8 -21 59 -41 124 -48 41 -5 52 -3 52 8 0 18 0 18 39 -1 20 -10 42 -13 61 -9 23 5 46 -3 109 -37 74 -39 97 -58 71 -58 -5 0 -10 5 -10 10 0 6 -13 10 -28 10 -15 0 -33 5 -40 12 -9 9 -34 9 -106 -1 -81 -10 -102 -10 -147 3 -80 24 -135 20 -248 -19 -124 -43 -174 -45 -197 -10 -21 32 -10 47 35 45 76 -4 102 1 122 21 13 13 18 27 14 40 -4 13 0 28 11 40 18 20 35 21 41 2z m869 -204 c3 -6 17 -9 30 -6 16 3 24 0 24 -9 0 -8 -7 -14 -15 -14 -10 0 -15 -10 -15 -32 0 -33 0 -33 -25 16 -14 27 -25 51 -25 53 0 8 19 2 26 -8z m-426 -112 c13 -9 32 -17 42 -17 10 0 18 -4 18 -10 0 -5 -8 -10 -18 -10 -10 0 -22 -4 -28 -8 -18 -16 -114 -34 -145 -27 -33 8 -420 15 -431 9 -3 -2 -3 -18 2 -34 5 -17 5 -28 1 -26 -5 3 -13 -6 -20 -20 -9 -20 -17 -25 -35 -22 -23 5 -30 -11 -13 -28 13 -14 7 -44 -9 -44 -11 0 -3 -11 22 -31 32 -25 46 -30 84 -28 25 2 50 0 56 -3 5 -2 104 -4 219 -4 l210 2 49 -34 c27 -19 64 -36 84 -38 47 -6 50 -9 44 -40 -3 -18 1 -31 11 -39 9 -6 19 -24 23 -41 6 -24 5 -27 -7 -18 -25 19 -44 11 -43 -18 1 -15 -3 -25 -8 -22 -19 12 -72 15 -92 6 -12 -6 -34 -13 -51 -16 -16 -3 -43 -8 -59 -12 -20 -5 -27 -3 -22 4 7 12 -3 14 -90 15 -44 1 -66 -4 -78 -15 -8 -9 -32 -16 -52 -16 -20 0 -41 -5 -47 -11 -7 -7 -14 -7 -23 0 -8 7 -26 8 -46 3 -18 -4 -37 -7 -42 -5 -51 13 -157 33 -181 33 -44 0 -92 41 -105 88 -6 22 -15 40 -20 40 -6 0 -10 14 -10 30 0 27 8 35 32 31 13 -1 19 38 13 81 -8 57 -25 109 -34 104 -14 -9 -54 31 -48 48 4 10 11 15 16 12 13 -8 8 19 -7 37 -10 12 -10 16 3 21 8 3 15 11 15 18 0 29 56 44 183 48 5 0 5 5 2 10 -3 6 -1 10 4 10 6 0 11 -4 11 -8 0 -9 140 5 150 14 3 3 104 4 225 2 189 -3 223 -6 245 -21z m248 -95 c40 -30 41 -43 2 -35 -23 4 -30 2 -30 -11 0 -9 -4 -16 -8 -16 -16 0 -21 13 -12 30 8 15 6 18 -8 15 -9 -2 -17 -4 -17 -5 0 -1 -10 -3 -22 -6 -26 -4 -69 28 -59 45 5 7 29 11 64 10 43 -2 65 -8 90 -27z m-1943 -1104 c-3 -29 -7 -77 -9 -105 -1 -29 -5 -56 -8 -59 -7 -7 -50 14 -60 30 -16 25 -17 -4 -1 -33 15 -26 16 -33 4 -40 -9 -6 -10 -11 -2 -15 6 -4 9 -12 6 -17 -4 -5 3 -9 14 -9 13 0 21 -7 21 -16 0 -9 7 -31 16 -50 24 -50 13 -59 -27 -20 -87 85 -108 196 -49 262 16 19 30 39 30 44 0 10 59 80 67 80 2 0 2 -24 -2 -52z m2443 -57 c17 -29 32 -62 32 -72 0 -10 5 -21 10 -24 22 -14 4 -164 -23 -191 -4 -4 -7 -16 -7 -26 0 -18 -38 -64 -46 -55 -3 2 5 25 16 51 11 26 20 60 20 76 0 16 4 30 8 32 5 2 12 27 15 56 5 39 3 52 -7 52 -9 0 -12 -9 -8 -25 2 -15 0 -25 -7 -25 -6 0 -11 11 -11 24 0 13 -7 26 -15 30 -8 3 -15 13 -15 21 0 9 5 13 10 10 14 -9 12 6 -4 24 -14 17 -46 105 -46 128 0 20 41 -25 78 -86z m-1708 -887 c0 -8 3 -15 8 -15 20 -4 58 -10 70 -11 6 -1 12 -7 12 -14 0 -7 9 -18 21 -25 14 -7 19 -17 16 -31 -4 -12 2 -28 14 -41 23 -25 24 -37 4 -37 -8 0 -15 5 -15 10 0 6 -5 10 -12 10 -6 0 -50 26 -97 58 -71 47 -82 58 -62 60 17 3 22 8 18 23 -3 10 -1 19 5 19 5 0 6 5 2 12 -4 7 -3 8 4 4 7 -4 12 -14 12 -22z m809 -156 c-9 -6 2 -7 31 -3 41 6 43 5 25 -8 -57 -41 -289 -159 -357 -182 l-57 -19 -81 52 c-45 29 -83 52 -85 52 -2 0 -16 11 -31 25 -42 39 -13 31 100 -27 13 -7 21 -6 27 3 6 11 14 11 42 1 38 -14 73 -15 42 -2 -15 7 -10 9 23 9 24 1 55 7 70 15 15 8 53 17 85 21 31 4 57 11 57 16 0 5 9 9 21 9 28 0 61 19 54 31 -4 5 -11 7 -16 4 -5 -4 -9 -2 -9 4 0 10 48 20 64 13 4 -3 2 -9 -5 -14z m-614 -28 c3 -6 -1 -7 -9 -4 -18 7 -21 14 -7 14 6 0 13 -4 16 -10z m2168 -1768 c10 -9 15 -22 13 -29 -4 -9 3 -13 19 -13 18 0 25 5 25 20 0 12 7 20 16 20 9 0 18 -9 21 -20 6 -21 28 -27 38 -10 19 30 85 -18 85 -61 0 -11 5 -19 10 -19 23 0 73 -48 117 -112 48 -70 59 -79 69 -53 10 24 32 17 48 -13 8 -16 22 -34 30 -41 17 -14 22 -51 7 -51 -5 0 -23 16 -39 36 -17 21 -32 31 -36 25 -8 -12 39 -87 60 -95 30 -12 2 -91 -42 -117 l-26 -16 36 -21 c60 -35 74 -105 30 -149 -21 -21 -32 -24 -60 -20 l-35 6 20 -35 c15 -25 18 -40 11 -57 -15 -36 -71 -91 -128 -126 -62 -37 -195 -83 -217 -75 -12 5 -13 2 -8 -12 7 -18 6 -18 -11 -1 -9 9 -28 17 -41 17 -14 0 -25 -7 -28 -17 -3 -14 -6 -12 -17 10 -13 27 -48 34 -43 9 2 -7 -2 -12 -7 -12 -12 0 -60 49 -60 61 0 4 -21 21 -47 37 -60 37 -109 84 -162 154 -33 44 -41 63 -41 97 0 28 5 44 15 47 24 10 17 22 -18 33 -38 13 -67 56 -67 99 0 42 48 93 81 85 l24 -6 -27 29 c-16 17 -30 46 -33 70 -6 37 -4 42 22 59 15 10 53 44 83 75 30 31 75 71 100 87 65 44 149 83 156 72 3 -5 17 -9 32 -9 23 1 24 2 10 11 -10 5 -22 18 -27 28 -13 23 16 25 42 3z m-313 -151 c0 -11 -80 -81 -92 -81 -20 0 -5 37 22 55 16 11 30 23 30 28 0 4 9 7 20 7 11 0 20 -4 20 -9z m-3505 -131 c33 -5 105 -14 160 -20 55 -6 141 -15 190 -21 50 -6 119 -14 155 -18 56 -5 65 -9 68 -27 3 -18 -5 -25 -40 -37 -24 -8 -65 -24 -93 -36 -27 -11 -99 -38 -160 -61 -60 -23 -126 -48 -145 -56 -19 -7 -65 -25 -102 -38 l-67 -25 -143 14 c-79 8 -183 19 -233 25 -49 5 -122 10 -161 10 -46 0 -77 5 -90 15 -19 14 -18 15 6 35 14 11 31 20 38 20 8 0 26 8 40 18 25 17 243 112 258 112 3 0 20 6 37 14 18 8 65 26 106 41 41 14 81 30 90 35 20 12 15 12 86 0z m371 -245 c10 -24 -5 -65 -23 -65 -20 0 -53 28 -53 46 0 29 66 46 76 19z m1633 -398 c71 -11 74 -13 57 -29 -10 -10 -30 -18 -46 -18 -44 0 -148 -41 -213 -84 -220 -146 -289 -442 -142 -614 112 -130 285 -149 420 -46 89 67 129 214 93 337 -18 57 -98 137 -163 161 -27 10 -54 22 -58 26 -10 9 15 98 39 138 21 37 95 83 133 84 17 1 48 -10 71 -25 22 -15 44 -27 49 -27 21 0 153 -156 181 -215 88 -184 78 -388 -27 -554 -67 -106 -188 -200 -311 -243 -89 -30 -286 -33 -374 -5 -153 49 -304 189 -355 327 -38 105 -43 127 -43 208 0 165 54 296 170 412 92 92 177 139 305 165 76 16 121 17 214 2z m-682 -1313 c7 -10 11 -25 8 -33 -3 -8 -6 -181 -6 -386 -1 -204 -5 -378 -9 -385 -11 -18 -119 -14 -141 6 -14 12 -21 12 -54 -2 -54 -22 -152 -21 -207 4 -110 48 -188 166 -188 283 0 143 78 252 208 294 63 21 122 16 184 -14 24 -11 47 -21 51 -21 4 0 7 60 7 134 0 98 3 136 13 140 6 3 36 4 66 2 39 -2 58 -8 68 -22z m1111 -41 c-3 -65 -4 -68 -30 -71 -52 -6 -81 -103 -33 -110 68 -10 66 -8 63 -75 l-3 -62 -38 -3 c-21 -2 -40 -9 -42 -15 -2 -7 -6 -106 -9 -222 -3 -115 -5 -211 -6 -213 0 -2 -33 -2 -72 0 l-73 3 -5 220 -5 219 -25 6 c-23 6 -25 10 -25 70 0 64 0 65 30 70 29 5 30 7 36 70 6 76 18 107 50 136 40 36 62 43 127 44 l63 0 -3 -67z m-601 -203 c43 -25 49 -25 56 0 4 18 14 20 75 20 55 0 71 -3 76 -16 6 -17 -2 -549 -9 -571 -7 -21 -120 -11 -145 12 -17 15 -25 17 -39 8 -10 -7 -46 -17 -79 -24 -138 -29 -276 49 -331 188 -18 44 -19 170 -1 213 36 91 120 168 205 189 57 14 152 5 192 -19z m1071 5 c56 -26 142 -105 142 -130 0 -8 4 -15 8 -15 15 0 34 -116 27 -166 -19 -127 -100 -221 -229 -264 -38 -12 -152 -17 -162 -7 -13 12 18 37 46 37 36 0 120 63 153 115 69 108 49 240 -44 287 -66 34 -153 14 -191 -45 -61 -93 -37 -188 60 -234 29 -14 33 -20 27 -42 -3 -14 -23 -43 -45 -63 -35 -34 -41 -37 -68 -27 -43 15 -121 93 -144 145 -62 142 -6 309 131 391 59 35 76 39 171 41 50 1 77 -4 118 -23z m-2396 -18 c71 -25 115 -89 137 -197 13 -65 -3 -171 -38 -242 -67 -140 -187 -197 -274 -130 -49 37 -72 84 -86 172 -10 62 -10 88 3 152 23 118 66 187 149 233 48 28 58 29 109 12z m2698 -2 c16 -8 33 -23 39 -32 8 -15 12 -16 22 -5 30 29 93 3 120 -50 31 -61 41 -133 29 -218 -5 -41 -12 -124 -16 -184 -10 -162 -19 -185 -62 -149 -21 18 -21 20 -10 201 9 148 9 190 -2 223 -18 52 -43 67 -64 37 -13 -18 -16 -56 -16 -210 0 -177 -1 -187 -20 -193 -11 -3 -32 0 -47 7 l-27 13 3 280 c1 154 5 283 7 287 7 11 11 10 44 -7z m-2980 -68 c0 -12 -23 -112 -51 -222 -28 -110 -55 -218 -59 -240 -5 -22 -15 -58 -22 -80 l-13 -40 -85 -7 c-47 -4 -91 -6 -98 -3 -7 2 -51 84 -98 182 -47 98 -105 219 -128 268 -33 68 -41 93 -32 102 6 7 41 13 78 14 54 2 72 -2 88 -16 11 -10 20 -23 20 -30 0 -6 12 -36 26 -66 27 -56 70 -150 95 -206 8 -18 17 -33 21 -33 9 0 32 83 63 225 36 161 36 163 82 168 100 10 113 8 113 -16z m3645 -69 c123 -47 223 -206 201 -321 -11 -57 -22 -61 -128 -42 -51 9 -120 20 -153 25 -33 4 -84 11 -112 15 -51 7 -53 7 -53 -16 0 -46 61 -113 112 -123 39 -8 75 2 117 30 18 12 40 20 47 17 8 -3 38 -8 67 -12 70 -8 75 -34 16 -84 -66 -57 -104 -71 -201 -75 -79 -4 -92 -1 -143 23 -184 90 -232 326 -97 476 87 97 212 130 327 87z m-3845 -4038 c0 -5 -4 -10 -10 -10 -5 0 -10 5 -10 10 0 6 5 10 10 10 6 0 10 -4 10 -10z m450 -79 c0 -6 -4 -13 -10 -16 -5 -3 -10 1 -10 9 0 9 5 16 10 16 6 0 10 -4 10 -9z"
       id="path2" />
    <path
       d="M4675 11600 c-3 -5 -1 -10 4 -10 6 0 11 5 11 10 0 6 -2 10 -4 10 -3 0 -8 -4 -11 -10z"
       id="path4" />
    <path
       d="M3590 10585 c-7 -9 -8 -15 -2 -15 5 0 12 7 16 15 3 8 4 15 2 15 -2 0 -9 -7 -16 -15z"
       id="path6" />
    <path
       d="M4408 9683 c7 -3 16 -2 19 1 4 3 -2 6 -13 5 -11 0 -14 -3 -6 -6z"
       id="path8" />
    <path
       d="M6810 7699 c-30 -6 -31 -7 -7 -8 15 0 27 -5 27 -11 0 -5 16 -10 35 -10 36 0 36 0 29 -37 -6 -36 -5 -37 9 -17 9 11 19 32 22 45 5 22 2 25 -37 34 -24 6 -59 7 -78 4z"
       id="path10" />
    <path
       d="M6675 7689 c-8 -11 25 -40 37 -33 5 3 8 11 8 19 0 7 6 16 13 18 6 3 -2 6 -20 6 -17 1 -35 -4 -38 -10z"
       id="path12" />
    <path
       d="M6622 7668 c5 -15 28 -18 29 -3 0 6 -7 12 -17 13 -10 3 -15 -1 -12 -10z"
       id="path14" />
    <path
       d="M6751 7661 c-12 -8 -12 -12 -2 -25 18 -22 38 -20 51 4 6 12 7 20 1 20 -5 0 -15 2 -23 5 -7 3 -19 1 -27 -4z"
       id="path16" />
    <path
       d="M6573 7645 c-13 -5 -23 -14 -23 -20 0 -10 69 -70 74 -63 2 1 -4 23 -13 48 -15 41 -18 44 -38 35z"
       id="path18" />
    <path
       d="M6833 7610 c-9 -20 -8 -26 6 -28 9 -2 35 -13 59 -24 23 -12 45 -18 49 -15 3 4 -1 7 -10 7 -9 0 -17 4 -17 8 0 5 -16 17 -35 28 -19 10 -36 25 -38 34 -3 11 -7 8 -14 -10z"
       id="path20" />
    <path
       d="M6976 7608 c-20 -28 -20 -58 -1 -58 9 0 15 9 15 25 0 19 5 25 21 25 18 0 19 2 9 15 -17 20 -26 19 -44 -7z"
       id="path22" />
    <path
       d="M6495 7580 c-16 -18 -16 -20 -2 -20 9 0 21 -9 28 -21 17 -32 31 -9 18 29 -13 37 -19 39 -44 12z"
       id="path24" />
    <path
       d="M6720 7590 c0 -5 7 -10 16 -10 8 0 12 5 9 10 -3 6 -10 10 -16 10 -5 0 -9 -4 -9 -10z"
       id="path26" />
    <path
       d="M6660 7575 c0 -16 27 -32 37 -21 7 7 -16 36 -28 36 -5 0 -9 -7 -9 -15z"
       id="path28" />
    <path
       d="M7052 7571 c-1 -7 -8 -11 -16 -8 -10 4 -12 0 -8 -15 3 -14 -3 -27 -19 -39 -20 -16 -22 -20 -9 -29 21 -13 23 -13 43 16 12 15 17 36 14 57 -2 17 -5 26 -5 18z"
       id="path30" />
    <path
       d="M6703 7540 c-48 -19 -23 -35 47 -31 14 1 65 -8 114 -19 48 -12 90 -20 92 -18 8 9 -15 27 -63 52 -55 27 -143 35 -190 16z"
       id="path32" />
    <path
       d="M6447 7533 c-12 -11 -8 -21 13 -26 15 -4 20 0 20 14 0 18 -20 26 -33 12z"
       id="path34" />
    <path
       d="M6585 7521 c-3 -11 -24 -35 -46 -53 -38 -31 -48 -48 -30 -48 14 0 101 90 101 105 0 22 -18 18 -25 -4z"
       id="path36" />
    <path
       d="M6394 7476 c-6 -24 10 -65 30 -78 16 -11 66 -10 66 1 0 5 -7 11 -15 14 -8 4 -23 24 -35 47 -23 46 -37 51 -46 16z"
       id="path38" />
    <path
       d="M6636 7491 c-3 -5 1 -14 9 -21 9 -8 12 -22 8 -41 -7 -35 6 -37 36 -5 13 14 33 26 44 28 11 2 22 9 25 16 2 8 -10 12 -42 12 -25 0 -46 5 -46 10 0 12 -27 13 -34 1z"
       id="path40" />
    <path
       d="M7058 7472 c-30 -18 -34 -27 -18 -37 13 -8 60 24 60 41 0 18 -9 17 -42 -4z"
       id="path42" />
    <path
       d="M6547 7409 c-39 -39 -66 -59 -82 -59 l-24 0 24 -37 c27 -39 26 -60 -6 -105 -24 -35 -24 -38 5 -38 15 0 36 -15 62 -46 69 -80 128 -135 167 -154 l37 -18 -21 29 c-11 16 -23 29 -27 29 -4 0 -27 18 -51 40 l-45 40 12 103 c10 82 16 279 9 276 -1 0 -28 -27 -60 -60z"
       id="path44" />
    <path
       d="M6790 7450 c0 -5 6 -10 14 -10 8 0 18 5 21 10 3 6 -3 10 -14 10 -12 0 -21 -4 -21 -10z"
       id="path46" />
    <path
       d="M6852 7449 c2 -6 8 -10 13 -10 5 0 11 4 13 10 2 6 -4 11 -13 11 -9 0 -15 -5 -13 -11z"
       id="path48" />
    <path
       d="M6953 7442 c-30 -3 -33 -6 -33 -37 0 -24 6 -38 19 -45 29 -15 41 -12 41 10 0 11 6 29 12 40 16 25 3 36 -39 32z"
       id="path50" />
    <path
       d="M7107 7413 c-4 -3 -7 -15 -7 -26 0 -19 1 -20 20 -2 11 10 20 22 20 27 0 10 -24 11 -33 1z"
       id="path52" />
    <path
       d="M7007 7343 c-19 -206 -28 -300 -32 -311 -2 -7 -17 -18 -32 -24 -15 -7 -35 -17 -43 -24 -8 -7 -26 -14 -39 -16 -36 -5 -39 -28 -3 -28 35 0 109 38 167 85 29 24 52 35 75 35 27 0 31 3 24 18 -4 9 -9 34 -12 54 -3 30 1 41 22 61 28 26 34 47 13 47 -20 0 -61 48 -93 108 -15 28 -31 52 -35 52 -4 0 -10 -26 -12 -57z"
       id="path54" />
    <path
       d="M6650 7361 c0 -5 21 -11 48 -14 120 -15 181 -26 200 -36 25 -13 62 -15 62 -2 0 5 -13 12 -30 16 -16 4 -32 11 -35 16 -4 5 -28 9 -55 9 -27 0 -52 5 -55 10 -8 12 -135 13 -135 1z"
       id="path56" />
    <path
       d="M7200 7349 c0 -17 -27 -39 -50 -39 -14 0 -20 5 -18 17 2 10 -4 19 -14 21 -12 2 -15 -2 -11 -17 3 -12 9 -21 14 -21 5 0 9 -6 9 -13 0 -7 9 -18 20 -25 17 -10 25 -9 45 4 26 17 42 55 30 73 -8 14 -25 14 -25 0z"
       id="path58" />
    <path
       d="M6360 7310 c0 -5 7 -10 15 -10 8 0 15 5 15 10 0 6 -7 10 -15 10 -8 0 -15 -4 -15 -10z"
       id="path60" />
    <path
       d="M6680 7280 l-25 -20 33 0 c29 0 32 -3 32 -32 0 -24 3 -29 11 -21 13 13 6 49 -13 75 -12 16 -14 16 -38 -2z"
       id="path62" />
    <path
       d="M6765 7290 c-3 -5 -2 -10 2 -10 5 0 9 -27 8 -59 0 -46 -4 -62 -18 -71 -16 -9 -19 -8 -24 9 -8 33 -23 24 -23 -13 0 -18 7 -39 15 -46 8 -7 15 -29 15 -49 0 -55 10 -81 31 -81 21 0 23 8 10 29 -6 9 -6 22 0 32 6 11 5 20 -1 24 -5 3 -10 15 -10 27 0 14 5 18 16 14 9 -3 18 -6 20 -6 2 0 4 -11 4 -23 0 -13 8 -31 18 -40 23 -21 32 -21 32 -2 0 8 -4 15 -10 15 -5 0 -12 11 -16 25 -3 14 -10 25 -15 25 -16 0 -9 41 11 62 16 17 23 19 32 10 9 -9 9 -12 0 -12 -14 0 -15 -19 -2 -40 14 -21 28 2 28 47 0 19 8 43 17 53 24 27 16 66 -13 62 -13 -2 -34 4 -47 12 -27 18 -71 21 -80 6z m98 -27 c36 -5 53 -23 22 -23 -8 0 -15 -8 -15 -19 0 -21 -23 -45 -33 -34 -4 3 -7 15 -7 25 0 10 -4 18 -10 18 -5 0 -10 -4 -10 -10 0 -5 -4 -10 -10 -10 -17 0 -11 28 7 32 15 3 15 5 -3 22 -19 20 -19 20 1 12 11 -4 37 -10 58 -13z"
       id="path64" />
    <path
       d="M6422 7120 c-6 -11 -12 -25 -12 -31 0 -22 100 -149 118 -149 3 0 3 3 -1 6 -8 8 13 64 24 64 22 0 5 32 -40 79 -54 56 -70 61 -89 31z"
       id="path66" />
    <path
       d="M7038 6992 c-57 -37 -70 -52 -45 -52 23 0 50 -37 44 -60 -9 -33 19 -24 68 23 49 48 58 82 27 110 -25 23 -29 22 -94 -21z"
       id="path68" />
    <path
       d="M6571 6976 c-12 -13 -18 -27 -13 -30 11 -7 52 27 52 43 0 18 -15 13 -39 -13z"
       id="path70" />
    <path
       d="M6602 6929 c-18 -16 -30 -34 -27 -39 12 -20 32 -9 53 30 25 48 19 50 -26 9z"
       id="path72" />
    <path
       d="M6670 6925 c0 -8 7 -15 15 -15 8 0 15 7 15 15 0 8 -7 15 -15 15 -8 0 -15 -7 -15 -15z"
       id="path74" />
    <path
       d="M6761 6921 c-11 -7 -10 -11 7 -20 22 -12 39 0 27 19 -8 12 -16 12 -34 1z"
       id="path76" />
    <path
       d="M6923 6909 c-13 -13 -2 -71 16 -77 11 -4 12 2 7 24 -4 16 -7 37 -7 47 0 20 -1 21 -16 6z"
       id="path78" />
    <path
       d="M6720 6891 c0 -11 -4 -23 -10 -26 -15 -9 -12 -45 4 -45 14 0 26 29 26 68 0 12 -4 22 -10 22 -5 0 -10 -9 -10 -19z"
       id="path80" />
    <path
       d="M6982 6889 c2 -7 10 -15 17 -17 8 -3 12 1 9 9 -2 7 -10 15 -17 17 -8 3 -12 -1 -9 -9z"
       id="path82" />
    <path
       d="M6627 6873 c-10 -9 13 -33 30 -33 10 0 13 6 9 16 -3 9 -6 18 -6 20 0 7 -26 5 -33 -3z"
       id="path84" />
    <path
       d="M6767 6848 c-7 -24 8 -48 29 -48 9 0 14 12 14 35 0 28 -4 35 -19 35 -11 0 -21 -9 -24 -22z"
       id="path86" />
    <path
       d="M6839 6855 c-4 -51 -1 -65 15 -65 22 0 28 17 21 50 -7 31 -34 42 -36 15z"
       id="path88" />
    <path
       d="M2840 7431 c-25 -10 -115 -46 -200 -79 -243 -95 -225 -84 -155 -94 239 -31 430 -42 467 -28 49 18 81 31 100 41 10 5 23 9 30 9 7 0 51 15 98 34 47 19 107 42 133 52 57 20 50 32 -22 39 -29 3 -81 9 -115 14 -33 5 -97 12 -141 16 -44 3 -96 7 -115 10 -20 2 -54 -4 -80 -14z m242 -37 c93 -6 154 -26 118 -38 -8 -2 -73 -26 -145 -52 -122 -45 -135 -48 -217 -45 -48 1 -102 6 -120 12 -18 5 -53 9 -77 9 -42 0 -43 1 -27 19 9 10 54 31 99 46 45 16 100 37 122 47 30 14 54 17 95 14 30 -3 99 -8 152 -12z"
       id="path90" />
    <path
       d="M2843 7342 c-24 -9 -43 -19 -43 -23 0 -3 23 -9 50 -13 40 -5 60 -2 98 15 l47 22 -40 8 c-53 10 -62 10 -112 -9z"
       id="path92" />
    <path
       d="M3909 5157 c-123 -82 -67 -287 78 -287 147 0 198 212 71 290 -45 27 -106 26 -149 -3z"
       id="path94" />
    <path
       d="M4625 5166 c-17 -7 -43 -28 -58 -45 -54 -65 -45 -153 23 -215 35 -31 47 -36 89 -36 56 0 94 19 130 63 36 44 35 132 -3 181 -47 63 -114 82 -181 52z"
       id="path96" />
    <path
       d="M3410 5255 c-25 -13 -80 -82 -95 -120 -63 -162 5 -348 103 -279 40 28 62 86 62 163 0 67 -2 72 -35 105 -39 39 -43 62 -19 107 19 37 16 41 -16 24z"
       id="path98" />
    <path
       d="M6702 5032 c-30 -9 -92 -60 -92 -76 0 -9 18 -16 48 -19 26 -4 81 -11 122 -16 41 -5 79 -6 83 -1 10 9 -27 68 -57 91 -26 20 -73 29 -104 21z"
       id="path100" />
    <path
       d="M5090 14496 c0 -8 5 -18 10 -21 6 -3 10 3 10 14 0 12 -4 21 -10 21 -5 0 -10 -6 -10 -14z"
       id="path102" />
    <path
       d="M5330 14340 c0 -11 5 -20 10 -20 6 0 10 9 10 20 0 11 -4 20 -10 20 -5 0 -10 -9 -10 -20z"
       id="path104" />
    <path
       d="M4041 13966 c-10 -12 -8 -13 8 -9 12 3 18 9 15 14 -7 12 -10 11 -23 -5z"
       id="path106" />
    <path
       d="M5911 13967 c-8 -10 -7 -19 5 -33 8 -10 13 -13 9 -6 -3 6 -1 12 5 12 6 0 8 5 5 10 -3 6 -1 10 5 10 6 0 8 5 5 10 -8 14 -20 13 -34 -3z"
       id="path108" />
    <path
       d="M5891 13922 c-1 -7 -5 -11 -10 -7 -5 3 -13 0 -17 -6 -4 -8 -3 -9 4 -5 7 4 12 2 12 -5 0 -10 3 -10 11 -2 6 6 9 17 6 25 -4 10 -6 10 -6 0z"
       id="path110" />
    <path
       d="M6270 13830 c0 -5 5 -10 11 -10 5 0 7 5 4 10 -3 6 -8 10 -11 10 -2 0 -4 -4 -4 -10z"
       id="path112" />
    <path
       d="M3542 13720 c0 -14 2 -19 5 -12 2 6 2 18 0 25 -3 6 -5 1 -5 -13z"
       id="path114" />
    <path
       d="M3532 13650 c0 -19 2 -27 5 -17 2 9 2 25 0 35 -3 9 -5 1 -5 -18z"
       id="path116" />
    <path
       d="M3510 13571 c0 -5 3 -17 6 -26 5 -13 8 -14 15 -3 13 20 11 38 -6 38 -8 0 -15 -4 -15 -9z"
       id="path118" />
    <path
       d="M5340 12930 c-8 -15 -6 -30 11 -64 22 -48 49 -68 49 -37 0 10 -3 21 -7 25 -7 7 -10 17 -20 69 -6 32 -18 35 -33 7z"
       id="path120" />
    <path
       d="M3331 12778 c-1 -4 6 -37 14 -73 9 -36 15 -71 14 -78 -1 -7 1 -19 4 -27 3 -8 8 -24 10 -35 3 -11 5 3 6 30 0 30 -9 78 -24 120 -13 39 -24 67 -24 63z"
       id="path122" />
    <path
       d="M3416 12621 c-4 -6 -4 -26 -1 -43 7 -30 8 -31 21 -13 17 23 17 27 1 50 -10 13 -16 15 -21 6z"
       id="path124" />
    <path
       d="M5890 12505 c-7 -9 -11 -18 -8 -20 3 -3 11 1 18 10 7 9 11 18 8 20 -3 3 -11 -1 -18 -10z"
       id="path126" />
    <path
       d="M365 6991 c-75 -18 -89 -32 -101 -99 -6 -34 -19 -71 -29 -82 -10 -11 -21 -41 -26 -67 -4 -27 -10 -56 -14 -65 -4 -10 -3 -18 3 -18 15 0 46 86 37 101 -6 9 -2 11 13 7 18 -5 25 1 41 38 20 44 20 44 70 44 58 0 64 11 21 37 -16 9 -30 23 -30 29 0 7 14 24 30 37 17 14 30 30 30 36 0 12 -2 12 -45 2z"
       id="path128" />
    <path
       d="M596 6844 c-3 -8 -6 -24 -6 -35 0 -24 -20 -24 -72 1 -72 35 -78 20 -18 -47 22 -25 40 -54 40 -64 0 -10 -13 -34 -30 -52 -16 -19 -30 -38 -30 -42 0 -4 26 -4 58 0 40 4 62 2 73 -7 14 -12 37 -60 53 -110 11 -36 25 -16 28 40 l3 57 43 -3 c58 -5 55 13 -17 82 -48 47 -61 68 -74 115 -18 64 -40 93 -51 65z"
       id="path130" />
    <path
       d="M260 6608 c0 -83 -19 -125 -48 -109 -27 15 -42 -31 -42 -126 0 -126 30 -101 41 35 2 18 7 36 12 39 17 10 27 -22 27 -92 0 -90 11 -109 33 -55 19 48 35 50 105 15 49 -24 72 -31 72 -19 0 3 -20 34 -45 68 -25 35 -45 71 -45 80 0 18 69 116 82 116 4 0 8 7 8 15 0 15 -23 14 -100 -6 -19 -5 -38 -9 -42 -9 -10 0 -38 67 -38 91 0 10 -4 21 -10 24 -6 4 -10 -21 -10 -67z"
       id="path132" />
    <path
       d="M655 6338 l-30 -63 -72 1 c-40 0 -73 -2 -73 -5 0 -2 18 -26 40 -52 22 -26 40 -53 40 -60 0 -12 -50 -95 -80 -133 -67 -84 -72 -88 -111 -82 -20 3 -44 9 -53 12 -23 9 -20 -19 4 -41 26 -23 25 -42 -2 -64 -29 -24 -16 -41 30 -35 115 15 239 59 282 100 12 12 6 14 -48 14 -69 0 -82 11 -82 73 0 40 8 47 70 70 61 23 75 21 114 -8 18 -14 36 -25 41 -25 4 0 4 26 1 59 l-6 58 55 77 c43 60 51 78 39 83 -8 3 -23 -2 -34 -12 -29 -26 -64 -16 -68 20 -4 47 -12 75 -20 75 -4 0 -21 -28 -37 -62z"
       id="path134" />
    <path
       d="M217 6153 c-4 -3 -7 -15 -7 -26 0 -11 -7 -28 -16 -38 -15 -16 -14 -22 9 -66 14 -26 29 -59 33 -72 6 -23 7 -23 17 -5 6 10 14 21 18 24 5 3 2 25 -6 48 -9 24 -13 57 -10 73 9 52 -13 87 -38 62z"
       id="path136" />
    <path
       d="M2850 1205 c0 -8 5 -15 10 -15 6 0 10 7 10 15 0 8 -4 15 -10 15 -5 0 -10 -7 -10 -15z"
       id="path138" />
    <path
       d="M2087 1123 c-4 -3 -7 -11 -7 -17 0 -6 5 -5 12 2 6 6 9 14 7 17 -3 3 -9 2 -12 -2z"
       id="path140" />
    <path
       d="M7240 1076 c0 -9 5 -16 10 -16 6 0 10 4 10 9 0 6 -4 13 -10 16 -5 3 -10 -1 -10 -9z"
       id="path142" />
    <path
       d="M2553 965 c-36 -57 -45 -97 -18 -75 8 7 15 17 15 22 0 6 8 22 18 36 24 34 33 60 24 66 -4 2 -22 -20 -39 -49z"
       id="path144" />
    <path
       d="M2800 1010 c0 -13 18 -22 24 -11 3 5 -1 11 -9 15 -8 3 -15 1 -15 -4z"
       id="path146" />
    <path
       d="M6890 1010 c0 -5 7 -10 15 -10 8 0 15 5 15 10 0 6 -7 10 -15 10 -8 0 -15 -4 -15 -10z"
       id="path148" />
    <path
       d="M2703 935 c5 -28 1 -40 -15 -55 -21 -19 -21 -21 -3 -34 23 -16 16 -63 -15 -98 -11 -13 -36 -41 -55 -62 -65 -72 -18 -48 55 29 26 27 112 205 99 205 -5 0 -14 11 -19 25 -6 16 -17 25 -31 25 -19 0 -21 -4 -16 -35z"
       id="path150" />
    <path
       d="M2652 925 c-12 -15 -22 -35 -22 -44 1 -13 3 -12 12 4 6 11 18 25 26 31 8 6 13 17 10 24 -3 9 -11 4 -26 -15z"
       id="path152" />
    <path
       d="M3193 919 c-5 -5 -25 -18 -44 -27 -29 -14 -37 -27 -56 -86 -13 -38 -20 -72 -18 -75 7 -6 48 43 66 79 7 14 28 44 46 67 18 23 33 44 33 47 0 10 -15 7 -27 -5z"
       id="path154" />
    <path
       d="M3370 878 l1 -33 13 25 c14 25 13 40 -5 40 -5 0 -9 -15 -9 -32z"
       id="path156" />
    <path
       d="M7530 853 c0 -10 40 -36 46 -30 3 2 -7 12 -21 21 -14 9 -25 13 -25 9z"
       id="path158" />
    <path
       d="M2616 829 c-14 -11 -26 -26 -26 -34 0 -23 48 7 53 32 5 28 6 28 -27 2z"
       id="path160" />
    <path
       d="M3664 812 c-4 -12 -10 -22 -14 -22 -4 0 -30 -22 -58 -49 -61 -58 -68 -93 -27 -137 21 -22 27 -25 40 -14 20 17 19 33 -5 55 -31 28 -24 49 37 109 47 45 55 58 45 68 -10 10 -14 8 -18 -10z"
       id="path162" />
    <path
       d="M7620 790 c0 -5 5 -10 11 -10 5 0 7 5 4 10 -3 6 -8 10 -11 10 -2 0 -4 -4 -4 -10z"
       id="path164" />
    <path
       d="M7730 759 c0 -12 8 -28 18 -35 14 -10 15 -16 5 -32 -9 -16 -9 -27 0 -51 6 -17 15 -31 19 -31 27 0 27 81 -1 116 -12 15 -21 33 -21 40 0 8 -4 14 -10 14 -5 0 -10 -10 -10 -21z"
       id="path166" />
    <path
       d="M2615 760 c-3 -5 3 -10 15 -10 12 0 18 5 15 10 -3 6 -10 10 -15 10 -5 0 -12 -4 -15 -10z"
       id="path168" />
    <path
       d="M2515 717 c-22 -18 -25 -27 -19 -51 4 -16 15 -31 25 -33 11 -3 19 -12 19 -20 0 -13 3 -13 16 -2 14 11 14 13 0 21 -24 14 -19 35 14 60 17 12 30 28 30 35 0 17 -16 17 -24 1 -5 -10 -7 -10 -12 0 -8 17 -19 15 -49 -11z"
       id="path170" />
    <path
       d="M7700 723 c0 -13 29 -38 35 -31 3 3 -4 13 -15 23 -11 10 -20 13 -20 8z"
       id="path172" />
    <path
       d="M7740 482 c0 -38 31 -122 56 -152 26 -30 44 -39 44 -20 0 6 -7 10 -16 10 -14 0 -15 7 -10 40 5 34 2 47 -26 90 -35 53 -48 61 -48 32z"
       id="path174" />
    <path
       d="M2265 420 c-3 -5 -2 -10 4 -10 5 0 13 5 16 10 3 6 2 10 -4 10 -5 0 -13 -4 -16 -10z"
       id="path176" />
    <path
       d="M2091 333 c-12 -27 -35 -73 -52 -103 -17 -31 -25 -56 -20 -58 6 -2 11 -12 11 -23 0 -10 3 -19 8 -19 8 0 62 65 62 75 0 4 8 19 19 33 23 34 38 77 22 68 -15 -9 -15 26 0 41 6 6 8 16 5 22 -14 23 -34 9 -55 -36z"
       id="path178" />
    <path
       d="M8377 128 c-4 -11 7 -43 19 -57 2 -2 11 4 20 13 15 16 15 18 -1 36 -21 23 -32 25 -38 8z"
       id="path180" />
    <path
       d="M8355 60 c3 -5 8 -10 11 -10 2 0 4 5 4 10 0 6 -5 10 -11 10 -5 0 -7 -4 -4 -10z"
       id="path182" />
    <path
       d="M8450 35 c0 -31 3 -35 25 -35 29 0 30 2 10 40 -21 40 -35 38 -35 -5z"
       id="path184" />
    <path
       d="M8380 40 c0 -6 7 -10 15 -10 8 0 15 2 15 4 0 2 -7 6 -15 10 -8 3 -15 1 -15 -4z"
       id="path186" />
    <path
       d="M1880 10 c0 -5 7 -10 15 -10 8 0 15 5 15 10 0 6 -7 10 -15 10 -8 0 -15 -4 -15 -10z"
       id="path188" />
    <path
       d="M8410 10 c0 -5 5 -10 10 -10 6 0 10 5 10 10 0 6 -4 10 -10 10 -5 0 -10 -4 -10 -10z"
       id="path190" />
  </g>
</svg>
