<?xml version="1.0" standalone="no"?>
<!DOCTYPE svg PUBLIC "-//W3C//DTD SVG 20010904//EN"
 "http://www.w3.org/TR/2001/REC-SVG-20010904/DTD/svg10.dtd">
<svg version="1.0" xmlns="http://www.w3.org/2000/svg"
 width="906.000000pt" height="1353.000000pt" viewBox="0 0 906.000000 1353.000000"
 preserveAspectRatio="xMidYMid meet">

<g transform="translate(0.000000,1353.000000) scale(0.100000,-0.100000)"
fill="#000000" stroke="none">
<path d="M3474 13508 c-5 -7 0 -9 14 -6 12 3 22 2 24 -2 2 -5 26 -2 53 5 l50
14 -67 0 c-40 1 -70 -4 -74 -11z"/>
<path d="M3660 13511 c0 -6 -11 -11 -24 -11 -13 0 -27 -7 -30 -16 -9 -24 -8
-25 20 -18 20 5 25 3 22 -7 -3 -9 -17 -13 -42 -11 -20 2 -36 -1 -35 -5 3 -19
-4 -20 -54 -8 -42 10 -55 10 -64 -1 -10 -10 -10 -14 0 -17 17 -7 -41 -28 -88
-33 -28 -3 -36 -1 -25 6 8 5 24 10 35 10 14 0 16 3 7 12 -8 8 -15 8 -26 -1
-11 -10 -19 -9 -34 0 -27 17 -59 -5 -41 -27 9 -11 6 -16 -12 -23 -13 -5 -28
-6 -32 -4 -5 3 -17 -3 -27 -12 -10 -9 -24 -14 -31 -9 -7 4 -10 3 -6 -3 8 -12
-41 -37 -66 -34 -10 1 -25 -3 -33 -9 -9 -9 -14 -9 -14 -2 0 6 -7 9 -15 6 -8
-4 -15 -3 -15 1 0 10 43 44 56 45 6 0 17 6 23 14 10 12 8 13 -8 9 -12 -3 -21
-1 -21 6 0 7 -8 7 -22 2 -13 -5 -22 -14 -20 -21 2 -8 -7 -10 -27 -5 -22 5 -32
2 -43 -13 -7 -10 -28 -29 -46 -42 -22 -16 -28 -26 -20 -31 7 -4 18 -3 25 3 8
6 16 9 19 6 8 -9 -49 -41 -76 -43 -67 -5 -201 -65 -145 -65 8 0 15 5 15 10 0
6 5 10 11 10 6 0 9 -7 5 -15 -3 -8 -1 -15 4 -15 6 0 10 5 10 11 0 5 5 7 11 3
13 -7 -15 -28 -29 -21 -9 4 -53 -40 -49 -51 1 -4 -9 -9 -22 -10 -13 -2 -38
-18 -55 -34 -17 -18 -32 -26 -34 -19 -6 17 18 42 56 58 31 13 44 33 21 33 -6
0 -9 7 -5 15 7 19 8 19 -40 -4 -21 -11 -49 -33 -62 -50 -12 -17 -31 -31 -42
-31 -12 0 -20 -7 -20 -16 0 -10 -5 -14 -15 -10 -9 3 -24 -3 -34 -13 -11 -11
-22 -16 -26 -13 -4 4 -5 0 -3 -8 2 -8 7 -18 12 -22 5 -3 2 -13 -7 -22 -21 -21
-27 -20 -27 4 0 28 -16 25 -37 -7 -10 -16 -38 -54 -63 -86 -94 -122 -100 -134
-100 -214 0 -65 2 -72 18 -66 15 6 15 4 -2 -15 -10 -12 -26 -24 -36 -27 -24
-8 -33 -88 -36 -325 -2 -176 0 -206 23 -310 14 -63 42 -169 64 -235 21 -66 43
-139 49 -162 13 -50 78 -140 154 -211 31 -29 62 -65 70 -80 22 -43 45 -161 58
-294 6 -68 15 -127 20 -132 4 -6 8 -1 8 11 0 12 5 25 10 28 6 3 10 19 10 35 0
15 3 35 6 44 9 23 27 20 19 -4 -4 -13 0 -23 14 -32 18 -11 18 -13 3 -24 -14
-10 -14 -16 -5 -35 12 -23 12 -83 1 -94 -3 -3 -3 -57 -1 -119 3 -86 0 -117
-10 -127 -22 -23 -30 -52 -27 -99 6 -110 5 -125 -7 -123 -7 2 -14 -5 -15 -15
-3 -39 -18 -82 -29 -82 -5 0 -9 -7 -9 -16 0 -44 -42 47 -43 94 0 6 -4 12 -9
12 -4 0 -8 7 -8 15 0 22 -17 18 -23 -5 -6 -25 -27 -26 -28 -2 -4 59 25 117 98
193 l54 57 0 123 c-1 67 -3 125 -6 127 -3 3 -5 -28 -5 -69 l0 -75 -57 -41
c-32 -22 -87 -66 -122 -98 -64 -57 -123 -91 -141 -80 -8 5 -90 -42 -90 -52 0
-2 21 9 48 24 34 19 43 22 32 9 -18 -23 -102 -76 -160 -101 -25 -11 -47 -22
-50 -25 -7 -7 -81 -41 -100 -46 -52 -13 -162 -43 -219 -59 -17 -5 -21 -4 -16
5 9 15 -43 -18 -67 -42 -10 -10 -28 -18 -41 -18 -12 0 -39 -9 -60 -19 -20 -10
-37 -15 -37 -11 0 5 -18 0 -40 -11 -21 -10 -44 -19 -50 -19 -5 0 -10 -5 -10
-11 0 -5 -5 -7 -10 -4 -9 6 -110 -69 -118 -87 -2 -5 -10 -8 -19 -8 -8 0 -36
-21 -62 -47 -27 -27 -74 -70 -105 -97 -52 -44 -94 -101 -83 -112 3 -3 54 20
114 51 61 30 119 55 129 54 11 0 14 -3 6 -6 -10 -4 -10 -8 0 -21 8 -9 8 -13 2
-9 -10 6 -43 -45 -50 -75 -1 -5 -2 -11 -3 -15 -1 -5 -5 -2 -10 6 -7 11 -13 8
-26 -13 -10 -15 -50 -43 -89 -63 -83 -42 -285 -179 -293 -199 -3 -8 -9 -12
-13 -9 -5 3 -12 1 -15 -5 -5 -8 -11 -8 -20 0 -10 8 -24 8 -55 -1 -54 -16 -69
-3 -48 43 9 18 17 38 19 45 5 16 169 183 177 181 4 -1 29 20 57 46 41 40 44
45 17 29 -17 -10 -32 -21 -32 -25 0 -5 -21 -8 -48 -8 -51 0 -75 -12 -135 -69
-21 -20 -41 -34 -45 -32 -4 3 -22 -20 -40 -50 -17 -30 -61 -88 -97 -130 -73
-87 -258 -392 -298 -491 -25 -64 -26 -74 -28 -285 -2 -191 0 -231 19 -321 12
-57 22 -131 22 -164 0 -50 6 -72 31 -116 17 -30 28 -56 26 -58 -3 -3 -21 23
-40 58 -23 40 -37 58 -41 48 -2 -8 -15 -76 -27 -150 -26 -159 -22 -233 16
-338 23 -63 24 -75 12 -85 -23 -20 -70 -87 -64 -93 3 -3 -3 -29 -13 -58 -11
-32 -18 -81 -18 -128 1 -42 -3 -81 -6 -87 -4 -6 -2 -11 5 -11 8 0 8 -4 -1 -15
-7 -8 -10 -15 -6 -15 4 0 -1 -11 -9 -24 -20 -31 -17 -53 15 -84 l24 -26 -27
-9 c-15 -5 -27 -13 -27 -18 0 -5 3 -8 8 -7 24 7 131 -47 163 -83 20 -21 35
-39 33 -39 -2 0 19 -22 47 -49 34 -33 47 -53 43 -65 -6 -15 5 -21 30 -17 5 1
6 -4 3 -12 -3 -7 3 -18 12 -24 14 -9 17 -23 16 -63 -3 -50 -2 -52 21 -47 16 3
24 0 24 -9 0 -17 38 -56 48 -50 5 3 14 0 22 -5 13 -8 13 -10 1 -18 -8 -5 -11
-16 -8 -25 3 -8 2 -18 -2 -20 -5 -3 -6 -17 -3 -32 3 -15 -1 -29 -8 -34 -17
-11 -3 -30 21 -30 11 0 17 -4 14 -10 -4 -7 3 -7 20 0 17 7 24 7 20 0 -3 -6 -1
-10 5 -10 7 0 9 -8 5 -21 -5 -13 -2 -25 6 -29 10 -7 10 -12 -2 -26 -12 -16
-12 -17 4 -11 15 6 17 3 12 -14 -4 -12 -3 -19 1 -16 5 3 9 -9 9 -26 0 -17 -6
-32 -12 -34 -7 -3 -13 -11 -13 -19 0 -8 6 -11 17 -7 13 5 15 2 10 -11 -5 -14
-3 -17 8 -12 17 6 20 -15 5 -30 -8 -8 -6 -15 6 -25 12 -9 15 -10 10 -1 -4 6
-3 12 3 12 6 0 8 -12 5 -30 -4 -17 -1 -36 5 -44 9 -10 9 -16 1 -21 -8 -5 -6
-13 6 -26 9 -10 12 -19 7 -19 -7 0 -8 -12 -3 -35 4 -19 4 -37 -1 -40 -4 -3 -6
-12 -2 -20 3 -10 -1 -15 -13 -15 -13 0 -15 -3 -7 -8 15 -9 6 -52 -11 -52 -6 0
-11 -16 -12 -35 0 -22 4 -35 12 -35 8 0 11 -6 8 -15 -4 -8 1 -34 11 -57 16
-40 16 -43 -1 -55 -16 -11 -13 -17 7 -15 9 1 4 -31 -10 -57 -7 -13 -10 -36 -7
-52 3 -15 2 -30 -2 -33 -13 -8 -6 -57 9 -67 12 -8 12 -10 0 -18 -9 -6 -10 -11
-2 -15 6 -4 11 -2 11 3 0 6 4 11 9 11 6 0 9 -25 7 -55 -2 -45 0 -55 12 -50 10
4 12 0 8 -10 -3 -9 1 -18 9 -21 8 -4 15 -12 15 -19 0 -7 7 -16 16 -19 8 -3 13
-10 10 -15 -3 -5 0 -11 8 -14 34 -13 73 -137 44 -137 -7 -1 -3 -6 9 -13 12 -7
37 -33 57 -58 20 -27 54 -56 79 -68 61 -30 71 -28 50 12 -14 25 -18 53 -17
137 2 124 37 272 103 440 23 58 89 267 147 464 l106 359 3 136 c2 85 11 177
25 246 12 61 27 163 35 228 7 65 15 120 17 123 3 2 70 -101 150 -229 l145
-232 91 -292 c90 -286 119 -407 196 -813 55 -285 82 -475 121 -850 31 -295
111 -851 144 -1000 20 -94 34 -297 27 -425 -6 -125 -36 -301 -71 -417 -9 -29
-27 -124 -41 -211 -20 -131 -31 -171 -59 -227 -38 -75 -99 -300 -85 -314 4 -4
41 -32 82 -60 45 -32 74 -60 76 -73 4 -27 40 -54 173 -131 59 -34 143 -85 187
-115 71 -47 311 -172 482 -250 65 -29 179 -58 241 -60 49 -1 119 28 119 49 0
8 7 17 15 20 8 3 17 14 20 25 6 18 26 28 24 12 -3 -20 2 -26 11 -13 8 12 10
10 10 -8 0 -15 4 -21 12 -16 8 5 9 2 5 -9 -4 -10 5 -28 24 -49 16 -18 39 -44
52 -58 l22 -25 5 35 c4 30 9 35 36 38 l30 3 -10 51 c-10 47 -9 52 13 69 12 10
39 21 59 24 60 10 146 37 163 51 8 8 21 14 28 14 6 0 61 46 120 103 138 129
192 167 339 241 l53 27 -7 -28 c-4 -15 -11 -33 -16 -40 -5 -7 -7 -17 -3 -23 3
-5 1 -10 -6 -10 -10 0 -10 -3 -1 -12 15 -15 59 19 192 148 102 98 227 194 255
194 7 0 16 6 18 13 4 8 6 7 6 -3 0 -8 -27 -44 -60 -80 -50 -54 -59 -69 -54
-90 4 -14 8 -26 9 -28 2 -1 50 44 107 101 111 110 148 137 333 242 155 89 273
140 411 175 177 46 295 56 477 40 295 -25 350 -25 396 -1 52 27 96 28 88 4 -3
-10 -8 -31 -12 -47 l-7 -29 32 19 c38 22 47 15 80 -64 17 -41 20 -60 13 -80
-6 -18 -5 -33 2 -45 16 -25 -9 -64 -72 -111 -43 -32 -55 -48 -67 -89 -8 -28
-33 -72 -55 -98 -43 -52 -60 -86 -60 -126 0 -20 4 -24 20 -20 11 3 20 2 20 -2
0 -4 23 -15 50 -26 58 -23 73 -51 47 -94 -17 -27 -83 -51 -73 -26 3 9 -2 11
-16 7 -13 -3 -16 -7 -8 -12 8 -5 6 -9 -6 -14 -10 -4 -21 -1 -26 6 -7 10 -9 9
-5 -2 2 -8 12 -15 23 -15 10 -1 18 -6 17 -11 -1 -6 11 -8 29 -6 l31 5 -21 -24
c-23 -24 -135 -65 -140 -51 -1 5 -18 7 -37 6 -19 -2 -35 1 -35 6 0 5 -7 6 -17
3 -12 -5 -14 -3 -7 8 5 8 9 16 10 19 0 3 7 19 14 35 7 17 13 33 12 38 -1 4 2
7 8 7 5 0 10 7 10 15 0 8 14 17 35 21 19 3 38 11 41 16 4 6 -2 8 -15 3 -12 -4
-21 -2 -21 4 0 6 4 11 8 11 5 0 9 6 9 13 1 6 4 28 7 47 6 31 5 33 -6 16 -57
-84 -80 -121 -108 -177 -18 -35 -50 -86 -71 -113 -22 -27 -39 -52 -39 -57 0
-12 55 -39 80 -39 11 0 20 -4 20 -10 0 -5 8 -7 18 -4 14 5 14 3 -3 -10 -18
-16 -18 -16 13 -10 22 4 32 3 32 -5 0 -7 4 -9 10 -6 6 3 10 1 10 -4 0 -6 -4
-11 -8 -11 -4 0 -6 -17 -4 -37 l5 -38 24 55 c13 30 41 71 62 91 70 67 170 236
171 287 0 21 4 23 29 17 21 -4 30 -2 35 11 6 16 8 16 22 -2 14 -17 15 -13 9
53 -8 99 1 139 36 160 16 10 31 24 34 33 3 8 26 26 51 39 50 27 94 82 94 119
0 22 -1 22 -24 7 -23 -15 -30 -15 -103 7 -75 23 -78 25 -80 56 -2 26 1 32 17
32 16 0 20 7 20 34 0 74 12 126 30 126 11 0 23 15 33 41 19 48 32 45 41 -11 6
-41 24 -52 45 -26 22 27 51 26 69 -2 33 -53 48 -54 57 -4 7 46 -44 297 -74
357 -25 52 -48 191 -61 385 -11 149 -14 162 -71 335 -58 179 -59 181 -74 375
-8 107 -19 265 -24 350 -10 155 -43 371 -120 770 -32 167 -46 218 -75 275 -63
123 -157 453 -262 910 -17 78 -72 241 -156 464 l-129 344 15 396 c9 218 16
401 16 408 0 6 27 32 59 57 l59 46 84 0 c116 0 132 -15 183 -170 20 -63 85
-234 143 -378 l105 -264 269 -451 c149 -249 276 -459 283 -467 65 -75 340
-780 445 -1141 34 -118 69 -237 77 -265 15 -50 16 -51 33 -34 10 10 34 24 54
31 33 12 58 39 36 39 -20 0 -9 18 15 24 13 3 29 15 35 26 6 11 18 20 27 20 9
0 13 3 9 7 -4 5 -13 8 -19 8 -8 0 -12 23 -12 66 0 40 -5 72 -13 82 -10 12 -11
21 -3 36 8 14 8 22 0 26 -6 4 -8 14 -5 22 3 8 -1 25 -10 39 -10 15 -12 24 -5
24 6 0 11 7 11 15 0 10 6 12 18 8 27 -11 42 -30 36 -46 -3 -8 2 -21 10 -30 8
-8 12 -18 8 -22 -7 -7 25 -3 78 10 18 4 35 -1 60 -21 19 -15 27 -24 16 -20
-12 4 -26 -2 -43 -18 -13 -14 -31 -22 -39 -19 -8 3 -14 0 -14 -5 0 -6 -6 -12
-12 -15 -7 -2 -2 -2 12 0 l25 5 -29 -25 c-16 -14 -25 -30 -22 -36 4 -6 3 -11
-3 -11 -6 0 -8 -7 -5 -15 3 -8 9 -14 12 -13 18 2 32 -3 32 -12 0 -5 -9 -10
-19 -10 -19 0 -41 -19 -24 -21 4 0 20 -2 35 -4 15 -2 32 3 38 10 6 8 19 11 28
7 14 -5 14 -3 -2 13 -19 19 -18 19 15 28 42 11 81 49 73 71 -3 9 -11 13 -16
10 -6 -4 -5 4 2 16 7 12 8 20 2 16 -18 -11 -22 25 -7 54 14 27 14 30 -5 40
-11 6 -20 15 -20 20 0 16 22 11 36 -7 12 -17 13 -17 10 0 -1 10 -9 26 -17 35
-16 18 -14 46 1 37 5 -3 18 0 29 7 23 14 43 2 21 -13 -12 -9 -11 -10 6 -6 13
3 25 -2 32 -14 7 -10 19 -15 30 -12 23 6 39 -14 24 -29 -8 -8 -15 -8 -26 1
-11 9 -15 9 -19 -1 -3 -8 -6 -6 -6 5 -1 10 -6 15 -11 12 -7 -4 -7 -12 0 -25
17 -32 12 -49 -12 -44 -13 2 -17 2 -10 -2 6 -3 12 -12 12 -20 0 -8 5 -13 12
-12 7 2 12 -5 13 -15 0 -10 6 -21 14 -26 7 -5 9 -11 4 -14 -6 -4 -5 -32 4 -74
7 -37 16 -83 19 -101 8 -40 23 -51 40 -27 8 11 21 16 34 12 11 -3 23 -1 26 4
3 5 -3 9 -13 9 -17 1 -17 1 1 11 14 9 20 8 27 -2 12 -20 22 -4 11 18 -15 28
-73 262 -172 693 -49 217 -92 404 -95 415 -3 11 -34 223 -70 470 -103 713
-107 737 -160 891 -56 162 -168 429 -251 598 -51 103 -64 121 -93 133 -19 8
-47 13 -62 11 -20 -3 -32 2 -45 20 -13 18 -25 23 -46 20 -26 -4 -28 -2 -28 29
0 18 5 33 10 33 6 0 10 7 10 16 0 10 -5 14 -16 10 -9 -3 -12 -2 -9 5 4 5 14 8
23 5 12 -4 22 5 34 29 10 19 13 35 8 35 -6 0 -10 -4 -10 -9 0 -17 -74 -7 -93
12 -10 10 -16 22 -12 25 3 4 10 0 15 -8 7 -12 12 -12 22 -2 9 9 9 12 -1 12
-10 0 -11 3 -2 14 6 7 9 20 5 29 -3 8 0 17 8 20 7 2 5 3 -4 2 -10 -2 -21 2
-24 7 -4 7 -10 5 -15 -5 -7 -12 -14 -13 -33 -4 -13 7 -22 15 -20 19 3 5 15 3
27 -3 17 -9 19 -9 11 0 -6 6 -21 14 -34 16 -13 3 -28 11 -32 20 -5 8 -16 15
-24 15 -8 0 -12 5 -9 10 3 6 1 10 -4 10 -15 0 -14 -16 2 -32 7 -7 16 -21 20
-30 12 -32 -17 -8 -45 36 -31 52 -45 92 -29 82 6 -4 11 -2 11 3 0 6 -5 11 -11
11 -5 0 -7 5 -4 10 3 6 1 10 -6 10 -7 0 -10 13 -7 37 3 21 -1 56 -7 78 -7 22
-16 78 -20 125 -3 47 -20 126 -36 177 -15 50 -38 131 -51 180 -20 81 -54 160
-65 149 -2 -2 7 -28 20 -58 14 -29 29 -72 35 -96 10 -42 10 -43 -8 -27 -10 9
-23 14 -28 11 -5 -3 -15 8 -22 24 -7 17 -16 30 -21 30 -5 0 -1 -16 8 -35 10
-21 22 -34 30 -31 7 3 18 -4 24 -15 6 -11 19 -29 30 -40 21 -21 25 -44 9 -54
-5 -3 -10 3 -10 14 0 11 -11 28 -24 36 -13 9 -36 35 -51 57 -24 36 -30 59 -42
177 -7 75 -20 150 -28 166 -8 17 -19 66 -25 109 -17 133 -126 311 -234 386
-24 16 -64 51 -91 79 -41 43 -58 53 -134 76 -54 17 -111 43 -154 72 l-68 46
-102 -7 c-56 -4 -103 -8 -104 -10 -1 -1 5 -24 15 -51 15 -41 25 -53 63 -73 33
-16 50 -34 62 -61 21 -47 22 -65 2 -58 -8 4 -17 2 -20 -3 -7 -11 38 -57 52
-53 13 5 36 -23 67 -82 l26 -50 -31 -3 c-34 -4 -89 15 -89 30 0 5 -4 6 -10 3
-5 -3 -10 1 -10 9 0 8 8 17 18 20 14 4 -51 -3 -68 -8 -3 0 -7 3 -10 8 -3 5 3
11 13 13 41 8 47 9 53 16 4 4 0 7 -10 7 -16 0 -16 1 -2 16 21 20 20 24 -4 19
-13 -2 -20 2 -20 11 0 8 -13 17 -28 20 -19 4 -35 17 -47 40 -10 18 -27 41 -38
51 -20 17 -20 17 -14 0 4 -11 3 -16 -4 -12 -5 4 -15 3 -22 -2 -24 -18 -41 -7
-67 42 -14 28 -31 49 -38 48 -7 -2 -30 15 -52 37 -23 23 -46 38 -52 34 -7 -4
-8 -3 -4 4 4 7 1 12 -7 12 -8 0 -24 9 -37 20 -12 11 -26 17 -31 14 -16 -9 -94
20 -111 42 -21 25 -119 74 -151 74 -36 0 -242 76 -226 84 8 3 1 4 -14 1 -21
-4 -27 -2 -21 6 5 9 0 10 -20 5 -15 -4 -26 -2 -26 4 0 5 -8 10 -17 10 -16 0
-16 -2 -3 -11 12 -8 11 -9 -5 -5 -11 2 -35 8 -54 11 -26 6 -30 10 -20 17 10 7
4 8 -19 4 -23 -4 -31 -2 -26 6 5 8 -4 9 -32 4 -22 -4 -34 -3 -27 2 8 5 -29 15
-95 26 -80 13 -119 25 -152 46 -25 16 -66 38 -91 49 -76 34 -93 73 -60 137 28
55 66 192 102 368 17 83 43 189 59 236 42 125 54 250 46 475 -7 217 -11 246
-37 252 -11 3 -19 10 -19 15 0 6 -11 3 -25 -6 -23 -15 -29 -13 -26 7 1 4 -10
0 -24 -9 -14 -9 -25 -13 -25 -9 0 4 -8 1 -17 -6 -15 -12 -16 -12 -11 8 4 14
-4 32 -23 56 -27 32 -33 35 -67 30 -20 -3 -39 -9 -42 -12 -3 -4 -39 -8 -80 -9
-53 -2 -84 -8 -108 -22 -36 -22 -212 -90 -231 -90 -14 0 -14 -1 9 95 10 44 17
82 15 84 -13 12 -76 -51 -139 -139 -80 -112 -146 -210 -148 -222 -2 -7 -9 -19
-15 -26 -7 -7 -13 -22 -13 -32 0 -10 -11 -38 -25 -61 -14 -24 -25 -52 -25 -61
0 -9 -5 -29 -12 -45 -6 -15 -12 -30 -13 -33 -1 -3 -7 -18 -13 -33 -12 -29 0
-73 17 -62 19 11 21 -32 4 -88 -14 -47 -19 -54 -25 -38 -5 14 -13 19 -23 14
-12 -4 -16 -1 -13 12 2 10 -3 20 -11 23 -8 3 -11 0 -7 -7 4 -6 3 -11 -2 -11
-18 0 -21 14 -6 31 13 14 14 26 5 70 -8 43 -7 56 4 65 10 8 11 14 3 22 -7 7
-6 17 6 33 9 13 16 33 16 46 0 33 20 71 40 76 12 3 19 18 23 43 14 104 19 130
28 138 14 15 11 30 -5 17 -10 -9 -16 -8 -26 4 -12 14 -63 18 -54 4 4 -7 -44
-29 -76 -35 -108 -22 -105 -21 -90 -39 10 -12 9 -15 -6 -16 -11 0 -14 -3 -6
-6 20 -8 14 -25 -7 -18 -17 5 -19 2 -16 -25 2 -16 0 -30 -5 -30 -5 0 -7 -7 -4
-15 4 -8 11 -12 18 -8 6 4 5 -1 -3 -10 -7 -9 -16 -15 -20 -13 -3 2 -6 -11 -5
-30 1 -19 -2 -37 -7 -40 -5 -3 -7 -9 -4 -14 5 -8 -25 -40 -107 -117 -12 -11
-27 -14 -52 -9 -36 7 -41 2 -37 -31 1 -6 -8 -14 -19 -18 -11 -3 -20 -10 -20
-15 0 -4 -10 -6 -22 -4 -13 2 -17 2 -10 -2 17 -8 15 -17 -9 -45 l-22 -24 5 28
c6 34 -4 35 -22 2 -9 -18 -16 -22 -21 -13 -4 7 -5 17 -1 23 3 5 -2 4 -12 -4
-9 -8 -16 -10 -15 -5 1 5 1 29 0 53 -1 35 -4 41 -14 32 -17 -14 -30 -2 -16 15
7 8 7 14 -1 19 -5 3 -7 17 -4 31 4 17 1 26 -10 30 -24 9 -31 -3 -15 -22 13
-16 12 -17 -11 -11 -14 3 -34 8 -46 12 -12 4 -27 1 -35 -7 -29 -28 -103 -78
-116 -78 -7 0 -13 -5 -13 -11 0 -7 7 -8 18 -4 76 31 102 30 102 -4 0 -20 -44
-54 -73 -56 -10 -1 -29 6 -41 16 -15 12 -36 17 -60 15 -41 -3 -59 -20 -52 -49
4 -16 0 -18 -22 -12 -15 4 -34 13 -43 21 -8 8 -20 14 -26 14 -27 0 -107 110
-118 160 -2 8 -6 29 -10 45 -11 44 8 20 29 -37 24 -65 82 -127 128 -137 29 -7
38 -5 43 6 6 17 -11 43 -29 43 -6 0 -28 5 -49 11 -54 15 -71 57 -63 158 14
181 20 213 41 225 11 6 23 14 26 18 3 5 14 1 25 -7 10 -8 26 -15 35 -15 9 0
22 -11 29 -25 12 -23 10 -28 -28 -69 -23 -25 -44 -57 -47 -73 -4 -15 -9 -35
-11 -43 -13 -38 -15 -90 -4 -109 16 -31 30 -26 30 11 0 32 57 168 70 168 5 0
11 -8 14 -17 6 -15 8 -15 16 -3 6 8 10 25 10 37 0 15 6 21 19 20 16 -1 19 -6
14 -32 -3 -16 -10 -35 -15 -42 -12 -15 -2 -33 18 -33 13 0 21 61 16 138 -2 40
38 27 94 -33 29 -30 55 -55 57 -55 8 0 0 51 -9 60 -22 20 -105 60 -126 60 -27
0 -66 37 -155 149 -11 14 -33 25 -53 27 -19 2 -40 6 -47 9 -24 9 -74 -18 -91
-49 -13 -23 -17 -57 -18 -136 0 -58 3 -109 6 -115 13 -19 21 -67 10 -60 -5 3
-10 13 -10 21 0 8 -7 26 -16 40 -14 20 -16 42 -12 117 6 112 31 177 80 207 39
23 59 24 113 5 35 -12 41 -12 57 1 13 13 25 14 62 6 32 -7 46 -6 46 1 0 7 4 7
12 -1 7 -7 22 -12 34 -12 28 0 39 -27 19 -46 -19 -19 -20 -64 -1 -64 20 0 39
27 32 45 -3 9 -2 13 3 10 5 -3 12 4 16 15 6 19 21 25 58 22 20 -2 20 -3 6 37
-7 18 -18 31 -28 31 -10 0 -24 11 -31 25 -10 19 -16 22 -22 13 -6 -10 -10 -10
-18 2 -17 26 -12 42 9 30 23 -12 34 -13 28 -2 -3 4 17 5 44 4 57 -4 61 5 30
62 -21 36 -19 48 7 39 10 -4 13 -2 8 5 -4 7 -13 12 -21 12 -8 0 -13 9 -12 19
0 11 6 17 14 14 13 -5 14 1 17 57 1 16 6 24 15 22 10 -2 12 4 7 23 -4 14 -2
25 4 25 5 0 10 10 10 23 0 16 11 27 42 42 23 11 47 19 54 17 16 -3 22 45 10
82 -7 23 -6 32 8 42 10 7 15 17 12 23 -4 6 -14 3 -26 -9 -26 -26 -38 -25 -39
3 -1 46 -5 57 -23 63 -10 3 -16 10 -12 15 3 6 0 16 -6 24 -7 8 -10 29 -8 45 4
24 1 30 -11 28 -9 -2 -22 -16 -29 -31 -7 -15 -20 -27 -28 -27 -20 0 -18 27 4
34 9 3 -1 3 -23 0 -39 -6 -39 -5 -22 13 19 22 23 38 5 27 -8 -5 -8 -3 -2 7 5
8 9 32 10 54 0 22 4 47 8 56 6 13 1 15 -23 11 l-31 -4 16 32 c9 17 27 36 39
42 14 6 21 16 18 24 -3 9 2 14 16 14 13 0 25 9 31 23 5 12 9 16 9 10 1 -21 32
-15 75 14 23 16 43 31 46 34 3 3 19 11 37 17 17 6 55 26 85 44 29 19 76 42
103 51 28 8 79 25 115 37 189 63 334 93 441 92 64 0 87 -6 145 -33 38 -17 88
-44 110 -60 l41 -28 -22 56 c-15 36 -34 62 -52 74 -16 10 -36 30 -43 44 -12
23 -94 99 -127 119 -7 4 -39 14 -70 22 -32 8 -66 17 -75 20 -10 3 -18 1 -18
-5z m-50 -91 c0 -5 -5 -10 -11 -10 -5 0 -7 5 -4 10 3 6 8 10 11 10 2 0 4 -4 4
-10z m-592 -147 c-4 -23 -48 -31 -48 -9 0 13 14 21 43 25 5 0 7 -7 5 -16z
m-118 -67 c0 -2 -11 -11 -25 -20 -24 -16 -25 -16 -25 4 0 15 7 20 25 20 14 0
25 -2 25 -4z m120 -20 c0 -3 -4 -8 -10 -11 -5 -3 -10 -1 -10 4 0 6 5 11 10 11
6 0 10 -2 10 -4z m-300 -125 c0 -6 -4 -13 -10 -16 -5 -3 -10 1 -10 9 0 9 5 16
10 16 6 0 10 -4 10 -9z m-10 -46 c0 -2 -9 -9 -20 -15 -16 -9 -18 -8 -14 5 5
13 34 22 34 10z m-135 -25 c-8 -26 15 -26 45 0 32 28 40 15 9 -14 -31 -31 -65
-41 -72 -22 -7 18 3 56 15 56 5 0 6 -9 3 -20z m125 -20 c0 -5 -4 -10 -10 -10
-5 0 -10 5 -10 10 0 6 5 10 10 10 6 0 10 -4 10 -10z m-158 -22 c6 -18 -41 -63
-53 -51 -7 7 -3 18 13 36 25 29 34 33 40 15z m-152 -24 c0 -8 -4 -12 -10 -9
-5 3 -10 10 -10 16 0 5 5 9 10 9 6 0 10 -7 10 -16z m23 -39 c8 -18 -13 -32
-23 -15 -4 7 -16 9 -29 5 -16 -5 -20 -3 -15 9 8 20 60 21 67 1z m302 -25 c-3
-5 -10 -10 -16 -10 -5 0 -9 5 -9 10 0 6 7 10 16 10 8 0 12 -4 9 -10z m-235
-21 c0 -5 -12 -9 -26 -9 -14 0 -23 4 -20 8 7 11 46 12 46 1z m-110 -19 c0 -5
-5 -10 -11 -10 -5 0 -7 5 -4 10 3 6 8 10 11 10 2 0 4 -4 4 -10z m-130 -170 c0
-5 -5 -10 -11 -10 -5 0 -7 5 -4 10 3 6 8 10 11 10 2 0 4 -4 4 -10z m710 -150
c0 -5 -4 -10 -9 -10 -6 0 -13 5 -16 10 -3 6 1 10 9 10 9 0 16 -4 16 -10z
m-130 -430 c0 -5 -4 -10 -10 -10 -5 0 -10 5 -10 10 0 6 5 10 10 10 6 0 10 -4
10 -10z m-36 -119 c16 -17 16 -19 0 -25 -9 -3 -22 -2 -29 4 -6 5 -14 8 -16 5
-3 -2 -5 5 -5 15 0 25 28 26 50 1z m1139 -121 c12 -31 25 -44 54 -56 53 -22
68 -35 51 -45 -7 -4 -9 -11 -5 -15 4 -4 13 -2 19 4 8 8 14 7 23 -5 11 -14 14
-14 36 0 17 11 29 13 39 6 12 -8 11 -9 -5 -7 -16 3 -20 -3 -20 -31 0 -19 6
-41 13 -48 11 -11 11 -13 0 -13 -7 0 3 -8 22 -18 19 -10 38 -13 41 -8 4 5 12
6 18 2 6 -4 24 0 40 9 39 19 62 20 55 0 -4 -10 0 -15 15 -15 12 0 21 3 21 8 0
4 14 13 31 21 18 8 28 19 25 27 -3 8 0 11 10 7 8 -3 13 -12 10 -19 -7 -19 3
-18 26 2 14 14 20 14 33 4 8 -7 15 -17 15 -23 0 -6 -7 -4 -16 5 -15 15 -19 13
-45 -17 -35 -39 -62 -46 -197 -47 -57 0 -122 -6 -145 -13 -68 -21 -144 -53
-184 -78 -44 -27 -126 -28 -153 -2 -13 14 -13 16 8 21 31 9 28 24 -5 24 -21 0
-24 3 -15 12 15 15 16 38 1 38 -6 0 -9 -7 -5 -15 3 -8 4 -15 2 -15 -3 0 -12
-3 -20 -6 -12 -5 -9 8 13 55 16 34 34 67 40 74 6 8 8 16 5 19 -13 13 105 198
126 198 4 0 14 -18 23 -40z m-1378 -50 c3 -5 1 -10 -4 -10 -6 0 -11 5 -11 10
0 6 2 10 4 10 3 0 8 -4 11 -10z m1638 -410 c9 0 17 -7 17 -15 0 -19 -24 -20
-42 -2 -7 8 -20 17 -28 21 -8 3 -4 4 10 1 14 -2 33 -5 43 -5z m-80 -7 c-7 -2
-19 -2 -25 0 -7 3 -2 5 12 5 14 0 19 -2 13 -5z m-997 -49 c-5 -12 -2 -15 10
-10 10 4 14 1 12 -6 -3 -7 -9 -13 -14 -13 -5 0 -15 -4 -22 -9 -7 -4 -16 -5
-19 -2 -4 3 -1 6 5 6 7 0 12 5 12 11 0 6 -10 8 -22 5 -16 -4 -14 -2 5 6 15 7
27 15 27 20 0 4 3 8 6 8 3 0 3 -7 0 -16z m415 -95 c-2 -8 -3 -22 -3 -31 1 -26
-15 -22 -22 5 -10 37 -7 49 12 45 9 -2 15 -11 13 -19z m-8 -90 c-6 -23 -19
-25 -27 -4 -3 8 -1 15 5 15 6 0 7 4 4 10 -3 5 0 7 8 4 9 -3 13 -13 10 -25z
m-33 -49 c0 -5 -5 -10 -11 -10 -5 0 -7 5 -4 10 3 6 8 10 11 10 2 0 4 -4 4 -10z
m3 -36 c9 -4 17 -13 17 -20 0 -8 6 -14 13 -14 16 -1 -18 -20 -43 -25 -13 -3
-17 1 -13 11 3 8 10 14 15 14 5 0 8 6 6 13 -3 6 -11 12 -18 12 -7 0 -15 6 -18
14 -3 9 0 11 9 7 8 -3 22 -9 32 -12z m477 -44 c0 -5 -7 -10 -15 -10 -8 0 -15
5 -15 10 0 6 7 10 15 10 8 0 15 -4 15 -10z m-496 -107 c-5 -17 -3 -24 4 -19
15 9 23 -7 11 -24 -8 -12 -12 -12 -16 -2 -2 7 -10 18 -16 25 -7 7 -19 21 -27
31 -14 18 -13 19 3 13 12 -5 17 -1 17 12 0 10 3 21 7 25 12 11 24 -33 17 -61z
m366 57 c0 -5 -4 -10 -10 -10 -5 0 -10 5 -10 10 0 6 5 10 10 10 6 0 10 -4 10
-10z m-1205 -10 c3 -5 1 -10 -4 -10 -6 0 -11 5 -11 10 0 6 2 10 4 10 3 0 8 -4
11 -10z m1145 -52 c0 -5 12 -8 26 -8 17 0 23 -4 18 -12 -5 -8 -2 -9 9 -5 9 3
19 2 22 -3 3 -5 13 -9 23 -9 40 -1 91 -14 87 -21 -3 -4 1 -8 8 -7 43 1 57 -4
57 -23 0 -14 -11 -22 -42 -31 -24 -7 -46 -12 -50 -11 -5 1 -8 -2 -8 -8 0 -5
-7 -10 -16 -10 -9 0 -30 -16 -47 -35 -19 -22 -36 -34 -46 -30 -9 2 -23 0 -31
-6 -12 -9 -11 -10 4 -5 19 7 19 6 3 -12 -9 -10 -17 -24 -17 -30 0 -15 -6 -15
-31 -1 -11 5 -17 14 -14 20 4 5 2 9 -4 9 -5 0 -11 -6 -13 -12 -3 -8 -10 -3
-18 11 -14 28 -20 100 -9 107 5 2 7 20 5 40 -1 19 3 39 11 45 7 6 10 15 7 21
-10 15 15 36 41 34 14 0 25 -4 25 -8z m-1090 -2 c0 -11 -19 -15 -25 -6 -3 5 1
10 9 10 9 0 16 -2 16 -4z m710 -16 c-9 -6 -6 -11 10 -20 20 -11 22 -10 17 4
-8 20 7 21 27 0 18 -18 21 -34 5 -34 -5 0 -8 4 -4 9 3 5 1 12 -5 16 -6 3 -13
-1 -16 -10 -5 -11 -10 -13 -19 -5 -7 6 -20 8 -29 4 -9 -3 -16 -1 -16 5 0 6 5
11 10 11 6 0 9 3 9 8 -3 20 2 32 12 26 8 -5 8 -9 -1 -14z m940 -35 c0 -9 -46
-29 -85 -36 -48 -9 -171 9 -157 23 6 6 34 6 74 1 45 -7 77 -6 104 3 43 13 64
16 64 9z m-937 -39 c-4 -6 -8 -18 -8 -26 0 -8 -8 -16 -18 -18 -16 -3 -17 -1
-5 18 10 18 10 24 1 27 -23 8 -14 20 12 15 15 -2 22 -9 18 -16z m81 -2 c13 -5
14 -9 5 -20 -6 -8 -8 -14 -3 -14 12 0 -18 -20 -30 -20 -6 0 -5 5 1 11 6 6 9
18 6 25 -8 21 -23 17 -16 -3 7 -19 5 -18 -16 10 -12 15 -11 17 12 17 14 0 33
-3 41 -6z m229 -282 c-4 -9 -2 -13 4 -9 6 4 16 0 23 -8 7 -8 23 -15 36 -15 13
0 24 -6 24 -12 1 -9 4 -8 9 2 9 15 16 15 142 11 23 -1 26 -4 21 -28 -4 -22 -2
-25 13 -19 14 5 17 2 13 -19 -4 -17 0 -29 11 -35 13 -7 11 -10 -13 -20 -21 -8
-32 -7 -42 1 -12 10 -13 8 -7 -6 5 -15 3 -17 -11 -12 -10 4 -15 3 -11 -3 3 -6
-1 -10 -9 -10 -8 0 -18 5 -21 10 -4 7 -12 7 -23 1 -18 -10 -52 3 -64 24 -4 7
-28 16 -53 19 -25 4 -45 11 -45 15 0 4 -9 18 -20 31 -11 12 -17 27 -14 31 5 9
-9 13 -33 10 -12 -2 7 48 30 77 14 17 48 -14 40 -36z m-643 24 c0 -2 -7 -9
-15 -16 -12 -10 -15 -10 -15 4 0 9 7 16 15 16 8 0 15 -2 15 -4z m-390 -156 c0
-5 -7 -7 -15 -4 -8 4 -15 8 -15 10 0 2 7 4 15 4 8 0 15 -4 15 -10z m-13 -157
c-4 -3 -2 -12 5 -20 8 -11 7 -12 -5 -8 -8 4 -18 2 -22 -4 -10 -17 -25 -13 -19
4 4 8 11 12 18 8 6 -4 5 1 -3 10 -12 15 -11 17 9 17 13 0 20 -3 17 -7z m-57
-53 c0 -5 -2 -10 -4 -10 -3 0 -8 5 -11 10 -3 6 -1 10 4 10 6 0 11 -4 11 -10z
m78 -19 c5 -35 -5 -65 -28 -79 -20 -12 -20 -11 -11 7 6 11 11 29 11 40 0 12 5
21 11 21 5 0 7 5 4 10 -5 8 -11 7 -21 -1 -17 -14 -18 -3 -1 16 16 19 31 13 35
-14z m2887 -123 c11 -2 22 -6 25 -9 3 -3 18 -12 34 -20 38 -18 45 -39 14 -39
-14 0 -27 -3 -31 -6 -8 -8 3 -35 13 -29 4 2 15 -4 24 -14 15 -17 5 -16 -96 11
-148 39 -178 54 -178 84 0 16 8 27 20 32 18 7 96 2 175 -10z m-2912 -160 c4
-10 8 -10 15 1 9 12 12 12 24 0 24 -24 28 -48 18 -95 -11 -49 -5 -73 13 -55 6
6 20 11 32 10 11 0 14 -3 8 -6 -7 -2 -13 -9 -13 -14 0 -6 4 -8 9 -4 6 3 9 -4
8 -15 -1 -15 -6 -18 -20 -14 -17 5 -18 2 -12 -24 16 -76 -58 -24 -105 74 -19
38 -26 122 -13 147 7 12 31 8 36 -5z m3313 -84 c34 -14 37 -17 21 -29 -23 -16
-21 -23 6 -28 16 -3 13 -5 -10 -6 -33 -1 -103 26 -103 41 0 4 -10 8 -21 8 -18
0 -19 2 -9 15 16 20 68 19 116 -1z m-2402 -678 c-9 -24 -33 -27 -31 -5 1 11 9
19 19 19 11 0 15 -5 12 -14z m3421 -376 c3 -5 1 -10 -4 -10 -6 0 -11 5 -11 10
0 6 2 10 4 10 3 0 8 -4 11 -10z m-1954 -70 c6 0 18 8 25 18 12 16 14 16 33 -5
11 -11 34 -24 50 -28 17 -4 33 -10 36 -14 2 -4 -19 -2 -48 6 -35 10 -78 13
-131 9 -137 -10 -256 -83 -334 -206 -19 -30 -47 -68 -63 -85 -31 -34 -31 -69
2 -104 41 -44 88 -22 150 72 57 85 96 125 149 152 67 34 127 40 196 20 75 -22
102 -41 195 -136 81 -84 110 -96 143 -60 9 10 19 34 22 53 5 29 2 38 -18 54
-14 11 -51 48 -83 84 -33 36 -43 50 -24 32 19 -18 38 -29 42 -26 4 4 16 -1 27
-11 11 -10 20 -15 20 -11 0 4 9 2 21 -4 20 -11 20 -12 2 -26 -17 -14 -17 -15
5 -30 28 -21 29 -67 2 -111 -17 -28 -26 -33 -57 -33 -34 0 -45 7 -110 77 l-72
77 -88 -2 c-48 -2 -126 -7 -173 -12 -47 -6 -90 -10 -96 -10 -6 0 -8 -15 -5
-42 8 -56 31 -61 61 -13 25 40 48 55 82 54 13 0 43 2 68 4 59 6 70 1 70 -33 0
-34 13 -44 46 -36 22 6 24 10 18 49 -5 29 -3 39 4 32 10 -10 42 -285 42 -363
0 -38 -4 -43 -70 -92 -39 -29 -69 -55 -66 -57 3 -3 35 9 71 26 47 21 86 51
136 102 54 55 74 70 91 66 19 -5 18 -3 -6 22 -19 20 -26 37 -26 67 0 49 24 75
69 76 95 3 113 -147 20 -167 -28 -6 -29 -8 -15 -24 20 -22 20 -71 1 -117 -21
-50 -121 -146 -182 -175 -33 -15 -53 -32 -57 -46 -5 -16 -14 -23 -31 -23 -18
0 -23 4 -19 15 8 21 -26 8 -44 -17 -15 -21 -35 -23 -54 -5 -18 19 -46 28 -53
17 -3 -4 1 -11 7 -13 7 -3 1 -6 -14 -6 -15 -1 -33 7 -40 17 -7 10 -33 24 -58
31 -105 30 -193 89 -240 160 -33 49 -37 76 -16 107 14 19 12 20 -20 20 -79 0
-119 100 -60 150 15 13 34 24 43 24 11 0 8 6 -10 20 -14 11 -31 36 -37 56 -11
32 -10 38 10 59 l23 24 -27 11 -27 10 18 31 c10 16 28 39 40 51 l21 20 12 -21
c11 -21 13 -19 54 31 24 29 69 69 99 88 31 19 56 41 57 48 0 6 10 12 23 13 12
0 16 3 10 6 -7 2 -13 9 -13 14 0 12 47 12 55 -1 12 -19 57 -11 63 12 l5 21 18
-21 c9 -12 23 -22 30 -22z m-41 -55 c0 -8 7 -15 15 -15 8 0 15 7 15 16 0 35
25 4 28 -34 3 -43 -12 -57 -23 -22 -3 11 -11 20 -16 20 -5 0 -9 -9 -9 -20 0
-37 -28 -22 -33 18 -2 20 -2 40 0 45 7 13 23 8 23 -8z m-69 -14 c-30 -23 -22
-51 14 -51 14 0 25 -4 25 -10 0 -5 -4 -10 -9 -10 -5 0 -16 -3 -24 -6 -17 -6
-57 29 -57 50 0 22 29 46 53 46 22 0 22 -1 -2 -19z m209 9 c0 -5 -5 -10 -11
-10 -8 0 -8 -5 1 -15 10 -12 10 -15 -4 -15 -9 0 -16 -4 -16 -10 0 -5 5 -10 10
-10 6 0 10 -4 10 -10 0 -12 -20 -13 -38 -1 -9 6 -11 19 -7 45 6 29 12 36 31
36 13 0 24 -4 24 -10z m71 -27 c11 -13 11 -15 1 -9 -10 6 -12 0 -7 -27 8 -40
-11 -55 -42 -32 -17 13 -17 14 0 15 13 0 16 5 11 24 -10 43 12 60 37 29z
m-337 -32 c34 -35 27 -53 -16 -44 -28 5 -29 4 -20 -14 9 -15 7 -23 -9 -36 -10
-9 -26 -17 -33 -17 -9 0 -16 -12 -18 -27 -3 -28 -3 -28 -32 15 -34 49 -27 69
18 52 15 -5 35 -10 43 -10 14 0 13 4 -5 23 -33 35 -28 50 12 45 30 -3 33 -2
25 13 -21 39 -2 39 35 0z m415 -30 c-7 -2 -22 -15 -32 -28 -24 -30 -44 -19
-23 13 9 13 16 30 16 39 0 14 3 13 26 -2 19 -12 22 -19 13 -22z m49 -33 c17
-17 15 -28 -5 -21 -13 5 -15 2 -10 -11 5 -13 3 -17 -7 -13 -20 8 -28 -4 -13
-21 10 -12 9 -14 -2 -11 -32 11 -36 37 -11 64 27 28 31 30 48 13z m60 -60 c18
-18 15 -34 -12 -63 -23 -25 -46 -20 -30 7 5 8 2 9 -9 5 -27 -10 -31 13 -6 39
25 27 39 30 57 12z m-639 -54 c2 -12 -2 -15 -14 -11 -13 6 -15 3 -10 -13 5
-16 2 -20 -14 -20 -14 0 -19 -5 -15 -15 8 -20 -2 -19 -43 6 -25 16 -31 24 -23
34 6 7 22 10 36 7 24 -4 25 -3 14 17 -6 13 -9 29 -6 38 5 13 11 12 39 -6 17
-11 34 -28 36 -37z m-2219 -289 c0 -6 19 3 -435 -187 -380 -159 -433 -175
-481 -143 -82 53 -61 218 37 296 22 17 42 29 45 26 3 -2 -4 -20 -15 -38 -44
-72 -11 -139 68 -139 30 0 534 124 711 175 50 15 70 17 70 10z m478 -1022 c5
-10 19 -63 32 -118 12 -55 32 -123 45 -150 12 -28 32 -82 44 -120 13 -39 38
-102 56 -140 78 -165 217 -667 191 -692 -13 -13 -270 -30 -283 -19 -6 6 -28
88 -48 181 -21 94 -50 213 -65 265 -16 52 -35 119 -44 148 -8 29 -11 50 -6 47
6 -4 10 -2 10 4 0 6 6 8 14 5 10 -4 13 0 10 13 -4 13 -15 18 -41 18 -34 0 -39
4 -67 57 -17 31 -34 59 -37 63 -7 7 -68 -133 -94 -215 -29 -92 -35 -98 -95
-90 -59 8 -100 3 -100 -12 0 -6 6 -8 14 -5 8 3 17 3 20 -1 4 -3 12 -7 19 -8
24 -4 72 -14 97 -19 14 -3 64 3 110 15 132 31 123 36 164 -88 20 -59 36 -112
36 -118 0 -10 -69 -17 -349 -37 -34 -2 -34 -2 -76 -122 l-43 -120 -58 3 c-95
5 -204 24 -204 36 0 19 28 170 35 188 5 14 -4 17 -60 23 -37 4 -69 13 -71 19
-3 7 3 50 13 96 l18 85 81 -4 82 -3 10 34 c6 18 18 60 26 93 8 33 31 100 51
150 19 49 35 96 35 104 0 7 17 52 39 100 21 47 46 111 55 141 10 30 27 78 38
107 23 59 3 52 234 83 77 10 142 19 146 19 4 1 11 -7 16 -16z m2282 -114 c0
-5 -13 -60 -29 -122 -16 -62 -32 -135 -36 -164 -4 -29 -12 -56 -18 -61 -7 -5
-57 -12 -112 -16 -83 -6 -106 -11 -137 -31 -47 -31 -48 -51 -5 -60 17 -4 61
-16 95 -27 l64 -20 -6 -152 c-9 -195 -11 -211 -43 -236 -31 -24 -149 -61 -205
-63 -44 -2 -23 -34 -188 277 -59 113 -75 136 -81 120 -5 -10 -22 -116 -39
-234 -17 -118 -34 -218 -38 -222 -9 -8 -110 -24 -216 -34 l-78 -7 5 39 c4 22
9 68 13 104 l6 65 -66 -71 c-105 -114 -199 -165 -340 -185 -135 -18 -273 21
-392 111 l-52 39 -27 113 c-15 62 -42 160 -60 218 -61 189 -60 183 -28 243 15
28 56 79 89 113 75 76 214 148 312 163 120 19 308 -22 411 -88 65 -43 145
-127 180 -191 19 -35 32 -49 35 -40 3 8 15 76 26 150 12 74 24 151 28 170 l8
35 143 8 c79 5 147 5 151 0 5 -4 56 -99 113 -211 57 -112 108 -204 113 -204
12 0 75 190 110 332 16 63 30 117 32 120 2 2 56 10 120 16 64 6 123 12 130 12
6 1 12 -3 12 -9z m-4600 -1629 c0 -5 -4 -10 -9 -10 -6 0 -13 5 -16 10 -3 6 1
10 9 10 9 0 16 -4 16 -10z m7455 -100 c-3 -5 -12 -10 -18 -10 -7 0 -6 4 3 10
19 12 23 12 15 0z m-267 -58 c0 -9 3 -25 7 -36 6 -14 5 -18 -6 -14 -8 3 -14
11 -14 19 0 8 -4 20 -8 27 -10 14 0 35 13 27 5 -3 8 -13 8 -23z m246 19 c8
-13 -4 -42 -15 -35 -12 7 -12 44 0 44 6 0 12 -4 15 -9z m31 -30 c3 -5 1 -12
-5 -16 -5 -3 -10 1 -10 9 0 18 6 21 15 7z m-378 -77 c-3 -3 -12 -4 -19 -1 -8
3 -5 6 6 6 11 1 17 -2 13 -5z m6 -40 c-4 -11 -8 -12 -20 -3 -11 10 -11 14 -1
20 17 10 28 2 21 -17z m338 -47 c-13 -13 -26 -3 -16 12 3 6 11 8 17 5 6 -4 6
-10 -1 -17z m-311 -43 c0 -8 -4 -12 -10 -9 -5 3 -10 10 -10 16 0 5 5 9 10 9 6
0 10 -7 10 -16z m-10 -161 c0 -25 -1 -26 -16 -11 -9 9 -13 21 -10 27 13 20 26
11 26 -16z m55 -2 c3 -5 1 -12 -5 -16 -5 -3 -10 1 -10 9 0 18 6 21 15 7z
m-113 -35 c-2 -9 3 -16 10 -16 8 -1 7 -5 -5 -14 -17 -13 -16 -14 3 -19 21 -5
28 -27 9 -27 -5 0 -7 -5 -3 -12 4 -7 3 -8 -5 -4 -6 4 -9 12 -6 17 4 5 -1 9 -9
9 -19 0 -30 34 -22 66 7 28 33 28 28 0z m-1292 -1381 c0 -8 -7 -15 -15 -15 -9
0 -12 6 -9 15 4 8 10 15 15 15 5 0 9 -7 9 -15z m44 -206 c-8 -14 -44 -10 -44
5 0 9 8 12 25 8 14 -2 22 -8 19 -13z m246 -804 c0 -51 -15 -105 -30 -105 -3 0
-14 25 -24 55 -18 59 -10 100 19 89 8 -4 15 -1 15 5 0 6 5 11 10 11 6 0 10
-25 10 -55z m-4430 -51 c0 -16 -16 -19 -25 -4 -8 13 4 32 16 25 5 -4 9 -13 9
-21z m117 -86 c-3 -7 -5 -2 -5 12 0 14 2 19 5 13 2 -7 2 -19 0 -25z m4118
-679 c-4 -5 -18 -9 -33 -9 -17 0 -22 3 -15 8 18 11 54 12 48 1z"/>
<path d="M2495 12910 c-3 -5 -1 -10 4 -10 6 0 11 5 11 10 0 6 -2 10 -4 10 -3
0 -8 -4 -11 -10z"/>
<path d="M3925 10420 c3 -5 8 -10 11 -10 2 0 4 5 4 10 0 6 -5 10 -11 10 -5 0
-7 -4 -4 -10z"/>
<path d="M4936 8475 c-22 -7 -49 -24 -60 -36 l-21 -21 50 5 c28 4 102 9 165
13 l115 7 -50 24 c-58 26 -138 30 -199 8z"/>
<path d="M4764 8310 c-25 -39 -60 -78 -76 -86 l-30 -15 26 -24 c30 -28 35 -78
10 -113 -14 -21 -14 -22 11 -22 15 0 47 -17 77 -41 79 -62 195 -115 235 -107
11 2 -13 19 -63 45 l-80 42 -18 148 c-9 81 -20 169 -23 196 -3 26 -9 47 -14
47 -5 0 -29 -32 -55 -70z"/>
<path d="M5020 8305 c-177 -15 -163 -13 -156 -23 2 -4 71 -2 153 5 81 6 156
12 166 12 10 1 15 6 12 11 -3 6 -9 9 -13 9 -4 -1 -77 -7 -162 -14z"/>
<path d="M4994 8249 c-3 -5 2 -19 10 -31 11 -15 12 -26 5 -39 -6 -13 -6 -25 2
-37 7 -11 9 -27 5 -37 -11 -28 -30 -2 -31 42 0 41 -19 83 -37 83 -10 0 -37
-29 -38 -41 0 -3 11 -4 24 -2 25 5 24 8 41 -104 5 -29 13 -44 26 -48 12 -4 19
-15 19 -32 0 -29 21 -93 30 -93 21 1 31 19 21 38 -6 11 -8 27 -5 35 3 9 1 25
-6 36 -15 29 -2 26 32 -6 l28 -27 0 30 c0 17 -9 40 -21 52 -18 20 -19 42 -1
42 24 -1 37 -25 43 -77 6 -56 6 -55 8 25 0 46 -4 92 -9 103 -9 15 -7 21 5 25
27 11 17 31 -14 26 -22 -3 -30 0 -34 15 -3 12 -5 9 -6 -9 -1 -19 4 -28 15 -28
20 0 13 -24 -8 -28 -17 -3 -39 41 -35 72 2 16 -5 20 -31 22 -18 1 -35 -2 -38
-7z m127 -112 c-1 -12 -15 -9 -19 4 -3 6 1 10 8 8 6 -3 11 -8 11 -12z"/>
<path d="M5433 8113 c9 -2 23 -2 30 0 6 3 -1 5 -18 5 -16 0 -22 -2 -12 -5z"/>
<path d="M5315 8016 c-80 -84 -137 -116 -227 -127 -109 -14 -205 19 -315 107
-46 38 -82 43 -106 16 -82 -90 176 -271 387 -272 115 0 240 54 320 140 73 78
95 150 58 183 -31 28 -55 19 -117 -47z m9 -97 c20 -30 -4 -78 -39 -79 -11 0
-51 68 -44 74 12 10 46 25 56 26 6 0 19 -10 27 -21z m-469 -26 c-24 -58 -9
-90 17 -36 15 30 38 42 38 19 0 -22 -21 -64 -35 -70 -17 -6 -59 17 -63 35 -5
26 16 69 34 69 11 0 14 -5 9 -17z m358 -10 c-17 -6 -16 -23 1 -23 9 0 12 -7 9
-20 -4 -15 0 -20 13 -20 16 0 17 -2 4 -10 -26 -17 -39 -11 -55 27 -16 38 -9
54 25 52 10 0 11 -2 3 -6z m-243 -40 c12 -28 12 -28 21 -5 13 34 33 28 25 -9
-3 -17 -6 -38 -6 -45 0 -24 -26 -15 -40 14 l-12 27 -11 -22 c-21 -46 -36 -13
-21 45 8 30 28 28 44 -5z m176 -18 c1 -32 -3 -45 -13 -45 -7 0 -13 8 -13 18 0
10 -7 27 -15 39 -14 20 -13 22 2 26 35 9 38 6 39 -38z m-76 -16 c0 -28 -4 -39
-15 -39 -11 0 -15 11 -15 38 0 21 3 42 6 45 14 13 24 -6 24 -44z"/>
<path d="M5270 7908 c0 -7 7 -22 15 -32 13 -17 15 -17 21 -3 3 10 4 24 0 32
-7 18 -36 20 -36 3z"/>
<path d="M5360 8400 c0 -5 5 -10 11 -10 5 0 7 5 4 10 -3 6 -8 10 -11 10 -2 0
-4 -4 -4 -10z"/>
<path d="M2975 6500 c3 -5 8 -10 11 -10 2 0 4 5 4 10 0 6 -5 10 -11 10 -5 0
-7 -4 -4 -10z"/>
<path d="M3688 6567 c-66 -19 -109 -56 -146 -125 -41 -76 -41 -108 2 -174 65
-102 129 -142 221 -142 98 0 191 73 235 183 l21 53 -26 57 c-31 66 -66 105
-117 132 -49 25 -132 32 -190 16z"/>
<path d="M3365 13490 c-27 -10 -41 -19 -31 -19 19 -1 68 12 111 30 44 17 -30
7 -80 -11z"/>
<path d="M3485 13460 c-3 -5 -2 -10 4 -10 5 0 13 5 16 10 3 6 2 10 -4 10 -5 0
-13 -4 -16 -10z"/>
<path d="M3520 13460 c0 -5 5 -10 11 -10 5 0 7 5 4 10 -3 6 -8 10 -11 10 -2 0
-4 -4 -4 -10z"/>
<path d="M3215 13440 c3 -5 8 -10 11 -10 2 0 4 5 4 10 0 6 -5 10 -11 10 -5 0
-7 -4 -4 -10z"/>
<path d="M3235 13410 c-4 -6 -12 -9 -19 -7 -6 3 -21 -2 -31 -10 -19 -15 -19
-15 3 -8 13 4 22 2 22 -4 0 -6 -10 -11 -22 -11 -12 0 -19 -3 -15 -6 12 -12 56
6 68 27 11 22 6 39 -6 19z"/>
<path d="M3128 13333 c7 -3 16 -2 19 1 4 3 -2 6 -13 5 -11 0 -14 -3 -6 -6z"/>
<path d="M2850 13280 c0 -5 7 -7 15 -4 8 4 15 8 15 10 0 2 -7 4 -15 4 -8 0
-15 -4 -15 -10z"/>
<path d="M2776 13261 c-4 -6 -2 -11 5 -11 8 0 8 -4 -1 -15 -21 -25 14 -19 36
7 19 21 19 21 0 14 -11 -4 -22 -2 -26 5 -6 8 -9 8 -14 0z"/>
<path d="M2690 13130 c0 -5 7 -7 15 -4 8 4 15 8 15 10 0 2 -7 4 -15 4 -8 0
-15 -4 -15 -10z"/>
<path d="M4115 12988 c-16 -6 -36 -12 -42 -14 -7 -2 -13 -8 -13 -14 0 -8 6 -8
20 0 20 11 25 5 21 -26 -1 -12 43 -24 90 -24 15 0 31 -4 34 -10 3 -5 21 -10
38 -10 l32 0 -26 23 c-14 12 -24 28 -22 35 4 10 -28 18 -39 10 -9 -5 -48 25
-43 33 8 11 -10 10 -50 -3z"/>
<path d="M4191 12686 c-6 -7 -8 -15 -5 -19 3 -3 -4 -8 -15 -12 -12 -3 -19 -10
-16 -15 3 -5 -5 -29 -17 -54 -15 -31 -31 -49 -52 -57 -17 -7 -50 -21 -74 -31
-57 -25 -78 -20 -75 16 2 22 -1 26 -14 22 -18 -7 -81 13 -102 32 -7 7 -16 11
-18 8 -9 -9 6 -36 18 -34 21 5 20 -17 -2 -40 -16 -18 -24 -21 -35 -11 -10 8
-18 8 -27 1 -7 -6 -27 -12 -43 -12 -40 -1 -169 16 -183 24 -6 4 -11 2 -11 -4
0 -6 -5 -8 -10 -5 -6 4 -10 3 -9 -2 5 -27 -2 -35 -25 -29 -16 4 -30 0 -42 -11
-17 -17 -18 -17 -11 0 3 9 3 17 -1 17 -8 0 -54 -30 -62 -41 -3 -3 -20 -14 -37
-23 -18 -9 -33 -21 -33 -26 0 -6 -7 -10 -15 -10 -8 0 -15 -7 -15 -15 0 -25 -2
-29 -26 -60 -14 -16 -28 -35 -33 -41 -11 -14 -31 -51 -31 -58 0 -3 12 -1 26 4
41 16 56 13 45 -9 -6 -10 -7 -21 -4 -25 3 -3 -11 -6 -33 -6 -29 0 -35 -3 -24
-10 8 -5 27 -10 43 -10 15 0 27 -4 27 -10 0 -5 9 -10 20 -10 13 0 18 -5 14
-15 -8 -19 -2 -19 41 -1 34 15 59 16 71 3 4 -4 20 -7 35 -7 29 0 52 -21 31
-28 -7 -2 -12 -8 -12 -12 0 -5 18 -3 41 5 36 13 43 13 56 0 8 -8 21 -15 29
-15 17 0 107 43 208 99 54 30 73 37 87 28 9 -6 24 -7 35 -2 11 4 24 7 31 6 6
-1 14 3 17 8 4 5 -13 16 -36 24 l-43 14 40 7 c22 4 51 15 64 25 l25 19 -25 -5
c-15 -3 -30 1 -37 10 -10 12 -4 22 33 56 52 48 81 61 133 61 42 0 55 -7 70
-36 14 -27 49 -69 142 -168 81 -88 130 -127 130 -104 0 11 2 11 9 -1 5 -7 23
-15 41 -17 18 -2 39 -9 46 -15 24 -20 31 24 29 191 -2 142 -5 173 -24 221 -18
48 -28 60 -71 83 -27 15 -70 47 -96 72 -31 31 -49 42 -54 34 -5 -8 -10 -4 -15
12 -7 22 -8 22 -12 2 -2 -12 -15 -26 -29 -33 -15 -7 -23 -7 -19 -1 3 6 -1 13
-9 16 -9 3 -16 12 -16 19 0 19 -27 26 -39 11z m-57 -192 c21 -8 20 -23 -1 -41
-31 -24 -144 -74 -160 -71 -24 5 18 51 80 87 57 33 58 34 81 25z m-574 -99
c-7 -8 -17 -12 -23 -8 -6 4 -3 11 8 19 23 17 32 10 15 -11z m-36 -14 c17 -2
-1 -12 -30 -17 -16 -3 -30 -9 -32 -15 -7 -19 -19 -8 -15 14 4 22 12 23 77 18z
m-161 -128 c-9 -23 -54 -73 -65 -73 -5 0 -3 10 4 23 7 12 12 26 13 30 0 7 40
35 52 37 1 0 -1 -8 -4 -17z m197 -17 c0 -3 -4 -8 -10 -11 -5 -3 -10 -1 -10 4
0 6 5 11 10 11 6 0 10 -2 10 -4z m-60 -36 c-13 -8 -13 -10 0 -14 8 -3 28 -6
44 -8 16 -2 31 -8 33 -14 5 -16 -30 -24 -104 -24 -77 0 -84 18 -20 49 42 21
75 29 47 11z"/>
<path d="M3901 12623 c-7 -14 -13 -15 -21 -7 -13 13 -50 7 -50 -7 0 -5 9 -10
20 -10 11 -1 25 -2 31 -3 6 -1 18 9 27 22 8 12 12 22 9 22 -3 0 -10 -8 -16
-17z"/>
<path d="M3634 12605 c-17 -13 -18 -14 -1 -15 18 0 25 -20 6 -20 -5 0 -7 -4
-4 -10 10 -16 43 11 37 32 -6 26 -16 29 -38 13z"/>
<path d="M3745 12610 c3 -5 8 -10 11 -10 2 0 4 5 4 10 0 6 -5 10 -11 10 -5 0
-7 -4 -4 -10z"/>
<path d="M4025 12359 c-12 -19 5 -23 22 -6 16 16 16 17 1 17 -9 0 -20 -5 -23
-11z"/>
<path d="M4045 12280 c3 -5 8 -10 11 -10 2 0 4 5 4 10 0 6 -5 10 -11 10 -5 0
-7 -4 -4 -10z"/>
<path d="M2845 11773 c-5 -10 -7 -24 -6 -31 2 -10 -2 -11 -18 -3 -25 14 -42
14 -19 1 11 -7 15 -19 12 -35 -2 -14 0 -25 6 -25 6 0 10 -6 8 -14 -2 -8 6 -21
17 -29 11 -8 20 -26 20 -39 0 -16 6 -24 20 -25 11 -1 29 -4 40 -6 21 -5 48 10
40 23 -2 4 5 16 15 28 11 12 20 26 20 32 0 5 4 10 8 10 5 0 9 15 10 33 1 33 0
34 -53 46 -30 7 -60 9 -67 5 -8 -5 -9 -2 -5 9 4 11 2 14 -9 10 -9 -3 -14 0
-12 7 5 20 -19 23 -27 3z"/>
<path d="M3030 11710 c0 -5 5 -10 10 -10 6 0 10 5 10 10 0 6 -4 10 -10 10 -5
0 -10 -4 -10 -10z"/>
<path d="M2920 11404 c0 -8 5 -12 10 -9 6 4 8 11 5 16 -9 14 -15 11 -15 -7z"/>
<path d="M4998 10333 c7 -3 16 -2 19 1 4 3 -2 6 -13 5 -11 0 -14 -3 -6 -6z"/>
<path d="M1980 10271 c-47 -16 -81 -29 -76 -30 12 -1 176 49 176 55 0 7 -12 4
-100 -25z"/>
<path d="M5721 10086 c10 -9 169 -15 164 -6 -3 6 -43 10 -87 10 -45 0 -79 -2
-77 -4z"/>
<path d="M5792 10018 c5 -15 28 -18 29 -3 0 6 -7 12 -17 13 -10 3 -15 -1 -12
-10z"/>
<path d="M5840 9990 c0 -6 7 -10 15 -10 8 0 15 2 15 4 0 2 -7 6 -15 10 -8 3
-15 1 -15 -4z"/>
<path d="M5920 9965 c13 -14 25 -25 27 -25 2 0 3 11 3 25 0 20 -5 25 -27 25
l-26 0 23 -25z"/>
<path d="M840 9543 c-25 -32 -22 -47 13 -51 19 -2 30 4 43 23 16 24 16 26 -2
40 -26 20 -30 19 -54 -12z"/>
<path d="M6880 9391 c0 -12 7 -24 15 -27 8 -4 15 -12 15 -20 0 -8 5 -14 10
-14 12 0 13 -27 2 -32 -5 -1 -2 -19 6 -38 21 -47 27 -18 12 54 -7 33 -20 62
-35 76 l-25 23 0 -22z"/>
<path d="M7458 8138 c-16 -19 -15 -22 2 -40 32 -35 50 -1 25 44 -9 15 -12 15
-27 -4z m22 -18 c0 -5 -4 -10 -10 -10 -5 0 -10 5 -10 10 0 6 5 10 10 10 6 0
10 -4 10 -10z"/>
<path d="M7550 7979 c0 -5 5 -7 10 -4 6 3 10 8 10 11 0 2 -4 4 -10 4 -5 0 -10
-5 -10 -11z"/>
<path d="M21 6480 c0 -33 3 -49 10 -44 6 3 8 12 5 20 -3 8 -1 14 3 14 5 0 8 8
6 18 -2 9 -4 23 -4 30 -1 6 -5 12 -10 12 -4 0 -9 -23 -10 -50z"/>
<path d="M70 6489 c0 -5 5 -7 10 -4 6 3 10 8 10 11 0 2 -4 4 -10 4 -5 0 -10
-5 -10 -11z"/>
<path d="M30 6378 l0 -42 20 20 c15 14 18 26 13 40 -15 36 -33 26 -33 -18z"/>
<path d="M490 6346 c0 -2 7 -9 15 -16 13 -11 14 -10 9 4 -5 14 -24 23 -24 12z"/>
<path d="M32 6310 c0 -14 2 -19 5 -12 2 6 2 18 0 25 -3 6 -5 1 -5 -13z"/>
<path d="M56 6045 c9 -117 27 -254 33 -251 3 2 11 -2 18 -9 10 -10 9 -14 -2
-19 -25 -9 -19 -112 11 -202 52 -154 218 -529 255 -576 12 -15 32 -64 45 -110
l23 -83 0 75 c0 47 -5 84 -14 100 -8 14 -14 37 -15 51 0 14 -3 29 -7 33 -11
11 -16 37 -17 86 0 25 -5 50 -12 55 -6 6 -14 30 -17 55 -9 73 -12 81 -34 99
-11 9 -23 24 -27 35 -6 18 -7 18 -26 1 -11 -10 -20 -13 -20 -7 0 6 -6 9 -14 6
-15 -6 -32 29 -22 45 3 5 -4 7 -16 3 -19 -5 -21 -2 -15 30 3 21 1 41 -6 48 -9
10 -9 11 1 6 8 -5 12 0 12 14 0 12 5 18 10 15 6 -3 10 3 10 13 0 11 7 25 15
32 12 10 15 9 15 -6 0 -14 2 -16 13 -5 10 10 9 14 -4 22 -13 7 -15 16 -9 43 6
27 5 33 -6 29 -8 -3 -14 -9 -14 -14 0 -5 -11 -9 -25 -9 -28 0 -32 -16 -10 -40
21 -23 10 -46 -22 -44 -33 1 -47 32 -25 57 9 11 11 17 4 17 -24 0 -27 2 -35
22 -8 21 -2 38 14 38 5 0 9 -8 7 -17 -2 -12 4 -18 17 -18 27 0 45 14 45 36 0
21 -16 26 -23 7 -2 -7 -5 8 -5 34 -1 27 -6 57 -12 69 -7 11 -9 27 -6 35 3 8
-1 14 -10 14 -10 0 -14 6 -11 14 4 9 1 13 -6 10 -8 -3 -12 10 -11 41 0 29 -4
45 -11 45 -7 0 -11 10 -11 23 1 12 -1 27 -5 32 -4 6 -12 26 -18 45 -9 31 -10
28 -5 -25z m74 -304 c0 -6 -4 -13 -10 -16 -5 -3 -10 1 -10 9 0 9 5 16 10 16 6
0 10 -4 10 -9z"/>
<path d="M270 5539 c0 -5 5 -7 10 -4 6 3 10 8 10 11 0 2 -4 4 -10 4 -5 0 -10
-5 -10 -11z"/>
<path d="M440 4628 c0 -17 12 -52 26 -76 15 -25 33 -68 40 -96 l13 -51 -2 80
c-2 54 -9 93 -22 120 -30 63 -55 74 -55 23z"/>
<path d="M8454 4637 c3 -10 6 -27 6 -37 0 -11 19 -41 43 -68 23 -27 54 -65 70
-83 24 -29 2 7 -103 171 -12 19 -19 27 -16 17z"/>
<path d="M7846 4595 c-3 -8 -1 -15 3 -15 5 0 11 7 15 15 3 8 1 15 -3 15 -5 0
-11 -7 -15 -15z"/>
<path d="M1296 4570 c0 -17 6 -36 12 -42 7 -7 12 -16 12 -21 0 -4 11 -25 25
-45 14 -20 25 -32 25 -26 0 28 -32 112 -52 137 l-23 28 1 -31z"/>
<path d="M7722 4505 c0 -16 2 -22 5 -12 2 9 2 23 0 30 -3 6 -5 -1 -5 -18z"/>
<path d="M7849 4425 c-1 -16 -2 -35 -2 -42 0 -7 -4 -11 -11 -10 -6 1 -11 -8
-10 -20 0 -18 -3 -20 -18 -12 -15 8 -24 5 -42 -13 -21 -20 -23 -32 -21 -93 2
-77 11 -120 31 -149 7 -10 10 -25 7 -32 -8 -20 28 -153 41 -151 5 1 11 -7 13
-18 3 -16 2 -17 -6 -5 -14 19 -14 5 0 -44 l11 -39 29 46 c24 39 35 48 68 53
31 5 44 14 63 43 30 46 51 47 58 1 4 -20 10 -41 14 -48 9 -15 36 -16 36 -1 0
6 9 9 20 6 10 -3 23 0 28 7 14 16 25 106 14 106 -6 0 -10 6 -9 13 2 51 -4 69
-19 63 -17 -6 -16 4 2 48 5 14 4 17 -5 12 -8 -5 -14 -1 -18 13 -6 22 -23 29
-23 10 0 -8 -5 -8 -15 1 -8 7 -15 9 -15 6 0 -4 -7 -1 -15 8 -8 8 -15 19 -15
25 0 6 -9 11 -20 11 -11 0 -20 -5 -20 -10 0 -7 -6 -7 -20 0 -11 6 -19 14 -19
18 6 36 -48 113 -62 90 -9 -14 -28 28 -30 65 -1 12 -5 33 -9 47 -8 25 -8 25
-11 -5z"/>
<path d="M1398 4393 c11 -16 37 -44 58 -63 30 -27 26 -21 -15 28 -55 64 -77
83 -43 35z"/>
<path d="M8630 4365 c17 -25 33 -45 36 -45 3 0 -9 20 -26 45 -17 25 -33 45
-36 45 -3 0 9 -20 26 -45z"/>
<path d="M1035 4213 c-11 -3 -24 -11 -30 -19 -5 -7 -27 -15 -47 -16 -32 -3
-41 -9 -56 -37 -11 -21 -31 -39 -48 -44 -16 -6 -38 -16 -49 -23 -18 -13 -15
-14 27 -14 58 0 78 -8 71 -26 -3 -8 1 -14 11 -14 26 0 143 -56 152 -73 5 -8
24 -17 42 -19 29 -3 35 2 58 40 l26 44 -23 -3 c-36 -4 -69 10 -78 34 -14 36
-3 46 44 42 50 -4 85 -20 85 -39 0 -8 11 -16 25 -18 21 -4 25 -1 25 19 0 13
-4 22 -9 19 -5 -3 -14 1 -21 9 -7 8 -9 15 -4 15 4 0 0 6 -10 13 -10 8 -20 24
-21 38 -1 13 -3 30 -4 37 0 7 -14 12 -32 12 -17 0 -37 7 -45 15 -15 15 -49 18
-89 8z"/>
<path d="M8530 4170 c0 -11 -10 -28 -21 -38 -12 -9 -29 -25 -38 -34 -8 -10
-22 -18 -29 -18 -10 0 -13 -8 -9 -26 3 -16 0 -28 -9 -31 -23 -9 -17 -36 6 -30
11 3 18 1 15 -3 -3 -5 -7 -38 -10 -74 -9 -128 -47 -239 -86 -251 -10 -4 -19
-11 -19 -16 0 -6 -4 -8 -9 -5 -4 3 -54 7 -110 8 -118 2 -120 1 -148 -97 -17
-59 -17 -60 -24 -27 -4 19 -1 52 6 77 13 40 12 43 -6 48 -10 3 -19 1 -19 -4 0
-5 5 -9 10 -9 6 0 10 -4 10 -10 0 -5 -6 -10 -14 -10 -7 0 -19 -7 -26 -15 -7
-8 -16 -12 -21 -9 -5 3 -12 -1 -15 -10 -3 -8 -16 -22 -29 -30 -23 -15 -25 -15
-36 5 -10 19 -8 20 10 14 16 -5 20 -3 15 9 -13 33 -97 1 -86 -32 2 -6 -1 -12
-7 -12 -23 0 -10 -34 27 -70 35 -35 115 -70 162 -70 9 0 29 -13 45 -30 42 -44
117 -55 175 -25 15 8 57 17 93 21 64 6 67 6 106 -26 l41 -32 108 58 c161 85
269 160 348 238 105 106 137 196 95 264 -21 32 -22 32 -51 17 -16 -8 -33 -22
-38 -31 -7 -12 -14 -14 -28 -6 -20 10 -76 21 -131 24 -34 2 -43 12 -20 21 8 4
7 6 -3 6 -9 1 -22 -5 -29 -11 -11 -11 -11 -9 -2 9 6 12 19 26 28 31 14 9 15
14 3 41 -9 23 -16 29 -23 22 -6 -6 -18 -11 -26 -11 -11 0 -10 4 5 15 19 14 18
14 -3 15 -13 0 -23 5 -23 11 0 6 -8 8 -17 5 -10 -2 -41 -7 -70 -11 -46 -6 -52
-4 -58 14 -3 11 -1 29 5 41 9 16 21 20 65 20 29 0 57 5 60 10 3 6 0 10 -8 10
-10 0 -13 7 -10 20 9 34 -21 56 -77 59 -45 2 -50 0 -50 -19z m23 -346 c-15
-40 -23 -50 -46 -52 -20 -3 -27 1 -27 14 0 22 37 81 58 93 29 16 34 -4 15 -55z
m340 11 c19 -5 26 -12 23 -22 -3 -8 -6 -21 -6 -29 0 -9 -4 -13 -8 -10 -5 3
-14 -3 -22 -14 -12 -17 -16 -18 -52 -3 -48 19 -60 11 -19 -13 41 -24 45 -40
21 -89 -24 -51 -71 -99 -145 -150 -54 -37 -56 -37 -101 -25 -31 9 -43 17 -40
26 3 8 1 14 -4 14 -4 0 -11 14 -15 31 -4 17 -16 40 -27 51 -16 16 -22 38 -26
91 -5 66 -4 70 14 62 10 -4 28 -10 39 -12 11 -3 31 -16 45 -29 21 -19 31 -22
55 -16 17 5 47 5 67 2 21 -4 38 -6 38 -4 0 2 -25 15 -55 29 -44 21 -55 31 -55
51 0 13 5 24 10 24 6 0 22 11 35 24 14 14 39 26 57 28 36 3 127 -6 171 -17z
m-839 -407 c-3 -4 -9 -8 -15 -8 -11 0 -12 53 -2 64 9 9 25 -43 17 -56z"/>
<path d="M1590 4164 c0 -26 -19 -44 -46 -44 -12 0 -35 -14 -51 -32 -21 -25
-38 -34 -68 -36 -22 -2 -44 -8 -49 -13 -6 -5 -16 -3 -25 4 -11 9 -13 9 -8 0 5
-8 -6 -16 -34 -23 -40 -11 -40 -12 -23 -31 13 -14 20 -16 30 -8 18 15 33 3 27
-22 -3 -12 -11 -18 -19 -15 -11 4 -11 -1 2 -25 21 -41 31 -139 15 -139 -7 0
-10 -3 -8 -7 3 -5 -1 -14 -9 -21 -8 -7 -14 -10 -14 -7 0 3 -14 -1 -30 -10 -34
-18 -129 -14 -259 9 -42 7 -91 10 -113 6 -21 -4 -38 -3 -38 2 0 5 -5 6 -11 2
-6 -3 -15 0 -20 7 -6 10 -9 11 -9 1 0 -9 -4 -10 -18 -1 -14 9 -27 8 -56 -6
-37 -18 -52 -17 -188 11 -24 6 -27 3 -33 -29 -5 -27 -2 -45 16 -76 12 -23 26
-41 29 -41 10 0 6 -64 -4 -72 -5 -3 15 -32 45 -65 30 -32 63 -70 72 -85 9 -15
44 -40 81 -57 35 -17 69 -38 76 -47 20 -23 66 -44 98 -44 17 0 135 22 263 50
246 52 326 81 362 132 19 26 19 27 -1 110 -35 142 -37 165 -12 178 11 6 36 32
54 57 33 46 33 47 18 82 -11 26 -16 74 -17 169 -1 85 -6 137 -13 144 -9 9 -12
7 -12 -8z"/>
<path d="M8110 3781 c0 -5 -3 -18 -7 -28 -6 -16 -5 -16 10 -4 19 15 23 41 7
41 -5 0 -10 -4 -10 -9z"/>
<path d="M7960 3710 c0 -5 5 -10 10 -10 6 0 10 5 10 10 0 6 -4 10 -10 10 -5 0
-10 -4 -10 -10z"/>
<path d="M6948 1850 c-110 -114 -147 -162 -130 -168 21 -7 13 -22 -13 -22 -32
0 -55 -41 -36 -64 7 -9 23 -18 34 -22 12 -4 33 -15 46 -25 27 -21 41 -24 41
-8 0 6 10 19 23 30 12 10 16 18 10 19 -7 0 -13 4 -13 9 0 5 11 8 24 7 20 -1
22 -4 15 -18 -8 -15 -6 -18 13 -18 21 0 21 0 2 -15 -17 -13 -17 -14 -2 -15 20
0 20 1 41 155 9 61 12 112 7 115 -8 5 -10 90 -3 90 2 0 8 -10 14 -22 9 -22 9
-21 6 5 -3 15 -1 27 3 27 4 0 10 7 14 15 11 31 -11 13 -96 -75z m6 -78 c-6 -4
-13 -13 -15 -20 -3 -8 -8 -6 -16 8 -11 16 -10 18 2 14 10 -4 15 0 15 12 0 14
3 15 12 6 9 -9 10 -15 2 -20z m11 -22 c3 -5 1 -10 -4 -10 -6 0 -11 5 -11 10 0
6 2 10 4 10 3 0 8 -4 11 -10z m-30 -30 c8 0 19 -8 24 -18 8 -14 5 -18 -11 -19
-17 -2 -18 0 -6 14 11 15 11 16 -4 10 -10 -3 -18 -5 -18 -3 0 3 -2 10 -3 18
-2 7 -2 10 0 6 3 -5 11 -8 18 -8z m12 -92 c-3 -8 -6 -5 -6 6 -1 11 2 17 5 13
3 -3 4 -12 1 -19z"/>
<path d="M5396 1879 c-3 -13 -12 -94 -21 -179 -9 -85 -19 -173 -22 -195 -3
-22 -3 -37 1 -34 3 3 13 64 21 135 8 71 19 165 24 209 9 77 7 112 -3 64z"/>
<path d="M5440 1858 c-2 -9 -40 -374 -40 -380 0 -3 13 -11 30 -16 57 -20 117
-70 139 -116 19 -39 21 -58 19 -177 -3 -130 -4 -134 -26 -137 -12 -2 -36 4
-54 12 -17 9 -39 16 -49 16 -10 0 -22 6 -26 13 -4 6 -32 27 -61 45 l-54 32 7
-42 c4 -24 15 -65 24 -92 16 -49 18 -50 121 -103 127 -65 173 -74 214 -42 27
22 28 24 21 93 -3 39 -1 112 5 161 28 221 6 323 -85 387 l-47 33 5 68 c2 37 7
70 10 73 10 10 42 -5 162 -76 64 -39 118 -70 120 -70 3 0 19 92 20 113 0 4
-36 23 -80 41 -44 18 -114 51 -155 74 -82 45 -219 100 -220 90z m71 -878 c27
-15 25 -40 -3 -37 -14 1 -22 -3 -20 -10 2 -15 -7 -16 -26 -4 -10 6 -11 13 -1
34 13 30 21 32 50 17z"/>
<path d="M7011 1834 c0 -11 3 -14 6 -6 3 7 2 16 -1 19 -3 4 -6 -2 -5 -13z"/>
<path d="M6445 1570 c-3 -5 -2 -10 4 -10 5 0 13 5 16 10 3 6 2 10 -4 10 -5 0
-13 -4 -16 -10z"/>
<path d="M5895 1500 c-3 -5 -1 -10 4 -10 6 0 11 5 11 10 0 6 -2 10 -4 10 -3 0
-8 -4 -11 -10z"/>
<path d="M6450 1499 c0 -5 5 -7 10 -4 6 3 10 8 10 11 0 2 -4 4 -10 4 -5 0 -10
-5 -10 -11z"/>
<path d="M5700 1470 c6 -11 13 -20 16 -20 2 0 0 9 -6 20 -6 11 -13 20 -16 20
-2 0 0 -9 6 -20z"/>
<path d="M6478 1483 c6 -2 18 -2 25 0 6 3 1 5 -13 5 -14 0 -19 -2 -12 -5z"/>
<path d="M5735 1390 c2 -14 5 -74 6 -135 1 -91 3 -101 9 -60 9 59 3 166 -11
198 -9 21 -9 21 -4 -3z"/>
<path d="M5534 1339 c24 -42 26 -55 24 -150 -1 -57 -6 -110 -12 -118 -9 -11
-8 -13 4 -9 11 3 17 30 22 109 9 116 1 153 -38 190 l-25 24 25 -46z"/>
<path d="M6690 1359 c0 -51 31 -184 48 -202 9 -10 29 -25 44 -33 25 -13 26
-16 16 -51 -5 -21 -15 -44 -21 -51 -13 -17 -14 -111 -1 -135 8 -14 25 4 103
108 106 142 168 235 187 282 17 41 17 43 -1 43 -8 0 -15 -4 -15 -9 0 -5 -12
-7 -27 -4 -16 3 -33 6 -40 6 -7 0 -14 6 -17 14 -6 15 -36 18 -36 4 0 -5 -13
-4 -30 2 -44 16 -65 -8 -66 -76 -1 -72 -3 -81 -11 -73 -4 4 -8 24 -9 44 -1 20
-2 44 -3 53 -2 23 -38 58 -69 65 -15 4 -33 13 -39 22 -11 14 -13 13 -13 -9z"/>
<path d="M6245 1270 c-3 -11 -31 -41 -61 -68 -70 -59 -91 -95 -105 -168 -6
-32 -28 -106 -50 -163 -21 -57 -39 -115 -39 -130 1 -37 13 -14 50 95 17 49 35
98 40 109 5 11 11 36 13 56 5 42 23 79 39 79 6 0 8 -3 5 -6 -7 -8 42 -54 57
-54 5 0 7 -3 3 -6 -7 -8 17 -34 32 -34 21 0 21 -42 2 -124 -11 -47 -28 -102
-37 -123 -22 -50 -24 -61 -14 -87 9 -21 9 -21 9 2 1 13 7 35 15 51 8 15 24 65
36 111 29 115 50 151 117 202 45 34 59 51 61 73 2 27 1 28 -11 13 -13 -16 -14
-16 -29 0 -8 9 -24 25 -34 34 -10 9 -24 22 -31 28 -6 7 -23 22 -37 35 -22 20
-25 30 -20 60 6 38 -1 47 -11 15z"/>
<path d="M5273 1205 c-3 -9 -3 -18 -1 -21 3 -3 8 4 11 16 6 23 -1 27 -10 5z"/>
<path d="M6586 930 c-18 -6 -18 -7 4 -13 29 -8 23 -16 -16 -21 -16 -3 -40 -7
-52 -10 -19 -4 -23 -2 -18 11 6 14 4 14 -10 2 -15 -12 -14 -15 10 -36 15 -13
23 -23 18 -23 -5 0 -15 7 -22 15 -7 8 -17 15 -23 15 -6 0 -8 -3 -5 -6 4 -3 1
-20 -6 -37 -13 -33 -15 -82 -3 -93 4 -4 15 -1 24 7 10 7 15 9 10 4 -4 -4 -1
-15 7 -24 17 -19 46 -124 47 -172 1 -19 4 -45 8 -59 7 -23 9 -22 35 29 16 30
52 87 82 126 30 39 63 97 73 128 l20 56 -37 29 c-47 37 -78 53 -86 45 -3 -3
-6 -1 -6 5 0 17 -32 30 -54 22z m-6 -60 c0 -5 -4 -10 -10 -10 -5 0 -10 5 -10
10 0 6 5 10 10 10 6 0 10 -4 10 -10z"/>
<path d="M6530 909 c0 -5 5 -7 10 -4 6 3 10 8 10 11 0 2 -4 4 -10 4 -5 0 -10
-5 -10 -11z"/>
<path d="M5670 819 c-13 -6 -36 -7 -50 -4 -19 4 -21 3 -10 -5 20 -13 39 -12
75 5 34 15 23 19 -15 4z"/>
<path d="M4983 702 c-26 -20 -83 -91 -83 -103 0 -25 43 -29 152 -13 62 9 142
16 178 16 81 1 217 -26 294 -59 64 -27 127 -29 71 -3 -16 8 -57 33 -90 55 -80
54 -147 69 -310 67 -137 -2 -182 7 -187 39 -3 17 -4 17 -25 1z"/>
<path d="M6031 620 c-8 -26 -27 -52 -57 -77 -137 -114 -149 -131 -172 -239 -6
-28 -27 -86 -47 -129 -56 -124 -74 -198 -40 -166 9 7 28 15 90 36 11 3 4 -3
-15 -15 -19 -12 -28 -19 -19 -16 9 2 22 -1 28 -7 10 -9 12 -9 9 2 -2 8 6 16
17 18 16 3 17 2 5 -6 -13 -10 -13 -11 0 -11 8 0 31 -3 50 -6 35 -6 36 -5 62
53 15 32 39 98 53 146 28 94 62 144 104 152 52 10 131 117 131 176 0 22 -2 22
-16 -8 -16 -31 -34 -44 -34 -23 0 5 -16 12 -35 16 -19 3 -35 10 -35 15 0 5 -9
9 -19 9 -34 0 -48 24 -44 74 5 56 0 59 -16 6z m-155 -259 c-3 -5 8 -11 25 -15
17 -3 28 -10 24 -16 -3 -5 1 -10 10 -10 10 0 13 -5 9 -12 -5 -8 0 -9 15 -5 18
4 20 3 10 -9 -10 -12 -9 -13 5 -8 14 5 16 1 11 -27 -13 -76 -29 -110 -56 -125
-38 -19 -55 -19 -39 1 11 14 10 14 -15 5 -15 -6 -30 -8 -33 -5 -3 2 6 9 19 14
32 13 8 14 -28 1 l-28 -10 25 20 c30 24 24 25 -25 4 -27 -11 -35 -12 -29 -2 5
7 9 15 10 18 0 3 6 19 13 35 7 17 15 46 18 65 3 19 10 41 16 48 5 6 6 12 2 12
-4 0 -2 7 5 15 13 16 45 21 36 6z m-76 -251 c-8 -6 -22 -10 -30 -10 -8 0 -4 6
10 13 27 15 44 12 20 -3z m145 12 c-13 -11 -102 -46 -92 -36 9 9 79 42 92 43
6 1 6 -2 0 -7z m-110 -22 c-22 -10 -45 -19 -52 -19 -6 -1 -15 -6 -18 -11 -4
-7 3 -9 22 -4 25 5 24 4 -9 -15 -37 -21 -80 -30 -46 -10 9 5 15 16 12 23 -3 9
13 20 48 33 67 26 96 28 43 3z m85 -20 c-8 -5 -22 -9 -30 -9 -10 0 -8 3 5 9
27 12 43 12 25 0z m-60 -20 c-8 -5 -19 -10 -25 -10 -5 0 -3 5 5 10 8 5 20 10
25 10 6 0 3 -5 -5 -10z"/>
<path d="M5810 190 c-9 -6 -10 -10 -3 -10 6 0 15 5 18 10 8 12 4 12 -15 0z"/>
<path d="M6410 438 c0 -4 -9 -9 -19 -13 -11 -3 -28 -23 -39 -45 -19 -38 -19
-38 2 -49 24 -12 138 -33 158 -29 40 9 53 92 18 123 -20 18 -120 29 -120 13z"/>
<path d="M3890 331 c0 -22 -13 -22 -16 0 -3 22 -5 23 -14 9 -6 -10 -10 -11
-10 -2 0 6 -7 12 -16 12 -12 0 -15 -6 -11 -22 5 -20 4 -21 -6 -6 -10 12 -17
14 -31 6 -14 -8 -21 -7 -27 3 -8 13 -13 5 -10 -15 1 -5 -4 -4 -12 2 -8 7 -16
9 -19 6 -3 -2 -18 -7 -34 -10 -16 -3 -30 -9 -32 -15 -2 -5 -12 -9 -22 -9 -27
0 -70 -21 -64 -31 3 -5 1 -9 -5 -9 -5 0 -11 5 -13 11 -3 8 -9 6 -20 -4 -8 -9
-18 -13 -22 -10 -3 4 -6 2 -6 -3 0 -6 -19 -10 -42 -11 -23 -1 -44 -6 -46 -12
-3 -9 -8 -8 -20 1 -12 10 -16 10 -19 1 -8 -23 -21 -14 -16 10 5 22 5 22 -11 2
-12 -14 -14 -15 -10 -4 3 10 0 20 -6 24 -7 4 -14 -2 -17 -14 -3 -12 -9 -21
-15 -21 -5 0 -4 9 2 20 10 19 8 21 -24 18 -20 -1 -36 -6 -36 -11 0 -5 -7 -7
-14 -4 -11 4 -13 1 -9 -11 5 -14 4 -15 -8 -6 -20 15 -99 -2 -99 -22 0 -9 -5
-12 -12 -8 -7 4 -2 -4 11 -19 25 -27 74 -42 179 -52 49 -5 62 -3 56 6 -5 9 -2
10 12 5 27 -12 94 -17 107 -9 6 4 27 8 47 10 19 2 45 14 57 25 13 12 23 16 23
10 0 -11 30 -5 40 8 13 16 81 51 89 46 5 -3 14 1 20 8 10 12 97 40 126 41 6 0
20 15 33 33 12 17 29 32 37 32 7 0 16 4 19 8 3 5 -11 8 -29 8 -30 -1 -35 -4
-35 -25z"/>
<path d="M6190 340 c0 -5 5 -10 11 -10 5 0 7 5 4 10 -3 6 -8 10 -11 10 -2 0
-4 -4 -4 -10z"/>
<path d="M6261 246 c-8 -9 -10 -23 -6 -33 6 -16 8 -15 16 6 13 32 7 47 -10 27z"/>
<path d="M4695 200 c-197 -63 -535 -187 -535 -197 0 -7 154 7 191 17 48 14
116 12 122 -2 4 -10 6 -10 6 0 1 16 38 16 43 0 3 -9 98 -13 389 -16 212 -2
394 -3 404 0 15 3 2 16 -55 54 -218 148 -402 195 -565 144z"/>
<path d="M2930 172 c0 -14 35 -42 53 -42 20 0 22 21 5 38 -14 14 -58 16 -58 4z"/>
<path d="M6355 124 c-8 -9 -24 -33 -35 -54 -11 -21 -25 -40 -32 -42 -20 -7 2
-28 25 -24 12 3 28 5 35 5 7 1 12 15 12 34 1 17 7 43 15 57 24 42 12 56 -20
24z"/>
</g>
</svg>
