<?xml version="1.0" standalone="no"?>
<!DOCTYPE svg PUBLIC "-//W3C//DTD SVG 20010904//EN"
 "http://www.w3.org/TR/2001/REC-SVG-20010904/DTD/svg10.dtd">
<svg version="1.0" xmlns="http://www.w3.org/2000/svg"
 width="1992.000000pt" height="2540.000000pt" viewBox="0 0 1992.000000 2540.000000"
 preserveAspectRatio="xMidYMid meet">

<g transform="translate(0.000000,2540.000000) scale(0.100000,-0.100000)"
fill="#000000" stroke="none">
<path d="M3216 25216 c4 -11 0 -13 -15 -9 -12 3 -21 1 -21 -5 0 -13 -88 -75
-107 -75 -7 0 -13 -5 -13 -10 0 -5 -7 -7 -15 -3 -8 3 -14 0 -12 -7 1 -7 -4
-11 -11 -9 -8 1 -11 -2 -8 -7 4 -5 2 -12 -4 -16 -5 -3 -17 -22 -26 -41 -9 -19
-29 -41 -44 -49 -30 -16 -74 -59 -93 -92 -7 -11 -20 -32 -30 -45 -15 -21 -16
-30 -6 -51 7 -15 16 -24 22 -20 6 3 7 1 3 -6 -4 -6 -10 -10 -14 -8 -13 8 -107
-49 -104 -62 4 -19 -17 -41 -34 -34 -8 3 -14 1 -14 -4 0 -12 -115 -93 -133
-93 -16 0 -72 -61 -93 -102 -8 -15 -19 -28 -24 -28 -5 0 -12 -10 -16 -22 -4
-13 -23 -48 -43 -78 -40 -60 -68 -136 -70 -190 l-2 -35 38 35 c90 83 133 125
133 131 0 3 20 29 45 56 54 60 132 114 198 138 39 15 69 41 152 129 133 143
190 214 288 361 112 169 147 243 117 246 -20 3 -25 4 -37 12 -9 5 -11 3 -7 -7z
m-300 -404 c-7 -21 -35 -26 -32 -5 2 15 27 35 34 28 2 -2 1 -12 -2 -23z"/>
<path d="M3379 24823 c-13 -16 -12 -17 4 -4 9 7 17 15 17 17 0 8 -8 3 -21 -13z"/>
<path d="M3641 24780 l-43 -39 17 -45 17 -45 36 29 c39 32 103 121 95 132 -2
5 -21 8 -41 8 -29 0 -47 -9 -81 -40z"/>
<path d="M3400 24795 c5 -7 7 -14 4 -18 -3 -3 5 -3 18 1 18 5 19 7 5 10 -9 2
-15 7 -13 11 3 4 -1 8 -9 8 -10 0 -12 -4 -5 -12z"/>
<path d="M3500 24540 c0 -5 -5 -10 -10 -10 -6 0 -27 -11 -48 -24 -20 -14 -68
-33 -105 -43 -61 -16 -71 -22 -87 -53 -29 -56 -207 -229 -229 -222 -6 2 -11
-1 -11 -7 0 -6 -5 -11 -11 -11 -7 0 -21 -10 -33 -22 -12 -13 -45 -44 -73 -70
-27 -25 -53 -53 -56 -62 -4 -9 -12 -13 -20 -10 -7 2 -22 -4 -32 -16 -10 -11
-22 -20 -26 -20 -4 0 -32 -25 -61 -56 -52 -55 -128 -105 -128 -84 0 6 -5 8
-10 5 -6 -4 -8 -15 -5 -25 4 -14 -8 -26 -52 -54 -113 -69 -165 -127 -169 -188
-2 -16 -7 -35 -13 -42 -6 -7 -8 -16 -4 -19 3 -4 -1 -7 -10 -7 -10 0 -17 -8
-17 -20 0 -11 -4 -20 -9 -20 -5 0 -9 -12 -9 -28 1 -15 -9 -49 -21 -76 -12 -27
-19 -51 -16 -54 2 -2 -2 -14 -10 -26 -20 -28 -19 -56 3 -56 15 0 15 2 2 11
-11 8 -7 9 16 4 21 -4 35 -1 43 9 7 8 30 18 53 21 31 6 54 21 102 69 79 78
130 117 173 135 18 7 33 17 33 22 0 5 16 26 35 48 19 21 35 43 35 48 0 20 39
46 60 40 18 -5 21 -2 18 21 -2 21 1 27 15 26 13 -2 18 4 16 20 -3 25 26 80 63
118 14 15 35 42 47 60 22 37 122 135 250 249 94 82 310 313 349 372 21 32 23
40 11 48 -19 12 -49 11 -49 -1z"/>
<path d="M2740 24244 c-13 -13 -31 -26 -41 -29 -9 -3 -20 -12 -23 -20 -5 -13
-1 -13 26 1 17 9 40 24 51 35 11 10 23 16 27 14 5 -3 10 1 13 8 9 23 -30 17
-53 -9z"/>
<path d="M2590 23914 c-38 -37 -36 -51 6 -37 36 12 60 46 42 60 -10 8 -22 2
-48 -23z"/>
<path d="M2240 23774 c0 -7 27 -34 34 -34 13 0 5 16 -14 28 -11 7 -20 10 -20
6z"/>
<path d="M2224 23715 c-19 -46 -13 -54 15 -19 23 30 26 40 11 49 -6 4 -17 -10
-26 -30z"/>
<path d="M3286 23709 c2 -4 -4 -10 -13 -12 -15 -4 -15 -5 -2 -6 9 0 22 5 28
12 8 10 7 14 -4 14 -8 0 -12 -4 -9 -8z"/>
<path d="M3320 23641 c0 -5 -22 -23 -49 -40 -37 -24 -56 -30 -75 -25 -14 3
-26 11 -26 18 0 6 -4 18 -10 26 -7 11 -18 5 -54 -33 -25 -26 -46 -52 -46 -58
0 -7 -34 -44 -75 -84 -53 -50 -88 -76 -118 -84 -119 -34 -347 -161 -347 -193
0 -5 -10 -19 -21 -31 -12 -12 -27 -36 -35 -54 -7 -17 -27 -41 -44 -53 -39 -28
-96 -116 -104 -160 -5 -30 -15 -41 -62 -70 -35 -21 -70 -34 -93 -34 -29 -1
-46 -10 -88 -51 -31 -28 -53 -58 -53 -70 0 -11 -7 -31 -16 -43 -8 -12 -13 -32
-11 -45 4 -19 4 -18 6 5 1 29 16 45 26 28 4 -6 11 -8 16 -5 5 4 9 -2 9 -12 0
-14 2 -15 9 -4 13 21 30 4 27 -27 -1 -18 -7 -27 -18 -26 -9 1 -14 -4 -12 -10
2 -6 -21 -38 -52 -71 -31 -33 -72 -79 -91 -103 -31 -37 -34 -44 -22 -59 12
-14 12 -16 0 -9 -22 14 -85 -61 -86 -104 -2 -29 -6 -35 -24 -34 -11 1 -21 -3
-21 -7 0 -5 7 -9 15 -9 20 0 19 -14 -2 -31 -9 -8 -14 -9 -10 -3 4 7 0 17 -7
23 -12 10 -14 7 -11 -14 1 -18 -1 -23 -8 -16 -7 7 -16 2 -29 -15 -15 -18 -19
-37 -17 -77 1 -29 0 -57 -3 -63 -3 -5 -6 -27 -6 -48 -2 -48 -19 -102 -41 -127
-9 -11 -14 -32 -13 -49 3 -25 -1 -32 -25 -41 -15 -6 -36 -12 -46 -14 -52 -11
-64 -22 -68 -60 0 -5 -6 -17 -14 -25 -7 -8 -29 -50 -49 -92 -20 -42 -49 -91
-66 -109 -16 -19 -30 -37 -30 -42 0 -5 -13 -29 -30 -53 -39 -59 -64 -122 -85
-219 -10 -44 -20 -87 -23 -95 -7 -21 -10 -32 -16 -56 -2 -12 -9 -39 -15 -60
-6 -22 -11 -50 -11 -64 0 -14 -7 -38 -15 -54 -8 -15 -15 -40 -15 -55 0 -15 -6
-33 -12 -40 -10 -11 -10 -14 0 -18 7 -3 12 -23 12 -50 0 -37 -3 -44 -16 -39
-12 5 -15 2 -9 -11 16 -39 18 -56 7 -49 -8 5 -10 2 -6 -8 4 -11 0 -16 -10 -16
-9 0 -16 -5 -16 -11 0 -6 -7 -17 -14 -25 -10 -10 -15 -34 -14 -72 1 -39 -5
-71 -19 -102 -23 -50 -37 -98 -34 -117 1 -7 -6 -24 -15 -38 -9 -14 -12 -25 -6
-25 6 0 9 -8 7 -17 -2 -10 -4 -27 -5 -38 -1 -18 -3 -17 -12 5 -9 21 -12 22
-15 8 -7 -28 -16 -21 -41 28 -33 65 -38 144 -13 229 17 60 20 89 8 74 -2 -2
-56 -145 -121 -317 -64 -173 -193 -555 -286 -850 l-169 -537 -55 -390 c-30
-214 -60 -448 -66 -520 -21 -245 -47 -406 -78 -485 -60 -152 -81 -235 -93
-355 -20 -205 -7 -390 37 -520 13 -38 35 -126 48 -195 31 -153 76 -296 119
-374 l33 -59 320 -177 c175 -97 400 -231 499 -297 100 -66 199 -130 221 -141
50 -25 75 -55 165 -194 56 -87 85 -120 156 -179 172 -142 244 -181 418 -227
l70 -19 84 -114 c239 -326 343 -535 436 -875 26 -93 88 -295 140 -449 110
-328 172 -601 205 -894 30 -273 57 -366 166 -586 83 -167 86 -181 139 -565 65
-466 216 -1329 241 -1374 28 -49 32 -141 18 -486 -7 -184 -18 -497 -24 -695
-6 -198 -17 -517 -25 -710 -8 -192 -24 -573 -35 -845 -11 -272 -27 -648 -35
-835 -9 -187 -16 -438 -16 -557 1 -158 -8 -339 -33 -665 -59 -767 -60 -771
-46 -883 14 -129 32 -176 27 -72 -4 64 -3 70 10 55 10 -13 16 -15 19 -5 9 19
24 14 24 -8 0 -11 -3 -20 -7 -20 -5 0 -9 -19 -10 -42 -7 -157 -7 -188 0 -188
4 0 6 -4 3 -9 -3 -5 -3 -44 1 -87 4 -44 9 -70 11 -59 7 34 32 63 60 68 26 5
28 8 30 74 2 37 9 74 15 82 9 12 9 13 -1 7 -14 -8 -16 7 -3 32 5 9 15 62 21
117 13 107 38 215 51 215 5 0 6 7 3 15 -4 8 -1 15 5 15 6 0 10 12 9 28 -2 26
17 97 32 117 9 13 24 67 21 81 0 6 5 17 13 23 12 10 13 6 5 -26 -5 -21 -8 -49
-8 -63 0 -24 0 -24 14 -6 14 19 15 19 15 1 0 -22 13 -12 16 13 2 9 6 29 9 44
5 19 1 32 -14 47 -18 18 -19 23 -7 38 8 10 30 38 48 62 39 52 54 60 63 31 3
-11 11 -18 16 -15 5 4 9 1 9 -5 0 -6 6 -10 13 -9 6 2 27 -1 45 -5 28 -7 38 -4
58 15 13 12 24 18 25 13 0 -5 7 5 14 21 10 20 14 24 15 12 0 -10 4 -16 9 -13
5 4 11 1 13 -6 4 -10 27 22 73 101 6 10 18 25 27 34 16 16 19 16 55 -4 21 -11
50 -32 64 -45 14 -13 28 -21 32 -18 3 3 38 -19 77 -49 39 -31 77 -54 85 -51 7
3 45 -15 84 -41 39 -26 99 -57 133 -71 61 -23 128 -74 128 -96 0 -6 8 -4 18 5
28 26 88 3 119 -45 14 -21 29 -35 34 -32 8 5 13 -10 10 -29 -1 -5 3 -6 9 -2 6
3 8 11 4 16 -3 6 3 5 15 -3 12 -7 21 -18 21 -25 0 -7 5 -13 11 -13 6 0 25 -11
42 -23 27 -20 42 -23 97 -21 36 1 82 10 104 19 37 16 40 16 87 -8 27 -13 49
-20 49 -15 0 4 4 8 10 8 5 0 7 -6 4 -14 -9 -23 51 -49 95 -42 20 4 68 9 108
12 70 6 75 5 178 -41 104 -47 108 -48 168 -39 103 15 306 9 351 -10 22 -9 48
-14 59 -10 13 4 17 2 12 -5 -4 -7 -2 -17 4 -24 5 -7 13 -28 16 -47 3 -19 10
-37 16 -38 5 -2 6 -9 3 -14 -4 -6 -2 -8 4 -4 6 3 14 1 18 -5 4 -8 9 -7 15 2 6
10 9 11 9 2 0 -7 5 -13 11 -13 6 0 8 7 5 16 -4 12 -2 15 9 10 8 -3 14 -2 12 2
-3 12 32 56 39 49 4 -4 15 3 25 14 17 19 28 21 134 20 138 -2 183 -14 204 -56
50 -98 76 -119 164 -130 29 -4 52 3 104 31 38 20 76 42 85 51 9 8 22 12 27 8
6 -3 11 -2 11 3 0 5 6 9 13 9 6 1 36 6 66 12 68 14 86 8 133 -40 21 -22 44
-39 51 -39 8 0 24 -11 36 -24 23 -24 46 -27 111 -12 14 3 65 8 114 11 l90 4
15 34 c19 39 61 83 62 65 0 -7 5 -3 11 10 12 24 41 31 32 8 -4 -11 0 -13 18
-9 13 3 29 10 36 16 7 6 40 11 74 11 59 1 63 0 84 -32 13 -18 24 -38 26 -44 4
-11 227 6 283 22 17 5 48 10 70 12 22 1 47 5 55 9 65 29 72 31 182 45 45 6 47
6 76 -34 20 -29 32 -38 40 -30 16 16 30 2 62 -65 19 -39 30 -54 30 -40 0 22 0
22 28 -4 15 -14 26 -30 24 -35 -1 -5 2 -7 8 -3 5 3 10 0 10 -7 1 -7 8 1 17 17
18 33 27 192 12 211 -14 17 38 34 98 33 29 -1 65 3 80 9 112 40 166 45 188 16
8 -11 15 -14 15 -7 0 7 3 12 8 11 10 -3 72 26 72 34 0 3 14 10 32 13 17 4 45
15 62 25 17 9 42 19 56 23 127 29 235 81 359 173 52 38 98 82 112 105 13 22
47 68 75 102 28 34 58 78 66 97 37 81 41 72 -109 271 -76 101 -164 223 -196
270 -122 183 -273 552 -307 747 -75 436 -77 470 -36 576 31 83 55 171 66 246
7 52 -13 564 -41 1055 -12 193 -10 253 14 740 15 292 29 563 32 603 3 40 -2
134 -11 210 -17 148 -15 203 16 427 11 77 31 221 45 321 26 187 49 314 85 469
12 50 66 313 120 585 93 464 109 564 255 1590 113 792 161 1103 174 1125 28
50 99 89 222 123 63 18 269 82 459 143 190 61 353 114 363 116 10 3 44 -12 85
-39 86 -58 120 -75 205 -104 l69 -23 -16 24 c-9 13 -12 26 -7 30 6 3 17 -8 27
-23 15 -26 22 -29 60 -27 51 2 94 36 330 261 202 192 188 183 281 190 43 3
314 44 603 90 1650 266 1713 275 1880 279 280 7 720 98 720 149 0 52 189 134
405 176 243 47 287 60 341 100 101 76 181 188 315 441 118 225 173 316 269
449 140 196 328 515 477 815 44 88 180 327 302 530 122 204 245 415 272 470
47 95 50 106 59 211 11 142 30 214 138 524 242 693 354 934 539 1167 54 68
187 203 376 382 102 97 197 268 332 596 32 77 99 228 151 335 51 107 100 222
108 255 12 49 36 210 36 250 0 6 -14 16 -30 24 -37 16 -72 5 -116 -39 -44 -42
-54 -57 -54 -78 0 -10 -5 -23 -12 -30 -7 -7 -12 -24 -13 -40 0 -16 -6 -26 -13
-24 -7 1 -18 -10 -24 -25 -7 -16 -18 -36 -27 -46 -11 -13 -12 -24 -4 -51 8
-25 7 -39 -4 -59 -7 -15 -18 -27 -23 -27 -6 0 -10 -6 -10 -13 0 -7 -7 -23 -16
-36 l-17 -24 -13 24 c-12 22 -13 19 -7 -27 5 -44 3 -53 -15 -65 -37 -27 -104
-173 -116 -256 -2 -13 -8 -28 -13 -35 -6 -7 -9 -21 -8 -30 4 -22 -13 -23 -43
-2 -32 22 -30 -5 3 -36 14 -13 25 -26 25 -30 0 -13 -41 -50 -50 -45 -4 3 -46
-31 -92 -76 -45 -45 -100 -95 -121 -111 -20 -16 -35 -34 -31 -39 7 -11 -43
-31 -70 -27 -12 1 -27 -1 -33 -5 -7 -5 -13 -5 -13 -1 0 3 -7 1 -15 -6 -8 -7
-15 -10 -15 -6 0 4 -12 0 -27 -7 -38 -19 -107 -32 -98 -18 4 7 -3 11 -17 11
-19 0 -20 -2 -8 -11 12 -8 12 -10 1 -7 -8 2 -22 18 -31 36 -10 17 -20 29 -24
25 -3 -3 -6 1 -6 11 0 9 4 15 9 12 11 -7 8 20 -3 31 -4 4 -6 3 -4 -2 2 -6 -2
-10 -7 -10 -5 0 -9 5 -7 10 1 6 -9 -3 -23 -18 -24 -27 -52 -28 -41 -2 5 14
-11 15 -31 2 -8 -5 -20 4 -33 25 -18 30 -20 31 -20 10 0 -14 -4 -21 -11 -17
-6 4 -8 13 -5 21 7 19 -1 18 -31 -6 -32 -25 -52 -26 -30 -2 13 14 14 21 5 30
-8 8 -8 19 0 39 17 46 34 142 27 153 -12 20 -15 82 -5 95 8 10 3 12 -26 8 -32
-4 -35 -3 -26 13 7 13 6 22 -5 32 -12 13 -12 17 3 33 15 17 18 17 40 2 23 -14
23 -17 10 -38 -14 -22 -14 -23 12 -31 48 -13 51 -12 58 8 3 11 15 29 25 39 10
10 19 26 19 34 0 10 7 15 18 13 9 -2 16 2 15 8 -1 6 -5 24 -8 40 -17 79 -18
124 -1 130 9 3 16 17 16 31 0 16 4 22 13 17 10 -6 10 -4 0 7 -7 7 -13 22 -13
33 0 17 2 18 10 6 8 -12 10 -10 10 8 0 13 -4 21 -9 18 -10 -7 -25 24 -16 33 3
3 10 -1 15 -9 7 -11 10 -12 10 -2 0 7 5 10 10 7 6 -3 10 -20 10 -37 0 -27 2
-29 17 -17 9 8 14 9 10 2 -4 -7 7 -20 28 -33 19 -12 35 -26 35 -31 0 -4 8 -5
17 -2 12 5 15 2 11 -9 -4 -8 -1 -15 7 -15 10 0 11 6 3 23 -6 13 -15 21 -19 18
-5 -3 -9 -1 -9 4 0 11 40 23 52 16 4 -3 8 -12 8 -20 0 -8 5 -14 11 -14 6 0 9
-6 6 -12 -2 -7 -10 -12 -16 -11 -6 2 -11 -2 -11 -7 0 -6 8 -10 18 -10 9 0 23
-9 30 -20 15 -24 32 -18 32 12 0 11 8 32 19 46 10 15 22 37 25 50 5 13 12 20
19 15 9 -5 9 -3 2 8 -6 8 -10 28 -9 44 1 17 -3 36 -8 43 -8 8 -6 12 6 12 9 0
16 -7 16 -15 0 -8 14 -28 30 -45 17 -17 49 -69 72 -116 40 -83 54 -102 65 -90
6 5 -4 32 -48 131 -26 59 -33 103 -19 120 7 8 16 12 21 9 5 -3 8 0 7 8 -2 7 4
13 12 13 8 0 21 4 27 8 8 5 24 -5 43 -27 34 -38 59 -50 103 -49 44 2 47 2 47
14 0 7 12 24 28 38 24 24 27 33 26 89 -1 59 0 62 22 62 17 0 24 6 24 19 0 10
7 24 15 31 8 7 15 21 15 31 0 11 3 19 8 19 9 0 52 -66 52 -80 0 -15 11 -12 26
7 7 11 9 22 3 29 -6 7 10 54 42 130 77 178 89 218 89 299 0 39 -4 75 -9 81
-11 12 -31 105 -31 148 0 40 -39 138 -51 130 -5 -3 -9 2 -9 10 0 24 -77 58
-160 71 -13 2 -29 11 -36 19 -6 9 -16 16 -21 16 -15 0 -66 108 -59 125 4 10
-2 15 -17 15 -20 1 -20 2 -4 11 9 5 17 15 17 20 0 6 -10 3 -22 -5 -20 -14 -24
-12 -72 30 -48 44 -52 46 -99 41 -32 -4 -58 -14 -74 -29 -24 -22 -25 -27 -20
-112 l4 -90 -18 38 c-10 21 -18 41 -17 45 5 16 -14 111 -22 116 -15 9 -12 131
4 170 16 36 42 55 78 55 13 0 18 4 13 8 -6 4 -12 36 -13 71 -3 52 -8 67 -28
86 -13 12 -24 25 -24 29 0 4 -5 12 -10 19 -6 7 -18 23 -28 36 -14 17 -29 24
-62 25 -54 3 -80 -20 -87 -75 -4 -26 -14 -46 -31 -59 -21 -17 -24 -27 -22 -67
3 -76 -5 -177 -16 -195 -15 -24 -15 -78 1 -102 21 -32 25 -59 11 -68 -6 -4
-11 -11 -12 -15 0 -4 -6 -21 -13 -38 -7 -16 -10 -40 -8 -53 3 -16 -2 -28 -19
-39 -13 -8 -24 -21 -24 -29 0 -7 -9 -18 -20 -24 -11 -6 -20 -20 -20 -30 0 -11
-5 -20 -12 -20 -25 0 55 -48 90 -54 73 -13 124 -31 133 -49 6 -10 15 -15 21
-11 7 4 6 9 -3 15 -10 6 -6 9 13 9 49 0 58 9 58 55 0 43 12 65 25 45 12 -19
21 -10 33 35 7 25 17 45 23 45 5 0 7 5 4 10 -3 6 -2 10 2 10 31 0 44 -157 19
-228 -8 -22 -18 -61 -21 -86 -7 -45 -6 -46 50 -105 56 -58 59 -75 15 -68 -22
4 -90 57 -90 71 0 6 -25 38 -55 71 -30 32 -58 68 -61 80 -14 42 -56 37 -68 -9
-9 -36 -75 -57 -97 -30 -6 8 -18 14 -26 14 -7 0 -16 7 -19 15 -4 8 -12 15 -20
15 -7 0 -17 7 -21 15 -8 13 -12 12 -31 -5 -12 -12 -22 -29 -22 -40 0 -10 -8
-21 -19 -25 -24 -7 -44 -80 -29 -108 9 -18 7 -19 -18 -14 -78 15 -102 -49 -40
-104 22 -19 41 -49 52 -82 9 -29 20 -56 25 -61 12 -13 12 -53 0 -58 -5 -1 -12
-19 -15 -38 -5 -26 -4 -31 3 -20 9 13 11 13 11 -2 0 -10 -5 -18 -11 -18 -11 0
-9 -11 7 -75 4 -16 3 -17 -5 -5 -8 11 -11 12 -11 2 0 -7 -4 -11 -9 -8 -4 3
-16 -1 -26 -8 -16 -12 -15 -12 14 -8 23 3 31 1 29 -9 -2 -8 3 -13 10 -11 8 1
11 -2 7 -8 -3 -6 -11 -8 -16 -5 -5 4 -12 -1 -15 -10 -6 -13 -8 -14 -15 -3 -6
9 -9 7 -9 -9 0 -12 -6 -23 -12 -25 -7 -3 -14 -14 -14 -26 -1 -12 -2 -28 -3
-34 -2 -17 -41 30 -41 48 0 17 -16 18 -24 2 -4 -7 -4 -3 -2 10 2 12 0 19 -6
16 -5 -3 -12 3 -15 15 -3 11 -9 18 -15 15 -5 -3 -14 -1 -21 4 -20 16 -158 54
-178 49 -13 -4 -23 2 -31 16 -6 12 -11 24 -10 27 9 27 -29 53 -43 30 -11 -18
-23 -11 -34 21 -14 42 -14 42 9 36 25 -7 70 35 70 65 0 42 -10 47 -69 35 -52
-10 -55 -9 -77 16 -25 29 -40 102 -53 264 -7 75 -15 114 -33 150 -14 27 -24
56 -22 65 1 10 -4 22 -12 29 -8 6 -11 15 -8 20 3 5 0 9 -5 9 -6 0 -10 3 -9 8
3 14 -20 58 -38 72 -17 13 -18 13 -9 0 6 -9 3 -8 -7 2 -9 10 -21 18 -28 18 -6
0 -8 5 -5 10 3 6 -1 10 -10 10 -8 0 -18 7 -21 15 -4 8 -10 12 -15 9 -5 -3 -6
3 -2 12 4 12 3 15 -5 10 -7 -4 -12 -1 -12 6 0 17 -35 48 -54 48 -8 0 -16 4
-18 9 -1 5 -12 11 -22 13 -35 6 -44 -56 -44 -292 0 -118 4 -276 10 -350 5 -74
9 -158 9 -186 -1 -38 4 -57 20 -75 21 -24 39 -60 43 -88 4 -22 24 -25 52 -6
33 22 53 13 52 -22 -1 -16 4 -39 11 -51 6 -12 8 -22 3 -22 -6 0 -12 -11 -14
-25 -4 -21 -3 -23 13 -14 10 5 35 25 56 44 20 18 40 32 44 29 9 -5 91 92 113
134 19 38 33 41 45 10 5 -13 24 -39 43 -60 26 -28 32 -41 26 -57 -4 -12 -14
-21 -22 -21 -22 0 -13 -30 26 -86 18 -27 35 -56 37 -64 8 -32 5 -45 -7 -42 -8
1 -11 -2 -7 -8 4 -6 14 -9 24 -5 12 5 13 3 4 -6 -9 -9 -4 -18 20 -40 17 -16
27 -32 23 -36 -5 -5 -11 -2 -13 5 -3 6 -9 9 -14 6 -6 -3 -3 -16 6 -31 9 -14
14 -27 11 -31 -3 -3 -6 0 -6 7 0 7 -4 9 -10 6 -5 -3 -10 -1 -10 6 0 7 -3 9 -7
6 -3 -4 -14 3 -22 15 -9 13 -26 23 -39 24 -21 1 -21 -1 -7 -23 14 -21 14 -23
0 -23 -9 0 -18 6 -21 13 -5 14 -34 19 -34 7 0 -4 7 -13 15 -20 8 -7 15 -18 15
-24 0 -6 -6 -4 -13 6 -13 16 -92 61 -112 64 -5 0 -16 2 -23 2 -7 1 -10 8 -7
15 4 6 -7 -3 -23 -21 -20 -22 -32 -30 -37 -22 -5 8 -13 6 -28 -7 -11 -10 -17
-13 -14 -6 4 6 3 15 -3 18 -6 4 -9 1 -8 -7 2 -7 -3 -12 -11 -10 -12 3 -12 1
-1 -13 7 -9 9 -15 4 -14 -5 1 -12 0 -16 -1 -5 -1 -14 -3 -20 -4 -7 -1 -13 -10
-13 -22 0 -11 -6 -28 -13 -37 -8 -9 -10 -22 -6 -28 4 -8 3 -9 -5 -5 -9 6 -10
0 -5 -20 5 -17 3 -25 -3 -21 -7 4 -16 -19 -23 -61 -7 -37 -21 -82 -32 -100
l-20 -33 22 -67 c34 -100 63 -152 115 -202 71 -68 77 -86 78 -220 0 -86 -4
-125 -16 -150 -22 -47 -40 -161 -27 -174 7 -7 10 -5 10 5 0 16 46 43 59 35 9
-6 51 48 51 66 0 7 7 21 15 32 8 10 17 38 21 62 6 41 24 63 24 30 0 -8 10 -23
23 -33 19 -16 24 -35 17 -68 -1 -5 -2 -13 -1 -18 3 -17 -22 -97 -30 -97 -5 0
-9 -7 -9 -15 0 -14 -38 -95 -49 -105 -4 -3 -11 -16 -17 -30 -46 -102 -70 -150
-76 -150 -5 0 -8 -8 -8 -18 0 -10 -16 -42 -35 -72 -19 -30 -35 -60 -35 -67 0
-18 -22 -56 -37 -66 -7 -4 -13 -19 -13 -32 0 -13 -4 -26 -9 -29 -5 -3 -12 -22
-15 -41 -4 -19 -10 -35 -15 -35 -13 0 -72 -146 -65 -163 4 -11 1 -17 -8 -17
-13 0 -21 -11 -47 -66 -7 -16 -17 -36 -22 -44 -6 -8 -15 -27 -21 -41 -6 -14
-20 -30 -32 -35 -13 -5 -28 -30 -39 -64 -11 -30 -30 -69 -43 -87 -13 -17 -24
-36 -24 -42 0 -5 -8 -15 -17 -20 -12 -7 -13 -11 -5 -11 10 0 8 -7 -6 -25 -11
-14 -23 -40 -26 -58 -3 -19 -17 -44 -31 -57 -14 -13 -25 -28 -25 -34 -1 -6
-14 -27 -30 -46 -17 -19 -30 -42 -30 -51 0 -11 -8 -16 -24 -16 -29 0 -60 51
-71 114 -4 24 -11 45 -16 49 -5 3 -6 16 -3 29 3 14 2 38 -4 53 -10 30 -1 149
14 186 20 49 -25 -9 -150 -197 -113 -170 -171 -244 -368 -468 -128 -146 -246
-283 -262 -305 -17 -21 -36 -43 -44 -47 -7 -5 -17 -20 -23 -33 -5 -14 -13 -23
-18 -20 -5 3 -25 -18 -44 -47 -20 -30 -43 -59 -51 -66 -9 -8 -16 -20 -16 -27
0 -8 -6 -14 -12 -14 -13 -1 -81 -81 -130 -153 -16 -22 -28 -37 -28 -34 0 4
-101 -100 -223 -231 -343 -363 -314 -342 -597 -442 -96 -34 -195 -70 -220 -80
-80 -33 -373 -61 -725 -70 -501 -13 -636 -27 -919 -94 -180 -43 -310 -58 -465
-55 -138 3 -160 -5 -239 -89 -131 -140 -262 -396 -362 -707 -18 -55 -36 -109
-40 -120 -12 -28 -47 -151 -60 -210 -7 -27 -16 -59 -21 -70 -5 -11 -12 -36
-15 -55 -2 -19 -7 -49 -9 -67 -3 -17 -14 -70 -26 -118 -11 -48 -22 -99 -24
-113 -2 -15 -8 -41 -14 -59 -5 -17 -7 -34 -4 -37 3 -2 1 -11 -3 -18 -5 -7 -9
-26 -10 -43 0 -16 -4 -43 -8 -60 -3 -16 -9 -48 -11 -70 -3 -22 -8 -48 -11 -57
-3 -9 -7 -41 -9 -70 -2 -29 -9 -79 -15 -110 -17 -99 -30 -173 -30 -180 0 -15
-48 -8 -116 17 -72 26 -109 32 -99 15 15 -24 -65 -2 -92 26 -10 9 -27 14 -44
12 -19 -3 -25 0 -22 8 3 8 -6 16 -24 19 -62 14 -66 22 -33 55 12 12 19 24 16
29 -7 11 24 52 35 46 5 -4 6 7 3 25 -6 26 -4 30 14 30 11 0 22 6 24 14 3 12 9
12 46 0 38 -13 46 -13 73 0 16 8 37 12 46 9 12 -5 14 -3 8 6 -5 9 -21 12 -44
8 -23 -3 -44 1 -56 9 -22 17 -59 19 -50 3 5 -7 -3 -9 -21 -7 -15 2 -29 9 -32
17 -3 9 2 11 18 6 19 -6 21 -5 11 13 -6 12 -15 24 -21 27 -13 8 -1 35 15 35
10 0 11 7 5 31 -7 23 -6 31 6 36 7 3 14 11 14 19 0 8 6 14 14 14 20 0 67 26
60 33 -4 3 -20 -1 -36 -9 -21 -11 -33 -13 -41 -5 -7 7 -6 12 5 16 13 5 14 13
7 38 -6 20 -5 33 1 37 6 4 8 15 4 24 -6 15 -3 17 14 12 11 -4 23 -2 27 4 4 6
-4 10 -19 10 -14 0 -26 5 -26 10 0 6 4 10 9 10 5 0 9 10 9 23 1 70 10 131 21
135 8 3 9 8 2 15 -10 14 -3 67 10 67 4 0 5 16 2 35 -3 19 -1 40 4 47 6 7 11
31 11 52 1 22 6 42 11 45 5 3 11 24 14 46 9 67 24 124 36 138 6 8 8 16 6 19
-3 3 8 47 25 97 16 50 30 96 30 102 0 6 6 25 14 42 8 18 16 41 19 52 28 105
121 315 183 412 19 29 34 56 34 59 0 10 81 107 121 144 20 19 57 46 81 58 l43
23 -150 -8 c-245 -13 -254 -12 -336 31 -46 24 -100 43 -146 51 -64 11 -80 19
-127 59 -58 49 -76 56 -76 29 0 -15 -2 -15 -9 -4 -8 12 -12 11 -27 -4 -15 -14
-29 -16 -77 -12 l-60 5 29 -17 c16 -9 37 -20 47 -24 22 -8 21 -36 -2 -66 l-19
-25 -30 26 c-55 46 -161 80 -260 81 -70 2 -102 8 -160 31 -73 28 -74 29 -68
59 9 45 17 49 71 32 27 -8 50 -13 52 -11 2 1 -15 17 -37 35 -22 18 -38 36 -35
41 7 12 -69 39 -170 60 -116 24 -448 61 -543 61 -40 0 -70 3 -68 8 3 5 -19 11
-50 15 -87 10 -119 28 -158 89 -26 40 -56 69 -112 106 -98 66 -112 67 -209 18
-62 -31 -62 -48 -1 -27 28 9 40 8 63 -4 32 -18 63 -41 63 -48 0 -2 -42 -4 -92
-3 -81 0 -100 -3 -148 -27 -59 -29 -106 -69 -158 -135 -40 -51 -66 -108 -88
-196 -13 -54 -23 -73 -49 -93 -17 -13 -37 -24 -42 -24 -6 0 -16 -7 -23 -15
-21 -25 -30 -17 -30 28 0 52 23 143 50 199 25 52 25 51 -7 34 -68 -36 -123
-117 -123 -180 0 -19 -5 -38 -10 -41 -5 -3 -10 -2 -10 2 0 5 -13 23 -29 40
-49 53 -47 96 8 155 29 32 22 46 -16 32 -16 -5 -35 -25 -47 -49 -19 -36 -54
-57 -49 -28 2 9 -11 10 -45 7 -40 -5 -52 -2 -81 20 -41 31 -93 34 -119 8 -10
-10 -29 -39 -41 -65 -30 -61 -73 -88 -145 -88 -48 -1 -60 3 -93 30 -21 17 -44
31 -51 31 -7 0 1 -12 19 -27 17 -15 42 -50 55 -77 16 -35 29 -51 46 -53 13 -2
30 -6 38 -10 20 -8 59 -5 92 9 27 10 88 92 88 118 0 31 42 79 75 86 49 9 73
-3 95 -47 l20 -39 -28 0 c-40 0 -102 -51 -131 -108 -43 -87 -116 -141 -186
-142 -42 0 -50 8 -65 66 -12 47 -16 51 -56 63 -63 19 -79 13 -78 -29 0 -19 13
-105 29 -190 47 -260 45 -330 -12 -446 -33 -67 -51 -84 -138 -127 -139 -69
-220 -78 -465 -51 -80 8 -190 19 -245 24 -336 28 -764 137 -1001 254 -60 30
-149 70 -199 89 -114 44 -319 143 -428 206 -169 97 -360 265 -440 385 -17 27
-40 54 -49 60 -21 13 -103 -7 -171 -41 -54 -27 -68 -25 -112 13 -16 14 -43 36
-58 48 -34 27 -33 28 70 80 39 20 94 41 122 45 28 4 53 10 56 12 9 9 -51 90
-71 95 -22 6 -239 -45 -286 -66 -24 -11 -33 -10 -72 11 -38 20 -48 21 -71 11
-25 -12 -29 -10 -66 30 -42 47 -48 63 -23 72 27 10 52 7 68 -10 15 -14 20 -14
59 4 23 11 62 23 87 27 25 4 74 15 109 26 35 10 79 19 99 19 l35 0 -24 26
c-30 32 -65 27 -128 -17 -42 -29 -48 -31 -105 -24 -101 12 -151 9 -177 -8 -29
-21 -56 -21 -89 -3 -14 8 -53 28 -87 46 -47 23 -84 54 -154 130 -85 91 -102
105 -198 154 -160 82 -254 109 -376 110 -115 0 -166 -12 -367 -87 -86 -32
-133 -54 -125 -59 7 -5 2 -8 -15 -8 -15 0 -39 -5 -55 -11 -15 -6 -46 -14 -68
-18 l-40 -7 35 -17 c19 -9 59 -39 88 -66 48 -46 52 -54 52 -95 0 -60 -8 -76
-37 -76 -17 0 -42 -17 -75 -50 -52 -53 -56 -54 -75 -42 -17 11 71 96 112 109
27 9 30 14 33 60 l3 50 -52 34 c-66 42 -142 68 -199 69 -49 0 -214 -38 -270
-63 -46 -20 -16 -21 59 -3 101 25 175 28 278 11 114 -19 133 -33 133 -100 0
-41 -2 -44 -32 -51 -20 -4 -47 -23 -69 -47 l-36 -41 -53 22 c-28 12 -56 20
-60 17 -5 -3 -48 -10 -97 -16 -48 -6 -113 -14 -142 -17 l-55 -7 55 -28 c69
-36 146 -92 253 -185 51 -45 186 -197 186 -210 0 -5 6 -14 13 -20 11 -9 50
-83 107 -202 9 -19 25 -62 35 -95 10 -33 21 -69 26 -80 15 -39 30 -144 35
-245 5 -109 -16 -255 -40 -275 -6 -5 -13 -23 -14 -38 -2 -35 -10 -49 -23 -42
-5 4 -9 -3 -9 -14 0 -33 -11 -50 -27 -44 -13 5 -15 0 -11 -27 4 -25 1 -34 -13
-37 -10 -3 -20 -19 -24 -39 -3 -19 -10 -34 -15 -34 -5 0 -7 6 -4 14 3 8 1 17
-5 21 -7 4 -11 -7 -11 -29 0 -19 -5 -38 -10 -41 -5 -3 -10 -1 -10 4 0 6 -4 11
-10 11 -5 0 -10 -13 -10 -29 0 -21 -6 -30 -21 -34 -16 -4 -20 -11 -16 -26 3
-13 -4 -27 -19 -40 -13 -12 -24 -30 -24 -41 0 -11 -6 -23 -14 -26 -8 -3 -16
-18 -19 -34 -4 -17 -15 -31 -27 -35 -18 -6 -24 -19 -23 -52 1 -7 -3 -10 -8 -7
-5 3 -9 -2 -9 -10 0 -9 -4 -16 -10 -16 -5 0 -13 -12 -16 -27 -8 -32 -68 -150
-88 -172 -31 -35 -96 -175 -90 -193 3 -11 -1 -27 -9 -36 -8 -9 -22 -35 -31
-56 -25 -61 -77 -86 -106 -51 -9 10 -9 15 -1 15 6 0 11 -4 11 -9 0 -5 11 -8
25 -8 24 0 25 1 10 17 -22 24 -19 53 9 77 13 11 32 43 42 69 10 27 30 68 45
90 16 23 26 44 23 46 -4 4 34 114 56 163 5 11 18 43 30 70 12 28 28 64 36 82
8 17 14 36 14 42 0 6 5 11 10 11 6 0 10 9 10 19 0 11 4 22 9 25 5 3 12 18 16
33 3 16 13 42 20 58 8 17 28 66 45 110 18 44 36 89 41 100 25 57 77 313 82
405 9 140 -51 412 -129 588 -49 112 -199 297 -289 358 -73 50 -150 88 -190 95
-22 4 -60 15 -85 24 -76 29 -111 36 -222 40 -132 5 -180 17 -224 58 -31 28
-36 41 -46 107 -6 48 -7 138 -2 250 8 195 10 567 6 1010 -3 270 -1 311 22 490
66 502 96 890 72 929 -12 18 -8 276 6 422 11 115 10 128 -5 144 -9 9 -21 14
-26 11 -10 -7 -19 30 -13 57 2 9 7 15 11 12 5 -2 8 8 8 23 0 15 3 37 6 50 3
12 2 22 -3 22 -4 0 -2 24 6 53 7 28 14 64 14 79 0 23 20 107 56 238 3 14 13
30 22 37 8 7 12 19 8 28 -3 9 -2 13 4 10 6 -3 11 -1 11 4 3 21 5 26 16 46 13
22 16 16 13 -30 -1 -22 14 0 54 80 30 61 85 164 121 230 135 246 182 353 204
465 12 58 23 123 26 145 2 22 7 56 10 75 3 19 7 85 10 145 6 128 34 262 80
376 16 38 20 60 14 72 -7 12 -3 27 15 54 59 92 135 169 326 331 310 261 364
314 395 377 26 52 28 85 5 85 -5 0 -10 -4 -10 -9z m-1094 -1167 c1 -50 -14
-88 -56 -133 -22 -24 -40 -47 -40 -52 0 -5 -11 -11 -24 -15 -23 -5 -42 -42
-37 -71 1 -7 -5 -13 -14 -13 -8 0 -15 -7 -15 -15 0 -8 -3 -15 -7 -16 -5 0 -18
-2 -29 -5 -16 -3 -26 4 -37 29 -15 30 -15 33 2 42 10 5 16 16 14 23 -3 7 8 25
24 40 16 15 33 38 36 53 7 29 64 99 81 99 6 0 27 16 45 35 38 41 56 41 57 -1z
m17134 -99 c0 -65 -22 -76 -40 -21 -9 29 -8 38 7 55 27 32 33 26 33 -34z m-11
-117 c-1 -35 -2 -38 -8 -18 -7 23 -4 60 5 60 2 0 4 -19 3 -42z m19 -99 c-3
-20 -5 -19 -9 9 -3 20 -2 29 4 23 5 -5 7 -19 5 -32z m-17438 -9 c0 -5 -2 -10
-4 -10 -3 0 -8 5 -11 10 -3 6 -1 10 4 10 6 0 11 -4 11 -10z m73 -27 c-3 -7 -6
-13 -8 -13 -2 0 -5 6 -8 13 -3 8 1 14 8 14 7 0 11 -6 8 -14z m-96 -9 c-3 -3
-12 -4 -19 -1 -8 3 -5 6 6 6 11 1 17 -2 13 -5z m17441 -106 c-6 -13 -5 -18 4
-18 9 0 10 -3 2 -8 -6 -4 -11 -14 -12 -22 -1 -44 -7 -69 -14 -62 -11 11 -20
115 -9 108 5 -3 12 11 16 32 7 35 8 35 15 12 4 -14 3 -33 -2 -42z m-708 -13
c7 -8 8 -15 2 -15 -5 0 -15 7 -22 15 -7 8 -8 15 -2 15 5 0 15 -7 22 -15z m-14
-43 c-4 -3 -14 2 -24 12 -16 18 -16 18 6 6 13 -6 21 -14 18 -18z m6 -41 c-22
-23 -27 -19 -11 7 7 12 16 19 21 16 4 -3 0 -13 -10 -23z m276 -196 c-3 -3 -9
2 -12 12 -6 14 -5 15 5 6 7 -7 10 -15 7 -18z m71 -53 l44 -38 -39 -1 c-29 0
-34 1 -19 7 19 8 19 9 -1 9 -12 1 -24 9 -28 19 -3 9 -9 23 -12 30 -10 22 10
13 55 -26z m-64 -109 c4 -20 3 -33 -3 -33 -21 0 -42 13 -42 25 0 7 -6 18 -14
24 -21 17 -29 76 -14 100 12 20 14 18 39 -32 15 -28 30 -67 34 -84z m140 6 c4
-10 11 -19 16 -19 5 0 9 -7 9 -15 0 -9 -6 -12 -15 -9 -8 4 -15 12 -15 20 0 8
-7 14 -15 14 -8 0 -15 6 -16 13 0 10 -2 10 -6 0 -2 -7 -9 -13 -15 -13 -7 0 -7
4 0 13 17 20 50 18 57 -4z m-385 -13 c0 -7 9 -21 20 -31 12 -10 18 -25 16 -32
-3 -7 0 -12 6 -10 5 1 12 -5 13 -13 2 -8 6 -23 10 -33 5 -12 3 -17 -6 -15 -8
2 -17 12 -20 23 -3 11 -11 19 -17 18 -7 -2 -12 8 -12 21 0 13 -7 26 -15 30 -9
3 -15 18 -15 36 0 18 4 29 10 25 6 -3 10 -12 10 -19z m-536 5 c4 -5 -3 -7 -13
-4 -24 6 -23 -17 2 -45 9 -10 17 -22 17 -27 0 -5 -12 5 -26 23 -15 17 -32 29
-38 25 -6 -4 -2 3 8 15 20 23 41 28 50 13z m1016 -152 c0 -5 -7 -9 -15 -9 -8
0 -15 7 -15 15 0 9 6 12 15 9 8 -4 15 -10 15 -15z m-395 -49 c3 -5 2 -10 -4
-10 -5 0 -13 5 -16 10 -3 6 -2 10 4 10 5 0 13 -4 16 -10z m36 -23 c-10 -9 -11
-8 -5 6 3 10 9 15 12 12 3 -3 0 -11 -7 -18z m-3 -48 c2 -13 2 -22 0 -19 -2 3
-11 15 -21 27 -18 21 -18 21 0 19 10 -2 19 -13 21 -27z m-18 -15 c0 -8 -19
-13 -24 -6 -3 5 1 9 9 9 8 0 15 -2 15 -3z m-560 -29 c0 -8 -4 -15 -10 -15 -5
0 -10 7 -10 15 0 8 5 15 10 15 6 0 10 -7 10 -15z m600 5 c0 -5 -4 -10 -10 -10
-5 0 -10 5 -10 10 0 6 5 10 10 10 6 0 10 -4 10 -10z m-474 -119 c12 9 19 6 39
-17 13 -15 22 -30 20 -33 -3 -2 0 -10 6 -17 14 -17 2 -54 -18 -54 -13 0 -13
-3 -3 -15 18 -21 9 -26 -28 -16 -21 6 -32 6 -32 0 0 -21 -18 2 -18 23 -1 13
-2 30 -3 38 -1 8 -1 38 0 65 1 40 4 46 12 32 8 -14 14 -16 25 -6z m-50 -118
c-10 -10 -19 5 -10 18 6 11 8 11 12 0 2 -7 1 -15 -2 -18z m169 17 c-3 -5 -10
-10 -16 -10 -5 0 -9 5 -9 10 0 6 7 10 16 10 8 0 12 -4 9 -10z m-25 -40 c0 -5
-5 -10 -11 -10 -5 0 -7 5 -4 10 3 6 8 10 11 10 2 0 4 -4 4 -10z m30 -140 c0
-5 -5 -10 -11 -10 -5 0 -7 5 -4 10 3 6 8 10 11 10 2 0 4 -4 4 -10z m-16558
-302 c-8 -8 -9 -4 -5 13 4 13 8 18 11 10 2 -7 -1 -18 -6 -23z m28 -28 c-18
-11 -20 -28 -7 -55 9 -17 8 -18 -5 -8 -8 7 -17 10 -21 7 -5 -5 -1 23 9 54 2 6
11 12 21 12 15 0 16 -2 3 -10z m16753 -21 c-5 -19 -7 -19 -15 -5 -10 18 -2 39
12 31 4 -3 6 -15 3 -26z m-16770 -224 c-3 -9 -8 -14 -10 -11 -3 3 -2 9 2 15 9
16 15 13 8 -4z m1395 -2712 c-10 -2 -26 -2 -35 0 -10 3 -2 5 17 5 19 0 27 -2
18 -5z m-61 -9 c-3 -3 -12 -4 -19 -1 -8 3 -5 6 6 6 11 1 17 -2 13 -5z m5575
-832 l36 -39 -67 -16 c-83 -20 -148 -58 -190 -114 -92 -120 -152 -170 -189
-158 -14 4 -49 48 -63 79 -2 5 21 10 51 10 70 1 106 26 165 114 46 69 98 128
131 149 10 6 35 12 54 12 29 1 43 -7 72 -37z m-222 -1067 c15 -8 30 -20 33
-27 7 -19 43 5 39 26 -2 9 3 16 10 16 18 -1 48 -25 48 -39 0 -6 7 -11 15 -11
8 0 15 4 15 9 0 5 7 17 16 25 17 18 74 22 74 6 0 -5 -5 -10 -11 -10 -5 0 -7
-5 -4 -10 5 -8 11 -7 21 1 17 14 44 5 44 -16 0 -11 10 -15 36 -15 68 0 229
-49 313 -96 24 -13 45 -24 47 -24 2 0 1 13 -2 29 -7 35 11 49 35 27 10 -9 23
-16 29 -16 23 0 102 -44 102 -57 0 -8 -10 -18 -22 -23 -13 -5 -18 -9 -13 -10
6 0 4 -4 -4 -9 -11 -7 -3 -13 29 -22 47 -14 70 -50 70 -109 0 -45 -15 -67 -55
-80 -49 -16 -114 1 -200 51 -37 21 -70 39 -74 39 -3 0 -23 11 -44 25 -20 14
-37 23 -37 20 0 -3 35 -65 79 -138 43 -72 102 -176 131 -230 l53 -99 -74 -74
c-77 -77 -78 -88 -5 -53 58 27 124 98 167 179 34 65 34 65 81 68 101 7 157
-54 145 -159 -11 -88 -89 -198 -182 -256 -16 -10 -30 -27 -30 -37 0 -27 -27
-40 -61 -31 -16 4 -23 10 -16 12 21 8 13 20 -11 16 -16 -3 -23 -11 -23 -26 1
-31 -48 -35 -84 -8 -28 20 -28 20 -33 1 -8 -30 -82 -23 -107 9 -3 4 -33 15
-67 24 -110 30 -209 101 -276 197 -17 25 -37 51 -44 58 -22 23 -53 103 -53
138 0 24 -5 34 -15 34 -9 0 -28 8 -43 17 -79 52 -135 186 -82 200 l21 6 -20
14 c-35 24 -93 120 -91 150 4 51 0 62 -21 68 -18 6 -21 13 -16 47 6 42 17 61
24 41 7 -19 23 -16 23 5 1 22 19 45 47 61 13 6 20 17 17 25 -5 14 11 56 22 56
3 0 18 -7 34 -15z m-2684 -302 c20 -32 67 -99 104 -149 38 -50 85 -116 106
-145 20 -30 46 -66 57 -81 12 -15 18 -31 14 -34 -5 -5 -146 17 -198 32 -13 4
-15 -1 -11 -21 4 -23 8 -25 39 -19 41 8 144 -14 156 -33 6 -10 13 -11 29 -2
36 19 148 -15 148 -45 0 -8 8 -28 18 -46 16 -30 16 -32 -2 -45 -24 -18 -59
-18 -110 0 -21 7 -44 11 -51 9 -23 -9 -140 16 -167 36 -19 14 -28 16 -31 7 -5
-16 -87 5 -137 36 -19 12 -39 21 -44 19 -5 -2 -48 7 -95 19 -77 20 -135 47
-152 72 -3 5 -9 2 -12 -6 -5 -14 -14 -13 -69 3 -102 31 -167 119 -121 165 17
18 25 17 110 -11 32 -11 53 -25 56 -36 4 -16 9 -17 33 -8 16 6 39 9 51 5 13
-3 23 -2 23 3 0 4 -28 16 -62 26 -35 10 -79 24 -99 33 -37 15 -66 53 -55 71 6
10 74 24 122 25 27 1 30 3 21 17 -18 31 -1 45 67 59 49 10 70 10 80 2 7 -6 39
-49 70 -96 31 -46 62 -87 68 -91 6 -4 -27 48 -72 115 -91 134 -92 137 -17 158
82 22 93 19 133 -44z m3634 -63 c0 -5 -5 -10 -11 -10 -5 0 -7 5 -4 10 3 6 8
10 11 10 2 0 4 -4 4 -10z m57 -80 c73 -33 106 -117 63 -160 -26 -26 -61 -34
-114 -26 -54 8 -88 33 -111 82 -22 46 -13 79 28 104 40 25 80 25 134 0z m1998
-560 c3 -5 -1 -10 -9 -10 -8 0 -18 5 -21 10 -3 6 1 10 9 10 8 0 18 -4 21 -10z
m115 -299 c0 -5 -9 -7 -20 -4 -11 3 -20 7 -20 9 0 2 9 4 20 4 11 0 20 -4 20
-9z m-207 -71 c8 0 8 -3 0 -11 -13 -13 -43 -5 -43 12 0 6 7 8 16 5 9 -3 21 -6
27 -6z m58 -43 c-7 -7 -15 -6 -26 3 -24 20 -18 31 10 18 17 -8 22 -15 16 -21z
m69 -17 c21 -11 71 -24 112 -30 54 -8 78 -17 92 -33 18 -22 18 -22 -3 -25 -18
-3 -20 -6 -10 -18 17 -20 9 -18 -83 25 -46 21 -100 45 -120 54 -21 9 -38 23
-38 32 0 19 3 19 50 -5z m-100 0 c0 -5 -2 -10 -4 -10 -3 0 -8 5 -11 10 -3 6
-1 10 4 10 6 0 11 -4 11 -10z m380 -100 c9 -16 6 -19 -20 -18 -31 1 -39 15
-18 36 13 13 24 8 38 -18z m-6000 -411 c505 -12 504 -12 532 -61 9 -18 12
-166 11 -649 -1 -650 -1 -655 -42 -686 -20 -16 -316 -17 -620 -3 -119 5 -319
11 -444 12 l-229 3 -23 27 c-13 15 -27 47 -30 70 -4 24 -5 313 -3 644 3 548 4
602 20 626 23 34 36 36 208 32 80 -2 359 -9 620 -15z m2735 -409 c0 -43 -1
-45 -32 -48 -33 -3 -33 -3 -33 42 0 34 4 46 18 49 39 11 47 3 47 -43z m-85 21
c0 -10 -6 -36 -14 -58 -15 -41 -56 -208 -102 -411 -23 -96 -33 -123 -47 -128
-29 -9 -45 14 -67 96 -11 41 -24 84 -29 95 -15 32 -62 127 -80 160 -9 17 -38
69 -64 116 -26 47 -47 93 -47 101 0 16 53 30 78 21 6 -3 41 -61 77 -129 60
-111 84 -171 113 -274 11 -43 13 -39 47 115 28 124 73 294 81 307 3 4 16 8 30
8 17 0 24 -6 24 -19z m-1732 -31 l103 0 -3 -62 -3 -63 -62 -3 -63 -3 0 -69 c0
-38 9 -139 20 -225 11 -86 18 -160 15 -165 -4 -6 -28 -10 -55 -10 -38 0 -52 4
-59 18 -13 24 -28 156 -36 307 -4 66 -9 128 -11 137 -4 13 -18 18 -57 20 l-52
3 -3 64 -3 64 83 -6 c46 -4 129 -7 186 -7z m2879 -94 c24 -29 43 -105 43 -176
l0 -50 -80 0 c-74 0 -80 -2 -80 -20 0 -36 28 -88 51 -95 22 -7 28 -3 62 48 7
12 18 16 29 12 15 -6 15 -11 3 -53 -16 -53 -54 -92 -90 -92 -85 0 -154 220
-114 364 6 22 24 53 40 69 26 26 35 29 72 24 28 -4 49 -14 64 -31z m157 -3
c-4 -21 -15 -44 -25 -51 -22 -15 -26 -36 -42 -215 -13 -151 -33 -184 -31 -52
1 44 2 140 3 214 l1 133 24 -4 c14 -3 31 -1 38 3 29 19 39 10 32 -28z m-344
15 c0 -19 -28 -189 -51 -315 -21 -112 -21 -113 -49 -113 -21 0 -30 7 -38 28
-6 15 -27 70 -47 122 -20 52 -40 104 -44 114 -5 14 -15 -20 -31 -105 -29 -158
-33 -169 -65 -169 -27 0 -26 -2 -80 130 -14 36 -30 74 -35 85 -29 64 -70 178
-70 195 0 16 7 20 34 20 l34 0 54 -134 c29 -74 56 -132 60 -128 3 4 16 63 27
130 12 68 23 128 27 133 3 5 18 9 34 9 27 0 30 -4 65 -107 20 -60 42 -121 49
-138 l13 -30 7 55 c11 80 35 210 42 221 8 14 64 11 64 -3z m-570 -31 c19 -12
43 -38 54 -57 23 -39 49 -151 37 -163 -4 -4 -58 -10 -120 -14 -78 -4 -114 -10
-118 -19 -8 -23 21 -69 55 -86 41 -20 83 -9 102 27 12 22 37 35 69 35 21 0 7
-66 -23 -105 -20 -26 -38 -36 -80 -46 -50 -11 -58 -10 -101 11 -84 41 -131
141 -123 262 9 115 66 178 163 178 37 0 61 -6 85 -23z m-296 -19 c6 -27 34
-302 38 -368 3 -44 2 -45 -29 -48 -26 -3 -35 1 -43 20 -10 23 -40 310 -40 380
0 37 1 38 35 38 28 0 36 -4 39 -22z m-821 -33 c20 -8 39 -20 43 -26 5 -9 10
-8 18 3 32 44 120 51 173 16 18 -13 42 -41 53 -63 19 -39 60 -248 60 -306 0
-29 0 -29 -64 -29 l-65 0 -6 48 c-13 95 -34 200 -46 225 -9 20 -20 27 -41 27
-27 0 -28 -2 -28 -45 0 -25 7 -89 16 -142 8 -53 13 -102 10 -109 -4 -10 -24
-14 -65 -14 -68 0 -58 -18 -87 160 -19 120 -33 150 -69 150 -42 0 -45 -31 -20
-175 17 -97 20 -132 12 -137 -19 -12 -112 -9 -125 4 -7 7 -12 27 -12 44 0 18
-5 36 -10 39 -6 4 -8 9 -6 13 2 4 -2 43 -9 87 -7 44 -16 113 -20 153 l-7 73
73 -2 c41 -1 85 3 99 9 36 15 82 14 123 -3z m-740 -25 c47 -32 83 -91 98 -156
18 -82 16 -84 -105 -84 -62 0 -107 -4 -111 -10 -4 -6 1 -22 9 -35 19 -28 52
-32 82 -10 11 9 42 14 77 15 53 0 57 -2 57 -22 0 -36 -38 -88 -75 -104 -19 -8
-60 -14 -91 -14 -128 0 -203 96 -204 260 0 85 48 168 105 183 45 12 124 0 158
-23z m344 9 c58 -28 72 -58 100 -214 13 -71 26 -145 30 -163 l6 -33 -75 2
c-42 1 -81 -1 -87 -5 -22 -14 -90 -8 -121 10 -65 38 -90 144 -50 209 11 18 27
36 35 39 28 10 15 22 -22 21 -36 0 -38 2 -41 34 -5 47 15 87 51 105 46 22 122
20 174 -5z m-3207 -6379 c32 -25 43 -25 35 1 -5 16 -3 20 6 17 8 -3 14 -15 14
-29 0 -30 -29 -37 -56 -13 -16 15 -19 15 -19 2 0 -18 -37 -31 -46 -17 -8 13
-52 11 -56 -3 -5 -15 -28 -1 -28 18 0 9 11 14 33 14 17 0 39 4 47 10 9 6 17 5
22 -3 5 -8 8 -6 8 6 0 22 9 21 40 -3z m55 -86 c0 -35 -27 -44 -56 -18 -16 15
-19 15 -19 2 0 -24 -37 -28 -64 -7 -31 25 -45 24 -39 -1 7 -27 -14 -26 -22 1
-5 13 -1 27 8 37 14 14 18 13 41 -1 30 -20 36 -21 36 -4 0 18 45 20 60 2 19
-23 43 -19 35 6 -5 16 -3 20 6 17 8 -3 14 -18 14 -34z m-45 -180 c0 -30 3 -34
28 -35 16 -1 20 -3 10 -6 -19 -5 -24 -38 -8 -48 6 -3 10 1 10 9 0 9 4 16 9 16
11 0 10 -234 -1 -241 -6 -4 -6 -14 1 -27 6 -11 8 -23 4 -25 -5 -2 -48 -3 -98
-3 -77 1 -90 3 -93 19 -2 11 3 17 15 18 16 1 17 2 1 6 -25 6 -22 23 5 24 22 2
22 2 0 6 -20 4 -21 10 -22 101 0 53 -2 123 -5 155 -2 31 0 57 5 57 5 0 9 -4 9
-10 0 -5 5 -10 10 -10 6 0 10 7 10 15 0 8 7 15 15 15 10 0 15 -10 15 -31 0
-24 3 -30 16 -25 9 3 22 6 30 6 9 0 14 11 14 31 0 17 4 28 10 24 6 -3 10 -22
10 -41z m-790 -1304 c0 -5 -4 -10 -9 -10 -6 0 -13 5 -16 10 -3 6 1 10 9 10 9
0 16 -4 16 -10z m-53 -237 c-2 -16 -4 -3 -4 27 0 30 2 43 4 28 2 -16 2 -40 0
-55z"/>
<path d="M8640 15590 c-97 -16 -136 -44 -119 -85 8 -19 8 -19 15 3 6 20 12 23
40 20 24 -3 30 -1 23 8 -7 8 -3 14 13 19 38 12 68 14 68 4 0 -5 9 -4 19 3 17
10 23 8 40 -13 l20 -24 1 23 c0 16 6 22 23 22 16 0 28 -12 45 -48 12 -26 22
-52 22 -58 0 -6 -25 -12 -57 -13 -32 -1 -63 -7 -69 -12 -6 -5 -18 -7 -26 -4
-18 7 -48 -19 -48 -41 0 -8 -4 -12 -10 -9 -5 3 -10 1 -10 -4 0 -16 14 -13 36
8 37 34 62 41 151 43 153 3 234 -23 458 -147 28 -15 55 -32 61 -37 7 -5 35
-11 63 -15 41 -5 55 -2 71 12 35 31 20 113 -24 132 -45 20 -121 58 -126 63 -3
3 -14 10 -25 16 -11 6 -45 25 -76 42 -31 17 -67 33 -80 36 -13 2 -44 12 -69
21 -90 32 -329 52 -430 35z m273 -30 c9 0 17 -7 17 -15 0 -9 -6 -12 -15 -9 -8
4 -15 1 -15 -5 0 -6 7 -11 15 -11 8 0 15 -4 15 -10 0 -5 -4 -10 -10 -10 -22 0
-8 -20 18 -25 78 -17 74 -18 47 9 -14 14 -25 29 -25 34 0 20 26 30 59 23 40
-8 54 -31 19 -32 l-23 0 23 -16 c27 -19 29 -59 3 -68 -23 -7 -71 4 -71 16 0 5
-24 9 -53 9 l-52 0 -10 43 c-14 59 -9 80 18 73 12 -3 30 -6 40 -6z m230 -59
c25 -11 48 -16 52 -13 4 4 6 0 3 -8 -3 -8 -14 -14 -25 -13 -15 2 -23 -7 -33
-37 -13 -41 -27 -49 -47 -29 -8 8 -9 19 -2 37 5 14 7 38 4 54 -8 33 -9 33 48
9z m125 -57 c31 -21 28 -38 -5 -29 -26 6 -27 5 -9 -8 21 -16 7 -33 -19 -23 -9
3 -15 0 -15 -8 0 -8 10 -16 22 -20 18 -4 20 -8 10 -18 -9 -9 -19 -8 -47 5 -41
20 -45 44 -13 87 24 34 43 37 76 14z m103 -56 c42 -24 51 -53 19 -63 -15 -5
-19 -12 -14 -31 5 -20 2 -24 -15 -24 -16 0 -23 8 -28 31 -5 25 -8 28 -15 15
-10 -18 -26 -20 -46 -7 -10 6 -7 18 15 54 15 26 32 47 37 47 4 0 26 -10 47
-22z"/>
<path d="M9340 15360 c0 -5 5 -10 10 -10 6 0 10 5 10 10 0 6 -4 10 -10 10 -5
0 -10 -4 -10 -10z"/>
<path d="M8665 15531 c-18 -7 -18 -9 7 -34 29 -29 43 -33 53 -17 3 6 1 10 -5
10 -6 0 -8 5 -5 10 3 6 1 10 -4 10 -6 0 -11 7 -11 15 0 16 -5 17 -35 6z"/>
<path d="M9325 15500 c-3 -5 -1 -10 4 -10 6 0 11 5 11 10 0 6 -2 10 -4 10 -3
0 -8 -4 -11 -10z"/>
<path d="M8501 15477 c-1 -16 3 -26 9 -22 5 3 20 1 32 -5 22 -11 22 -10 4 4
-11 9 -23 16 -27 16 -4 0 -10 8 -12 18 -3 10 -5 6 -6 -11z"/>
<path d="M8782 15480 c14 -22 24 -19 15 5 -4 8 -11 15 -17 15 -6 0 -6 -7 2
-20z"/>
<path d="M8760 15397 c-25 -7 -56 -20 -70 -30 -21 -15 -22 -17 -6 -23 19 -7
255 4 326 15 25 4 38 10 30 13 -88 34 -211 45 -280 25z"/>
<path d="M9070 15351 c0 -5 -36 -12 -80 -16 -44 -4 -83 -11 -86 -16 -3 -6 11
-7 35 -3 42 7 92 -1 89 -14 -5 -15 37 -72 53 -72 45 0 49 9 26 56 -11 24 -24
44 -29 44 -4 0 -5 7 -2 15 4 8 3 15 0 15 -3 0 -6 -4 -6 -9z"/>
<path d="M8611 15324 c0 -11 3 -14 6 -6 3 7 2 16 -1 19 -3 4 -6 -2 -5 -13z"/>
<path d="M8868 15324 c-3 -3 -47 -5 -97 -5 -83 0 -90 -1 -76 -15 8 -8 15 -22
15 -30 0 -9 5 -12 13 -8 6 4 9 4 5 -1 -10 -11 11 -47 23 -40 5 4 9 16 9 28 0
33 34 57 80 57 21 0 42 5 45 10 7 11 -8 14 -17 4z"/>
<path d="M8647 15298 c-4 -13 -7 -45 -7 -71 0 -31 -5 -49 -14 -53 -9 -4 -5
-14 16 -36 36 -39 70 -104 72 -138 1 -18 25 -47 83 -100 44 -41 88 -80 96 -87
51 -41 217 -99 256 -90 10 2 6 7 -14 12 -16 4 -76 29 -133 56 l-103 48 -54
113 c-30 62 -69 138 -86 168 -17 30 -48 88 -69 128 -32 63 -38 70 -43 50z"/>
<path d="M8529 15293 c6 -12 16 -25 21 -28 17 -11 11 5 -11 28 l-21 22 11 -22z"/>
<path d="M8584 15225 c15 -14 29 -25 32 -25 2 0 4 11 4 25 0 21 -5 25 -31 25
l-32 0 27 -25z"/>
<path d="M9100 15209 c-25 -5 -112 -11 -195 -16 -111 -5 -137 -9 -101 -13 52
-7 262 5 324 18 52 11 27 20 -28 11z"/>
<path d="M8920 15129 c0 -4 7 -12 15 -19 10 -9 15 -9 15 -1 0 6 14 11 32 11
17 0 29 3 25 6 -8 8 -87 11 -87 3z"/>
<path d="M8858 15098 c-9 -23 2 -35 27 -30 19 3 27 -1 35 -19 24 -54 88 -154
103 -161 10 -4 25 -12 35 -17 9 -4 18 -13 18 -20 1 -6 2 -15 3 -21 2 -18 56
-60 76 -60 18 1 19 1 3 11 -10 5 -18 21 -18 33 0 14 -10 30 -26 41 -18 12 -23
20 -16 27 7 7 24 3 56 -16 24 -14 47 -26 51 -26 13 0 -51 69 -85 92 -32 21
-16 41 26 32 23 -4 36 -18 59 -60 45 -83 41 -56 -5 32 -53 102 -59 109 -94 93
-23 -11 -29 -10 -45 8 -14 15 -27 19 -47 15 -20 -4 -25 -1 -22 9 3 8 13 13 23
11 9 -2 14 1 11 6 -9 14 -42 21 -57 11 -10 -6 -11 -9 -1 -9 7 0 12 -12 12 -28
0 -16 9 -37 20 -47 22 -20 27 -65 7 -65 -14 0 -53 63 -59 95 -1 11 -15 28 -30
37 -16 10 -28 22 -28 28 0 14 -27 12 -32 -2z m292 -93 c14 -17 14 -17 -22 -19
-47 -3 -44 24 3 33 4 0 12 -6 19 -14z"/>
<path d="M9065 15087 c8 -19 62 -28 75 -12 8 9 4 14 -14 17 -14 3 -27 0 -29
-6 -3 -7 -9 -6 -21 3 -14 12 -16 12 -11 -2z"/>
<path d="M9527 14979 c-9 -6 -33 -40 -51 -77 -35 -69 -88 -127 -141 -155 -50
-27 -105 -47 -105 -38 0 5 -17 5 -37 0 -21 -4 -47 -6 -58 -4 -11 3 -33 6 -50
9 -56 8 -89 19 -151 52 -34 18 -65 30 -70 26 -4 -4 -4 -2 -1 4 6 11 -35 54
-52 54 -5 0 -13 9 -16 20 -3 11 -12 20 -18 20 -7 0 -17 10 -22 22 -6 12 -17
24 -25 26 -10 3 -8 -2 5 -13 19 -15 19 -16 1 -11 -17 6 -17 5 -5 -11 8 -10 19
-21 24 -25 6 -5 5 -8 -3 -8 -9 0 -8 -7 4 -25 9 -14 20 -22 25 -19 5 3 6 -3 2
-12 -5 -13 -3 -15 7 -9 9 5 11 4 6 -3 -4 -6 3 -26 16 -44 34 -47 113 -126 103
-103 -16 39 -18 95 -4 95 26 0 38 -15 41 -54 2 -22 9 -41 15 -44 9 -2 11 5 7
26 -7 32 5 46 30 36 11 -4 16 -19 16 -49 0 -51 -8 -59 -46 -45 -15 6 -29 9
-31 7 -2 -3 31 -19 74 -37 132 -55 308 -54 436 3 26 11 47 24 47 29 0 4 4 7 9
6 16 -5 98 87 125 139 28 56 34 119 14 156 -14 28 -47 57 -64 57 -7 0 -18 2
-26 5 -7 2 -21 0 -31 -6z m31 -216 c12 -13 22 -31 22 -39 0 -19 -36 -54 -56
-54 -16 0 -63 29 -98 62 -20 18 -20 18 1 37 39 37 94 34 131 -6z m-148 -43 c0
-5 -5 -10 -11 -10 -5 0 -7 -4 -4 -10 3 -5 15 -10 26 -10 13 0 19 -6 17 -17 -2
-13 4 -18 21 -18 36 -1 36 -20 1 -35 -29 -12 -32 -11 -71 28 -23 23 -47 38
-55 35 -19 -7 -18 -14 11 -47 27 -31 30 -42 16 -50 -16 -10 -35 3 -60 39 -13
20 -32 35 -43 35 -36 0 -12 25 30 32 23 4 52 14 64 22 25 18 58 21 58 6z
m-304 -57 c23 -26 25 -26 19 -5 -5 18 -2 22 15 22 21 0 36 -26 47 -82 5 -23 2
-28 -15 -28 -11 0 -29 10 -39 23 -27 34 -40 39 -39 15 1 -12 -5 -23 -12 -25
-13 -5 -42 53 -42 87 0 29 36 26 66 -7z m123 -5 c12 -12 23 -30 27 -40 3 -10
10 -18 15 -18 5 0 9 -7 9 -15 0 -21 -33 -19 -52 3 -54 61 -52 128 1 70z"/>
<path d="M9485 14735 c34 -28 45 -31 45 -12 0 21 -22 37 -49 37 l-26 0 30 -25z"/>
<path d="M9335 14520 c3 -5 8 -10 11 -10 2 0 4 5 4 10 0 6 -5 10 -11 10 -5 0
-7 -4 -4 -10z"/>
<path d="M5631 15170 c18 -25 34 -47 36 -49 2 -2 3 0 3 5 0 5 -16 27 -36 49
l-36 40 33 -45z"/>
<path d="M5890 15081 c5 -11 15 -23 21 -27 6 -3 3 5 -6 20 -20 30 -30 35 -15
7z"/>
<path d="M5446 15045 c4 -9 15 -20 25 -26 15 -7 19 -6 19 5 0 9 -9 20 -19 26
-27 14 -31 13 -25 -5z"/>
<path d="M5798 15024 c-4 -3 -2 -17 4 -30 9 -19 14 -21 25 -13 7 7 28 9 49 6
29 -5 34 -3 25 7 -6 8 -24 16 -39 19 -15 3 -34 8 -43 12 -8 3 -18 3 -21 -1z"/>
<path d="M5630 14993 c0 -15 33 -41 46 -36 13 5 12 8 -2 24 -17 18 -44 26 -44
12z"/>
<path d="M5898 14898 c23 -23 39 -20 29 7 -4 8 -17 15 -29 15 l-22 0 22 -22z"/>
<path d="M6070 14862 c0 -14 23 -32 42 -32 22 0 24 26 2 34 -22 8 -44 7 -44
-2z"/>
<path d="M9588 15033 c6 -2 18 -2 25 0 6 3 1 5 -13 5 -14 0 -19 -2 -12 -5z"/>
<path d="M5620 13551 c-210 -57 -352 -205 -401 -418 -14 -62 -13 -198 2 -259
55 -230 253 -403 495 -433 139 -17 251 8 364 83 80 53 159 147 195 231 85 198
71 389 -41 557 -43 64 -139 158 -162 158 -6 0 -12 3 -14 8 -3 6 -73 42 -123
63 -79 32 -218 37 -315 10z m10 -368 c0 -4 -7 -27 -16 -50 -9 -24 -15 -46 -12
-48 8 -8 348 -19 348 -11 0 4 -7 23 -15 43 -15 37 -20 73 -9 73 4 0 50 -23
103 -52 53 -29 132 -71 176 -94 44 -23 81 -47 83 -53 4 -12 -366 -196 -375
-187 -5 5 7 59 23 101 4 9 -36 14 -167 19 -94 4 -173 5 -175 3 -3 -2 5 -25 16
-51 11 -26 20 -50 20 -52 0 -8 -26 -4 -50 9 -237 125 -330 177 -330 186 0 5
17 16 38 24 34 14 182 81 277 127 43 20 65 25 65 13z"/>
<path d="M9616 13118 c-8 -13 -18 -35 -21 -50 l-7 -28 61 0 c59 0 61 1 61 25
0 28 -40 75 -64 75 -9 0 -22 -10 -30 -22z"/>
<path d="M8829 13081 c-16 -16 -29 -39 -29 -52 0 -20 3 -21 53 -15 28 3 67 6
85 6 30 0 33 2 26 22 -8 26 -21 40 -51 56 -34 18 -52 14 -84 -17z"/>
<path d="M6980 12989 c-14 -25 -12 -26 20 -29 54 -5 64 5 34 34 -21 22 -41 20
-54 -5z"/>
<path d="M7356 13012 c-3 -3 -6 -14 -6 -24 0 -13 7 -18 25 -18 18 0 25 5 25
19 0 18 -33 35 -44 23z"/>
<path d="M7378 12859 c-25 -14 -23 -56 3 -64 30 -10 53 16 45 49 -7 28 -20 32
-48 15z"/>
<path d="M4150 6455 c0 -16 -6 -25 -15 -25 -8 0 -15 -5 -15 -11 0 -6 7 -9 15
-5 8 3 15 1 15 -4 0 -6 -7 -10 -15 -10 -8 0 -15 -4 -15 -10 0 -5 9 -10 20 -10
17 0 20 7 20 50 0 28 -2 50 -5 50 -3 0 -5 -11 -5 -25z"/>
<path d="M4200 6419 c0 -5 5 -7 10 -4 6 3 10 8 10 11 0 2 -4 4 -10 4 -5 0 -10
-5 -10 -11z"/>
<path d="M4183 6387 c1 -5 6 -8 10 -8 4 1 14 1 23 1 8 0 13 4 9 9 -7 12 -46
10 -42 -2z"/>
<path d="M4150 6350 c0 -11 -7 -20 -15 -20 -8 0 -15 -4 -15 -10 0 -14 23 -13
38 2 15 15 16 48 2 48 -5 0 -10 -9 -10 -20z"/>
<path d="M4252 6321 c0 -42 0 -42 20 -22 19 21 19 21 -1 42 l-20 21 1 -41z"/>
<path d="M4180 6340 c0 -5 7 -10 15 -10 8 0 15 5 15 10 0 6 -7 10 -15 10 -8 0
-15 -4 -15 -10z"/>
<path d="M4210 6310 c0 -5 7 -10 16 -10 8 0 12 5 9 10 -3 6 -10 10 -16 10 -5
0 -9 -4 -9 -10z"/>
<path d="M4180 6290 c0 -11 4 -20 9 -20 5 0 7 9 4 20 -3 11 -7 20 -9 20 -2 0
-4 -9 -4 -20z"/>
<path d="M4155 6264 c2 -18 -4 -28 -19 -34 -21 -9 -21 -9 2 -9 26 -1 30 -21 5
-22 -14 0 -15 -2 -3 -6 8 -3 18 -11 22 -17 4 -6 8 17 8 52 0 34 -4 62 -9 62
-5 0 -8 -12 -6 -26z"/>
<path d="M4231 6273 c-1 -18 -7 -23 -27 -23 -14 0 -23 -4 -19 -10 9 -15 45
-12 51 4 3 8 4 23 1 33 -4 14 -5 13 -6 -4z"/>
<path d="M4200 6185 c0 -8 5 -15 10 -15 6 0 10 7 10 15 0 8 -4 15 -10 15 -5 0
-10 -7 -10 -15z"/>
<path d="M4180 6124 c0 -8 9 -14 19 -14 30 0 34 17 6 22 -17 4 -25 1 -25 -8z"/>
<path d="M2815 23606 c4 -20 2 -36 -4 -40 -16 -10 -13 -26 5 -26 8 0 13 4 10
9 -4 5 -2 20 2 33 10 27 5 58 -9 58 -6 0 -7 -14 -4 -34z"/>
<path d="M1863 23406 c-3 -5 -1 -6 5 -2 6 3 13 2 17 -4 3 -6 -3 -10 -15 -10
-30 0 -48 -21 -59 -72 -14 -58 -14 -58 12 -58 34 1 124 90 111 111 -3 5 -1 9
5 9 10 0 9 25 -2 36 -3 4 -14 1 -24 -7 -9 -8 -14 -9 -11 -4 4 6 -2 11 -13 11
-11 0 -23 -5 -26 -10z"/>
<path d="M7664 23000 c-15 -54 -37 -60 -77 -22 l-34 33 -6 -40 c-7 -57 -56
-114 -127 -150 -33 -16 -57 -31 -52 -34 4 -2 1 -2 -7 0 -7 2 -30 -1 -50 -6
-20 -5 -74 -12 -121 -16 -47 -3 -101 -10 -120 -15 -37 -10 -108 -52 -149 -88
-13 -12 -27 -19 -32 -16 -4 2 -16 -7 -25 -21 -17 -25 -52 -44 -239 -126 -85
-37 -109 -53 -162 -108 -67 -70 -76 -88 -41 -87 59 2 14 -63 -108 -155 -75
-58 -101 -106 -114 -220 -15 -123 -16 -126 -73 -186 -50 -53 -52 -56 -55 -122
-3 -40 3 -104 13 -155 19 -96 16 -124 -22 -179 -21 -30 -27 -51 -27 -98 -1
-32 -4 -59 -8 -59 -14 0 -25 -100 -38 -370 -12 -257 -15 -272 -48 -342 l-28
-57 29 -12 c25 -11 35 -10 59 4 39 22 80 12 120 -29 18 -19 39 -34 46 -34 6 0
11 -4 10 -9 -2 -5 6 -16 17 -24 11 -9 20 -27 20 -43 0 -23 5 -29 21 -27 19 2
21 -3 21 -66 0 -41 7 -88 18 -119 18 -50 35 -68 35 -37 0 8 -4 15 -9 15 -5 0
-11 14 -13 30 -3 17 -1 30 4 30 4 0 8 -12 8 -26 0 -42 16 -19 29 43 8 32 20
72 27 90 8 17 14 37 14 45 0 7 7 22 15 32 9 11 15 41 15 68 0 26 5 48 10 48 6
0 10 14 10 30 0 17 5 30 13 30 7 0 8 3 2 8 -17 12 -17 42 0 42 8 0 15 5 15 10
0 6 -4 10 -10 10 -19 0 -10 21 13 30 12 5 16 9 9 9 -14 1 -12 62 3 73 6 4 2 8
-7 8 -22 0 -23 7 -3 26 8 9 21 12 27 8 7 -4 5 2 -5 12 -15 16 -19 17 -27 4
-17 -27 -19 -5 -2 29 12 27 17 30 22 17 4 -13 9 -9 20 18 7 20 20 36 27 36 8
0 13 12 13 33 0 36 15 58 35 51 7 -3 15 6 20 23 8 35 39 65 59 57 10 -4 16 -1
16 8 0 8 -9 14 -20 14 -10 -1 -19 4 -19 9 0 6 9 10 20 9 14 0 18 4 13 18 -3
10 -1 18 5 18 6 0 14 0 19 0 4 0 8 -4 8 -10 1 -5 2 -14 3 -20 2 -16 21 -12 21
5 0 7 6 18 13 22 12 8 20 44 8 40 -3 -1 -6 3 -6 8 0 6 4 9 8 7 5 -1 18 9 29
23 11 14 24 23 29 20 5 -4 9 3 9 14 0 11 -4 23 -10 26 -12 7 -9 55 3 55 5 0 7
12 4 26 -3 16 0 28 9 31 16 6 19 33 3 33 -5 0 -7 5 -4 10 4 6 11 8 16 5 5 -4
9 0 9 8 0 8 9 17 20 20 27 7 26 34 -2 33 -42 -2 -31 51 12 59 31 6 35 12 19
31 -12 15 -9 16 39 12 41 -4 55 -1 63 11 8 12 12 13 15 4 9 -20 21 -15 19 7
-2 29 -9 32 -41 15 -16 -8 -35 -15 -41 -15 -23 0 -13 15 17 27 20 7 30 18 30
32 0 12 11 25 28 33 15 7 28 23 30 35 2 12 12 25 22 28 10 3 21 13 24 21 4 11
10 12 25 5 14 -8 22 -7 31 4 7 9 18 15 24 14 30 -4 49 3 70 24 29 29 113 46
204 42 34 -1 62 2 62 6 0 16 80 10 86 -6 4 -8 12 -15 20 -15 8 0 11 6 8 15 -4
10 3 18 22 26 16 6 31 10 34 10 3 0 15 7 28 15 42 27 48 8 10 -28 -21 -19 -38
-40 -38 -46 0 -7 -10 -12 -22 -13 l-23 0 23 -9 c24 -10 52 -4 52 12 0 6 7 7
16 4 10 -4 22 1 30 11 11 15 15 16 23 4 7 -11 14 -9 37 13 16 14 34 26 41 26
11 0 18 20 14 43 0 4 6 7 14 7 8 0 15 -4 15 -9 0 -5 9 -7 20 -4 11 3 28 2 37
-2 10 -4 31 -7 46 -6 26 2 28 0 22 -21 -7 -19 -6 -21 7 -10 8 6 38 14 66 17
43 4 52 2 52 -11 0 -12 7 -14 30 -9 17 4 30 2 30 -3 0 -5 21 -9 48 -9 26 0 41
2 35 5 -7 2 -13 8 -13 14 0 6 7 7 16 4 11 -4 15 -2 11 8 -7 18 30 28 54 15 21
-11 32 -12 26 -1 -10 15 72 6 90 -10 10 -9 25 -18 33 -20 20 -4 39 -21 33 -30
-2 -4 2 -5 10 -2 8 3 20 -2 27 -11 7 -8 18 -15 24 -15 6 0 30 -21 53 -48 31
-35 53 -51 87 -60 33 -8 44 -16 40 -26 -10 -26 158 -176 196 -176 7 0 9 -7 6
-16 -4 -12 -2 -15 9 -11 8 4 19 -1 24 -11 7 -10 11 -12 11 -4 0 10 3 10 14 0
11 -10 11 -16 2 -27 -8 -11 -8 -13 1 -8 20 13 44 -4 37 -26 -5 -16 -3 -19 14
-15 14 4 19 1 18 -11 -1 -10 7 -16 19 -16 13 0 20 -7 20 -20 1 -29 15 -65 26
-65 5 0 9 -7 9 -15 0 -9 6 -12 16 -8 12 4 15 2 12 -8 -3 -8 2 -19 11 -26 13
-9 13 -14 4 -24 -10 -10 -16 -9 -29 1 -15 13 -15 11 0 -25 10 -23 14 -52 11
-74 -3 -20 -2 -30 1 -23 6 13 24 17 24 4 0 -4 -11 -20 -25 -35 -24 -25 -22
-40 2 -16 17 17 31 3 26 -26 -4 -20 -8 -23 -23 -15 -14 7 -20 5 -24 -7 -4 -9
-2 -20 5 -23 13 -8 9 -92 -4 -101 -6 -4 -6 -12 -1 -20 12 -19 15 -141 4 -154
-6 -7 -1 -36 11 -75 11 -36 18 -76 17 -90 l-4 -25 -14 28 c-7 15 -17 27 -22
27 -12 0 -38 26 -38 38 0 5 -11 15 -25 22 -14 7 -25 18 -25 24 0 7 -10 18 -22
26 -11 8 -36 28 -55 44 -19 16 -39 26 -48 22 -9 -3 -18 1 -21 9 -4 8 -10 13
-14 10 -5 -3 -33 6 -64 20 -60 27 -70 30 -61 15 9 -14 -2 -12 -30 6 -18 12
-28 13 -44 5 -24 -13 -34 -14 -27 -2 3 4 -6 6 -20 3 -16 -3 -29 1 -35 9 -10
17 -197 23 -216 7 -7 -5 -33 -10 -58 -10 -25 0 -45 -3 -45 -8 0 -4 -30 -6 -67
-4 -83 5 -76 5 -143 -1 l-55 -6 -28 41 c-16 22 -26 47 -23 55 7 18 -5 20 -22
3 -9 -9 -12 -9 -12 -1 0 7 5 15 10 18 15 9 12 25 -5 25 -8 0 -15 5 -15 11 0 5
-4 7 -10 4 -5 -3 -10 -1 -10 5 0 6 -8 10 -17 8 -10 -2 -18 2 -19 7 0 6 -4 18
-9 28 -7 16 -11 14 -37 -18 -24 -28 -33 -33 -44 -24 -8 6 -14 18 -14 26 0 8
-4 11 -10 8 -5 -3 -21 6 -36 22 -20 22 -23 23 -15 6 16 -32 13 -41 -4 -16 -9
13 -22 20 -30 17 -8 -4 -17 0 -20 7 -4 11 -35 14 -132 15 -69 0 -118 -3 -107
-7 11 -5 -3 -6 -35 -4 -29 1 -57 8 -61 15 -6 10 -9 9 -12 0 -3 -10 -9 -11 -24
-2 -19 11 -19 11 1 13 11 0 -5 7 -35 14 -64 16 -101 10 -152 -22 -21 -12 -42
-23 -48 -23 -5 0 -10 -4 -10 -10 0 -10 -68 -42 -112 -53 -20 -5 -26 -12 -21
-24 4 -10 2 -14 -4 -10 -5 4 -19 0 -29 -8 -19 -15 -19 -15 1 -31 20 -16 20
-16 0 -12 -11 3 -26 -1 -33 -9 -10 -10 -9 -13 5 -14 10 0 5 -4 -11 -9 -16 -5
-34 -6 -40 -3 -6 4 -2 -4 9 -16 l20 -23 -36 7 c-23 4 -39 3 -43 -4 -4 -6 -1
-11 7 -11 8 0 18 -11 21 -25 4 -14 13 -25 20 -25 23 0 27 -41 5 -71 -25 -35
-24 -40 4 -35 12 2 31 -2 42 -10 18 -13 17 -14 -13 -8 -34 7 -95 -12 -86 -27
3 -5 39 -9 80 -9 41 0 74 -4 74 -9 0 -13 -95 -24 -159 -20 -43 3 -49 2 -34 -8
9 -7 44 -14 77 -14 l61 -1 -80 -15 c-123 -23 -135 -34 -30 -29 l90 5 -60 -29
c-36 -17 -52 -29 -40 -29 12 -1 25 3 30 7 12 11 85 32 128 37 19 3 39 14 50
30 10 14 23 23 28 19 12 -7 50 -16 76 -18 11 0 19 -4 17 -8 -2 -4 0 -9 6 -13
5 -3 10 1 10 10 0 14 9 16 60 12 35 -2 60 0 60 5 0 6 8 7 18 3 9 -4 34 -9 55
-10 45 -3 50 -7 41 -28 -5 -15 -8 -15 -21 -2 -17 17 -42 20 -44 5 -6 -55 -6
-55 61 -66 36 -5 58 -13 50 -16 -8 -4 4 -7 27 -7 30 -1 45 4 52 17 6 9 11 11
11 5 0 -7 8 -13 17 -13 20 0 9 -13 -15 -17 -42 -8 -155 -4 -165 6 -6 6 -37 11
-70 11 -64 0 -156 26 -173 48 -6 8 -16 12 -22 8 -7 -4 -12 -1 -12 10 0 13 -3
14 -14 5 -12 -10 -15 -8 -18 7 -3 16 -6 15 -28 -11 -24 -30 -24 -30 -2 -25 22
6 82 -11 82 -23 0 -3 -10 -11 -22 -18 l-23 -12 23 5 c26 5 82 -11 82 -24 0 -4
8 -10 18 -13 9 -3 49 -15 87 -27 91 -28 127 -34 200 -33 73 2 132 10 156 23 9
6 25 7 34 4 9 -4 24 1 35 11 11 10 26 15 35 12 8 -4 15 -2 15 3 0 6 9 10 19
10 11 0 22 6 24 13 4 9 8 9 14 1 16 -23 68 -26 94 -6 13 10 32 22 42 25 11 4
21 16 24 27 3 11 12 20 20 20 8 0 12 4 8 9 -3 6 3 15 14 21 13 6 18 16 14 26
-3 9 3 23 15 34 11 11 24 39 27 62 7 49 28 83 45 73 6 -4 22 1 37 10 14 9 23
12 19 7 -8 -13 2 -20 43 -27 48 -8 57 -22 64 -100 4 -39 18 -99 31 -135 73
-193 62 -175 121 -207 16 -8 35 -22 43 -29 7 -8 18 -14 23 -14 5 0 9 -7 9 -15
0 -8 4 -15 10 -15 5 0 26 -11 46 -25 20 -14 48 -25 61 -25 14 0 21 -4 18 -10
-4 -6 6 -10 22 -10 16 0 33 -4 38 -9 6 -5 40 -16 77 -25 37 -9 89 -23 115 -31
l48 -14 -25 20 c-56 44 -70 58 -70 71 0 9 3 9 8 2 6 -9 64 -34 78 -34 2 0 4 8
4 18 0 11 -14 21 -42 30 -24 8 -53 23 -66 35 -15 14 -33 20 -56 19 -18 -1 -46
4 -61 12 -16 8 -32 13 -37 10 -4 -3 -8 0 -8 5 0 6 -6 11 -12 11 -13 1 -58 34
-58 44 0 7 62 -14 75 -25 13 -12 82 -11 106 2 15 8 24 7 37 -3 14 -11 15 -11
9 5 -4 10 -7 20 -7 23 0 2 -14 1 -32 -3 -25 -5 -30 -3 -26 8 4 11 -4 15 -31
15 -58 2 -101 8 -101 16 0 4 -6 5 -12 3 -22 -8 -101 10 -106 24 -6 17 47 12
71 -8 16 -13 17 -13 11 2 -8 21 0 21 31 1 25 -16 114 -22 151 -10 14 4 30 -2
50 -19 16 -14 36 -25 45 -25 9 0 37 -16 62 -35 25 -19 51 -35 57 -35 19 0 67
-45 62 -58 -3 -10 60 -82 73 -82 6 0 -6 32 -18 48 -16 21 -1 13 34 -18 19 -16
38 -30 43 -30 5 0 17 -7 27 -16 16 -14 17 -13 15 10 -1 18 -10 30 -32 41 -32
15 -119 82 -94 72 8 -3 39 -16 67 -28 58 -25 75 -21 45 9 -11 11 -23 18 -26
15 -7 -7 -112 42 -121 56 -8 14 -11 14 60 -8 39 -11 69 -15 83 -10 12 5 24 4
27 -2 4 -5 11 -7 16 -3 7 4 8 -7 5 -28 -18 -120 -24 -324 -9 -339 7 -7 10 4 8
33 -2 27 6 67 21 107 74 198 115 547 130 1111 6 217 5 241 -14 315 -27 102
-92 497 -92 554 0 36 6 49 35 78 40 40 55 64 55 87 0 8 -22 59 -48 113 -42 86
-65 152 -86 244 -4 21 -10 25 -28 22 -37 -7 -157 55 -226 115 -35 31 -100 101
-144 156 -44 55 -89 107 -99 114 -11 8 -70 22 -132 32 -62 10 -141 29 -177 41
-49 17 -89 22 -165 23 -113 1 -122 5 -198 80 -45 46 -64 54 -82 37 -6 -5 -51
-12 -100 -16 -89 -7 -91 -6 -117 20 -15 15 -33 45 -40 67 l-14 41 -10 -33z
m-169 -180 c3 -5 1 -10 -4 -10 -6 0 -11 5 -11 10 0 6 2 10 4 10 3 0 8 -4 11
-10z m-1022 -725 c-3 -9 -8 -14 -10 -11 -3 3 -2 9 2 15 9 16 15 13 8 -4z
m1297 -345 c0 -5 8 -7 18 -3 10 4 14 2 9 -3 -14 -14 -56 -12 -50 3 6 15 23 18
23 3z m-1422 -47 c-5 -25 -28 -28 -28 -4 0 12 6 21 16 21 9 0 14 -7 12 -17z
m-141 -15 c-3 -8 -6 -5 -6 6 -1 11 2 17 5 13 3 -3 4 -12 1 -19z m53 -7 c0 -5
3 -18 7 -28 6 -17 5 -17 -15 1 -26 22 -28 36 -7 36 8 0 15 -4 15 -9z m39 -161
c0 -11 -3 -10 -14 4 -8 11 -15 31 -14 45 1 26 1 26 14 -4 8 -16 14 -37 14 -45z
m120 49 c11 -19 11 -21 -2 -16 -11 4 -13 0 -9 -15 3 -14 1 -19 -6 -14 -11 6
-12 66 -2 66 3 0 11 -10 19 -21z m2435 -34 c21 -31 20 -35 -4 -35 -22 0 -62
38 -54 52 10 16 42 7 58 -17z m-2620 -1 c8 -21 8 -24 -3 -24 -5 0 -11 9 -14
20 -6 24 8 27 17 4z m-59 -4 c3 -5 2 -10 -4 -10 -5 0 -13 5 -16 10 -3 6 -2 10
4 10 5 0 13 -4 16 -10z m175 -21 c0 -6 -4 -7 -10 -4 -5 3 -10 11 -10 16 0 6 5
7 10 4 6 -3 10 -11 10 -16z m104 -5 c9 -22 -3 -32 -14 -14 -12 19 -12 30 -1
30 5 0 12 -7 15 -16z m-213 -32 c-16 -5 -41 5 -41 17 0 7 10 6 26 -1 15 -7 21
-14 15 -16z m2694 18 c3 -5 1 -10 -4 -10 -6 0 -11 5 -11 10 0 6 2 10 4 10 3 0
8 -4 11 -10z m-2545 -20 c9 -17 8 -20 -12 -17 -12 2 -24 10 -26 17 -3 7 0 10
7 6 6 -4 11 -2 11 3 0 17 8 13 20 -9z m100 0 c0 -5 -5 -10 -11 -10 -5 0 -7 5
-4 10 3 6 8 10 11 10 2 0 4 -4 4 -10z m2420 -16 c0 -8 -4 -12 -10 -9 -5 3 -10
10 -10 16 0 5 5 9 10 9 6 0 10 -7 10 -16z m-2765 -41 c-9 -21 -12 -29 -14 -43
0 -5 -6 -10 -11 -10 -12 0 -3 48 13 68 13 17 21 7 12 -15z m92 -95 c-3 -8 -6
-5 -6 6 -1 11 2 17 5 13 3 -3 4 -12 1 -19z m553 7 c0 -8 -4 -15 -8 -15 -5 0
-9 7 -9 15 0 8 4 15 9 15 4 0 8 -7 8 -15z m-30 -5 c0 -5 -4 -10 -10 -10 -5 0
-10 5 -10 10 0 6 5 10 10 10 6 0 10 -4 10 -10z m-601 -57 c0 -25 -1 -26 -9 -8
-12 27 -12 35 0 35 6 0 10 -12 9 -27z m525 -39 c10 -25 -1 -29 -14 -5 -6 12
-7 21 -1 21 5 0 12 -7 15 -16z m-277 -16 c-3 -8 -6 -5 -6 6 -1 11 2 17 5 13 3
-3 4 -12 1 -19z m363 -28 c-16 -31 -23 -19 -9 16 6 16 13 24 16 17 2 -7 -1
-22 -7 -33z m-340 -39 c0 -5 -7 -12 -16 -15 -14 -5 -15 -4 -4 9 14 17 20 19
20 6z m280 -1 c0 -5 -5 -10 -11 -10 -5 0 -7 5 -4 10 3 6 8 10 11 10 2 0 4 -4
4 -10z m2530 -20 c0 -5 -4 -10 -10 -10 -5 0 -10 5 -10 10 0 6 5 10 10 10 6 0
10 -4 10 -10z m-2980 -20 c0 -5 -7 -10 -16 -10 -8 0 -12 5 -9 10 3 6 10 10 16
10 5 0 9 -4 9 -10z m280 -40 c0 -5 -2 -10 -4 -10 -3 0 -8 5 -11 10 -3 6 -1 10
4 10 6 0 11 -4 11 -10z m40 -184 c0 -3 -4 -8 -10 -11 -5 -3 -10 -1 -10 4 0 6
5 11 10 11 6 0 10 -2 10 -4z m-67 -70 c4 -10 1 -13 -9 -9 -15 6 -19 23 -5 23
5 0 11 -7 14 -14z m880 -228 c-7 -12 -73 -9 -73 2 0 6 17 9 39 8 21 -2 37 -6
34 -10z m-93 -8 c0 -5 -4 -10 -10 -10 -5 0 -10 5 -10 10 0 6 5 10 10 10 6 0
10 -4 10 -10z m1917 -37 c-3 -10 -5 -2 -5 17 0 19 2 27 5 18 2 -10 2 -26 0
-35z m-2767 17 c0 -5 -7 -10 -15 -10 -8 0 -15 5 -15 10 0 6 7 10 15 10 8 0 15
-4 15 -10z m930 -70 c0 -5 -11 -10 -25 -10 -14 0 -25 5 -25 10 0 6 11 10 25
10 14 0 25 -4 25 -10z m163 -110 c-3 -11 -13 -20 -22 -21 -9 0 -29 -2 -46 -4
-18 -3 -25 -1 -17 4 8 5 14 11 13 14 0 4 5 20 10 37 l11 30 28 -20 c20 -14 27
-26 23 -40z m247 0 c0 -5 -4 -10 -10 -10 -5 0 -10 5 -10 10 0 6 5 10 10 10 6
0 10 -4 10 -10z m-309 -46 c20 -12 -7 -27 -29 -15 -11 6 -40 11 -64 11 -29 0
-39 3 -29 9 16 10 104 7 122 -5z m204 6 c3 -5 -1 -10 -10 -10 -9 0 -13 5 -10
10 3 6 8 10 10 10 2 0 7 -4 10 -10z m-358 -26 c-3 -3 -12 -4 -19 -1 -8 3 -5 6
6 6 11 1 17 -2 13 -5z m416 -8 c30 1 37 -20 10 -34 -17 -10 -68 2 -87 19 -6 5
-21 9 -35 9 -21 0 -23 2 -11 10 8 5 33 6 55 2 22 -3 52 -6 68 -6z m-88 -26
c-3 -5 -12 -10 -18 -10 -7 0 -6 4 3 10 19 12 23 12 15 0z m935 -11 c0 -12 -37
-12 -44 0 -7 11 14 20 32 13 6 -2 12 -8 12 -13z m605 -67 c-3 -3 -11 0 -18 7
-9 10 -8 11 6 5 10 -3 15 -9 12 -12z m-445 -33 c0 -4 -9 -5 -20 -2 -20 5 -26
23 -13 37 7 7 33 -21 33 -35z m-2460 21 c0 -5 -2 -10 -4 -10 -3 0 -8 5 -11 10
-3 6 -1 10 4 10 6 0 11 -4 11 -10z m2906 -67 c-10 -10 -19 5 -10 18 6 11 8 11
12 0 2 -7 1 -15 -2 -18z m-668 -22 c3 -8 -1 -12 -9 -9 -7 2 -15 10 -17 17 -3
8 1 12 9 9 7 -2 15 -10 17 -17z m672 -21 c0 -20 -5 -30 -15 -30 -18 0 -18 1
-5 34 13 34 20 33 20 -4z m-445 -90 c3 -5 1 -10 -4 -10 -6 0 -11 5 -11 10 0 6
2 10 4 10 3 0 8 -4 11 -10z"/>
<path d="M1914 22823 c-3 -10 -10 -28 -15 -41 -5 -13 -9 -30 -9 -40 0 -25 23
13 37 61 11 36 -2 55 -13 20z"/>
<path d="M2016 22538 c3 -5 10 -6 15 -3 13 9 11 12 -6 12 -8 0 -12 -4 -9 -9z"/>
<path d="M18965 22251 c-9 -15 18 -45 35 -39 8 2 6 11 -8 27 -14 18 -21 21
-27 12z"/>
<path d="M7912 21758 c-22 -22 -13 -28 36 -27 26 1 37 4 24 6 -13 3 -26 11
-29 19 -6 17 -15 18 -31 2z"/>
<path d="M19474 21429 c-8 -14 4 -59 16 -59 6 0 10 6 10 14 0 8 3 21 6 29 6
17 -22 31 -32 16z"/>
<path d="M6920 21404 c0 -8 5 -12 10 -9 6 3 10 10 10 16 0 5 -4 9 -10 9 -5 0
-10 -7 -10 -16z"/>
<path d="M19440 21401 c0 -5 7 -14 15 -21 16 -14 18 -10 9 14 -6 17 -24 22
-24 7z"/>
<path d="M6863 21373 c-18 -7 -33 -15 -33 -18 0 -6 61 5 79 15 27 14 -13 17
-46 3z"/>
<path d="M17986 21257 c3 -10 9 -15 12 -12 3 3 0 11 -7 18 -10 9 -11 8 -5 -6z"/>
<path d="M17667 21137 c-11 -13 -13 -23 -7 -25 6 -2 18 4 25 14 28 38 11 48
-18 11z"/>
<path d="M6670 20910 c0 -5 5 -10 11 -10 5 0 7 5 4 10 -3 6 -8 10 -11 10 -2 0
-4 -4 -4 -10z"/>
<path d="M7421 20904 c0 -11 3 -14 6 -6 3 7 2 16 -1 19 -3 4 -6 -2 -5 -13z"/>
<path d="M6546 20764 c-4 -9 -4 -19 -1 -22 2 -3 7 3 11 12 4 9 4 19 1 22 -2 3
-7 -3 -11 -12z"/>
<path d="M1932 20609 c2 -7 10 -15 17 -17 8 -3 12 1 9 9 -2 7 -10 15 -17 17
-8 3 -12 -1 -9 -9z"/>
<path d="M913 20363 c-3 -10 -8 -22 -11 -27 -3 -5 0 -6 5 -3 11 7 25 47 17 47
-3 0 -7 -8 -11 -17z"/>
<path d="M7255 20350 c3 -5 8 -10 11 -10 2 0 4 5 4 10 0 6 -5 10 -11 10 -5 0
-7 -4 -4 -10z"/>
<path d="M5870 20252 c-83 -7 -130 -54 -131 -129 -1 -52 12 -133 21 -133 4 0
5 -12 3 -27 l-4 -28 16 31 c8 16 40 56 69 88 49 52 58 58 101 61 46 3 97 35
92 58 -10 49 -87 86 -167 79z"/>
<path d="M6040 20131 c0 -11 -10 -32 -23 -48 -13 -15 -31 -41 -41 -56 -9 -15
-25 -31 -34 -35 -37 -14 -82 -65 -82 -94 0 -15 -4 -28 -9 -28 -13 0 -18 -99
-6 -104 6 -3 4 -5 -2 -5 -9 -1 -8 -10 4 -36 14 -28 22 -35 46 -35 29 0 29 1
24 40 -3 22 -2 38 3 35 4 -3 7 3 6 13 0 9 5 16 12 15 6 -2 12 3 12 10 0 6 18
29 40 49 22 21 46 53 54 72 8 19 24 37 36 41 12 4 19 13 16 20 -3 8 2 11 12 8
26 -6 55 48 43 80 -5 14 -16 27 -23 30 -10 4 -10 6 0 6 19 1 14 18 -8 24 -11
3 -27 -1 -34 -9 -18 -18 -26 -18 -26 0 0 8 -4 18 -10 21 -5 3 -10 -3 -10 -14z
m45 -41 c3 -5 1 -10 -4 -10 -6 0 -11 5 -11 10 0 6 2 10 4 10 3 0 8 -4 11 -10z"/>
<path d="M7425 20140 c-3 -5 -2 -10 4 -10 5 0 13 5 16 10 3 6 2 10 -4 10 -5 0
-13 -4 -16 -10z"/>
<path d="M8895 19940 c3 -5 11 -10 16 -10 6 0 7 5 4 10 -3 6 -11 10 -16 10 -6
0 -7 -4 -4 -10z"/>
<path d="M7561 19901 c-7 -5 -12 -14 -10 -20 2 -6 10 -2 17 9 14 22 13 23 -7
11z"/>
<path d="M6370 19859 c0 -5 5 -7 10 -4 6 3 10 8 10 11 0 2 -4 4 -10 4 -5 0
-10 -5 -10 -11z"/>
<path d="M7532 19840 c-15 -24 -16 -57 -1 -65 6 -5 5 -11 -6 -18 -8 -7 -18
-24 -20 -40 -5 -23 -2 -27 19 -27 28 0 38 -19 42 -75 2 -29 0 -35 -6 -20 -5
11 -9 16 -10 10 0 -5 -7 -2 -14 8 -10 13 -16 15 -21 7 -5 -8 -19 2 -42 26 -32
35 -33 39 -17 51 9 7 21 10 27 6 6 -3 7 -1 4 4 -9 14 -78 14 -94 1 -13 -10
-28 -8 -67 8 -14 5 -17 4 -11 -5 6 -10 0 -12 -26 -6 -34 7 -34 7 -11 -10 12
-9 26 -13 32 -10 6 3 7 -1 4 -9 -3 -9 -15 -16 -25 -16 -10 0 -19 -7 -19 -15 0
-8 -12 -18 -27 -21 -16 -4 -31 -12 -35 -18 -5 -8 -13 -7 -28 2 -18 11 -20 10
-20 -14 0 -15 -4 -23 -10 -19 -6 4 -15 -7 -21 -23 -10 -29 -54 -59 -64 -43 -6
11 14 28 37 32 12 3 15 8 9 18 -7 11 -14 9 -34 -11 -28 -28 -27 -78 1 -78 12
0 10 -6 -9 -27 -34 -39 -51 -72 -43 -84 7 -11 -28 -49 -46 -49 -5 0 -10 -9
-10 -20 0 -11 5 -20 10 -20 6 0 10 -4 10 -10 0 -5 -5 -10 -11 -10 -17 0 -34
-22 -51 -66 -15 -38 -22 -144 -16 -264 1 -19 -1 -72 -4 -118 -6 -73 -5 -83 12
-92 29 -16 39 -12 46 15 4 14 9 23 12 20 6 -6 32 17 99 88 20 20 41 37 47 37
10 -1 66 -68 91 -109 25 -41 61 -88 82 -106 13 -11 23 -26 23 -33 0 -7 10 -17
23 -23 12 -5 33 -26 47 -45 19 -29 21 -37 10 -44 -12 -7 -11 -10 3 -16 9 -3
17 -10 17 -16 0 -13 -42 2 -55 19 -9 13 -13 13 -23 1 -8 -11 -8 -20 1 -39 7
-13 12 -37 12 -54 0 -23 -5 -31 -22 -33 -17 -3 -23 -10 -24 -30 -2 -46 -3 -49
-29 -71 -22 -20 -23 -21 -4 -16 14 4 21 1 21 -10 0 -8 -8 -15 -18 -15 -25 0
-40 -30 -24 -47 8 -7 21 -13 29 -13 19 0 22 -20 4 -21 -7 0 2 -7 20 -15 17 -8
32 -21 32 -29 0 -10 6 -12 18 -8 15 6 15 5 3 -10 -10 -13 -10 -17 -1 -17 7 0
10 -7 6 -15 -3 -8 -1 -15 5 -15 19 0 48 -44 49 -72 0 -31 11 -36 30 -13 7 8
16 13 20 10 5 -3 12 0 16 6 4 7 3 9 -4 5 -6 -3 -13 -2 -16 3 -11 17 8 20 58 9
48 -10 72 -4 46 12 -8 5 -11 12 -7 17 5 4 12 1 16 -6 6 -9 18 -11 40 -6 20 4
31 3 31 -4 0 -6 7 -11 15 -11 9 0 18 -7 21 -15 4 -9 18 -22 32 -29 34 -18 90
-1 94 28 2 15 9 20 26 18 12 -2 22 2 22 9 0 6 8 9 20 6 11 -3 18 -1 14 4 -3 5
2 9 10 9 8 0 18 -4 21 -10 10 -16 62 -12 80 6 9 9 25 14 35 11 27 -7 26 10 -1
18 -25 8 -18 17 13 19 13 1 23 7 23 16 0 9 12 28 27 44 21 24 24 32 15 47 -13
21 -7 29 22 32 12 1 19 6 17 12 -2 5 -8 9 -14 8 -8 -2 -8 5 -3 20 6 15 3 29
-6 44 -9 13 -13 29 -10 37 6 15 -18 31 -40 27 -7 -1 -13 3 -13 9 0 5 -3 9 -7
9 -5 -1 -25 -1 -47 0 -29 1 -37 4 -33 16 4 8 1 17 -5 21 -6 4 -8 3 -4 -4 7
-12 -20 -10 -31 3 -4 4 -2 5 5 1 6 -4 12 -2 12 3 0 6 8 11 18 12 14 0 14 2 -3
9 -11 5 -14 9 -6 9 8 1 20 9 28 19 8 9 12 11 8 5 -3 -7 -3 -13 0 -13 6 0 13 6
58 45 15 13 34 22 42 19 11 -5 13 -2 9 10 -4 10 -1 16 7 16 12 0 12 2 0 9 -18
11 8 26 64 37 22 4 50 13 62 21 13 9 31 12 44 8 14 -5 25 -2 30 6 12 19 45 -2
41 -25 -4 -19 19 -76 30 -76 4 0 8 -19 10 -42 2 -24 8 -42 13 -41 6 1 11 -7
11 -18 0 -11 -6 -18 -15 -16 -11 1 -16 -7 -16 -25 -1 -15 -7 -35 -15 -45 -24
-29 -40 -61 -40 -80 0 -33 -24 -84 -37 -79 -7 3 -13 1 -13 -4 0 -6 -7 -10 -15
-10 -18 0 -37 -40 -42 -87 -3 -29 0 -33 21 -33 16 0 26 7 29 21 6 21 6 21 27
2 20 -19 19 -53 -1 -53 -5 0 -9 -8 -9 -17 1 -17 1 -17 14 0 7 9 17 17 21 17 9
0 55 48 55 58 1 4 14 23 30 42 17 19 30 44 30 57 0 12 6 26 14 30 7 4 16 15
19 23 4 10 6 8 6 -7 1 -12 9 -23 19 -25 14 -3 13 -5 -6 -10 -12 -3 -20 -2 -16
3 3 5 -2 9 -10 9 -29 0 -17 -16 30 -39 26 -13 56 -21 70 -18 13 2 24 0 24 -4
0 -5 -8 -9 -17 -9 -10 0 -25 -5 -33 -11 -12 -8 -10 -9 8 -4 15 4 22 3 20 -6
-2 -7 8 -16 22 -20 l25 -7 -27 -1 c-16 -1 -28 3 -28 9 0 5 -7 7 -15 4 -11 -5
-13 -10 -5 -19 12 -14 3 -68 -10 -60 -11 7 -40 -5 -40 -15 0 -5 7 -16 17 -25
15 -16 15 -17 -8 -13 -16 2 -23 -1 -21 -10 1 -8 -7 -16 -18 -19 -13 -3 -19
-11 -16 -19 3 -8 1 -14 -3 -14 -5 0 -14 -15 -20 -32 -27 -78 -35 -89 -61 -85
-14 2 -19 2 -12 0 19 -7 14 -19 -13 -31 -14 -6 -25 -16 -25 -22 0 -14 -62 -69
-77 -70 -7 0 -13 6 -13 13 0 7 -3 8 -8 2 -4 -5 -16 -10 -27 -10 -11 0 -20 -7
-20 -15 0 -8 5 -14 12 -13 7 2 10 -4 7 -12 -8 -19 -20 -19 -28 0 -3 9 -19 15
-41 15 -19 0 -35 4 -35 9 0 6 -16 7 -35 4 -40 -6 -40 -6 -20 33 13 26 13 30 0
40 -8 6 -15 17 -15 25 0 9 3 10 8 3 4 -6 18 -15 32 -19 22 -6 21 -3 -13 28
-28 25 -44 33 -63 29 -17 -3 -23 -9 -20 -19 5 -11 0 -13 -22 -9 -15 3 -34 1
-42 -4 -13 -9 -13 -11 0 -21 11 -8 6 -9 -22 -6 -23 4 -43 0 -55 -8 -10 -8 -33
-15 -51 -15 -19 0 -31 -4 -27 -10 9 -15 -43 -24 -60 -10 -12 10 -16 9 -21 -4
-3 -9 -11 -13 -16 -10 -6 4 -5 10 3 15 11 6 11 11 1 21 -9 9 -12 9 -12 -1 0
-9 -6 -11 -17 -6 -10 4 -30 7 -45 6 -18 -1 -31 6 -38 20 -17 30 -48 59 -64 59
-8 0 -18 5 -21 10 -4 7 -14 6 -28 -1 -16 -9 -22 -9 -25 0 -2 6 -15 11 -28 11
-14 0 -23 5 -22 13 2 8 -7 11 -26 10 -27 -2 -27 -1 -10 12 17 12 15 13 -22 11
-23 -2 -47 -7 -54 -11 -20 -13 -26 6 -6 21 28 20 -3 19 -31 -1 -13 -9 -24 -11
-28 -6 -3 5 -1 12 5 16 5 3 10 14 10 23 0 13 -4 11 -16 -6 -9 -13 -27 -27 -41
-33 -13 -5 -21 -14 -18 -20 4 -6 13 -8 21 -5 8 3 18 -2 21 -11 8 -20 -42 -63
-72 -63 -14 0 -16 3 -7 9 7 4 12 14 10 21 -2 7 8 16 22 20 22 5 23 7 5 11 -11
3 -36 2 -55 -1 -27 -4 -31 -7 -17 -13 10 -4 16 -11 12 -16 -3 -6 -13 -7 -22
-4 -10 4 -14 2 -9 -5 3 -6 1 -14 -5 -18 -9 -5 -10 0 -6 15 4 17 0 25 -18 33
-15 7 -21 16 -18 27 4 12 3 13 -6 5 -14 -13 -4 -44 15 -44 8 0 11 -6 7 -15 -3
-9 -13 -15 -22 -13 -9 1 -22 -1 -28 -5 -9 -5 -13 -2 -13 9 0 17 -1 17 -13 0
-13 -17 -14 -17 -20 -2 -4 9 -12 16 -19 15 -33 -4 -47 2 -42 16 4 8 1 15 -5
15 -6 0 -11 -5 -11 -12 0 -6 -6 -3 -14 8 -8 10 -18 19 -23 19 -5 0 -17 8 -27
18 -10 9 -14 17 -10 17 4 0 -2 11 -15 23 -14 16 -19 30 -15 42 6 14 3 16 -14
11 -11 -4 -23 -2 -27 4 -3 6 -11 8 -16 5 -5 -4 -9 -2 -9 4 0 5 -21 24 -46 43
-32 23 -44 38 -41 50 4 13 -1 18 -18 18 -15 0 -25 7 -28 21 -3 12 -10 18 -16
14 -12 -7 -57 37 -66 65 -3 10 -12 21 -20 24 -8 3 -15 12 -15 21 0 19 -46 20
-57 1 -4 -7 -18 -18 -30 -25 -13 -6 -23 -16 -23 -22 0 -6 4 -8 9 -5 13 9 20
-31 8 -43 -8 -8 -8 -11 1 -11 6 0 9 -6 6 -14 -3 -9 3 -17 16 -21 14 -5 20 -13
18 -28 -2 -16 2 -22 15 -21 9 1 17 -5 17 -13 0 -8 -4 -12 -9 -8 -5 3 -12 1
-16 -4 -8 -14 30 -32 52 -25 17 5 17 5 1 -9 -22 -18 -23 -27 -2 -27 8 0 12 -5
9 -11 -4 -5 1 -20 12 -31 18 -20 18 -21 -7 -14 -25 6 -25 6 -2 -6 13 -6 21
-16 18 -22 -18 -44 -18 -45 9 -52 19 -5 23 -10 16 -17 -8 -8 -20 -2 -43 20
-27 24 -38 29 -58 23 -18 -6 -20 -8 -7 -9 10 -1 25 -7 33 -15 12 -13 11 -15
-6 -21 -20 -6 -20 -7 4 -26 13 -10 31 -19 39 -19 9 0 19 -5 22 -11 4 -6 17
-14 29 -19 21 -9 21 -9 -2 -9 -12 -1 -34 6 -47 15 -28 18 -50 9 -50 -21 0 -15
-9 -21 -35 -26 -34 -5 -29 -14 14 -21 11 -2 21 -9 24 -15 5 -17 -60 -17 -76
-1 -9 9 -12 8 -12 -5 0 -11 12 -18 35 -23 19 -3 33 -10 30 -14 -7 -11 20 -31
36 -28 7 2 15 -6 17 -17 3 -15 1 -17 -9 -9 -8 6 -25 8 -39 4 -17 -4 -21 -8
-12 -14 22 -13 13 -26 -15 -20 -22 4 -25 3 -13 -5 12 -9 13 -11 1 -11 -23 0
-3 -14 25 -18 16 -2 23 1 19 8 -4 6 9 10 34 10 22 0 43 -4 46 -10 4 -6 -8 -10
-28 -10 -19 0 -40 -7 -47 -15 -7 -8 -17 -12 -23 -8 -6 3 -7 1 -3 -5 6 -10 68
-8 103 3 22 7 24 -14 2 -26 -31 -16 -7 -29 59 -29 42 0 50 -3 41 -12 -7 -8
-35 -12 -75 -11 -52 1 -62 -1 -57 -14 3 -8 14 -13 24 -10 10 3 23 -1 30 -9 6
-8 16 -14 21 -14 6 0 4 8 -3 17 -12 15 -12 16 4 10 10 -4 26 -7 35 -8 9 0 12
-3 6 -5 -13 -6 -6 -54 8 -54 6 0 8 6 5 14 -4 11 -1 11 18 2 l24 -11 -22 -11
c-11 -7 -27 -9 -35 -6 -10 3 -13 0 -10 -9 2 -8 14 -15 25 -17 12 -2 23 -12 26
-24 3 -11 10 -17 16 -14 5 4 13 2 16 -4 4 -6 3 -10 -2 -9 -20 3 -33 -2 -31
-12 2 -6 -3 -14 -9 -16 -7 -3 -13 0 -13 7 0 6 -4 8 -10 5 -5 -3 -10 -11 -10
-16 0 -6 4 -8 9 -4 5 3 12 1 16 -5 3 -5 1 -10 -4 -10 -6 0 -11 -6 -11 -13 0
-7 -9 -23 -20 -35 -16 -17 -18 -26 -10 -46 9 -25 8 -26 -23 -23 -27 3 -32 7
-29 28 1 13 -1 19 -5 13 -5 -6 -16 -13 -26 -17 -10 -4 -16 -11 -13 -15 2 -4
-9 -7 -25 -6 -26 2 -29 -1 -23 -19 7 -26 31 -47 53 -47 10 -1 7 -6 -9 -15 -22
-12 -27 -11 -41 1 -15 14 -19 13 -33 -8 -9 -12 -16 -18 -16 -12 0 5 5 15 11
21 8 8 8 13 0 18 -7 3 -20 -4 -31 -17 -16 -20 -17 -25 -5 -34 16 -12 20 -25 8
-22 -13 4 -53 -26 -53 -38 0 -7 -7 -15 -16 -18 -8 -3 -12 -2 -9 4 10 15 -5 12
-22 -6 -13 -13 -18 -13 -25 -2 -7 9 -8 8 -4 -6 4 -10 1 -26 -6 -34 -11 -13
-10 -15 5 -9 11 4 16 3 12 -3 -10 -16 -45 -7 -113 28 -35 19 -66 32 -68 30 -5
-5 157 -101 236 -139 406 -197 761 -299 1164 -335 470 -42 662 29 722 265 8
31 17 64 20 74 4 11 0 17 -10 17 -9 0 -16 5 -16 12 0 6 3 8 6 5 13 -13 42 13
37 32 -4 16 -9 18 -30 10 -39 -15 -44 -11 -19 15 13 13 32 49 42 80 10 31 23
56 30 56 6 0 14 14 16 30 5 32 -9 39 -30 18 -15 -15 -16 -32 -2 -23 6 3 10 2
10 -3 0 -18 -28 -21 -35 -4 -3 9 -1 18 4 20 6 2 11 9 11 16 0 8 -12 11 -35 8
-23 -3 -35 0 -35 8 0 8 14 11 45 8 26 -2 45 1 45 7 0 5 5 3 10 -5 8 -13 10
-13 10 1 0 9 6 16 13 16 9 0 12 -9 9 -24 -2 -13 1 -23 7 -23 6 0 11 -7 11 -15
0 -28 38 -55 78 -55 48 0 62 10 79 56 29 79 32 74 -43 76 -38 1 -91 1 -118 0
l-48 -3 4 41 c3 33 0 40 -14 40 -10 0 -18 5 -18 11 0 5 4 8 9 4 11 -6 51 33
51 48 0 6 -8 3 -18 -6 -23 -21 -46 -22 -38 -2 4 13 2 13 -14 5 -28 -15 -38
-12 -14 4 11 8 27 14 35 14 34 -2 60 3 55 10 -2 4 -1 14 4 22 5 8 3 19 -6 27
-19 19 -19 39 1 23 12 -10 17 -5 30 25 33 80 64 195 52 195 -7 0 -4 5 6 11 14
8 17 18 12 36 -3 14 -2 22 3 19 5 -3 19 27 30 67 24 80 74 148 174 237 31 28
80 85 107 126 57 85 171 307 171 332 0 9 6 29 14 44 8 15 17 40 21 57 5 26 4
30 -9 25 -19 -7 -23 31 -4 42 8 5 9 2 5 -9 -4 -12 -1 -17 9 -17 11 0 14 6 10
16 -3 9 -6 20 -6 25 0 6 -4 7 -10 4 -5 -3 -10 -1 -10 4 0 17 18 13 29 -6 7
-14 11 -10 16 22 4 22 15 69 26 104 10 35 19 72 19 81 0 24 18 37 63 45 21 4
37 13 37 21 0 8 -4 14 -9 14 -5 0 -16 3 -25 6 -11 4 -16 1 -16 -10 0 -9 -4
-16 -10 -16 -5 0 -10 4 -10 9 0 6 5 13 10 16 6 3 10 24 10 46 l0 39 41 0 c36
0 99 25 99 40 0 3 -16 14 -35 24 -27 15 -35 25 -35 48 0 22 4 28 23 28 37 0
50 15 43 45 -7 26 -6 27 32 20 48 -8 68 11 77 75 8 56 -10 180 -27 191 -7 5
-8 9 -3 9 10 0 -15 20 -25 20 -3 0 -5 -35 -6 -78 -1 -80 -13 -115 -60 -178
-13 -17 -24 -36 -24 -41 0 -6 -9 -13 -20 -16 -15 -4 -20 -1 -18 11 2 10 6 19
9 22 6 5 49 116 49 125 0 3 -4 5 -9 5 -5 0 -12 -13 -16 -29 -4 -21 -12 -29
-26 -28 -10 1 -19 5 -19 10 0 5 -6 4 -13 -2 -8 -6 -18 -7 -22 -3 -5 4 -5 1 -1
-5 10 -18 -24 -16 -48 2 -11 8 -15 15 -9 15 7 0 15 -5 18 -10 4 -6 11 -7 17
-4 20 13 -30 23 -63 14 -40 -12 -52 -5 -46 26 4 21 1 24 -27 23 -23 -1 -25 -3
-9 -6 22 -4 22 -6 8 -32 -8 -16 -12 -31 -9 -34 3 -3 -2 -17 -11 -30 -9 -14
-16 -40 -17 -59 0 -18 -11 -50 -24 -70 -13 -21 -24 -43 -24 -49 0 -6 -6 -25
-14 -42 -27 -62 -33 -79 -35 -104 0 -9 -4 -13 -8 -10 -3 4 -12 2 -20 -4 -16
-14 -16 -8 -2 25 9 19 9 29 1 39 -6 7 -14 62 -18 122 -3 61 -10 112 -15 113
-5 2 -9 34 -9 72 0 42 -4 70 -11 72 -7 2 -13 21 -14 41 -1 21 -10 46 -19 56
-9 9 -16 22 -16 28 0 6 -6 16 -14 23 -8 6 -12 19 -9 27 4 11 2 14 -5 9 -7 -4
-14 3 -18 18 -3 13 -14 26 -25 29 -11 3 -19 14 -19 26 0 15 -17 32 -57 58 -32
20 -70 49 -85 65 -14 16 -50 40 -80 54 -73 34 -99 50 -93 56 3 2 -2 5 -10 5
-8 0 -12 -5 -8 -10 3 -5 -3 -6 -15 -3 -23 8 -163 -19 -171 -33 -3 -5 -15 -11
-26 -14 -20 -5 -19 -5 1 -12 18 -6 20 -10 10 -30 l-11 -23 -28 24 c-16 13 -33
24 -38 24 -5 0 -9 5 -9 11 0 8 5 8 15 -1 12 -10 15 -10 15 4 0 9 -8 16 -20 16
-11 0 -20 5 -20 11 0 7 9 9 23 5 17 -4 24 -1 24 9 0 10 -12 15 -36 16 -43 2
-31 2 -113 -6 -37 -4 -81 -8 -99 -9 -17 -1 -37 -10 -44 -19 -10 -15 -13 -14
-28 3 -11 13 -17 42 -19 90 -1 38 -2 70 -3 70 0 0 -6 -9 -13 -20z m56 -327
c-2 -5 2 -8 7 -8 6 0 9 2 8 5 -3 9 97 2 110 -8 17 -13 68 -26 94 -23 17 2 21
-2 17 -13 -3 -9 -10 -16 -15 -16 -5 0 -9 -9 -9 -20 0 -11 -4 -20 -10 -20 -5 0
-10 -11 -10 -25 0 -14 -5 -25 -12 -25 -6 0 -1 -11 11 -24 15 -16 20 -29 15
-38 -6 -11 -5 -11 8 0 12 10 18 10 27 -2 9 -10 7 -17 -6 -27 -11 -9 -14 -10
-9 -1 4 6 3 12 -3 12 -20 0 -21 -19 -1 -25 12 -4 19 -12 17 -18 -6 -18 -165
-12 -183 6 -4 4 -41 7 -83 7 -77 0 -152 -19 -159 -39 -2 -6 -12 -11 -23 -11
-10 0 -19 -4 -19 -10 0 -5 -10 -10 -22 -10 -13 0 -41 -14 -62 -30 -43 -33 -66
-38 -66 -15 0 20 33 95 42 95 4 0 5 15 3 33 -4 29 3 41 55 97 32 36 57 67 54
71 -7 12 33 39 49 33 10 -4 19 0 22 9 4 10 17 13 41 10 18 -2 34 0 34 5 0 11
39 30 63 31 9 1 16 -2 15 -6z m851 -85 c-1 -7 4 -26 11 -43 8 -16 14 -34 15
-40 1 -5 7 -28 13 -49 6 -22 9 -42 7 -47 -3 -4 9 -45 25 -90 30 -86 37 -119
22 -119 -5 0 -9 -7 -9 -15 0 -8 2 -13 5 -10 2 2 11 -3 19 -11 16 -16 38 -83
29 -91 -9 -9 -25 7 -20 21 3 7 -7 21 -21 30 -14 9 -23 21 -21 25 6 10 -31 45
-58 55 -17 6 -18 2 -12 -64 5 -51 4 -70 -4 -70 -7 0 -10 7 -6 15 3 8 1 15 -4
15 -6 0 -10 7 -10 17 0 21 -79 95 -127 120 -21 10 -57 25 -80 33 -24 7 -43 17
-43 22 0 4 -6 8 -14 8 -7 0 -19 6 -26 14 -6 8 -17 13 -24 10 -8 -3 -16 1 -19
9 -4 11 -20 14 -64 11 -32 -2 -64 -6 -71 -9 -14 -5 -72 21 -72 32 0 3 14 3 30
-1 29 -5 31 -4 28 21 -2 15 2 28 7 28 6 0 19 6 31 12 11 7 43 14 70 16 27 2
59 9 72 16 12 6 27 9 33 6 5 -4 27 4 47 17 20 14 59 28 85 31 62 9 70 14 63
42 -5 19 0 23 37 32 58 15 58 15 56 1z m-542 -24 c-3 -3 -12 -4 -19 -1 -8 3
-5 6 6 6 11 1 17 -2 13 -5z m43 -34 c-11 -20 -30 -28 -30 -12 0 11 22 32 32
32 5 0 4 -9 -2 -20z m1044 -235 c-4 -8 -10 -15 -15 -15 -5 0 -9 7 -9 15 0 8 7
15 15 15 9 0 12 -6 9 -15z m-1483 -35 c5 0 18 -9 29 -20 19 -19 21 -19 55 -3
27 13 40 14 58 6 13 -6 34 -10 48 -8 13 1 16 0 7 -2 -14 -4 -15 -8 -6 -29 l11
-24 23 21 c19 18 31 21 64 16 24 -3 49 -14 59 -26 10 -12 27 -21 37 -21 15 0
16 -2 5 -9 -7 -5 -10 -14 -7 -20 5 -8 15 -5 33 9 14 11 37 20 50 20 32 0 80
-26 93 -50 7 -13 19 -18 38 -16 30 3 72 -28 72 -54 0 -9 5 -21 12 -28 8 -8 8
-15 -2 -27 -16 -19 -64 -14 -90 10 -15 14 -18 14 -30 0 -28 -34 -170 -7 -170
33 0 13 -3 12 -16 -6 -11 -17 -25 -22 -56 -22 -65 0 -118 20 -124 46 -5 19 -9
22 -24 14 -38 -20 -87 -12 -113 19 l-24 29 -39 -24 c-50 -30 -62 -30 -76 4 -7
15 -13 29 -14 31 -2 2 -15 -6 -30 -18 -36 -28 -62 -27 -70 3 -12 48 36 87 87
71 14 -5 21 0 28 17 14 36 45 68 59 63 8 -3 18 -5 23 -5z m1509 -135 c0 -8 -4
-15 -10 -15 -5 0 -7 7 -4 15 4 8 8 15 10 15 2 0 4 -7 4 -15z m-13 -57 c-3 -7
-5 -2 -5 12 0 14 2 19 5 13 2 -7 2 -19 0 -25z m-747 -113 c0 -8 -7 -15 -15
-15 -8 0 -15 5 -15 11 0 5 5 7 10 4 6 -3 10 -1 10 4 0 6 2 11 5 11 3 0 5 -7 5
-15z m630 -185 c0 -5 -5 -10 -11 -10 -5 0 -7 5 -4 10 3 6 8 10 11 10 2 0 4 -4
4 -10z m-1336 -16 c4 -10 13 -13 25 -9 11 3 24 -1 32 -11 12 -15 10 -16 -21
-10 -60 13 -70 17 -70 32 0 19 26 18 34 -2z m-22 -30 c18 -3 49 -11 68 -19 20
-7 81 -19 135 -25 55 -7 103 -17 107 -23 3 -6 35 -10 70 -10 52 1 71 6 102 27
21 14 43 26 47 26 16 0 9 -28 -8 -33 -10 -4 -36 -16 -58 -29 -48 -27 -61 -32
-98 -32 -25 -1 -28 -4 -24 -26 5 -25 5 -25 -12 -4 -19 24 -50 23 -68 -2 -11
-16 -13 -16 -19 -1 -7 20 -30 23 -36 5 -3 -9 -25 -8 -89 5 -46 9 -85 12 -87 8
-5 -14 -63 -2 -97 20 -16 10 -26 19 -21 19 5 0 1 10 -10 22 -17 19 -17 21 -2
15 10 -3 20 -2 23 4 4 5 10 7 15 4 5 -3 11 -1 15 5 3 5 2 10 -3 10 -5 0 -9 13
-9 30 0 23 3 27 13 19 7 -6 28 -13 46 -15z m-88 -1 c4 -11 1 -11 -14 -3 -24
13 -25 17 -5 17 8 0 16 -6 19 -14z m1432 -31 c1 -7 0 -8 -3 -2 -2 5 -9 8 -14
4 -5 -3 -9 0 -9 6 0 15 23 7 26 -8z m-96 -52 c0 -5 -5 -10 -11 -10 -5 0 -7 5
-4 10 3 6 8 10 11 10 2 0 4 -4 4 -10z m-313 -15 c0 -8 -6 -15 -14 -15 -14 0
-17 12 -6 23 11 11 20 8 20 -8z m353 -9 c0 -3 -4 -8 -10 -11 -5 -3 -10 -1 -10
4 0 6 5 11 10 11 6 0 10 -2 10 -4z m-860 -26 c0 -5 -5 -10 -11 -10 -5 0 -7 5
-4 10 3 6 8 10 11 10 2 0 4 -4 4 -10z m-55 -30 c8 -14 -45 -34 -57 -22 -6 6
-5 13 3 17 8 6 10 4 4 -5 -6 -10 -4 -12 9 -7 10 4 22 7 27 7 6 0 7 5 4 10 -3
6 -4 10 -1 10 3 0 8 -5 11 -10z m-100 -20 c3 -5 1 -10 -4 -10 -6 0 -11 5 -11
10 0 6 2 10 4 10 3 0 8 -4 11 -10z m745 -19 c-6 -12 -15 -19 -20 -16 -5 3 -2
14 8 24 22 22 27 19 12 -8z m-773 13 c-3 -3 -12 -4 -19 -1 -8 3 -5 6 6 6 11 1
17 -2 13 -5z m759 -71 c-10 -10 -19 5 -10 18 6 11 8 11 12 0 2 -7 1 -15 -2
-18z m-77 -41 c-10 -2 -16 -14 -17 -34 0 -20 -11 -42 -31 -62 -17 -18 -31 -37
-31 -44 0 -7 -7 -12 -15 -12 -8 0 -15 -7 -15 -15 0 -9 -6 -12 -15 -9 -13 5
-18 54 -5 52 10 -2 60 25 60 33 0 4 -6 9 -12 12 -10 3 -10 10 1 30 25 47 48
66 73 59 16 -4 18 -7 7 -10z m51 9 c0 -5 -7 -11 -14 -14 -10 -4 -13 -1 -9 9 6
15 23 19 23 5z m-40 -42 c0 -5 -4 -9 -8 -9 -5 0 -9 7 -9 15 0 8 4 12 9 9 4 -3
8 -9 8 -15z m270 -49 c0 -5 -4 -10 -10 -10 -5 0 -10 5 -10 10 0 6 5 10 10 10
6 0 10 -4 10 -10z m-133 -17 c3 -7 -3 -9 -16 -6 -12 3 -21 10 -21 15 0 13 32
6 37 -9z m29 -9 c-4 -9 -9 -15 -11 -12 -3 3 -3 13 1 22 4 9 9 15 11 12 3 -3 3
-13 -1 -22z m74 -10 c0 -3 -7 -1 -15 6 -8 7 -15 17 -15 22 0 5 7 3 15 -6 8 -8
15 -18 15 -22z m-700 -104 c0 -5 -2 -10 -4 -10 -3 0 -8 5 -11 10 -3 6 -1 10 4
10 6 0 11 -4 11 -10z m-820 -270 c0 -5 -5 -10 -11 -10 -5 0 -7 5 -4 10 3 6 8
10 11 10 2 0 4 -4 4 -10z m-745 -11 c11 -17 0 -20 -21 -4 -17 13 -17 14 -2 15
9 0 20 -5 23 -11z m1595 -59 c0 -5 -7 -10 -16 -10 -8 0 -12 5 -9 10 3 6 10 10
16 10 5 0 9 -4 9 -10z m-1505 -10 c3 -5 1 -10 -4 -10 -6 0 -11 5 -11 10 0 6 2
10 4 10 3 0 8 -4 11 -10z m-85 -15 c0 -2 -9 -9 -20 -15 -22 -12 -44 -5 -35 11
6 9 55 13 55 4z m66 -42 c-7 -7 -65 20 -60 28 3 5 18 2 34 -8 16 -9 28 -18 26
-20z m-76 -17 c-14 -8 -29 -12 -33 -9 -12 8 14 23 38 22 18 0 17 -1 -5 -13z
m80 -28 c0 -10 -19 -9 -45 2 -16 7 -14 8 12 7 18 -1 33 -5 33 -9z m1810 -68
c0 -5 -4 -10 -10 -10 -5 0 -10 5 -10 10 0 6 5 10 10 10 6 0 10 -4 10 -10z
m-1840 -14 c0 -3 -4 -8 -10 -11 -5 -3 -10 -1 -10 4 0 6 5 11 10 11 6 0 10 -2
10 -4z m20 -36 c0 -5 -8 -10 -17 -10 -15 0 -16 2 -3 10 19 12 20 12 20 0z m37
-6 c-3 -3 -12 -4 -19 -1 -8 3 -5 6 6 6 11 1 17 -2 13 -5z m-5 -44 c-22 -21
-58 -28 -47 -9 7 10 42 27 59 28 6 1 0 -8 -12 -19z m58 -69 c0 -5 -7 -11 -15
-15 -15 -5 -20 5 -8 17 9 10 23 9 23 -2z m1595 -70 c3 -5 1 -12 -4 -15 -5 -3
-11 1 -15 9 -6 16 9 21 19 6z m-1570 -31 c-3 -5 0 -10 7 -10 9 0 9 -3 -2 -10
-8 -5 -19 -10 -25 -10 -5 0 -3 5 5 10 12 8 10 10 -10 11 l-25 1 25 8 c14 4 26
8 28 9 2 1 0 -3 -3 -9z m1575 -20 c0 -5 -5 -10 -11 -10 -5 0 -7 5 -4 10 3 6 8
10 11 10 2 0 4 -4 4 -10z m-1570 -81 c0 -7 -25 -19 -42 -19 -7 0 -7 5 1 13 11
14 41 19 41 6z m1519 -23 c-2 -2 -18 -7 -34 -11 l-30 -6 30 14 c27 13 45 14
34 3z m-399 -36 c0 -5 -15 -9 -32 -9 l-33 1 30 8 c17 4 31 8 33 9 1 0 2 -3 2
-9z m320 -20 c0 -5 -4 -10 -9 -10 -6 0 -13 5 -16 10 -3 6 1 10 9 10 9 0 16 -4
16 -10z m-1518 -22 c-7 -7 -12 -8 -12 -2 0 14 12 26 19 19 2 -3 -1 -11 -7 -17z
m1188 -9 c0 -5 -7 -6 -15 -3 -8 4 -15 13 -15 21 0 13 3 13 15 3 8 -7 15 -16
15 -21z m-40 -9 c12 -8 12 -10 -5 -10 -11 0 -27 5 -35 10 -12 8 -12 10 5 10
11 0 27 -5 35 -10z m-1240 -29 c0 -12 -39 -21 -45 -11 -3 5 3 11 12 13 29 8
33 7 33 -2z m7 -43 c-3 -8 -6 -5 -6 6 -1 11 2 17 5 13 3 -3 4 -12 1 -19z
m1200 6 c-3 -3 -12 -4 -19 -1 -8 3 -5 6 6 6 11 1 17 -2 13 -5z m40 0 c-3 -3
-12 -4 -19 -1 -8 3 -5 6 6 6 11 1 17 -2 13 -5z m-1267 -64 c0 -5 -4 -10 -9
-10 -6 0 -13 5 -16 10 -3 6 1 10 9 10 9 0 16 -4 16 -10z m1645 -20 c3 -5 1
-10 -4 -10 -6 0 -11 5 -11 10 0 6 2 10 4 10 3 0 8 -4 11 -10z m48 -207 c-7 -2
-19 -2 -25 0 -7 3 -2 5 12 5 14 0 19 -2 13 -5z m-32 -70 c-8 -15 -10 -15 -11
-2 0 17 10 32 18 25 2 -3 -1 -13 -7 -23z m-451 -53 c0 -5 -4 -10 -10 -10 -5 0
-10 5 -10 10 0 6 5 10 10 10 6 0 10 -4 10 -10z m290 -110 c0 -5 -4 -10 -10
-10 -5 0 -10 5 -10 10 0 6 5 10 10 10 6 0 10 -4 10 -10z m60 -6 c0 -2 -9 -4
-21 -4 -11 0 -18 4 -14 10 5 8 35 3 35 -6z m-860 -14 c0 -5 -7 -10 -16 -10 -8
0 -12 5 -9 10 3 6 10 10 16 10 5 0 9 -4 9 -10z m113 -27 c-7 -2 -19 -2 -25 0
-7 3 -2 5 12 5 14 0 19 -2 13 -5z"/>
<path d="M7655 19479 c-9 -14 -2 -20 14 -10 8 6 9 11 3 15 -6 3 -14 1 -17 -5z"/>
<path d="M7633 19443 c-14 -3 -21 -11 -20 -24 1 -18 3 -18 13 -5 6 9 16 16 23
16 6 0 11 5 11 10 0 6 -1 9 -2 9 -2 -1 -13 -4 -25 -6z"/>
<path d="M7545 19411 c-3 -5 -2 -12 3 -15 5 -3 9 1 9 9 0 17 -3 19 -12 6z"/>
<path d="M7737 19399 c7 -7 15 -10 18 -7 3 3 -2 9 -12 12 -14 6 -15 5 -6 -5z"/>
<path d="M7770 19320 c0 -5 5 -10 11 -10 5 0 7 5 4 10 -3 6 -8 10 -11 10 -2 0
-4 -4 -4 -10z"/>
<path d="M8377 19403 c-14 -14 -7 -43 11 -42 10 0 12 3 5 6 -7 2 -13 11 -13
19 0 9 5 12 10 9 6 -3 10 -1 10 4 0 12 -13 14 -23 4z"/>
<path d="M7502 18509 c2 -6 8 -10 13 -10 5 0 11 4 13 10 2 6 -4 11 -13 11 -9
0 -15 -5 -13 -11z"/>
<path d="M7537 18496 c-4 -10 -1 -16 8 -16 8 0 17 0 20 0 3 0 5 2 5 5 0 3 -3
5 -6 4 -4 0 -10 5 -14 11 -5 8 -9 7 -13 -4z"/>
<path d="M8390 18214 c0 -8 5 -12 10 -9 6 4 8 11 5 16 -9 14 -15 11 -15 -7z"/>
<path d="M6405 19830 c-3 -6 1 -7 9 -4 18 7 21 14 7 14 -6 0 -13 -4 -16 -10z"/>
<path d="M7337 19755 c-5 -10 0 -15 14 -15 12 0 19 5 17 12 -6 18 -25 20 -31
3z"/>
<path d="M7238 19663 c7 -3 16 -2 19 1 4 3 -2 6 -13 5 -11 0 -14 -3 -6 -6z"/>
<path d="M5970 19645 c-10 -12 -7 -17 16 -25 16 -6 32 -16 35 -22 4 -6 11 -9
16 -7 5 2 -6 19 -23 36 -27 28 -34 30 -44 18z"/>
<path d="M6626 19611 c-3 -5 1 -11 9 -14 9 -4 12 -1 8 9 -6 16 -10 17 -17 5z"/>
<path d="M9208 19593 c-30 -33 -42 -93 -22 -108 14 -10 73 -172 75 -203 1 -32
38 132 45 200 8 84 1 111 -31 126 -35 16 -38 16 -67 -15z"/>
<path d="M6595 19589 c-4 -6 -5 -12 -2 -15 2 -3 7 2 10 11 7 17 1 20 -8 4z"/>
<path d="M6103 19551 c-14 -22 -93 -45 -128 -39 -35 7 -39 -5 -9 -33 19 -18
34 -23 64 -20 21 1 47 -2 57 -7 28 -15 48 -1 48 33 0 17 3 38 7 47 12 26 -24
43 -39 19z"/>
<path d="M6633 19543 c4 -3 2 -12 -4 -20 -9 -10 -8 -13 5 -13 9 0 16 8 16 20
0 11 -5 20 -12 20 -6 0 -8 -3 -5 -7z"/>
<path d="M6605 19480 c-16 -18 -16 -18 4 -13 25 6 35 19 22 27 -4 3 -16 -3
-26 -14z"/>
<path d="M6710 19475 c-7 -8 -9 -22 -6 -32 4 -9 1 -20 -6 -25 -10 -6 -10 -10
2 -17 12 -9 12 -11 -3 -17 -9 -3 -17 -10 -17 -16 0 -5 5 -6 10 -3 6 3 10 -1
10 -9 0 -8 -5 -18 -10 -21 -6 -4 -8 -10 -5 -15 3 -5 1 -19 -4 -32 -5 -14 -12
-49 -16 -79 -4 -30 -11 -61 -15 -69 -9 -17 -10 -22 -10 -51 0 -11 -4 -17 -10
-14 -5 3 -10 -1 -10 -9 0 -9 4 -16 9 -16 4 0 7 -10 6 -22 -1 -13 -3 -23 -4
-23 -7 0 -9 -61 -2 -70 4 -5 4 -21 0 -35 -7 -25 -7 -25 -8 -2 -1 13 -5 21 -11
17 -5 -3 -7 -12 -3 -20 3 -8 -1 -15 -8 -15 -7 0 -9 -3 -6 -6 3 -4 2 -15 -3
-24 -7 -14 -5 -20 7 -25 10 -3 19 -1 21 4 5 14 32 14 32 1 0 -5 -4 -10 -10
-10 -6 0 -9 -5 -7 -12 1 -7 -4 -12 -10 -13 -7 0 -13 -4 -13 -10 0 -5 6 -10 13
-10 6 0 13 -10 13 -22 1 -13 -5 -23 -12 -23 -8 0 -14 5 -14 10 0 18 -18 10
-23 -10 -5 -21 7 -37 17 -22 3 5 18 7 33 4 24 -5 25 -6 8 -12 -11 -4 -22 -4
-25 1 -3 4 -11 -1 -18 -12 -12 -19 -11 -20 7 -14 10 3 22 1 26 -5 5 -8 11 -8
20 0 24 20 36 2 19 -26 -10 -15 -12 -24 -5 -24 6 0 16 11 21 25 5 14 15 25 21
25 6 0 9 6 6 14 -3 8 1 20 9 26 17 15 19 71 2 88 -9 9 -8 18 2 39 19 40 21 95
3 89 -11 -5 -10 -1 2 17 13 18 15 58 15 247 0 124 3 236 6 250 7 32 -27 58
-46 35z"/>
<path d="M6140 19391 c0 -30 -73 -73 -123 -73 -21 1 -37 -1 -35 -3 2 -2 20
-15 41 -29 34 -24 39 -24 71 -11 19 8 37 19 41 25 12 20 21 9 17 -20 -3 -21 0
-30 9 -30 11 0 11 -2 -1 -10 -12 -8 -12 -10 -1 -10 8 0 11 -7 8 -20 -5 -21 1
-25 18 -12 9 6 10 47 5 126 -1 23 -26 72 -40 81 -5 3 -10 -3 -10 -14z"/>
<path d="M6610 19229 c0 -5 5 -7 10 -4 6 3 10 8 10 11 0 2 -4 4 -10 4 -5 0
-10 -5 -10 -11z"/>
<path d="M9038 19216 c-10 -7 -15 -16 -12 -19 4 -3 13 1 21 9 20 19 13 26 -9
10z"/>
<path d="M6590 19018 c0 -4 4 -8 9 -8 6 0 12 4 15 8 3 5 -1 9 -9 9 -8 0 -15
-4 -15 -9z"/>
<path d="M6557 18887 c-3 -8 0 -21 8 -27 19 -15 27 3 11 25 -11 16 -14 16 -19
2z"/>
<path d="M6490 18771 c0 -5 7 -11 14 -14 10 -4 13 -1 9 9 -6 15 -23 19 -23 5z"/>
<path d="M6540 18724 c0 -14 3 -14 15 -4 8 7 15 14 15 16 0 2 -7 4 -15 4 -8 0
-15 -7 -15 -16z"/>
<path d="M6550 18690 c0 -5 7 -10 15 -10 8 0 15 5 15 10 0 6 -7 10 -15 10 -8
0 -15 -4 -15 -10z"/>
<path d="M6411 18423 c-16 -34 -8 -40 13 -9 8 14 12 27 7 30 -4 3 -13 -6 -20
-21z"/>
<path d="M8133 18383 c9 -2 23 -2 30 0 6 3 -1 5 -18 5 -16 0 -22 -2 -12 -5z"/>
<path d="M6380 18376 c0 -2 7 -6 15 -10 8 -3 15 -1 15 4 0 6 -7 10 -15 10 -8
0 -15 -2 -15 -4z"/>
<path d="M6345 18259 c-4 -6 -5 -13 -2 -16 7 -7 27 6 27 18 0 12 -17 12 -25
-2z"/>
<path d="M6270 18200 c0 -5 5 -10 11 -10 5 0 7 5 4 10 -3 6 -8 10 -11 10 -2 0
-4 -4 -4 -10z"/>
<path d="M6580 18120 c-9 -6 -10 -10 -3 -10 6 0 15 5 18 10 8 12 4 12 -15 0z"/>
<path d="M7308 18113 c6 -2 9 -10 6 -15 -4 -7 -2 -8 5 -4 13 9 5 26 -12 25 -9
0 -8 -2 1 -6z"/>
<path d="M8531 18044 c0 -11 3 -14 6 -6 3 7 2 16 -1 19 -3 4 -6 -2 -5 -13z"/>
<path d="M6278 18033 c7 -3 16 -2 19 1 4 3 -2 6 -13 5 -11 0 -14 -3 -6 -6z"/>
<path d="M8470 18010 c0 -5 5 -10 10 -10 6 0 10 5 10 10 0 6 -4 10 -10 10 -5
0 -10 -4 -10 -10z"/>
<path d="M7506 17968 c3 -5 10 -6 15 -3 13 9 11 12 -6 12 -8 0 -12 -4 -9 -9z"/>
<path d="M6690 17959 c0 -5 5 -7 10 -4 6 3 10 8 10 11 0 2 -4 4 -10 4 -5 0
-10 -5 -10 -11z"/>
<path d="M6370 17850 c0 -5 9 -10 20 -10 11 0 20 5 20 10 0 6 -9 10 -20 10
-11 0 -20 -4 -20 -10z"/>
<path d="M6920 17805 c-8 -9 -8 -15 -2 -15 12 0 26 19 19 26 -2 2 -10 -2 -17
-11z"/>
<path d="M8195 17730 c-4 -6 3 -10 14 -10 25 0 27 6 6 13 -8 4 -17 2 -20 -3z"/>
<path d="M6320 17706 c0 -9 5 -16 10 -16 6 0 10 4 10 9 0 6 -4 13 -10 16 -5 3
-10 -1 -10 -9z"/>
<path d="M8190 17690 c0 -5 7 -7 15 -4 8 4 15 8 15 10 0 2 -7 4 -15 4 -8 0
-15 -4 -15 -10z"/>
<path d="M8115 17650 c-3 -5 3 -10 15 -10 12 0 18 5 15 10 -3 6 -10 10 -15 10
-5 0 -12 -4 -15 -10z"/>
<path d="M6270 17562 c0 -4 17 -8 38 -9 32 -1 34 0 12 7 -34 11 -50 12 -50 2z"/>
<path d="M5438 17473 c-34 -8 -18 -45 80 -193 54 -82 108 -147 190 -227 119
-119 172 -154 83 -55 -29 31 -56 61 -59 65 -4 4 -40 39 -81 77 -49 47 -71 75
-67 86 3 8 2 12 -4 9 -6 -3 -10 -2 -10 4 0 5 -6 16 -14 23 -20 21 -60 101 -58
116 2 6 -4 12 -13 12 -11 0 -14 6 -9 25 5 19 2 25 -10 25 -19 0 -22 16 -4 22
18 6 -4 15 -24 11z"/>
<path d="M2608 17303 c7 -3 16 -2 19 1 4 3 -2 6 -13 5 -11 0 -14 -3 -6 -6z"/>
<path d="M2455 17275 c-16 -7 -54 -23 -82 -36 -29 -12 -52 -23 -50 -24 1 -2
34 -5 72 -8 39 -3 62 -3 53 -1 -26 8 -22 19 20 53 40 32 35 38 -13 16z"/>
<path d="M6485 17250 c-3 -5 1 -10 10 -10 9 0 13 5 10 10 -3 6 -8 10 -10 10
-2 0 -7 -4 -10 -10z"/>
<path d="M2480 17190 c20 -13 43 -13 35 0 -3 6 -16 10 -28 10 -18 0 -19 -2 -7
-10z"/>
<path d="M6475 17160 c-3 -5 3 -10 15 -10 12 0 18 5 15 10 -3 6 -10 10 -15 10
-5 0 -12 -4 -15 -10z"/>
<path d="M6485 17120 c-4 -6 5 -10 20 -10 15 0 24 4 20 10 -3 6 -12 10 -20 10
-8 0 -17 -4 -20 -10z"/>
<path d="M6464 17074 c3 -9 6 -18 6 -21 0 -3 7 0 15 7 21 18 19 30 -6 30 -15
0 -19 -4 -15 -16z"/>
<path d="M6398 17063 c7 -3 16 -2 19 1 4 3 -2 6 -13 5 -11 0 -14 -3 -6 -6z"/>
<path d="M8162 16835 c-6 -13 -7 -27 -3 -30 5 -2 12 7 15 21 9 35 2 40 -12 9z"/>
<path d="M6115 16820 c-3 -5 -1 -10 5 -10 6 0 8 -5 4 -12 -4 -7 -3 -8 4 -4 6
4 9 13 5 21 -6 18 -10 19 -18 5z"/>
<path d="M11700 15080 c0 -5 5 -10 10 -10 6 0 10 5 10 10 0 6 -4 10 -10 10 -5
0 -10 -4 -10 -10z"/>
<path d="M11625 15020 c3 -5 8 -10 11 -10 2 0 4 5 4 10 0 6 -5 10 -11 10 -5 0
-7 -4 -4 -10z"/>
<path d="M11685 15000 c-3 -5 1 -10 9 -10 9 0 16 5 16 10 0 6 -4 10 -9 10 -6
0 -13 -4 -16 -10z"/>
<path d="M11650 14980 c0 -5 5 -10 10 -10 6 0 10 5 10 10 0 6 -4 10 -10 10 -5
0 -10 -4 -10 -10z"/>
<path d="M11610 14950 c0 -5 5 -10 11 -10 5 0 7 5 4 10 -3 6 -8 10 -11 10 -2
0 -4 -4 -4 -10z"/>
<path d="M11575 14930 c3 -5 10 -10 16 -10 5 0 9 5 9 10 0 6 -7 10 -16 10 -8
0 -12 -4 -9 -10z"/>
<path d="M11675 14931 c-6 -11 9 -23 19 -14 9 9 7 23 -3 23 -6 0 -12 -4 -16
-9z"/>
<path d="M11665 14850 c4 -6 11 -8 16 -5 14 9 11 15 -7 15 -8 0 -12 -5 -9 -10z"/>
<path d="M11558 14783 c7 -3 16 -2 19 1 4 3 -2 6 -13 5 -11 0 -14 -3 -6 -6z"/>
<path d="M11580 14730 c0 -5 7 -10 16 -10 8 0 12 5 9 10 -3 6 -10 10 -16 10
-5 0 -9 -4 -9 -10z"/>
<path d="M11521 14716 c2 -2 14 -9 27 -15 18 -10 22 -9 22 4 0 10 -9 15 -27
15 -14 0 -24 -2 -22 -4z"/>
<path d="M11635 14704 c-10 -8 -28 -11 -39 -8 -14 4 -18 3 -11 -4 16 -16 55
-25 55 -13 0 6 7 11 15 11 8 0 15 4 15 9 0 17 -15 19 -35 5z"/>
<path d="M11690 14710 c8 -5 20 -10 25 -10 6 0 3 5 -5 10 -8 5 -19 10 -25 10
-5 0 -3 -5 5 -10z"/>
<path d="M11728 14623 c7 -3 16 -2 19 1 4 3 -2 6 -13 5 -11 0 -14 -3 -6 -6z"/>
<path d="M11570 14600 c0 -5 5 -10 11 -10 5 0 7 5 4 10 -3 6 -8 10 -11 10 -2
0 -4 -4 -4 -10z"/>
<path d="M11727 14589 c7 -7 15 -10 18 -7 3 3 -2 9 -12 12 -14 6 -15 5 -6 -5z"/>
<path d="M11630 14570 c0 -5 5 -10 10 -10 6 0 10 5 10 10 0 6 -4 10 -10 10 -5
0 -10 -4 -10 -10z"/>
<path d="M3751 4366 c-25 -30 -26 -116 -1 -101 7 4 8 11 1 18 -6 8 -4 23 4 42
l14 30 -5 -35 c-3 -27 -2 -31 5 -15 21 43 7 91 -18 61z"/>
<path d="M3805 4340 c-3 -5 -1 -10 4 -10 6 0 11 -5 11 -11 0 -5 -4 -8 -9 -4
-11 6 -16 -1 -25 -37 -4 -20 -3 -28 7 -28 13 0 37 53 37 83 0 19 -15 23 -25 7z"/>
<path d="M4925 4201 c-3 -5 -1 -12 5 -16 5 -3 10 1 10 9 0 18 -6 21 -15 7z"/>
<path d="M4811 3999 c-30 -5 -57 -11 -59 -14 -3 -3 5 -94 18 -202 15 -131 25
-278 28 -431 5 -278 22 -302 24 -35 1 156 3 180 16 176 10 -4 13 -1 10 8 -3 8
1 20 9 27 7 8 11 18 8 23 -4 5 -1 9 5 9 6 0 15 11 20 25 5 14 14 25 20 25 5 0
10 7 10 15 0 8 5 15 10 15 6 0 10 9 10 19 0 11 5 23 11 27 14 9 5 229 -11 287
-12 42 -22 43 -129 26z"/>
<path d="M4206 3812 c-7 -11 17 -372 25 -372 4 0 7 16 7 36 0 19 5 47 10 62 6
15 13 36 18 47 4 11 9 28 11 39 2 10 17 56 33 103 17 46 30 86 30 89 0 7 -129
4 -134 -4z"/>
<path d="M4538 3680 c-20 -19 -47 -56 -59 -82 -12 -26 -25 -45 -29 -43 -4 2
-8 -4 -10 -13 -7 -37 -3 -315 8 -652 13 -385 20 -492 33 -484 5 3 9 11 9 19 0
8 11 31 25 51 31 46 69 125 89 185 23 71 21 541 -3 827 -11 123 -21 225 -23
226 -2 1 -20 -15 -40 -34z"/>
<path d="M4330 3626 c0 -25 -4 -48 -10 -51 -10 -6 -32 -74 -35 -109 -1 -11 -7
-22 -13 -24 -7 -2 -12 -13 -12 -25 0 -12 -5 -29 -10 -37 -8 -12 -10 -11 -10 8
0 12 -4 22 -9 22 -5 0 -9 -48 -10 -107 -1 -60 -4 -124 -6 -143 l-4 -35 12 35
c7 19 18 46 24 60 60 137 61 138 97 418 3 17 1 32 -5 32 -5 0 -9 -20 -9 -44z"/>
<path d="M4231 2888 c-17 -37 -35 -58 -50 -58 -19 0 -12 -251 9 -390 65 -411
70 -471 68 -718 l-3 -237 47 -210 c92 -412 107 -490 153 -780 16 -100 67 -316
102 -430 l19 -60 63 -3 63 -3 -5 28 c-6 32 -60 230 -76 283 -19 60 -80 367
-97 485 -3 22 -10 60 -15 85 -10 47 -38 205 -88 500 -17 96 -37 211 -46 255
-8 44 -15 95 -15 113 0 18 -7 40 -15 48 -13 14 -15 13 -16 -8 -1 -15 -3 -17
-6 -6 -2 9 -11 19 -20 22 -13 5 -14 4 -4 -8 13 -16 6 -40 -9 -31 -5 3 -11 -3
-14 -12 -3 -10 -2 16 1 57 3 41 6 76 8 78 1 1 14 -2 29 -8 23 -8 28 -7 36 14
8 22 6 242 -5 433 -5 86 -20 200 -44 339 -5 32 -13 86 -16 119 -11 128 -29
160 -54 103z"/>
<path d="M4827 2711 c-26 -27 -52 -51 -59 -53 -19 -7 -16 -130 10 -358 21
-199 46 -331 127 -685 68 -299 84 -404 95 -617 14 -270 12 -263 193 -808 l62
-185 78 -3 c89 -3 85 -10 63 108 -14 73 -108 378 -186 605 -37 108 -80 288
-87 362 -3 40 -9 70 -13 68 -3 -2 -5 18 -2 46 2 27 0 57 -4 67 -5 9 -9 85 -9
167 -1 83 -5 168 -8 190 -4 22 -14 90 -22 150 -9 61 -32 173 -51 250 -57 229
-72 311 -94 505 -23 209 -28 240 -39 240 -4 0 -29 -22 -54 -49z"/>
<path d="M4535 2279 c-22 -10 -46 -17 -52 -14 -16 6 -17 -79 -3 -156 6 -30 13
-99 16 -154 5 -102 60 -461 95 -618 65 -293 131 -624 149 -747 11 -78 22 -146
25 -150 2 -4 14 -52 26 -106 11 -55 37 -152 56 -216 l36 -118 93 0 93 0 -13
43 c-7 23 -30 92 -50 152 -86 257 -136 495 -150 712 -8 115 -14 150 -81 418
-44 178 -100 451 -133 650 -5 29 -32 79 -32 60 0 -6 -18 -19 -40 -29 -22 -11
-40 -23 -40 -28 0 -5 -5 -6 -10 -3 -6 4 -9 19 -8 33 1 20 16 38 54 67 29 22
55 49 58 61 5 20 -10 140 -20 156 -7 12 -24 9 -69 -13z"/>
<path d="M11933 1524 c37 -132 52 -174 62 -174 32 0 80 -78 181 -295 31 -66
62 -133 70 -149 8 -16 14 -35 14 -43 0 -7 7 -13 15 -13 8 0 15 -5 15 -11 0 -5
-5 -7 -10 -4 -15 9 -5 -26 47 -178 58 -167 94 -246 132 -289 29 -34 42 -66 21
-53 -17 11 -11 -16 30 -140 21 -66 42 -132 45 -147 5 -26 9 -28 51 -28 50 0
51 3 18 75 -7 17 -25 64 -40 105 -92 263 -229 616 -292 751 -40 84 -56 122
-57 134 -1 6 -8 26 -16 45 -9 19 -24 62 -34 95 -10 33 -23 69 -29 80 -6 11
-11 22 -11 25 -6 33 -41 130 -47 130 -4 0 -8 13 -8 29 0 39 -24 61 -64 61 -19
0 -48 3 -66 6 -28 6 -32 5 -27 -12z m657 -1430 c0 -3 -7 -1 -15 6 -8 7 -15 17
-15 22 0 5 7 3 15 -6 8 -8 15 -18 15 -22z"/>
<path d="M12010 1276 c0 -9 5 -16 10 -16 6 0 10 4 10 9 0 6 -4 13 -10 16 -5 3
-10 -1 -10 -9z"/>
<path d="M8750 942 c-6 -32 -10 -67 -8 -78 3 -13 7 -7 12 19 5 20 12 37 16 37
7 0 6 67 -2 76 -3 2 -11 -22 -18 -54z"/>
<path d="M9518 873 c12 -2 32 -2 45 0 12 2 2 4 -23 4 -25 0 -35 -2 -22 -4z"/>
<path d="M8723 813 c-6 -16 -14 -44 -18 -63 -4 -19 -15 -64 -25 -100 -23 -77
-34 -174 -20 -165 6 3 10 11 10 16 0 5 11 26 25 47 13 20 32 68 42 105 17 65
17 69 1 81 -15 11 -16 19 -7 50 13 47 8 65 -8 29z m4 -105 c-3 -8 -6 -5 -6 6
-1 11 2 17 5 13 3 -3 4 -12 1 -19z"/>
<path d="M9058 808 c-9 -5 -6 -8 9 -8 12 0 24 4 27 8 7 11 -19 11 -36 0z"/>
<path d="M9015 790 c-3 -5 -2 -10 4 -10 5 0 13 5 16 10 3 6 2 10 -4 10 -5 0
-13 -4 -16 -10z"/>
<path d="M8592 248 c-6 -24 -22 -86 -36 -138 -14 -52 -26 -98 -26 -102 0 -19
50 -7 61 14 12 21 27 268 17 268 -3 0 -10 -19 -16 -42z"/>
</g>
</svg>
