<?xml version="1.0" standalone="no"?>
<!DOCTYPE svg PUBLIC "-//W3C//DTD SVG 20010904//EN"
 "http://www.w3.org/TR/2001/REC-SVG-20010904/DTD/svg10.dtd">
<svg version="1.0" xmlns="http://www.w3.org/2000/svg"
 width="871.000000pt" height="1081.000000pt" viewBox="0 0 871.000000 1081.000000"
 preserveAspectRatio="xMidYMid meet">

<g transform="translate(0.000000,1081.000000) scale(0.100000,-0.100000)"
fill="#000000" stroke="none">
<path d="M4363 10708 c-13 -13 -23 -29 -23 -36 0 -17 -21 -26 -30 -13 -8 14
-87 34 -101 26 -5 -4 -9 0 -10 7 0 7 -6 -3 -13 -22 -17 -46 -38 -49 -65 -8
-14 22 -21 27 -21 16 0 -17 -15 -22 -54 -18 -20 2 -76 -19 -76 -29 0 -4 9 -13
20 -21 19 -14 19 -15 3 -21 -12 -4 -22 0 -30 15 -11 20 -11 20 -24 -6 -10 -23
-15 -26 -32 -16 -17 9 -19 8 -14 -11 3 -14 0 -21 -8 -21 -21 0 -47 -31 -40
-48 3 -9 -8 -27 -32 -48 -30 -26 -35 -36 -25 -46 15 -15 16 -28 2 -28 -5 0
-10 6 -10 14 0 7 -9 16 -21 19 -16 4 -19 2 -15 -10 5 -12 3 -13 -6 -6 -24 19
-58 22 -58 6 0 -8 -5 -11 -12 -7 -8 5 -9 0 -6 -14 5 -16 2 -22 -10 -22 -15 -1
-15 -2 1 -14 16 -12 15 -16 -15 -45 -17 -17 -35 -31 -38 -31 -6 0 -6 -12 -1
-52 1 -3 9 -4 19 -1 22 5 49 -22 32 -32 -7 -4 -8 -11 -1 -19 10 -12 -8 -86
-21 -86 -5 0 -8 -7 -8 -15 0 -8 -4 -15 -8 -15 -5 0 -8 16 -7 35 2 19 -1 35 -6
35 -10 0 -11 -12 -11 -88 1 -30 6 -59 12 -67 15 -18 21 -75 8 -75 -6 0 -7 -8
-3 -17 7 -18 10 -31 21 -90 3 -18 11 -33 16 -33 5 0 7 -8 3 -19 -4 -13 6 -30
35 -57 22 -21 40 -46 40 -55 0 -10 9 -21 20 -24 11 -3 20 -13 20 -21 0 -8 5
-14 11 -14 6 0 9 -6 6 -14 -3 -8 -3 -16 1 -18 9 -4 34 -46 73 -125 30 -60 56
-82 80 -68 5 4 9 17 8 28 -2 12 3 33 10 46 10 17 12 45 7 100 -10 111 -8 127
15 145 16 12 14 50 -2 41 -5 -4 -9 -2 -9 3 0 5 -11 14 -25 20 -31 15 -57 69
-44 94 5 9 7 23 4 30 -4 9 3 14 21 16 23 2 25 -1 20 -22 -7 -28 3 -64 13 -47
5 7 19 4 44 -9 54 -29 62 -25 28 17 -38 46 -39 57 -3 50 30 -6 112 12 112 25
0 4 -9 8 -20 8 -11 0 -20 6 -20 13 0 7 -10 24 -22 37 -21 22 -21 23 -2 37 10
7 24 11 31 9 9 -4 11 4 9 25 -3 23 0 29 13 28 40 -4 55 1 43 13 -18 18 -14 30
8 23 26 -8 26 9 -1 26 -20 14 -20 14 -1 37 11 12 24 22 30 22 5 0 12 7 16 15
4 11 -2 15 -22 14 -23 0 -24 -2 -8 -8 19 -7 19 -8 -1 -13 -27 -7 -56 21 -44
41 5 7 14 10 20 7 7 -5 11 1 11 13 0 12 -7 21 -15 21 -17 0 -20 16 -5 25 17
10 12 22 -22 55 -18 17 -25 28 -16 25 13 -5 17 0 20 22 2 19 8 28 20 27 10 -1
19 8 23 23 6 25 25 27 33 3 3 -9 -1 -11 -12 -7 -14 6 -15 3 -6 -13 7 -13 21
-20 38 -20 25 1 26 1 8 15 -16 12 -12 13 35 9 59 -5 92 7 72 27 -6 6 -17 8
-25 3 -24 -15 -45 -14 -62 5 -16 18 -16 20 6 35 12 9 30 16 40 16 9 0 20 4 23
10 3 5 40 9 81 9 66 -1 79 2 100 22 13 12 23 29 22 37 -2 8 2 17 9 19 12 4 22
-21 26 -66 1 -14 11 -28 24 -34 13 -6 23 -14 23 -19 0 -17 19 -7 25 13 6 17 9
18 16 8 4 -7 11 -10 15 -7 9 10 -36 79 -47 72 -5 -3 -9 0 -9 7 0 8 -5 5 -13
-5 -12 -16 -13 -15 -12 11 0 18 -8 36 -23 49 -14 12 -22 26 -18 32 3 6 -11 13
-36 17 -24 4 -47 10 -53 14 -5 3 -12 6 -15 7 -38 11 -49 18 -52 31 -2 11 -8 9
-25 -9z m-265 -70 c-6 -18 -28 -21 -28 -4 0 9 7 16 16 16 9 0 14 -5 12 -12z
m144 -20 c-5 -21 -6 -21 -12 -2 -8 21 -3 37 10 29 4 -3 6 -15 2 -27z m168 22
c0 -5 -5 -10 -11 -10 -5 0 -7 5 -4 10 3 6 8 10 11 10 2 0 4 -4 4 -10z m-350
-74 c0 -3 -4 -8 -10 -11 -5 -3 -10 -1 -10 4 0 6 5 11 10 11 6 0 10 -2 10 -4z
m40 -67 c0 -11 -4 -18 -10 -14 -5 3 -7 12 -3 20 7 21 13 19 13 -6z m-230 1 c0
-5 -2 -10 -4 -10 -3 0 -8 5 -11 10 -3 6 -1 10 4 10 6 0 11 -4 11 -10z m30
-106 c0 -14 -3 -15 -17 -3 -10 7 -20 15 -22 16 -2 2 5 3 17 3 14 0 22 -6 22
-16z m-71 -46 c14 -9 17 -16 11 -29 -6 -10 -6 -29 0 -48 11 -39 -5 -52 -22
-17 -6 14 -15 26 -20 26 -4 0 -8 18 -8 40 0 42 8 48 39 28z m-125 -47 c9 -14
-19 -32 -38 -25 -13 5 -14 9 -5 20 13 16 35 18 43 5z m-39 -79 c-8 -8 -25 10
-19 20 4 6 9 5 15 -3 4 -7 6 -15 4 -17z m40 8 c-3 -5 -12 -10 -18 -10 -7 0 -6
4 3 10 19 12 23 12 15 0z m296 -64 c5 3 9 -2 9 -10 0 -21 -11 -25 -39 -15 -23
9 -23 10 -5 24 10 7 21 9 22 4 2 -5 8 -7 13 -3z m-203 -14 c2 -7 -2 -10 -12
-6 -9 3 -16 11 -16 16 0 13 23 5 28 -10z m-134 -99 c-3 -21 -8 -41 -10 -45 -2
-3 1 -8 7 -10 15 -5 0 -35 -21 -41 -16 -4 -17 0 -12 37 3 22 8 43 11 46 3 3 6
11 7 18 2 27 4 32 14 32 6 0 7 -15 4 -37z m76 -49 c0 -8 -4 -12 -10 -9 -5 3
-10 13 -10 21 0 8 5 12 10 9 6 -3 10 -13 10 -21z m-65 -74 c-3 -5 -11 -10 -16
-10 -6 0 -7 5 -4 10 3 6 11 10 16 10 6 0 7 -4 4 -10z m189 -16 c-4 -14 -1 -43
6 -65 16 -47 5 -63 -20 -31 -18 21 -19 37 -11 110 0 6 8 12 16 12 12 0 14 -7
9 -26z m-196 -70 c4 2 13 -2 20 -10 11 -12 8 -13 -13 -12 -20 2 -25 7 -24 28
1 17 3 19 6 7 2 -9 8 -15 11 -13z"/>
<path d="M4258 10703 c7 -3 16 -2 19 1 4 3 -2 6 -13 5 -11 0 -14 -3 -6 -6z"/>
<path d="M4450 10230 c0 -5 18 -10 39 -10 22 0 41 -4 43 -9 2 -4 13 -12 26
-15 27 -9 30 11 5 30 -21 16 -113 19 -113 4z"/>
<path d="M595 10141 c4 -24 2 -41 -4 -46 -6 -3 -8 -17 -5 -30 3 -12 1 -26 -5
-29 -7 -5 -5 -20 6 -47 8 -22 12 -43 8 -47 -4 -4 -33 -7 -65 -6 -46 1 -60 -2
-63 -15 -4 -13 -5 -12 -6 3 -1 15 -4 16 -16 6 -11 -9 -15 -10 -15 -1 0 7 -8
10 -17 7 -22 -7 -50 8 -34 18 6 4 11 2 11 -3 0 -6 5 -11 10 -11 19 0 10 20
-29 60 -21 22 -41 36 -45 33 -4 -4 -9 3 -13 15 -3 12 -10 19 -15 16 -5 -3 -12
3 -14 13 -3 10 -14 24 -24 31 -22 13 -38 -2 -46 -42 -3 -20 -1 -24 11 -19 17
6 47 -25 41 -42 -2 -6 2 -19 10 -30 8 -10 14 -14 14 -7 0 8 7 9 27 1 14 -5 32
-8 38 -5 8 3 12 -9 13 -31 1 -20 9 -47 19 -62 l17 -26 7 30 c4 17 7 22 8 13 0
-9 9 -18 18 -20 16 -3 16 -5 2 -18 -18 -17 -13 -56 10 -73 9 -7 17 -25 19 -42
2 -16 9 -34 16 -40 7 -5 11 -16 8 -23 -2 -7 3 -19 13 -25 9 -7 17 -20 19 -29
3 -27 63 -81 81 -74 9 3 13 2 10 -4 -3 -6 3 -10 14 -10 10 0 21 -5 23 -11 3
-9 10 -9 26 0 24 13 21 31 -4 31 -8 0 -14 5 -14 10 0 6 9 10 21 10 16 0 19 4
14 18 -4 9 -8 23 -8 30 0 6 -5 12 -10 12 -5 0 -7 7 -3 15 3 8 1 15 -5 15 -6 0
-17 7 -25 15 -9 8 -24 15 -35 15 -11 0 -18 4 -15 8 3 5 19 8 36 7 27 -2 30 1
30 27 0 15 -4 28 -9 28 -5 0 -9 14 -9 31 1 43 -36 76 -85 75 -45 -1 -49 18 -6
33 24 8 37 7 60 -4 16 -9 29 -12 29 -8 0 5 4 2 9 -5 6 -10 11 -9 22 4 8 10 9
15 2 11 -6 -4 -14 -3 -17 2 -4 5 -2 13 4 16 7 4 8 11 2 18 -6 7 -10 35 -10 62
-1 52 -40 185 -55 185 -5 0 -6 -18 -2 -39z m-100 -289 c-3 -3 -11 0 -18 7 -9
10 -8 11 6 5 10 -3 15 -9 12 -12z m12 -58 c3 -8 12 -13 19 -10 18 7 18 -8 1
-22 -9 -8 -17 -3 -29 19 -9 16 -13 29 -7 29 5 0 12 -7 16 -16z m-20 -76 c-3
-8 -6 -5 -6 6 -1 11 2 17 5 13 3 -3 4 -12 1 -19z"/>
<path d="M4570 10150 c0 -11 5 -20 11 -20 12 0 38 -29 39 -42 0 -5 -6 -8 -12
-8 -12 0 -38 -43 -38 -62 0 -4 7 -8 16 -8 9 0 12 5 8 13 -6 10 -4 10 7 0 7 -7
23 -13 35 -13 12 0 24 -4 26 -9 2 -6 19 3 38 19 l35 28 -20 23 c-11 12 -34 28
-52 35 -18 8 -43 25 -57 39 -30 30 -36 31 -36 5z"/>
<path d="M3615 10140 c-3 -5 -1 -10 4 -10 6 0 11 5 11 10 0 6 -2 10 -4 10 -3
0 -8 -4 -11 -10z"/>
<path d="M8375 10126 c-33 -12 -63 -36 -46 -36 19 0 12 -39 -10 -51 -19 -10
-20 -8 -14 10 5 16 3 20 -9 16 -52 -16 -51 -14 -27 -36 17 -16 19 -24 11 -34
-7 -8 -10 -22 -8 -32 2 -13 11 -6 37 27 19 25 59 68 90 97 50 47 53 52 31 52
-14 -1 -38 -6 -55 -13z"/>
<path d="M4500 10118 c-86 -16 -90 -18 -90 -38 0 -15 5 -18 23 -13 33 8 59 8
90 0 21 -6 27 -4 27 8 0 8 4 15 9 15 5 0 11 6 14 14 8 19 -19 24 -73 14z"/>
<path d="M4740 10110 c0 -5 6 -10 14 -10 8 0 16 -6 19 -12 4 -10 7 -10 18 -1
15 15 12 18 -23 27 -17 4 -28 2 -28 -4z"/>
<path d="M8525 9979 c-20 -23 -42 -42 -48 -43 -7 -1 -21 -5 -32 -8 -11 -3 -32
-9 -47 -12 -16 -4 -28 -13 -28 -21 0 -9 -9 -15 -22 -15 -18 0 -20 -2 -8 -9 8
-6 17 -8 21 -5 4 2 10 -8 14 -23 4 -17 2 -29 -7 -34 -18 -12 -38 -11 -38 1 0
6 -7 10 -15 10 -8 0 -15 5 -15 10 0 6 3 9 8 8 8 -3 12 5 12 25 0 8 -4 7 -10
-3 -9 -13 -11 -13 -21 0 -9 13 -10 12 -5 -3 4 -13 -3 -23 -24 -35 -16 -9 -32
-24 -35 -32 -3 -8 -3 -11 1 -8 10 11 44 -11 44 -27 0 -19 15 -19 45 1 14 9 22
21 18 27 -3 5 -2 8 3 4 19 -11 274 188 274 214 0 6 -4 7 -10 4 -5 -3 -10 -1
-10 4 0 23 -29 9 -65 -30z"/>
<path d="M4737 9966 c-20 -8 -44 -19 -52 -26 -8 -7 -26 -10 -39 -6 -29 7 -43
-9 -26 -28 11 -14 70 -27 125 -27 54 0 90 66 51 93 -14 10 -14 10 -59 -6z"/>
<path d="M208 9958 c-3 -7 -19 -14 -36 -14 -58 -3 -62 -4 -62 -19 0 -10 10
-15 29 -15 20 0 37 -9 54 -30 14 -16 32 -30 40 -30 7 0 25 -12 39 -27 51 -56
98 -81 98 -53 0 6 -4 10 -10 10 -5 0 -10 7 -10 15 0 8 -9 19 -20 25 -11 6 -20
17 -20 25 0 8 -9 15 -21 15 -11 0 -17 5 -14 10 3 6 1 10 -4 10 -6 0 -11 7 -11
15 0 8 -4 15 -9 15 -5 0 -14 14 -20 30 -11 32 -17 37 -23 18z"/>
<path d="M285 9940 c-3 -5 -1 -10 4 -10 6 0 11 5 11 10 0 6 -2 10 -4 10 -3 0
-8 -4 -11 -10z"/>
<path d="M8130 9916 c0 -15 24 -28 34 -19 3 4 6 13 6 22 0 14 -2 14 -10 1 -6
-10 -10 -11 -10 -2 0 6 -4 12 -10 12 -5 0 -10 -6 -10 -14z"/>
<path d="M320 9910 c0 -5 5 -10 10 -10 6 0 10 5 10 10 0 6 -4 10 -10 10 -5 0
-10 -4 -10 -10z"/>
<path d="M8616 9829 c-20 -17 -35 -34 -35 -37 4 -23 -3 -33 -16 -28 -8 3 -15
1 -15 -5 0 -6 -5 -7 -10 -4 -6 4 -8 10 -5 14 2 4 -8 8 -22 7 -18 -1 -29 -8
-33 -21 -3 -14 -13 -20 -30 -19 -14 1 -36 -4 -50 -11 -14 -7 -41 -16 -61 -20
-37 -7 -52 -38 -23 -49 15 -6 20 -36 5 -36 -6 0 -6 -12 -1 -31 10 -33 -4 -124
-21 -134 -5 -4 -6 2 -3 12 5 15 4 15 -4 3 -6 -8 -9 -17 -6 -22 11 -17 -163
-82 -182 -67 -5 5 -23 5 -39 1 -24 -7 -34 -4 -56 19 -15 16 -33 44 -40 63 -7
20 -17 36 -21 36 -4 0 -8 6 -8 13 -1 22 -104 150 -135 167 -59 33 -71 31 -132
-16 -63 -49 -72 -51 -133 -29 -59 21 -78 20 -52 -2 16 -13 19 -25 15 -45 -8
-39 -22 -35 -40 12 -9 22 -20 40 -24 40 -15 0 -61 -78 -53 -91 4 -8 3 -9 -4
-5 -7 4 -12 2 -12 -3 0 -6 6 -11 13 -11 6 0 -1 -7 -17 -15 -15 -8 -48 -15 -72
-15 -24 0 -44 -4 -44 -8 0 -4 -12 -7 -27 -6 -16 0 -31 -4 -35 -10 -5 -8 -8 -7
-8 1 0 12 -42 10 -80 -4 -8 -3 -28 -7 -45 -9 -16 -2 -35 -11 -42 -20 -8 -11
-21 -15 -38 -12 -16 4 -25 1 -25 -8 0 -9 -10 -11 -33 -7 -19 3 -56 -3 -93 -16
-33 -11 -94 -21 -137 -23 -50 -2 -77 -7 -77 -15 0 -6 -8 -9 -19 -6 -11 3 -49
-5 -85 -17 -51 -17 -66 -26 -66 -41 0 -13 -7 -19 -22 -19 -22 1 -23 1 -4 15
28 21 17 19 -45 -9 -30 -14 -46 -25 -36 -25 9 -1 17 -5 17 -11 0 -5 7 -10 15
-10 8 0 15 -7 15 -15 0 -8 9 -15 19 -15 11 0 23 -4 26 -10 3 -5 2 -10 -3 -10
-13 0 -76 22 -82 29 -7 8 -50 28 -77 36 -13 3 -36 -1 -55 -11 -21 -11 -64 -18
-123 -20 -130 -5 -278 -24 -290 -36 -7 -8 -6 -9 3 -4 19 11 26 -20 9 -45 l-15
-21 -12 22 c-6 12 -9 28 -6 36 6 14 -11 18 -37 8 -9 -3 -12 -14 -9 -30 5 -30
-13 -32 -21 -2 -5 16 -9 19 -19 11 -15 -12 -58 0 -58 17 0 5 -6 10 -14 10 -9
0 -12 -8 -9 -24 3 -13 0 -26 -5 -30 -15 -9 -42 22 -36 39 4 10 0 15 -15 15
-12 0 -21 6 -21 16 0 8 -4 12 -10 9 -5 -3 -10 -14 -10 -25 0 -10 -7 -21 -16
-24 -14 -5 -15 -1 -10 29 7 35 7 35 -21 24 -15 -6 -71 -9 -123 -8 -125 4 -361
0 -427 -7 -49 -5 -54 -4 -62 18 -5 14 -21 42 -35 63 -14 21 -26 50 -26 64 0
23 -7 30 -52 46 -29 11 -59 18 -65 17 -7 -2 -13 2 -13 8 0 6 -8 10 -17 8 -13
-2 -17 3 -15 16 3 17 2 18 -12 7 -11 -9 -16 -10 -16 -2 0 6 -8 11 -17 11 -15
0 -16 -2 -3 -10 13 -8 12 -10 -2 -10 -10 0 -18 -5 -18 -11 0 -8 -5 -7 -15 1
-13 11 -13 15 -3 21 9 6 9 9 1 9 -18 0 -26 -19 -13 -35 9 -11 7 -12 -9 -8 -12
3 -21 12 -21 21 0 13 -3 12 -19 -4 -10 -10 -15 -21 -11 -24 4 -3 8 -12 8 -20
1 -8 3 -32 6 -52 4 -32 2 -36 -15 -33 -14 3 -19 -2 -19 -20 0 -13 -6 -25 -12
-28 -10 -3 -10 -8 -2 -16 15 -16 64 -24 64 -11 0 6 5 8 10 5 6 -3 10 -1 10 6
0 10 3 10 11 2 13 -13 72 1 97 23 40 35 96 74 107 74 14 0 86 -107 110 -162
29 -72 38 -136 25 -184 -16 -55 -44 -78 -125 -103 -94 -29 -137 -49 -152 -71
-16 -23 -46 -37 -183 -85 l-96 -33 -44 20 c-36 17 -116 72 -140 98 -14 15
-102 81 -155 117 -105 71 -205 191 -205 246 0 11 9 32 21 49 12 16 19 31 17
34 -3 2 -39 0 -81 -6 -75 -9 -147 -38 -196 -77 l-24 -19 35 4 c35 4 128 -32
128 -49 0 -14 -12 -11 -45 11 -31 21 -105 28 -105 10 0 -5 -4 -10 -10 -10 -5
0 -10 7 -10 14 0 13 -4 13 -35 0 -48 -20 -243 -19 -292 1 -46 19 -45 20 -37
-11 5 -19 4 -25 -5 -20 -6 4 -11 12 -11 17 0 15 -29 41 -39 35 -4 -3 -7 -16
-5 -28 10 -60 -70 -88 -236 -83 -60 2 -117 8 -127 14 -17 10 -17 10 2 12 31 1
-121 35 -310 69 -258 46 -386 76 -545 130 -80 27 -178 59 -218 70 -40 12 -102
36 -137 55 l-65 34 -6 -25 c-4 -14 -1 -32 7 -42 7 -9 9 -14 5 -10 -5 4 -15 3
-23 -4 -7 -6 -17 -8 -20 -4 -4 4 -1 12 7 17 11 7 7 9 -16 6 -16 -3 -38 1 -48
8 -19 14 -15 19 27 29 17 4 27 13 27 25 0 25 -19 39 -60 43 -27 2 -35 7 -33
21 0 12 -4 16 -13 13 -8 -3 -14 -1 -14 4 0 6 -5 10 -11 10 -5 0 -8 -4 -5 -9 3
-4 0 -16 -7 -25 -12 -16 -16 -14 -49 18 -36 35 -68 47 -68 26 0 -5 5 -10 12
-10 8 0 7 -6 -4 -16 -21 -21 -41 -8 -35 22 5 28 -9 31 -40 9 -19 -14 -26 -13
-75 10 -29 14 -61 25 -71 25 -16 0 -16 -2 -3 -22 18 -29 31 -128 16 -128 -5 0
-10 -6 -10 -14 0 -16 -35 -31 -63 -27 -9 1 -17 -3 -17 -8 0 -6 5 -10 11 -9 6
2 14 -3 16 -9 3 -7 -3 -13 -13 -13 -9 0 -14 -3 -10 -7 4 -5 13 -8 19 -8 5 0
12 -6 15 -14 3 -10 0 -12 -13 -7 -13 5 -16 2 -11 -10 4 -12 2 -15 -9 -10 -10
3 -15 -1 -15 -12 0 -11 -3 -13 -8 -6 -4 6 -18 15 -32 19 -27 8 -134 70 -163
94 -9 8 -20 12 -23 8 -3 -3 -14 3 -24 13 -12 12 -26 16 -41 13 -14 -4 -20 -2
-16 4 5 7 -1 9 -15 5 -15 -3 -19 -2 -14 7 6 8 1 10 -18 5 -17 -4 -26 -2 -26 6
0 8 -9 11 -25 8 -14 -3 -28 -1 -32 5 -3 6 -1 7 5 3 7 -4 12 -3 12 2 0 6 -23
15 -50 22 -28 7 -56 17 -63 24 -7 6 -29 22 -49 36 -21 14 -38 30 -38 37 0 21
-21 25 -40 8 -18 -16 -20 -16 -26 -1 -3 9 -4 25 -1 36 4 16 0 20 -18 20 -13 0
-27 -5 -30 -10 -4 -6 -11 -8 -16 -5 -5 4 -9 2 -9 -4 0 -5 -3 -16 -6 -24 -4
-10 13 -23 58 -44 35 -17 92 -50 128 -75 80 -55 162 -93 305 -143 120 -42 171
-71 189 -107 6 -13 26 -32 44 -43 18 -11 41 -39 52 -65 12 -25 26 -56 33 -69
7 -14 39 -38 74 -56 34 -17 85 -50 115 -72 29 -22 96 -68 148 -103 52 -34 105
-70 118 -81 18 -14 41 -19 83 -19 58 0 61 -1 132 -61 105 -89 213 -160 467
-304 291 -166 424 -247 590 -360 74 -50 160 -105 190 -121 68 -36 189 -155
215 -211 11 -23 27 -43 35 -43 10 0 11 -3 4 -8 -14 -9 -1 -183 21 -277 7 -34
19 -111 25 -171 13 -136 20 -172 81 -416 55 -220 76 -387 81 -635 2 -83 7
-155 11 -159 13 -13 18 3 8 27 -6 17 -5 28 5 36 19 19 26 1 30 -78 1 -38 5
-73 8 -77 3 -5 -3 -17 -14 -27 -16 -14 -17 -20 -8 -26 10 -6 8 -12 -7 -24 -19
-16 -19 -16 3 -5 31 15 42 5 35 -35 -4 -23 -2 -35 6 -35 6 0 11 -4 11 -8 0 -4
-9 -8 -21 -8 -19 0 -20 4 -15 38 4 23 2 38 -4 38 -17 0 -10 -73 11 -110 13
-23 18 -27 13 -11 -4 16 -3 21 5 17 6 -4 11 -19 11 -34 0 -21 2 -24 10 -12 8
12 10 9 10 -12 0 -20 -5 -28 -17 -28 -16 -1 -16 -2 -2 -10 13 -8 16 -21 12
-62 -2 -37 -1 -48 6 -38 9 12 11 12 16 -2 4 -10 3 -23 -1 -30 -13 -21 -15 -48
-3 -48 29 0 34 -28 35 -200 0 -137 4 -199 21 -285 33 -170 41 -200 67 -259 13
-29 36 -94 50 -143 21 -74 24 -96 15 -126 -11 -39 -5 -62 13 -51 16 10 26 -15
33 -76 10 -88 12 -90 56 -90 l40 0 -7 37 c-11 66 -53 197 -74 231 -11 18 -20
45 -20 60 0 28 -5 43 -65 207 -65 175 -100 378 -85 486 21 144 38 182 69 146
6 -7 52 -33 103 -58 88 -41 98 -44 178 -44 113 0 190 7 196 17 8 13 178 9 220
-6 32 -11 94 -24 149 -31 17 -2 99 -25 126 -36 15 -6 42 -12 60 -14 19 -2 58
-8 86 -14 29 -6 60 -8 68 -5 8 4 15 1 15 -6 0 -7 5 -6 15 4 18 18 19 27 2 20
-7 -2 -20 1 -30 8 -15 11 -12 13 20 11 21 -1 42 -2 47 -2 5 -1 3 -8 -4 -16
-11 -13 -6 -15 36 -17 27 0 54 -2 59 -3 6 -2 18 -3 29 -4 16 -1 18 -7 13 -43
-2 -24 -3 -37 0 -30 3 6 10 9 15 6 7 -4 8 -2 4 4 -4 7 -2 12 3 12 6 0 11 -5
11 -11 0 -5 4 -8 10 -4 5 3 7 12 3 20 -3 8 0 15 6 15 6 0 11 -7 11 -14 0 -16
32 -4 178 65 66 32 82 53 32 44 -24 -4 -30 -2 -30 13 0 16 -8 18 -67 15 -45
-2 -61 0 -48 6 11 4 25 6 32 4 13 -5 105 35 114 49 3 5 10 9 15 9 5 0 9 6 9
13 0 8 4 18 8 22 4 4 -5 18 -19 31 -25 22 -26 24 -11 41 10 10 17 27 17 38 0
16 2 17 10 4 5 -8 10 -30 10 -49 0 -33 0 -33 37 -26 33 6 35 5 24 -9 -11 -13
-11 -17 2 -22 9 -3 21 -3 27 1 14 9 13 42 -2 48 -7 3 -8 6 -2 6 13 1 5 63 -10
74 -8 6 -7 10 2 14 6 2 10 9 7 14 -3 4 3 26 14 48 11 21 23 58 27 80 6 36 4
41 -13 41 -20 0 -67 45 -98 95 -16 25 -16 28 -2 16 15 -12 17 -11 17 6 0 10
-6 28 -14 38 -8 11 -10 25 -6 35 4 8 13 50 20 93 6 43 20 103 31 134 10 31 19
57 19 59 0 1 -9 0 -21 -3 -18 -5 -65 12 -79 28 -11 12 -134 69 -150 69 -9 0
-20 3 -24 7 -4 5 -11 8 -14 8 -4 1 -31 9 -61 19 -37 13 -49 21 -40 27 7 4 16
5 19 1 5 -8 8 -8 69 -18 46 -7 54 6 20 29 -14 10 -30 12 -55 7 -18 -4 -34 -6
-34 -4 0 3 -13 -2 -29 -11 -29 -15 -46 -9 -33 11 8 13 112 34 112 23 0 -4 9
-5 20 -2 11 3 37 -7 65 -26 25 -17 51 -31 58 -31 18 1 47 26 47 41 0 11 2 11
10 -1 8 -13 10 -12 10 3 0 18 13 26 46 31 14 2 21 19 30 72 17 94 17 102 -3
107 -17 4 -17 5 0 6 9 0 17 4 18 9 0 4 3 18 5 32 6 37 7 282 1 305 -2 11 -11
53 -18 93 -7 39 -17 72 -21 72 -4 0 -8 10 -9 23 -1 14 -5 7 -12 -19 -7 -22
-20 -49 -29 -58 -22 -21 -22 -30 -3 -46 28 -23 13 -54 -30 -62 -13 -2 -19 2
-17 11 8 35 8 81 0 81 -4 0 -8 -6 -9 -12 0 -7 -5 -2 -10 11 -5 14 -8 30 -5 37
3 7 -3 15 -12 19 -14 5 -14 7 -2 16 13 8 13 10 0 20 -10 7 -11 12 -4 15 14 6
6 54 -10 55 -6 1 -19 1 -28 0 -12 -2 -18 5 -18 19 0 30 18 60 35 60 8 0 15 5
15 12 0 6 6 19 14 27 15 19 29 81 17 81 -10 0 -51 -44 -51 -56 0 -5 -14 -17
-32 -27 -31 -18 -32 -18 -56 6 -21 21 -23 31 -18 61 7 38 3 38 71 4 28 -15 31
-14 55 8 14 14 31 22 37 19 17 -6 16 3 -1 20 -11 12 -17 10 -36 -11 -13 -13
-28 -24 -34 -24 -5 0 2 12 17 28 25 26 25 30 14 64 -13 37 -11 118 3 118 5 0
6 -10 3 -22 -3 -13 -3 -20 0 -17 4 3 8 16 10 28 2 13 13 31 24 40 23 18 38 57
25 65 -5 3 -20 -1 -35 -9 -27 -14 -27 -13 -27 20 0 34 26 103 45 118 6 4 2 7
-9 5 -10 -2 -21 3 -23 10 -3 6 3 12 13 12 9 0 14 3 11 6 -3 4 -2 15 4 26 9 17
8 19 -10 13 -27 -8 -45 2 -76 45 l-25 34 0 -30 c0 -42 -13 -58 -42 -51 -24 6
-25 11 -32 108 -5 70 -4 105 4 113 15 15 163 14 182 -1 12 -11 18 -9 33 7 10
11 27 20 38 20 18 0 19 -5 12 -72 -4 -40 -11 -81 -16 -90 -15 -28 -11 -58 9
-58 14 0 15 -2 2 -10 -12 -7 -12 -12 0 -35 10 -19 11 -28 2 -37 -17 -17 -15
-27 6 -25 15 1 18 8 16 30 -4 26 -2 28 13 16 14 -12 15 -11 9 9 -7 21 -6 22
12 11 21 -13 42 -65 34 -87 -2 -6 -15 -12 -28 -12 -16 0 -23 4 -18 11 4 7 -2
9 -17 7 -20 -2 -24 -9 -25 -40 -1 -21 4 -39 10 -39 40 -5 68 -4 79 3 7 4 -3 8
-24 8 -24 0 -39 5 -43 16 -8 21 -8 24 5 24 5 0 8 -4 4 -9 -7 -12 20 -19 60
-17 19 1 30 6 30 16 0 8 7 19 15 25 15 9 20 11 40 14 6 0 10 9 10 19 0 14 2
15 10 2 7 -11 10 -11 10 -2 0 10 5 10 20 2 33 -18 23 -43 -33 -80 -28 -19 -61
-43 -72 -54 -11 -10 -35 -25 -52 -32 -18 -8 -33 -19 -33 -25 0 -7 7 -8 18 -4
9 4 34 11 55 15 32 6 37 5 35 -9 -2 -9 -21 -24 -42 -34 -31 -15 -36 -21 -25
-29 11 -7 11 -11 2 -15 -7 -2 -13 -10 -13 -15 0 -6 3 -8 6 -5 4 3 15 2 25 -4
15 -7 21 -6 25 6 3 8 13 15 21 15 8 0 11 5 8 10 -3 6 3 10 14 10 11 0 22 9 26
21 5 14 10 17 19 10 8 -7 12 -5 12 9 0 10 -4 16 -8 14 -4 -3 -5 3 -1 12 6 15
7 15 21 -2 13 -18 14 -18 7 4 -4 13 -2 22 5 22 6 0 10 6 9 13 -3 19 47 117 89
172 20 28 76 78 122 113 47 34 130 97 185 140 55 43 159 120 230 170 72 50
157 117 190 147 39 37 94 72 160 105 55 27 125 69 155 94 66 55 167 110 233
126 33 9 56 23 75 45 30 37 102 59 287 89 55 9 152 34 215 55 63 21 140 46
171 55 45 13 74 32 144 94 84 75 87 78 82 114 -5 34 -1 41 53 92 45 43 66 56
90 56 23 0 33 6 40 25 5 14 17 25 27 25 75 1 304 100 436 188 64 43 127 105
127 125 0 5 -20 7 -45 4 -25 -3 -45 -3 -45 1 0 15 31 52 44 52 13 0 136 107
136 118 0 4 -9 13 -20 20 -17 10 -24 8 -54 -19z m-156 -116 c0 -9 -52 -35 -57
-29 -2 2 -1 11 3 20 6 16 54 23 54 9z m15 -82 c-8 -13 -95 -61 -111 -61 -27 0
-13 15 39 42 54 27 82 35 72 19z m-6953 -281 c26 0 28 -2 14 -15 -8 -8 -21
-15 -29 -15 -9 0 -18 -6 -20 -12 -3 -7 -5 5 -4 27 0 22 2 34 5 27 2 -6 17 -12
34 -12z m65 -26 c-3 -3 -12 -4 -19 -1 -8 3 -5 6 6 6 11 1 17 -2 13 -5z m4933
-24 c13 -8 13 -10 -2 -10 -9 0 -20 5 -23 10 -8 13 5 13 25 0z m-4753 -52 c-3
-8 -6 -5 -6 6 -1 11 2 17 5 13 3 -3 4 -12 1 -19z m4857 -13 c-4 -8 -8 -15 -10
-15 -2 0 -4 7 -4 15 0 8 4 15 10 15 5 0 7 -7 4 -15z m576 -12 c0 -10 -4 -14
-8 -8 -4 6 -11 13 -16 18 -5 4 -2 7 7 7 10 0 17 -8 17 -17z m-5342 -24 c-18
-12 -25 -11 -31 4 -4 10 2 13 20 9 18 -3 21 -7 11 -13z m4182 -53 c0 -15 -28
-41 -36 -34 -2 3 1 17 7 31 12 26 29 28 29 3z m-535 -14 c-3 -3 -11 0 -18 7
-9 10 -8 11 6 5 10 -3 15 -9 12 -12z m-3610 -31 c-6 -5 -25 10 -25 20 0 5 6 4
14 -3 8 -7 12 -15 11 -17z m41 -18 c-10 -10 -19 5 -10 18 6 11 8 11 12 0 2 -7
1 -15 -2 -18z m3364 -233 c0 -5 -5 -10 -11 -10 -5 0 -7 5 -4 10 3 6 8 10 11
10 2 0 4 -4 4 -10z m-496 -71 c10 -62 -6 -178 -26 -191 -15 -10 -76 -1 -133
19 -26 9 -41 10 -43 3 -2 -5 -34 -10 -74 -10 -80 0 -91 19 -20 34 51 11 53 21
7 37 -19 7 -35 19 -35 27 0 19 89 8 162 -19 29 -12 59 -21 67 -22 17 -2 49 83
50 134 2 72 33 64 45 -12z m-134 37 c0 -8 -4 -17 -9 -21 -6 -3 -9 4 -8 15 1
23 17 28 17 6z m453 -88 c12 -6 31 -12 41 -13 33 -3 44 -32 44 -108 -1 -40 5
-103 12 -142 7 -38 12 -83 11 -98 -2 -31 -38 -108 -67 -144 l-18 -21 -64 56
c-70 61 -79 77 -93 167 -11 64 -34 144 -54 185 -20 40 -7 89 29 111 36 22 125
26 159 7z m-900 -93 c37 0 67 -3 67 -7 0 -3 9 -4 20 -1 11 3 20 0 20 -6 0 -6
-8 -12 -17 -12 -10 -1 -31 -3 -48 -5 -16 -2 -38 -5 -47 -6 -9 -1 -14 -6 -12
-10 3 -4 41 -8 85 -8 43 0 79 -4 79 -9 0 -14 -29 -20 -95 -19 -68 0 -97 11
-89 33 5 11 -2 15 -27 16 -19 1 -39 1 -45 0 -16 -2 -37 26 -29 39 5 7 18 8 38
3 18 -4 62 -8 100 -8z m67 -137 c69 1 127 2 130 2 24 7 97 -4 106 -16 10 -13
12 -13 18 1 3 8 17 15 31 15 27 0 32 -9 14 -27 -14 -14 -4 -46 13 -41 7 3 15
15 18 27 8 33 25 30 28 -6 4 -36 -9 -42 -75 -33 -23 4 -49 3 -57 -2 -9 -5 -26
-6 -38 -2 -11 3 -90 6 -174 6 -87 -1 -156 3 -159 8 -4 6 -14 10 -23 10 -19 0
-56 53 -45 64 4 4 26 4 48 0 22 -4 96 -7 165 -6z m9 -429 c18 -6 30 -16 28
-23 -4 -12 -18 -12 -134 0 -63 6 -73 4 -79 -10 -9 -24 -1 -28 64 -37 89 -12
142 -30 157 -53 35 -53 -26 -100 -130 -100 -78 -1 -175 21 -175 39 0 24 16 26
79 9 83 -21 135 -16 139 13 4 24 7 23 -108 42 -66 11 -114 37 -116 62 0 18 26
49 51 60 30 12 187 11 224 -2z m141 -39 c0 -35 2 -38 38 -44 71 -11 75 -10 70
29 -3 31 -1 36 20 42 41 10 53 -14 54 -116 2 -97 -5 -114 -43 -104 -15 4 -19
15 -19 48 0 40 -2 43 -31 49 -17 3 -45 6 -61 6 -27 0 -29 -2 -23 -33 8 -39
-11 -60 -47 -55 -22 3 -23 7 -26 110 -3 104 -2 107 20 110 38 6 48 -2 48 -42z
m430 -22 c53 -71 92 -151 77 -160 -25 -16 -56 -7 -77 22 -20 28 -26 30 -81 30
-46 0 -63 -4 -79 -20 -11 -11 -20 -24 -20 -30 0 -5 -12 -10 -26 -10 -23 0 -25
3 -20 24 9 37 78 180 90 189 6 4 31 6 56 5 40 -3 48 -8 80 -50z m418 -131 c2
-10 -3 -17 -12 -17 -10 0 -16 9 -16 21 0 24 23 21 28 -4z m82 -27 c0 -5 -5
-10 -11 -10 -5 0 -7 5 -4 10 3 6 8 10 11 10 2 0 4 -4 4 -10z m16 -60 c8 0 14
-5 14 -12 0 -6 -3 -8 -7 -5 -3 4 -12 2 -19 -4 -18 -15 -44 -4 -44 19 0 27 10
33 27 17 8 -8 21 -15 29 -15z m112 -35 c-3 -3 -9 2 -12 12 -6 14 -5 15 5 6 7
-7 10 -15 7 -18z m-191 -41 c-3 -3 -12 -4 -19 -1 -8 3 -5 6 6 6 11 1 17 -2 13
-5z m-2230 -136 c-3 -8 -6 -5 -6 6 -1 11 2 17 5 13 3 -3 4 -12 1 -19z m69
-105 c-10 -10 -19 5 -10 18 6 11 8 11 12 0 2 -7 1 -15 -2 -18z m-17 -246 c0
-9 -2 -8 -6 1 -2 6 -10 9 -15 6 -7 -4 -8 -2 -4 5 9 13 26 5 25 -12z m1981
-337 c0 -5 -4 -10 -10 -10 -5 0 -10 5 -10 10 0 6 5 10 10 10 6 0 10 -4 10 -10z
m104 -40 c-4 -20 -2 -30 5 -30 8 0 5 -10 -7 -27 -11 -16 -22 -38 -26 -50 -11
-36 -33 -17 -33 29 0 33 6 49 31 75 17 18 32 33 33 33 1 0 0 -13 -3 -30z m-50
-225 c-15 -13 -33 -21 -41 -18 -7 3 -13 -2 -13 -11 0 -20 -49 -22 -69 -3 -11
10 -13 9 -9 -3 8 -21 -18 -45 -26 -24 -9 23 -7 36 4 29 6 -3 10 1 10 10 0 23
48 39 68 23 12 -10 14 -10 8 -1 -5 10 -1 11 19 3 31 -12 52 4 59 42 7 35 9 36
13 5 3 -22 -2 -34 -23 -52z m100 19 c20 -8 21 -34 1 -34 -8 0 -15 2 -15 4 0 2
-3 11 -6 20 -7 18 -4 19 20 10z m-72 -66 c-6 -6 -15 -8 -19 -4 -4 4 -1 11 7
16 19 12 27 3 12 -12z m-40 -10 c-17 -17 -82 -38 -82 -26 0 5 9 12 20 15 11 3
20 9 20 14 0 5 12 9 27 9 21 0 24 -3 15 -12z m-127 -28 c7 0 15 3 18 8 2 4 3
2 1 -4 -1 -6 3 -17 9 -23 6 -6 9 -11 7 -12 -3 0 -18 -2 -34 -4 -16 -2 -33 -10
-37 -17 -7 -10 -9 -10 -9 -1 0 9 -7 10 -25 3 -15 -6 -25 -6 -25 0 0 11 29 40
40 40 4 0 11 10 14 23 6 20 7 20 17 5 5 -10 16 -18 24 -18z m165 -30 c0 -5 7
-10 16 -10 14 0 14 -2 0 -22 -11 -16 -13 -25 -4 -35 6 -7 6 -13 1 -13 -13 0
-38 33 -37 50 2 34 4 40 14 40 6 0 10 -4 10 -10z m-347 -150 c4 0 7 -7 7 -15
0 -8 5 -15 11 -15 5 0 7 -5 3 -12 -6 -9 -9 -9 -12 0 -2 7 -8 10 -13 6 -5 -3
-9 2 -9 11 0 9 -4 13 -10 10 -5 -3 -10 -1 -10 4 0 6 -6 11 -12 11 -14 0 -49
55 -41 64 3 3 22 -10 42 -29 20 -19 39 -35 44 -35z m-1483 -130 c0 -5 -4 -10
-9 -10 -6 0 -13 5 -16 10 -3 6 1 10 9 10 9 0 16 -4 16 -10z m388 -76 c12 -8
26 -12 32 -9 6 3 7 -1 4 -9 -3 -9 -11 -13 -17 -9 -6 4 -8 0 -4 -11 4 -10 3
-15 -3 -11 -6 3 -10 14 -10 23 0 11 -3 13 -8 6 -5 -9 -11 -8 -20 2 -10 11 -10
14 0 14 9 0 9 3 -2 10 -8 5 -10 10 -5 10 6 0 21 -7 33 -16z m1232 -44 c13 -7
33 -21 44 -31 11 -11 23 -19 27 -19 8 0 42 -70 37 -75 -2 -3 -17 5 -33 15 -17
11 -39 25 -50 32 -10 7 -25 19 -33 26 -7 6 -20 12 -28 12 -9 0 -12 5 -8 12 5
7 3 8 -5 3 -15 -9 -105 15 -94 25 22 21 104 21 143 0z m-1690 -40 c0 -5 -2
-10 -4 -10 -3 0 -8 5 -11 10 -3 6 -1 10 4 10 6 0 11 -4 11 -10z m57 -22 c-3
-8 -6 -5 -6 6 -1 11 2 17 5 13 3 -3 4 -12 1 -19z m163 2 c0 -4 -8 -7 -17 -5
-10 2 -22 4 -28 5 -5 1 -1 5 10 9 21 9 35 5 35 -9z m17 -2 c-3 -8 -6 -5 -6 6
-1 11 2 17 5 13 3 -3 4 -12 1 -19z m28 2 c3 -5 1 -10 -4 -10 -6 0 -11 5 -11
10 0 6 2 10 4 10 3 0 8 -4 11 -10z m32 -22 c-3 -8 -6 -5 -6 6 -1 11 2 17 5 13
3 -3 4 -12 1 -19z m-197 -22 c0 -2 -9 -6 -20 -9 -11 -3 -20 -1 -20 4 0 5 9 9
20 9 11 0 20 -2 20 -4z m1237 -168 c-3 -8 -6 -5 -6 6 -1 11 2 17 5 13 3 -3 4
-12 1 -19z m-1122 -38 c3 -5 1 -10 -4 -10 -6 0 -11 5 -11 10 0 6 2 10 4 10 3
0 8 -4 11 -10z m1155 -30 c0 -5 -4 -10 -10 -10 -5 0 -10 5 -10 10 0 6 5 10 10
10 6 0 10 -4 10 -10z m58 -43 c2 -10 -1 -17 -7 -17 -6 0 -11 5 -11 10 0 6 -10
15 -22 20 -21 8 -20 9 7 6 18 -1 31 -9 33 -19z m414 -6 c7 -10 29 -28 48 -38
43 -24 70 -67 53 -84 -14 -14 -63 -4 -63 13 0 7 -18 38 -41 70 -28 40 -36 58
-25 58 8 0 21 -9 28 -19z m-326 -4 c8 3 14 1 14 -5 0 -6 -6 -12 -12 -15 -8 -3
-6 -8 7 -13 11 -4 25 -14 31 -22 6 -8 17 -12 25 -9 10 4 9 6 -4 6 -14 1 -17 6
-12 22 5 15 4 19 -4 15 -6 -4 -11 -3 -11 3 0 5 5 13 10 16 13 8 42 -14 35 -25
-3 -5 3 -11 14 -15 11 -3 27 -18 36 -32 10 -14 33 -42 52 -60 19 -20 31 -39
26 -46 -4 -8 -1 -8 9 1 19 15 23 10 33 -36 4 -20 15 -37 28 -42 35 -14 71 -47
60 -53 -30 -18 -143 1 -143 24 0 6 -9 8 -19 4 -25 -8 -84 50 -76 75 3 10 -1
25 -10 33 -8 9 -15 20 -15 25 0 21 -28 63 -33 50 -3 -10 -9 -10 -23 -2 -26 15
-56 77 -47 100 4 10 8 13 10 7 3 -7 11 -9 19 -6z m-1256 -36 c0 -4 -10 -7 -22
-5 -13 1 -26 3 -30 3 -5 1 -8 5 -8 9 0 5 14 7 30 4 17 -2 30 -8 30 -11z m1180
9 c0 -5 -2 -10 -4 -10 -3 0 -8 5 -11 10 -3 6 -1 10 4 10 6 0 11 -4 11 -10z
m-689 -36 c9 -8 15 -23 12 -34 -5 -18 -45 -28 -138 -32 -16 -1 -36 -6 -42 -11
-9 -6 -15 -4 -19 6 -3 9 -12 13 -20 10 -8 -3 -11 -9 -8 -14 3 -5 10 -7 15 -4
5 4 9 1 9 -4 0 -6 -11 -11 -24 -11 -14 0 -28 -5 -32 -11 -4 -8 -9 -7 -15 2 -7
11 -11 11 -17 2 -13 -20 -90 -44 -78 -24 3 5 -3 11 -14 14 -18 5 -43 46 -34
56 2 2 47 14 100 27 73 18 101 21 111 12 10 -8 25 -6 58 6 24 10 48 15 52 13
5 -2 17 -1 28 4 29 11 37 11 56 -7z m-469 -79 c3 -14 1 -25 -3 -25 -5 0 -9 11
-9 25 0 14 2 25 4 25 2 0 6 -11 8 -25z m-27 -43 c3 -7 15 -13 27 -12 38 3 50
1 43 -10 -8 -13 -47 -13 -77 -1 -13 6 -40 12 -61 16 -21 3 -35 10 -32 15 9 15
94 8 100 -8z m-115 -22 c0 -5 -4 -10 -10 -10 -5 0 -10 5 -10 10 0 6 5 10 10
10 6 0 10 -4 10 -10z m1876 -62 c5 -7 3 -8 -6 -3 -10 6 -12 4 -7 -7 4 -12 1
-14 -13 -11 -15 4 -16 8 -7 19 15 17 24 17 33 2z m-1846 -13 c6 -8 9 -19 5
-25 -7 -11 -34 15 -35 33 0 12 17 8 30 -8z m170 -44 c0 -5 16 -12 35 -15 19
-4 41 -14 50 -22 10 -11 24 -14 41 -10 21 6 25 3 22 -11 -3 -14 -12 -17 -52
-14 -26 1 -63 11 -81 21 -18 10 -36 16 -39 13 -3 -4 -6 1 -6 10 0 10 -4 17
-10 17 -5 0 -10 5 -10 10 0 6 11 10 25 10 14 0 25 -4 25 -9z m641 -11 c13 -7
19 -7 19 0 0 5 5 10 11 10 5 0 7 -6 3 -12 -5 -9 -2 -9 9 1 15 12 17 11 18 -5
0 -11 3 -14 6 -6 8 21 23 13 23 -12 0 -15 7 -26 20 -29 13 -3 20 -14 20 -31 0
-20 -4 -24 -17 -20 -15 5 -16 4 -3 -5 8 -6 23 -11 33 -11 11 0 15 -5 11 -11
-3 -6 -16 -8 -28 -4 -19 5 -33 8 -86 20 -8 2 -19 4 -24 4 -6 1 -2 7 9 14 12
10 14 16 7 21 -7 4 -16 4 -22 1 -5 -3 -10 -2 -10 3 0 5 -9 12 -19 15 -15 3
-19 13 -19 36 1 33 8 37 39 21z m-461 -50 c0 -5 -5 -10 -11 -10 -5 0 -7 5 -4
10 3 6 8 10 11 10 2 0 4 -4 4 -10z m607 -32 c-3 -8 -6 -5 -6 6 -1 11 2 17 5
13 3 -3 4 -12 1 -19z m31 -13 c-3 -3 -9 2 -12 12 -6 14 -5 15 5 6 7 -7 10 -15
7 -18z m-178 -5 c0 -5 -2 -10 -4 -10 -3 0 -8 5 -11 10 -3 6 -1 10 4 10 6 0 11
-4 11 -10z m389 -30 c0 -10 -3 -8 -9 5 -12 27 -12 43 0 25 5 -8 9 -22 9 -30z
m-55 18 c-3 -4 -20 -8 -37 -8 -24 0 -28 3 -17 10 18 11 61 9 54 -2z m-89 -37
c-3 -6 -16 -11 -28 -11 -21 0 -21 1 3 13 27 15 36 14 25 -2z m490 -1 c3 -5 1
-10 -4 -10 -6 0 -11 5 -11 10 0 6 2 10 4 10 3 0 8 -4 11 -10z m-450 -10 c-3
-5 -11 -10 -16 -10 -6 0 -7 5 -4 10 3 6 11 10 16 10 6 0 7 -4 4 -10z m595 -24
c0 -3 -4 -8 -10 -11 -5 -3 -10 -1 -10 4 0 6 5 11 10 11 6 0 10 -2 10 -4z
m-310 -26 c-8 -5 -18 -6 -24 -3 -5 4 -1 10 10 13 24 9 34 2 14 -10z m150 -42
c0 -4 -6 -8 -14 -8 -8 0 -22 -3 -32 -7 -16 -6 -16 -5 -5 8 15 15 51 20 51 7z"/>
<path d="M1498 9333 c7 -3 16 -2 19 1 4 3 -2 6 -13 5 -11 0 -14 -3 -6 -6z"/>
<path d="M4750 7974 c-14 -35 -14 -34 25 -34 39 0 42 6 19 38 -20 29 -32 28
-44 -4z"/>
<path d="M4320 5290 c0 -5 5 -10 11 -10 5 0 7 5 4 10 -3 6 -8 10 -11 10 -2 0
-4 -4 -4 -10z"/>
<path d="M65 9810 c-7 -12 2 -30 16 -30 5 0 9 9 9 20 0 21 -15 27 -25 10z"/>
<path d="M8188 9813 c7 -3 16 -2 19 1 4 3 -2 6 -13 5 -11 0 -14 -3 -6 -6z"/>
<path d="M4614 9793 c3 -6 -4 -13 -15 -15 -31 -5 -55 -51 -44 -84 14 -38 67
-61 154 -67 l73 -6 -5 26 c-2 14 3 39 12 55 15 27 15 30 -4 41 -11 7 -39 14
-63 17 -54 6 -55 24 -2 28 72 6 42 22 -35 20 -53 -2 -74 -6 -71 -15z"/>
<path d="M214 9735 c-16 -13 -17 -16 -4 -25 8 -5 23 -10 33 -10 15 0 16 3 6
23 -6 12 -13 23 -14 24 -1 2 -10 -4 -21 -12z"/>
<path d="M4017 9679 c6 -6 26 -13 45 -15 38 -4 21 9 -27 20 -23 6 -27 5 -18
-5z"/>
<path d="M4124 9675 c3 -9 6 -23 6 -31 0 -8 9 -14 20 -14 27 0 25 8 -6 37 -18
17 -25 19 -20 8z"/>
<path d="M714 9486 c-3 -8 -3 -19 0 -24 8 -13 46 -22 46 -11 0 5 -4 9 -10 9
-5 0 -10 6 -10 14 0 21 -19 30 -26 12z"/>
<path d="M796 9420 c-11 -3 -15 -9 -10 -13 10 -6 42 9 34 16 -3 3 -14 1 -24
-3z"/>
<path d="M4270 9340 c0 -5 7 -10 16 -10 8 0 12 5 9 10 -3 6 -10 10 -16 10 -5
0 -9 -4 -9 -10z"/>
<path d="M4300 9311 c0 -6 -8 -8 -17 -5 -15 5 -15 4 -3 -4 8 -6 17 -9 21 -6 4
2 10 -7 13 -21 6 -24 42 -52 54 -41 3 3 0 6 -6 6 -7 0 -12 8 -12 18 0 9 -12
28 -25 41 -14 13 -25 18 -25 12z"/>
<path d="M3917 9256 c-7 -18 48 -103 76 -118 21 -11 21 -11 4 13 -17 23 -37
64 -50 102 -8 21 -23 22 -30 3z"/>
<path d="M4376 9102 c-3 -6 -1 -14 5 -17 15 -10 25 3 12 16 -7 7 -13 7 -17 1z"/>
<path d="M4656 9065 c-3 -8 -1 -17 3 -20 5 -3 11 2 15 10 3 8 1 17 -3 20 -5 3
-11 -2 -15 -10z"/>
<path d="M5037 8027 c-6 -16 3 -67 12 -67 45 1 73 38 51 65 -15 19 -56 19 -63
2z"/>
<path d="M5135 7930 c-7 -12 2 -30 16 -30 12 0 12 27 0 35 -5 3 -12 1 -16 -5z"/>
<path d="M5263 7635 c0 -8 4 -15 9 -15 4 0 8 7 8 15 0 8 -4 15 -8 15 -5 0 -9
-7 -9 -15z"/>
<path d="M5298 7463 c7 -3 16 -2 19 1 4 3 -2 6 -13 5 -11 0 -14 -3 -6 -6z"/>
<path d="M5370 7379 c0 -6 -9 -23 -20 -39 -11 -15 -17 -30 -13 -33 3 -3 -4
-24 -16 -47 -11 -22 -16 -40 -11 -40 10 0 80 139 80 159 0 6 -4 11 -10 11 -5
0 -10 -5 -10 -11z"/>
<path d="M5000 7318 c0 -11 12 -10 30 2 12 7 10 9 -8 7 -12 0 -22 -5 -22 -9z"/>
<path d="M5244 7232 c4 -7 1 -12 -7 -12 -10 0 -16 -16 -20 -52 -2 -29 -3 -55
-2 -57 2 -1 14 7 27 19 20 19 21 20 3 14 -18 -7 -18 -6 -6 9 18 22 24 74 9 83
-7 4 -8 3 -4 -4z"/>
<path d="M5213 6319 c-3 -10 -14 -21 -25 -25 -16 -5 -18 -8 -7 -15 10 -6 8 -9
-8 -9 -22 0 -30 -10 -17 -23 8 -8 55 14 49 23 -3 5 2 10 10 14 25 9 17 -20
-10 -34 -30 -16 -32 -30 -5 -30 13 0 20 -7 20 -19 0 -20 32 -33 57 -24 11 4
13 14 9 37 -4 17 -9 52 -12 77 -6 41 -9 47 -31 47 -16 0 -27 -7 -30 -19z m37
-14 c9 -10 9 -15 1 -15 -6 0 -11 5 -11 11 0 5 -4 7 -10 4 -5 -3 -10 -1 -10 4
0 16 16 13 30 -4z"/>
<path d="M5283 5278 c-25 -12 -31 -28 -10 -28 14 1 47 24 47 34 0 8 -11 7 -37
-6z"/>
<path d="M5205 5244 c-18 -14 -18 -14 1 -14 10 0 25 4 32 9 11 7 11 9 0 13 -8
3 -22 0 -33 -8z"/>
<path d="M5238 5203 c7 -3 16 -2 19 1 4 3 -2 6 -13 5 -11 0 -14 -3 -6 -6z"/>
<path d="M3330 5083 c-7 -54 -18 -116 -25 -138 -7 -22 -16 -52 -19 -68 -6 -26
-5 -27 21 -21 59 14 58 12 57 151 -2 167 -2 173 -13 173 -5 0 -14 -44 -21 -97z"/>
<path d="M4890 5099 c0 -5 5 -7 10 -4 6 3 10 8 10 11 0 2 -4 4 -10 4 -5 0 -10
-5 -10 -11z"/>
<path d="M2508 4460 c-45 -13 -119 -81 -112 -103 7 -23 -12 -46 -53 -64 -18
-7 -40 -25 -50 -41 -10 -15 -20 -29 -23 -32 -3 -3 -11 -18 -19 -33 -8 -15 -20
-26 -27 -23 -14 5 -23 -33 -14 -59 6 -17 7 -17 12 3 7 26 23 29 32 6 4 -12 2
-15 -9 -10 -9 3 -15 0 -15 -9 0 -8 -7 -15 -15 -15 -8 0 -15 -9 -15 -20 0 -11
5 -20 11 -20 6 0 9 7 5 15 -3 8 -1 15 4 15 6 0 10 -4 10 -10 0 -5 7 -7 15 -4
22 9 45 -3 39 -20 -3 -8 -14 -13 -25 -11 -10 2 -21 -1 -25 -6 -3 -5 -14 -7
-25 -4 -25 8 -24 -9 2 -26 21 -14 21 -14 -9 -44 -53 -55 -96 -85 -104 -72 -4
7 -14 3 -30 -14 -13 -14 -31 -28 -41 -32 -14 -5 -17 -1 -17 26 0 18 9 46 19
64 20 31 20 31 -2 46 -21 14 -21 15 -4 34 41 46 10 36 -80 -24 l-51 -35 -31
18 c-31 18 -54 13 -33 -8 7 -7 12 -23 12 -36 0 -21 3 -23 30 -17 45 10 39 -18
-12 -55 -45 -33 -74 -39 -64 -15 3 8 1 15 -4 15 -13 0 -60 -71 -60 -90 0 -9
-5 -21 -12 -28 -13 -13 -20 -49 -22 -111 -1 -36 3 -47 26 -64 14 -11 48 -22
75 -24 43 -4 59 1 147 46 91 46 106 51 165 51 39 -1 87 -8 116 -19 28 -11 70
-26 94 -35 40 -15 45 -15 68 -1 42 28 62 16 89 -49 29 -72 55 -102 109 -127
54 -25 78 -24 113 6 21 18 35 43 47 90 10 36 22 65 26 65 5 0 9 4 9 9 0 9 -58
35 -72 32 -5 0 -8 2 -8 7 -1 26 -17 32 -49 16 -37 -18 -107 -15 -176 8 -45 15
-52 32 -54 118 -1 87 15 128 78 193 56 58 99 79 163 80 15 0 25 4 22 8 -3 5
-11 9 -17 9 -7 0 -20 9 -30 20 -21 25 -16 67 12 86 11 8 26 20 33 28 8 7 27
20 43 29 20 11 24 16 13 17 -21 0 -69 40 -63 50 3 5 -2 10 -10 14 -8 3 -15 10
-15 15 0 6 8 7 17 4 13 -5 15 -3 8 13 -4 10 -7 27 -7 37 1 28 -43 100 -69 114
-27 14 -52 15 -91 3z m-13 -410 c-3 -5 -12 -10 -18 -10 -7 0 -6 4 3 10 19 12
23 12 15 0z m-170 -10 c3 -6 -1 -7 -9 -4 -18 7 -21 14 -7 14 6 0 13 -4 16 -10z
m114 -41 c-19 -12 -24 -2 -8 17 9 11 14 13 17 4 3 -7 -2 -16 -9 -21z m-465
-134 c-11 -21 -27 -35 -43 -38 -14 -3 -27 -4 -29 -2 -8 7 23 52 52 77 25 21
32 23 34 11 2 -8 -4 -30 -14 -48z m693 -337 c18 -7 33 -16 33 -20 0 -12 -28
-10 -35 2 -4 6 -10 8 -15 5 -4 -3 -13 2 -20 10 -15 18 -7 19 37 3z m50 -80
c-3 -7 -5 -2 -5 12 0 14 2 19 5 13 2 -7 2 -19 0 -25z m-19 -20 c-3 -7 -13 -15
-23 -16 -15 -4 -16 -2 -4 12 17 19 32 21 27 4z"/>
<path d="M3523 4283 c-10 -15 -31 -40 -48 -55 l-30 -27 28 -1 c15 0 27 4 27 8
0 5 11 15 25 22 18 10 24 19 19 32 -3 11 0 25 6 33 9 10 9 15 1 15 -6 0 -19
-12 -28 -27z"/>
<path d="M3882 4248 c-13 -13 -16 -38 -6 -38 8 0 33 32 34 43 0 11 -15 8 -28
-5z"/>
<path d="M3830 4195 c0 -5 5 -17 10 -25 5 -8 10 -10 10 -5 0 6 -5 17 -10 25
-5 8 -10 11 -10 5z"/>
<path d="M3861 4140 c0 -8 4 -22 9 -30 12 -18 12 -2 0 25 -6 13 -9 15 -9 5z"/>
<path d="M2718 4133 c-16 -2 -28 -8 -28 -13 0 -4 -8 -7 -17 -6 -23 1 -29 -32
-8 -40 9 -4 20 -2 24 3 8 13 54 38 64 35 4 -1 7 5 7 13 0 8 -3 14 -7 14 -5 -1
-20 -4 -35 -6z"/>
<path d="M3877 4076 c-3 -8 1 -20 8 -26 8 -7 13 -17 12 -22 -1 -6 3 -12 10
-15 14 -5 9 32 -7 51 -5 7 -7 16 -3 19 3 4 2 7 -4 7 -6 0 -13 -6 -16 -14z"/>
<path d="M3775 3110 c3 -5 8 -10 11 -10 2 0 4 5 4 10 0 6 -5 10 -11 10 -5 0
-7 -4 -4 -10z"/>
<path d="M3806 3074 c4 -10 10 -23 13 -29 3 -5 6 -14 6 -20 1 -5 6 -9 13 -7 7
1 12 -2 12 -6 0 -5 11 -14 25 -20 35 -16 31 -1 -5 23 -17 11 -33 27 -35 37 -3
9 -12 22 -21 29 -12 10 -13 9 -8 -7z"/>
<path d="M4036 2956 c3 -8 17 -22 31 -32 l26 -17 -22 32 c-23 32 -45 42 -35
17z"/>
<path d="M4182 2871 c2 -14 9 -26 16 -29 17 -5 15 10 -3 34 -15 18 -15 18 -13
-5z"/>
<path d="M4594 2695 c-3 -8 -3 -19 1 -25 11 -18 25 -11 25 15 0 27 -17 34 -26
10z"/>
<path d="M4655 2702 c-3 -3 -5 -13 -5 -23 0 -21 18 -27 83 -28 41 -1 47 2 47
19 0 16 -5 19 -30 14 -18 -4 -30 -2 -30 4 0 10 -56 22 -65 14z"/>
<path d="M4796 2675 c-3 -9 1 -18 10 -22 19 -7 28 2 21 22 -8 19 -23 19 -31 0z"/>
<path d="M5362 1206 c-31 -91 -56 -144 -91 -185 -30 -36 -51 -35 -51 2 -1 12
-20 43 -45 70 -32 35 -50 47 -72 47 -51 0 -73 -12 -103 -54 -17 -22 -75 -87
-131 -142 -80 -81 -101 -109 -106 -138 -6 -41 6 -62 52 -83 17 -8 45 -25 64
-38 19 -14 47 -25 62 -25 16 0 29 -5 29 -10 0 -15 -49 -112 -68 -132 -8 -10
-12 -18 -9 -18 3 0 -1 -16 -9 -35 -20 -49 -19 -52 23 -52 42 0 75 23 53 37 -8
5 -10 14 -5 26 5 11 9 22 9 25 1 3 9 14 19 24 10 9 16 24 13 31 -3 7 -1 16 3
19 5 2 12 20 15 39 7 35 40 56 50 31 2 -7 18 -16 34 -20 40 -8 72 -53 60 -84
-7 -20 -6 -22 9 -15 10 4 40 7 66 6 32 -2 53 2 63 13 9 8 24 15 35 15 10 0 19
6 19 13 0 7 14 23 30 36 33 24 90 36 90 19 0 -5 7 -8 15 -4 11 4 15 -2 15 -20
0 -21 3 -23 19 -15 14 8 20 7 24 -3 8 -20 -18 -40 -42 -33 -12 3 -27 -3 -37
-14 -20 -23 -38 -25 -30 -4 8 22 3 19 -40 -20 -20 -19 -40 -33 -42 -30 -2 2
-19 -7 -37 -20 -22 -17 -45 -25 -73 -25 -22 0 -43 -4 -46 -9 -3 -5 -20 -11
-38 -13 -18 -3 -41 -8 -50 -12 -14 -7 -16 -3 -12 21 3 15 9 30 15 31 5 2 9 8
9 13 0 14 -28 11 -33 -3 -4 -10 -8 -9 -16 2 -6 8 -11 11 -11 6 0 -6 -6 -2 -12
7 -18 23 -58 12 -53 -14 2 -10 -1 -19 -6 -19 -6 0 -8 -4 -5 -9 3 -5 -1 -12 -9
-15 -12 -4 -13 -10 -5 -25 13 -25 13 -31 0 -31 -5 0 -10 8 -10 18 0 12 -4 10
-13 -8 -8 -15 -20 -24 -31 -22 -33 6 -45 -15 -34 -60 24 -107 81 -188 133
-188 12 0 26 -7 29 -16 9 -24 49 -13 64 18 18 39 85 57 125 34 27 -15 28 -15
22 5 -11 33 68 101 96 83 6 -4 21 5 33 20 11 15 48 37 81 51 44 17 60 29 61
44 1 10 4 27 8 36 6 17 6 17 -41 -2 -7 -3 -13 -1 -13 4 0 12 81 53 104 53 9 0
16 -6 15 -12 -1 -7 1 -21 6 -31 4 -9 5 -29 2 -43 -4 -22 -1 -25 22 -22 18 2
27 10 29 25 4 26 71 83 97 83 17 0 17 1 0 20 -17 19 -17 21 9 60 l27 40 -23 9
-23 8 25 8 c22 7 23 8 6 21 -11 7 -15 18 -10 25 4 7 3 10 -4 5 -6 -3 -13 -2
-17 4 -3 5 -1 10 4 10 6 0 11 6 11 14 0 22 -60 41 -135 42 -96 2 -90 0 -132
38 -47 41 -75 56 -105 56 -35 0 -68 27 -68 56 0 14 20 64 45 111 25 47 45 95
45 107 0 13 11 44 24 69 23 46 23 47 2 42 -31 -8 -44 6 -48 50 l-3 40 -23 -69z
m-32 -226 c-10 -19 -40 -28 -40 -12 0 13 23 32 37 32 11 0 11 -5 3 -20z m-240
-266 c0 -17 -28 -32 -63 -32 -34 1 -46 17 -23 34 24 17 86 16 86 -2z m175
-133 c-8 -13 -35 -15 -35 -2 0 5 8 11 18 13 21 5 26 2 17 -11z m-247 -247 c6
-2 12 -8 12 -14 0 -17 -36 -11 -61 10 l-24 20 30 -6 c17 -3 36 -7 43 -10z m77
-14 c4 -6 -7 -10 -25 -10 -18 0 -29 4 -25 10 3 6 15 10 25 10 10 0 22 -4 25
-10z m225 -70 c-8 -5 -22 -10 -30 -10 -13 0 -13 1 0 10 8 5 22 10 30 10 13 0
13 -1 0 -10z"/>
</g>
</svg>
